<svg width="60" height="60" viewBox="0 0 60 60" fill="none" xmlns="http://www.w3.org/2000/svg">
<g clip-path="url(#clip0)">
<path fill-rule="evenodd" clip-rule="evenodd" d="M31 60C47.5685 60 61 46.5685 61 30H1C1 46.5685 14.4315 60 31 60Z" fill="#646464"/>
<path fill-rule="evenodd" clip-rule="evenodd" d="M61 30C61 13.4315 47.5685 0 31 0C14.4315 0 1 13.4315 1 30H61Z" fill="#454545"/>
<path fill-rule="evenodd" clip-rule="evenodd" d="M45.011 31.1679V31.332V31.3772C45.011 33.7126 43.9905 35.9314 42.2173 37.4512L40.6656 38.7813V46.2305V46.8195C39.805 47.4899 38.8391 48.1113 37.7686 48.6849V37.505L42.114 34.0877V32.5722L31.8231 33.9181C30.9622 34.0307 30.0904 34.0307 29.2295 33.9181L18.9386 32.5722V34.0877L23.284 37.505V48.6562C22.2056 48.0656 21.2403 47.4245 20.387 46.7317V46.2292V38.7799L18.8696 37.4792C17.1884 36.0382 16.1756 33.9765 16.054 31.7785C17.6685 25.4904 22.5466 19.1041 30.236 16.3079C37.6766 19.0136 43.0114 25.0808 45.011 31.1679Z" fill="#F5F5F5"/>
<path d="M30.9233 22.5657L30.9233 22.5658L30.9276 22.5657L33.8484 22.494V25.3626V25.3835L33.8568 25.4027L35.5614 29.3074L30.4721 32.7003L25.3828 29.3074L27.0874 25.4027L27.0958 25.3835V25.3626V22.4934L30.9233 22.5657Z" fill="#FF5F5F" stroke="#C56D6D" stroke-width="0.2"/>
<path d="M23.8637 37.3664L28.9416 36.5513C29.9916 36.3827 31.0618 36.3827 32.1117 36.5513L37.1896 37.3664V47.6982C37.1896 47.9155 37.0493 48.1078 36.8425 48.1743L30.5267 50.2021L24.2109 48.1743C24.004 48.1078 23.8637 47.9155 23.8637 47.6982V37.3664Z" fill="white"/>
<path d="M33.2925 43.3663L34.6907 46.0559L33.3848 49.9992C33.3117 50.2197 33.1563 50.4034 32.9509 50.512L30.4619 51.8271L27.973 50.512C27.7676 50.4034 27.6121 50.2197 27.5391 49.9992L26.2332 46.0559L27.6314 43.3663L30.4619 43.3663L33.2925 43.3663Z" fill="#FF5F5F" stroke="#646464" stroke-width="0.2"/>
<path d="M27.8615 38.2832L30.5082 38.0367C30.5205 38.0355 30.5329 38.0355 30.5453 38.0367L33.1919 38.2832" stroke="#454545" stroke-width="0.4"/>
<path d="M27.8615 40.0214L30.5082 39.7748C30.5205 39.7736 30.5329 39.7736 30.5453 39.7748L33.1919 40.0214" stroke="#454545" stroke-width="0.4"/>
<path d="M30.5296 35.8226L30.5297 35.8219L30.5214 35.8228L23.2995 36.5925L19.6235 33.6654V33.4569L28.8838 34.6815C29.9741 34.8257 31.079 34.8199 32.1677 34.6644L40.616 33.4575L40.6159 33.6672L37.7511 36.2456L30.5296 35.8226Z" fill="#D24343" stroke="#C56D6D" stroke-width="0.1"/>
<path d="M19.808 39.2259L19.808 47.5949L17.2008 46.7258L15.5531 35.1918C15.4928 34.7702 15.4626 34.3449 15.4626 33.919V31.9514H15.6364L16.113 34.3342C16.2561 35.0496 16.5921 35.7122 17.0846 36.2504L19.808 39.2259Z" fill="#F5F5F5"/>
<path d="M17.7222 41.5113H19.4604V43.2494H18.2481L17.7222 41.5113Z" fill="#454545"/>
<path d="M17.2008 37.1658L18.0699 38.0349L19.4604 39.2567V41.1636H17.7223L17.2008 37.1658Z" fill="#454545"/>
<path d="M18.2481 43.597H19.4604V45.3352H18.5913L18.2481 43.597Z" fill="#454545"/>
<path d="M41.535 39.2259L41.535 47.5949L44.1422 46.7258L45.7899 35.1918C45.8502 34.7702 45.8804 34.3449 45.8804 33.919V31.9514H45.7066L45.23 34.3342C45.087 35.0496 44.7509 35.7122 44.2584 36.2504L41.535 39.2259Z" fill="#F5F5F5"/>
<path d="M43.6208 41.5113H41.8827V43.2494H43.0949L43.6208 41.5113Z" fill="#454545"/>
<path d="M44.1423 37.1658L43.2732 38.0349L41.8827 39.2567V41.1636H43.6208L44.1423 37.1658Z" fill="#454545"/>
<path d="M43.0949 43.597H41.8826V45.3352H42.7517L43.0949 43.597Z" fill="#454545"/>
<path d="M25.993 16.8294L26.8427 11.7307L30.0111 12.2833L30.0273 12.2861L30.0435 12.2836L33.6309 11.7288L34.481 16.8294L33.6286 21.9439H26.8454L25.993 16.8294Z" fill="white" stroke="#7C7C7C" stroke-width="0.2"/>
<path d="M27.6781 18.4998L28.4932 17.277L31.8625 17.277L32.6777 18.4998L32.1848 20.5534H28.1709L27.6781 18.4998Z" fill="#FF5F5F" stroke="#C56D6D" stroke-width="0.2"/>
<path d="M28.4397 16.3839L31.916 16.3839L32.7851 15.0803L32.2637 12.9076H28.0921L27.5706 15.0803L28.4397 16.3839Z" fill="#CDCDCD"/>
<path d="M26.6379 25.0813L25.4366 28.0848L6.81611 14.2017L26.6379 23.2795L26.6379 25.0813Z" fill="white" stroke="#7F7F7F" stroke-width="0.2"/>
<path d="M25.8582 25.1006L25.2297 27.2373L12.9127 18.188L14.1695 18.188L25.8582 23.4785L25.8582 25.1006Z" fill="#CDCDCD"/>
<path d="M34.362 25.0813L35.5634 28.0848L54.1839 14.2017L34.362 23.2795L34.362 25.0813Z" fill="white" stroke="#7F7F7F" stroke-width="0.2"/>
<path d="M35.1418 25.1006L35.7703 27.2373L48.0873 18.188L46.8305 18.188L35.1418 23.4785L35.1418 25.1006Z" fill="#CDCDCD"/>
<path d="M19.8081 33.6895L28.006 34.7548L23.3016 36.1276L19.8081 33.6895Z" fill="#454545"/>
<path d="M23.2934 35.8953L20.0206 33.768L27.7367 34.7886L23.2934 35.8953Z" fill="#FFEB39" stroke="#454545" stroke-width="0.1"/>
<path d="M40.765 33.5024L32.6439 35.0745L37.2867 36.0846L40.765 33.5024Z" fill="#454545"/>
<path d="M37.254 35.8806L40.5524 33.5892L32.8965 34.8887L37.254 35.8806Z" fill="#FFEB39" stroke="#454545" stroke-width="0.1"/>
<circle cx="20.2215" cy="30.1345" r="1.32473" fill="#454545"/>
<circle cx="20.2225" cy="30.1355" r="0.562363" fill="#FFEB39" stroke="#646464" stroke-width="0.2"/>
<circle cx="40.4606" cy="30.1345" r="1.32473" fill="#454545"/>
<circle cx="40.4606" cy="30.1345" r="0.562363" fill="#FFEB39" stroke="#646464" stroke-width="0.2"/>
</g>
<defs>
<clipPath id="clip0">
<rect width="60" height="60" fill="white"/>
</clipPath>
</defs>
</svg>
