<svg width="76" height="76" viewBox="0 0 76 76" fill="none" xmlns="http://www.w3.org/2000/svg">
<g filter="url(#filter0_dd)">
<path fill-rule="evenodd" clip-rule="evenodd" d="M39 3.01083C42.8814 3.09538 46.2737 3.66914 49.2012 4.53717C46.1838 3.62689 42.7881 3.09068 39 3.01051V3.01083ZM67.9962 35.4724C67.9987 35.3264 68 35.18 68 35.0334C68.9172 27.8984 67.5211 20.5709 63.5225 14.7279C63.5498 14.7856 63.5756 14.8424 63.6 14.8981C61.2643 14.8981 60.1309 16.8467 58.6663 19.3647C55.9924 23.9619 52.2144 30.4572 38 30.4572C25.2798 30.4572 22.2458 25.4201 19.6083 21.0414C17.8915 18.1911 16.3427 15.6198 12.4 14.8981C12.4063 14.8694 12.4134 14.84 12.4215 14.81C8.46589 20.6394 7.08713 27.9318 8 35.0334C8 35.4823 8.01177 35.9286 8.03504 36.3722L8 36.4059L4.38872 38.0585C4.1649 38.1609 4.04892 38.411 4.11532 38.6481L8.99198 56.0553C8.99692 56.073 9.01111 56.0865 9.02897 56.0906L13 56.9992L30.279 69.0678C31.4111 69.8585 32.7101 70.3782 34.0753 70.5864L36.6428 70.9781C37.5424 71.1153 38.4576 71.1153 39.3572 70.9781L42.0445 70.5681C43.3328 70.3716 44.563 69.8977 45.6502 69.179L62 58.3717L67.9749 56.0935C67.9906 56.0876 68.0022 56.0741 68.0059 56.0577L71.9216 38.586C71.9685 38.377 71.877 38.1614 71.6942 38.0498L69 36.4059L67.9962 35.4724ZM21 46H22.4286V59.5L31 67L26.7143 64L21 59.5V46ZM53.2857 46H55V59.5L48.1429 64L43 67L53.2857 59.5V46Z" fill="url(#paint0_linear)"/>
<path d="M39 3.01083H38.75V3.25545L38.9946 3.26078L39 3.01083ZM49.2012 4.53717L49.1301 4.77685L49.2734 4.29782L49.2012 4.53717ZM39 3.01051L39.0053 2.76057L38.75 2.75517V3.01051H39ZM68 35.0334L67.752 35.0016L67.75 35.0174V35.0334H68ZM67.9962 35.4724L67.7463 35.4682L67.7444 35.5796L67.826 35.6555L67.9962 35.4724ZM63.5225 14.7279L63.7288 14.5867L63.2965 14.8347L63.5225 14.7279ZM63.6 14.8981V15.1481H63.9821L63.8291 14.798L63.6 14.8981ZM58.6663 19.3647L58.4502 19.239L58.4502 19.239L58.6663 19.3647ZM19.6083 21.0414L19.3941 21.1703L19.3941 21.1703L19.6083 21.0414ZM12.4 14.8981L12.1558 14.8448L12.1005 15.0975L12.355 15.144L12.4 14.8981ZM12.4215 14.81L12.6629 14.875L12.2147 14.6696L12.4215 14.81ZM8 35.0334H8.25V35.0174L8.24796 35.0016L8 35.0334ZM8.03504 36.3722L8.20827 36.5525L8.29069 36.4733L8.2847 36.3591L8.03504 36.3722ZM8 36.4059L8.10402 36.6332L8.14262 36.6156L8.17322 36.5862L8 36.4059ZM4.38872 38.0585L4.28469 37.8312L4.28469 37.8312L4.38872 38.0585ZM4.11532 38.6481L3.87459 38.7155L3.87459 38.7155L4.11532 38.6481ZM8.99198 56.0553L8.75125 56.1228L8.75125 56.1228L8.99198 56.0553ZM9.02897 56.0906L9.08473 55.8469L9.08472 55.8469L9.02897 56.0906ZM13 56.9992L13.1431 56.7942L13.1032 56.7664L13.0558 56.7555L13 56.9992ZM30.279 69.0678L30.4221 68.8628L30.4221 68.8628L30.279 69.0678ZM34.0753 70.5864L34.113 70.3393L34.113 70.3393L34.0753 70.5864ZM36.6428 70.9781L36.6805 70.7309L36.6805 70.7309L36.6428 70.9781ZM39.3572 70.9781L39.3195 70.7309L39.3195 70.7309L39.3572 70.9781ZM42.0445 70.5681L42.0822 70.8153L42.0822 70.8153L42.0445 70.5681ZM45.6502 69.179L45.7881 69.3876L45.7881 69.3876L45.6502 69.179ZM62 58.3717L61.9109 58.1381L61.8852 58.1479L61.8622 58.1631L62 58.3717ZM67.9749 56.0935L68.064 56.3271L68.064 56.3271L67.9749 56.0935ZM68.0059 56.0577L68.2498 56.1124L68.2498 56.1124L68.0059 56.0577ZM71.9216 38.586L72.1656 38.6406L72.1656 38.6406L71.9216 38.586ZM71.6942 38.0498L71.564 38.2632L71.564 38.2632L71.6942 38.0498ZM69 36.4059L68.8297 36.589L68.8482 36.6062L68.8698 36.6193L69 36.4059ZM22.4286 46H22.6786V45.75H22.4286V46ZM21 46V45.75H20.75V46H21ZM22.4286 59.5H22.1786V59.6134L22.2639 59.6881L22.4286 59.5ZM31 67L30.8566 67.2048L31.1646 66.8119L31 67ZM26.7143 64L26.5594 64.1967L26.5709 64.2048L26.7143 64ZM21 59.5H20.75V59.6213L20.8453 59.6964L21 59.5ZM55 46H55.25V45.75H55V46ZM53.2857 46V45.75H53.0357V46H53.2857ZM55 59.5L55.1372 59.709L55.25 59.635V59.5H55ZM48.1429 64L48.269 64.2162L48.28 64.209L48.1429 64ZM43 67L42.8527 66.798L43.126 67.2159L43 67ZM53.2857 59.5L53.433 59.702L53.5357 59.6271V59.5H53.2857ZM38.9946 3.26078C42.8543 3.34485 46.2245 3.91532 49.1301 4.77685L49.2723 4.29748C46.3229 3.42297 42.9085 2.84591 39.0054 2.76089L38.9946 3.26078ZM49.2734 4.29782C46.2322 3.38037 42.8138 2.84117 39.0053 2.76057L38.9947 3.26046C42.7623 3.34019 46.1353 3.87341 49.129 4.77652L49.2734 4.29782ZM38.75 3.01051V3.01083H39.25V3.01051H38.75ZM67.75 35.0334C67.75 35.1786 67.7488 35.3235 67.7463 35.4682L68.2462 35.4767C68.2487 35.3292 68.25 35.1815 68.25 35.0334H67.75ZM63.3162 14.869C67.2749 20.6538 68.6626 27.9176 67.752 35.0016L68.248 35.0653C69.1717 27.8792 67.7672 20.4879 63.7288 14.5867L63.3162 14.869ZM63.8291 14.798C63.8037 14.74 63.7768 14.6809 63.7485 14.621L63.2965 14.8347C63.3228 14.8904 63.3476 14.9449 63.3709 14.9982L63.8291 14.798ZM58.8824 19.4904C59.6194 18.2234 60.2539 17.1354 60.9881 16.359C61.7111 15.5945 62.5164 15.1481 63.6 15.1481V14.6481C62.3479 14.6481 61.4186 15.1761 60.6249 16.0154C59.8424 16.8428 59.1779 17.988 58.4502 19.239L58.8824 19.4904ZM38 30.7072C45.1467 30.7072 49.6994 29.0737 52.8069 26.8379C55.9102 24.605 57.546 21.7882 58.8824 19.4904L58.4502 19.239C57.1128 21.5385 55.5225 24.2679 52.5148 26.432C49.5112 28.5931 45.0677 30.2072 38 30.2072V30.7072ZM19.3941 21.1703C20.7116 23.3576 22.154 25.7575 24.8833 27.5986C27.6152 29.4414 31.6074 30.7072 38 30.7072V30.2072C31.6723 30.2072 27.7874 28.9545 25.1629 27.1841C22.5358 25.412 21.1425 23.1039 19.8224 20.9124L19.3941 21.1703ZM12.355 15.144C16.1761 15.8435 17.6743 18.3151 19.3941 21.1703L19.8224 20.9124C18.1087 18.0672 16.5094 15.3962 12.445 14.6522L12.355 15.144ZM12.1802 14.7449C12.1711 14.7786 12.1629 14.8119 12.1558 14.8448L12.6442 14.9515C12.6496 14.9269 12.6558 14.9014 12.6629 14.875L12.1802 14.7449ZM8.24796 35.0016C7.34163 27.9507 8.71212 20.7218 12.6284 14.9503L12.2147 14.6696C8.21967 20.5571 6.83264 27.9128 7.75204 35.0653L8.24796 35.0016ZM8.2847 36.3591C8.26166 35.9199 8.25 35.4779 8.25 35.0334H7.75C7.75 35.4867 7.76189 35.9374 7.78538 36.3853L8.2847 36.3591ZM8.17322 36.5862L8.20827 36.5525L7.86181 36.192L7.82677 36.2257L8.17322 36.5862ZM4.49275 38.2858L8.10402 36.6332L7.89597 36.1786L4.28469 37.8312L4.49275 38.2858ZM4.35605 38.5806C4.32285 38.4621 4.38084 38.3371 4.49275 38.2858L4.28469 37.8312C3.94896 37.9848 3.77498 38.36 3.87459 38.7155L4.35605 38.5806ZM9.23271 55.9879L4.35605 38.5806L3.87459 38.7155L8.75125 56.1228L9.23271 55.9879ZM9.08472 55.8469C9.15617 55.8632 9.21294 55.9173 9.23271 55.9879L8.75125 56.1228C8.7809 56.2286 8.86605 56.3098 8.97322 56.3343L9.08472 55.8469ZM13.0558 56.7555L9.08473 55.8469L8.97321 56.3343L12.9442 57.2429L13.0558 56.7555ZM30.4221 68.8628L13.1431 56.7942L12.8568 57.2042L30.1358 69.2727L30.4221 68.8628ZM34.113 70.3393C32.7857 70.1368 31.5228 69.6316 30.4221 68.8628L30.1358 69.2727C31.2994 70.0855 32.6345 70.6195 34.0376 70.8335L34.113 70.3393ZM36.6805 70.7309L34.113 70.3393L34.0376 70.8335L36.6051 71.2252L36.6805 70.7309ZM39.3195 70.7309C38.4449 70.8643 37.5551 70.8643 36.6805 70.7309L36.6051 71.2252C37.5297 71.3662 38.4703 71.3662 39.3949 71.2252L39.3195 70.7309ZM42.0068 70.321L39.3195 70.7309L39.3949 71.2252L42.0822 70.8153L42.0068 70.321ZM45.5123 68.9705C44.4554 69.6691 43.2593 70.1299 42.0068 70.321L42.0822 70.8153C43.4063 70.6133 44.6707 70.1262 45.7881 69.3876L45.5123 68.9705ZM61.8622 58.1631L45.5123 68.9705L45.7881 69.3876L62.1379 58.5803L61.8622 58.1631ZM67.8858 55.8599L61.9109 58.1381L62.0891 58.6053L68.064 56.3271L67.8858 55.8599ZM67.7619 56.0031C67.7766 55.9376 67.8231 55.8839 67.8858 55.8599L68.064 56.3271C68.158 56.2913 68.2278 56.2106 68.2498 56.1124L67.7619 56.0031ZM71.6777 38.5313L67.7619 56.0031L68.2498 56.1124L72.1656 38.6406L71.6777 38.5313ZM71.564 38.2632C71.6554 38.319 71.7011 38.4268 71.6777 38.5313L72.1656 38.6406C72.2358 38.3272 72.0986 38.0037 71.8244 37.8364L71.564 38.2632ZM68.8698 36.6193L71.564 38.2632L71.8244 37.8364L69.1302 36.1925L68.8698 36.6193ZM67.826 35.6555L68.8297 36.589L69.1702 36.2229L68.1665 35.2894L67.826 35.6555ZM22.4286 45.75H21V46.25H22.4286V45.75ZM22.6786 59.5V46H22.1786V59.5H22.6786ZM31.1646 66.8119L22.5932 59.3119L22.2639 59.6881L30.8354 67.1881L31.1646 66.8119ZM26.5709 64.2048L30.8566 67.2048L31.1434 66.7952L26.8577 63.7952L26.5709 64.2048ZM20.8453 59.6964L26.5596 64.1964L26.869 63.8036L21.1547 59.3036L20.8453 59.6964ZM20.75 46V59.5H21.25V46H20.75ZM55 45.75H53.2857V46.25H55V45.75ZM55.25 59.5V46H54.75V59.5H55.25ZM48.28 64.209L55.1372 59.709L54.8628 59.291L48.0057 63.791L48.28 64.209ZM43.126 67.2159L48.2688 64.2159L48.0169 63.7841L42.874 66.7841L43.126 67.2159ZM53.1384 59.298L42.8527 66.798L43.1473 67.202L53.433 59.702L53.1384 59.298ZM53.0357 46V59.5H53.5357V46H53.0357Z" fill="#7E758A"/>
<path d="M63.5972 14.8981C56.9972 14.8981 59.9972 30.4572 37.9972 30.4572C16.9972 30.4572 22.3972 16.7286 12.3972 14.8981C12.9972 12.1524 21.9972 3 37.9972 3C53.9972 3 61.9972 11.2372 63.5972 14.8981Z" fill="url(#paint1_linear)"/>
</g>
<defs>
<filter id="filter0_dd" x="0" y="-0.5" width="76" height="77" filterUnits="userSpaceOnUse" color-interpolation-filters="sRGB">
<feFlood flood-opacity="0" result="BackgroundImageFix"/>
<feColorMatrix in="SourceAlpha" type="matrix" values="0 0 0 0 0 0 0 0 0 0 0 0 0 0 0 0 0 0 127 0"/>
<feOffset dy="1.5"/>
<feGaussianBlur stdDeviation="1.5"/>
<feColorMatrix type="matrix" values="0 0 0 0 0 0 0 0 0 0 0 0 0 0 0 0 0 0 0.15 0"/>
<feBlend mode="normal" in2="BackgroundImageFix" result="effect1_dropShadow"/>
<feColorMatrix in="SourceAlpha" type="matrix" values="0 0 0 0 0 0 0 0 0 0 0 0 0 0 0 0 0 0 127 0"/>
<feOffset dy="-0.5"/>
<feGaussianBlur stdDeviation="1"/>
<feColorMatrix type="matrix" values="0 0 0 0 0 0 0 0 0 0 0 0 0 0 0 0 0 0 0.15 0"/>
<feBlend mode="normal" in2="effect1_dropShadow" result="effect2_dropShadow"/>
<feBlend mode="normal" in="SourceGraphic" in2="effect2_dropShadow" result="shape"/>
</filter>
<linearGradient id="paint0_linear" x1="36.5" y1="3" x2="38.168" y2="107.997" gradientUnits="userSpaceOnUse">
<stop offset="0.348633" stop-color="white"/>
<stop offset="1" stop-color="white" stop-opacity="0.89"/>
</linearGradient>
<linearGradient id="paint1_linear" x1="38" y1="46.5" x2="35" y2="-48.5" gradientUnits="userSpaceOnUse">
<stop offset="0.127516" stop-color="#9A55EE"/>
<stop offset="0.703415" stop-color="#6603FF"/>
</linearGradient>
</defs>
</svg>
