<svg width="74" height="76" viewBox="0 0 74 76" fill="none" xmlns="http://www.w3.org/2000/svg">
<g filter="url(#filter0_dd)">
<path fill-rule="evenodd" clip-rule="evenodd" d="M38 3.01083C41.8815 3.09538 45.2737 3.66915 48.2012 4.53717C45.1838 3.62689 41.7881 3.09068 38 3.01051V3.01083ZM66.9962 35.4724C66.9987 35.3264 67 35.18 67 35.0334C67.9172 27.8984 66.5211 20.5709 62.5225 14.7278C62.5498 14.7856 62.5756 14.8424 62.6 14.8981C60.2643 14.8981 59.1309 16.8467 57.6663 19.3647C54.9924 23.9619 51.2144 30.4572 37 30.4572C24.2798 30.4572 21.2458 25.4201 18.6083 21.0414C16.8915 18.1911 15.3427 15.6198 11.4 14.8981C11.4063 14.8694 11.4135 14.84 11.4216 14.81C7.4659 20.6394 6.08714 27.9318 7.00001 35.0334C7.00001 35.4823 7.01178 35.9286 7.03505 36.3722L7 36.4059L3 38.2364L8 56.084L12 56.9992L29.279 69.0678C30.4111 69.8585 31.7101 70.3782 33.0753 70.5864L35.6428 70.9781C36.5424 71.1153 37.4576 71.1153 38.3572 70.9781L41.0445 70.5681C42.3328 70.3716 43.563 69.8977 44.6502 69.179L61 58.3717L67 56.084L71 38.2364L68 36.4059L66.9962 35.4724ZM20.3953 46.4043H21.299V59.4255L26.7209 66.6596L24.01 63.766L20.3953 59.4255V46.4043ZM52.701 46.4043H53.6046V59.4255L49.99 63.766L47.2791 66.6596L52.701 59.4255V46.4043Z" fill="black"/>
<path fill-rule="evenodd" clip-rule="evenodd" d="M38 3.01083C41.8815 3.09538 45.2737 3.66915 48.2012 4.53717C45.1838 3.62689 41.7881 3.09068 38 3.01051V3.01083ZM66.9962 35.4724C66.9987 35.3264 67 35.18 67 35.0334C67.9172 27.8984 66.5211 20.5709 62.5225 14.7278C62.5498 14.7856 62.5756 14.8424 62.6 14.8981C60.2643 14.8981 59.1309 16.8467 57.6663 19.3647C54.9924 23.9619 51.2144 30.4572 37 30.4572C24.2798 30.4572 21.2458 25.4201 18.6083 21.0414C16.8915 18.1911 15.3427 15.6198 11.4 14.8981C11.4063 14.8694 11.4135 14.84 11.4216 14.81C7.4659 20.6394 6.08714 27.9318 7.00001 35.0334C7.00001 35.4823 7.01178 35.9286 7.03505 36.3722L7 36.4059L3 38.2364L8 56.084L12 56.9992L29.279 69.0678C30.4111 69.8585 31.7101 70.3782 33.0753 70.5864L35.6428 70.9781C36.5424 71.1153 37.4576 71.1153 38.3572 70.9781L41.0445 70.5681C42.3328 70.3716 43.563 69.8977 44.6502 69.179L61 58.3717L67 56.084L71 38.2364L68 36.4059L66.9962 35.4724ZM20.3953 46.4043H21.299V59.4255L26.7209 66.6596L24.01 63.766L20.3953 59.4255V46.4043ZM52.701 46.4043H53.6046V59.4255L49.99 63.766L47.2791 66.6596L52.701 59.4255V46.4043Z" fill="url(#paint0_linear)"/>
<path d="M62.5972 14.8981C55.9972 14.8981 58.9972 30.4572 36.9972 30.4572C15.9972 30.4572 21.3972 16.7286 11.3972 14.8981C11.9972 12.1524 20.9972 3 36.9972 3C52.9972 3 60.9972 11.2372 62.5972 14.8981Z" fill="url(#paint1_linear)"/>
</g>
<defs>
<filter id="filter0_dd" x="-1" y="-0.5" width="76" height="77" filterUnits="userSpaceOnUse" color-interpolation-filters="sRGB">
<feFlood flood-opacity="0" result="BackgroundImageFix"/>
<feColorMatrix in="SourceAlpha" type="matrix" values="0 0 0 0 0 0 0 0 0 0 0 0 0 0 0 0 0 0 127 0"/>
<feOffset dy="1.5"/>
<feGaussianBlur stdDeviation="1.5"/>
<feColorMatrix type="matrix" values="0 0 0 0 0 0 0 0 0 0 0 0 0 0 0 0 0 0 0.3 0"/>
<feBlend mode="normal" in2="BackgroundImageFix" result="effect1_dropShadow"/>
<feColorMatrix in="SourceAlpha" type="matrix" values="0 0 0 0 0 0 0 0 0 0 0 0 0 0 0 0 0 0 127 0"/>
<feOffset dy="-0.5"/>
<feGaussianBlur stdDeviation="1"/>
<feColorMatrix type="matrix" values="0 0 0 0 0 0 0 0 0 0 0 0 0 0 0 0 0 0 0.3 0"/>
<feBlend mode="normal" in2="effect1_dropShadow" result="effect2_dropShadow"/>
<feBlend mode="normal" in="SourceGraphic" in2="effect2_dropShadow" result="shape"/>
</filter>
<linearGradient id="paint0_linear" x1="37" y1="37" x2="50" y2="71" gradientUnits="userSpaceOnUse">
<stop stop-color="white"/>
<stop offset="1" stop-color="white" stop-opacity="0.95"/>
</linearGradient>
<linearGradient id="paint1_linear" x1="27.8461" y1="3" x2="46.4402" y2="29.1144" gradientUnits="userSpaceOnUse">
<stop stop-color="#F36AFF"/>
<stop offset="1" stop-color="#DC00EF"/>
</linearGradient>
</defs>
</svg>
