<svg width="70" height="70" viewBox="0 0 70 70" fill="none" xmlns="http://www.w3.org/2000/svg">
<circle opacity="0.67" cx="35" cy="35" r="35" fill="black"/>
<circle cx="35" cy="35" r="35" fill="url(#paint0_linear)"/>
<g filter="url(#filter0_dd)">
<path fill-rule="evenodd" clip-rule="evenodd" d="M55.2916 33.8768C55.2933 33.7694 55.2941 33.6618 55.2941 33.554C55.9146 28.3076 54.9702 22.9197 52.2652 18.6234C52.2837 18.6659 52.3012 18.7077 52.3176 18.7486C50.7376 18.7486 49.9709 20.1814 48.9802 22.0329C47.1713 25.4132 44.6157 30.1891 35 30.1891C26.3951 30.1891 24.3427 26.4854 22.5586 23.2657C21.3972 21.17 20.3495 19.2793 17.6824 18.7486C17.6866 18.7275 17.6915 18.7059 17.6969 18.6838C15.0211 22.9702 14.0884 28.3322 14.7059 33.554C14.7059 33.884 14.7139 34.2122 14.7296 34.5384L14.7059 34.5632L12 35.9091L15.3824 49.0323L18.0882 49.7053L29.1678 58.1168C30.3325 59.001 31.6951 59.5881 33.1377 59.8273L33.5279 59.892C34.5026 60.0536 35.4974 60.0536 36.4722 59.892L36.9859 59.8068C38.3495 59.5807 39.6427 59.0436 40.7652 58.2371L51.2353 50.7145L55.2941 49.0323L58 35.9091L55.9706 34.5632L55.2916 33.8768ZM23.7674 41.9149H24.3787V51.4894L28.0465 56.8085L26.2126 54.6808L23.7674 51.4894V41.9149ZM45.6213 41.9149H46.2326V51.4894L43.7874 54.6808L41.9535 56.8085L45.6213 51.4894V41.9149Z" fill="url(#paint1_linear)"/>
<path d="M52.3158 18.7486C47.8511 18.7486 49.8805 30.1891 34.9981 30.1891C20.7922 30.1891 24.4452 20.0946 17.6805 18.7486C18.0864 16.7297 24.1746 10 34.9981 10C45.8216 10 51.2334 16.0567 52.3158 18.7486Z" fill="url(#paint2_linear)"/>
</g>
<defs>
<filter id="filter0_dd" x="10.5" y="8.5" width="50" height="54.0132" filterUnits="userSpaceOnUse" color-interpolation-filters="sRGB">
<feFlood flood-opacity="0" result="BackgroundImageFix"/>
<feColorMatrix in="SourceAlpha" type="matrix" values="0 0 0 0 0 0 0 0 0 0 0 0 0 0 0 0 0 0 127 0"/>
<feOffset dx="0.5" dy="0.5"/>
<feGaussianBlur stdDeviation="1"/>
<feColorMatrix type="matrix" values="0 0 0 0 0 0 0 0 0 0 0 0 0 0 0 0 0 0 0.3 0"/>
<feBlend mode="normal" in2="BackgroundImageFix" result="effect1_dropShadow"/>
<feColorMatrix in="SourceAlpha" type="matrix" values="0 0 0 0 0 0 0 0 0 0 0 0 0 0 0 0 0 0 127 0"/>
<feOffset dx="-0.1" dy="-0.1"/>
<feGaussianBlur stdDeviation="0.1"/>
<feColorMatrix type="matrix" values="0 0 0 0 0 0 0 0 0 0 0 0 0 0 0 0 0 0 0.1 0"/>
<feBlend mode="normal" in2="effect1_dropShadow" result="effect2_dropShadow"/>
<feBlend mode="normal" in="SourceGraphic" in2="effect2_dropShadow" result="shape"/>
</filter>
<linearGradient id="paint0_linear" x1="18.5" y1="3.5" x2="49.5" y2="64.5" gradientUnits="userSpaceOnUse">
<stop stop-color="#C9C9C9"/>
<stop offset="1" stop-color="#AAAAAA" stop-opacity="0.9"/>
</linearGradient>
<linearGradient id="paint1_linear" x1="31" y1="27.5" x2="45" y2="53.5" gradientUnits="userSpaceOnUse">
<stop stop-color="white"/>
<stop offset="1" stop-color="white"/>
</linearGradient>
<linearGradient id="paint2_linear" x1="28.8077" y1="10" x2="42.8136" y2="28.0969" gradientUnits="userSpaceOnUse">
<stop stop-color="#F36AFF"/>
<stop offset="1" stop-color="#DC00EF"/>
</linearGradient>
</defs>
</svg>
