<svg width="75" height="75" viewBox="0 0 75 75" fill="none" xmlns="http://www.w3.org/2000/svg">
<path fill-rule="evenodd" clip-rule="evenodd" d="M57.8693 15.6204C59.2805 13.2169 60.3725 11.3569 62.623 11.3569C61.0814 7.8625 53.373 0 37.9564 0C22.5397 0 13.8678 8.73611 13.2897 11.3569C17.0887 12.0458 18.581 14.5002 20.2352 17.2207C22.7765 21.4004 25.6999 26.2083 37.9564 26.2083C51.6526 26.2083 55.2928 20.0085 57.8693 15.6204ZM50.1591 1.67699C46.9656 0.730011 43.2649 0.104048 39.0306 0.0118177V0.011467C43.1631 0.0989194 46.8674 0.683911 50.1591 1.67699ZM70.6652 34.9436C70.6652 35.1035 70.6638 35.2632 70.6611 35.4225L71.7561 36.4408L74.7228 38.251C74.9056 38.3626 74.9971 38.5782 74.9503 38.7872L70.674 57.8675C70.6689 57.8903 70.6486 57.9066 70.6252 57.9066H66.3018L46.2252 72.1468C45.0808 72.9585 43.7625 73.4914 42.3755 73.703L39.2969 74.1726C38.3974 74.3098 37.4822 74.3098 36.5826 74.1726L33.619 73.7205C32.1586 73.4977 30.7755 72.9189 29.5917 72.0351L10.6685 57.9066H6.34305C6.32063 57.9066 6.30095 57.8917 6.2949 57.8701L0.966209 38.8492C0.899808 38.6122 1.01579 38.3621 1.23961 38.2597L5.21428 36.4408L5.25251 36.4041C5.22712 35.9202 5.21428 35.4333 5.21428 34.9436C4.21848 27.1968 5.7225 19.242 10.0375 12.8829C10.0287 12.9157 10.0208 12.9478 10.014 12.9791C14.3149 13.7663 16.0044 16.5712 17.8772 19.6804C20.7543 24.457 24.0639 29.9517 37.9397 29.9517C53.4455 29.9517 57.5667 22.8663 60.4836 17.8514C62.0812 15.1047 63.3176 12.9791 65.8655 12.9791C65.8389 12.9183 65.8107 12.8563 65.7809 12.7933C70.1428 19.1671 71.6657 27.1603 70.6652 34.9436Z" fill="#EC56B9"/>
</svg>
