<svg width="74" height="74" viewBox="0 0 74 74" fill="none" xmlns="http://www.w3.org/2000/svg">
<g filter="url(#filter0_d)">
<path fill-rule="evenodd" clip-rule="evenodd" d="M67 35.0334C67 35.18 66.9987 35.3264 66.9962 35.4724L68 36.4059L70.6942 38.0498C70.877 38.1614 70.9685 38.377 70.9216 38.586L67.0059 56.0577C67.0022 56.0741 66.9906 56.0876 66.9749 56.0935L61 58.3717L44.6502 69.179C43.563 69.8977 42.3328 70.3716 41.0445 70.5681L38.3572 70.9781C37.4576 71.1153 36.5424 71.1153 35.6428 70.9781L33.0753 70.5864C31.7101 70.3782 30.4111 69.8585 29.279 69.0678L12 56.9992L8.02897 56.0906C8.01111 56.0865 7.99692 56.073 7.99198 56.0553L3.11532 38.6481C3.04892 38.411 3.1649 38.1609 3.38872 38.0585L7 36.4059L7.03504 36.3722C7.01177 35.9286 7 35.4823 7 35.0334C6.08713 27.9318 7.46589 20.6394 11.4215 14.81C11.4134 14.84 11.4063 14.8694 11.4 14.8981C15.3427 15.6198 16.8915 18.1911 18.6083 21.0414C21.2458 25.4201 24.2798 30.4572 37 30.4572C51.2144 30.4572 54.9924 23.9619 57.6663 19.3647C59.1309 16.8467 60.2643 14.8981 62.6 14.8981C62.5756 14.8424 62.5498 14.7856 62.5225 14.7279C66.5211 20.5709 67.9172 27.8984 67 35.0334ZM48.2011 4.53713C44.9205 3.5475 41.1929 3 37 3C29.4191 3 23.3591 4.78976 18.7127 7.7466C23.0253 5.18872 29.1757 3 37 3C41.3016 3 45.0249 3.59537 48.2011 4.53713Z" fill="url(#paint0_linear)"/>
<path d="M66.9962 35.4724L66.7463 35.4682L66.7444 35.5796L66.826 35.6555L66.9962 35.4724ZM67 35.0334L66.752 35.0016L66.75 35.0174V35.0334H67ZM68 36.4059L67.8297 36.589L67.8482 36.6062L67.8698 36.6193L68 36.4059ZM70.6942 38.0498L70.8244 37.8364L70.8244 37.8364L70.6942 38.0498ZM70.9216 38.586L70.6777 38.5313L70.6777 38.5313L70.9216 38.586ZM67.0059 56.0577L67.2498 56.1124L67.2498 56.1124L67.0059 56.0577ZM66.9749 56.0935L67.064 56.3271L67.064 56.3271L66.9749 56.0935ZM61 58.3717L60.9109 58.1381L60.8852 58.1479L60.8622 58.1631L61 58.3717ZM44.6502 69.179L44.7881 69.3876L44.7881 69.3876L44.6502 69.179ZM41.0445 70.5681L41.0822 70.8153L41.0822 70.8153L41.0445 70.5681ZM38.3572 70.9781L38.3195 70.7309L38.3195 70.7309L38.3572 70.9781ZM35.6428 70.9781L35.6805 70.7309L35.6805 70.7309L35.6428 70.9781ZM33.0753 70.5864L33.113 70.3393L33.113 70.3393L33.0753 70.5864ZM29.279 69.0678L29.4221 68.8628L29.4221 68.8628L29.279 69.0678ZM12 56.9992L12.1431 56.7942L12.1032 56.7664L12.0558 56.7555L12 56.9992ZM8.02897 56.0906L8.08473 55.8469L8.08472 55.8469L8.02897 56.0906ZM7.99198 56.0553L7.75125 56.1228L7.75125 56.1228L7.99198 56.0553ZM3.11532 38.6481L2.87459 38.7155L2.87459 38.7155L3.11532 38.6481ZM3.38872 38.0585L3.28469 37.8312L3.28469 37.8312L3.38872 38.0585ZM7 36.4059L7.10402 36.6332L7.14262 36.6156L7.17323 36.5862L7 36.4059ZM7.03504 36.3722L7.20827 36.5525L7.29069 36.4733L7.2847 36.3591L7.03504 36.3722ZM7 35.0334H7.25V35.0174L7.24796 35.0016L7 35.0334ZM11.4215 14.81L11.6629 14.875L11.2147 14.6696L11.4215 14.81ZM11.4 14.8981L11.1558 14.8448L11.1005 15.0975L11.355 15.144L11.4 14.8981ZM18.6083 21.0414L18.3941 21.1703L18.3941 21.1703L18.6083 21.0414ZM57.6663 19.3647L57.4502 19.239L57.4502 19.239L57.6663 19.3647ZM62.6 14.8981V15.1481H62.9821L62.8291 14.798L62.6 14.8981ZM62.5225 14.7279L62.7288 14.5867L62.2965 14.8347L62.5225 14.7279ZM48.2011 4.53713L48.13 4.77682L48.2733 4.29779L48.2011 4.53713ZM18.7127 7.7466L18.5785 7.53568L18.8402 7.96162L18.7127 7.7466ZM67.2462 35.4767C67.2487 35.3292 67.25 35.1815 67.25 35.0334H66.75C66.75 35.1786 66.7488 35.3235 66.7463 35.4682L67.2462 35.4767ZM68.1702 36.2229L67.1665 35.2894L66.826 35.6555L67.8297 36.589L68.1702 36.2229ZM70.8244 37.8364L68.1302 36.1925L67.8698 36.6193L70.564 38.2632L70.8244 37.8364ZM71.1656 38.6407C71.2359 38.3272 71.0986 38.0037 70.8244 37.8364L70.564 38.2632C70.6554 38.319 70.7011 38.4268 70.6777 38.5313L71.1656 38.6407ZM67.2498 56.1124L71.1656 38.6406L70.6777 38.5313L66.7619 56.0031L67.2498 56.1124ZM67.064 56.3271C67.158 56.2913 67.2278 56.2106 67.2498 56.1124L66.7619 56.0031C66.7766 55.9376 66.8231 55.8839 66.8858 55.8599L67.064 56.3271ZM61.0891 58.6053L67.064 56.3271L66.8858 55.8599L60.9109 58.1381L61.0891 58.6053ZM44.7881 69.3876L61.1379 58.5803L60.8622 58.1631L44.5123 68.9705L44.7881 69.3876ZM41.0822 70.8153C42.4063 70.6133 43.6707 70.1262 44.7881 69.3876L44.5123 68.9705C43.4554 69.6691 42.2593 70.1299 41.0068 70.321L41.0822 70.8153ZM38.3949 71.2252L41.0822 70.8153L41.0068 70.321L38.3195 70.7309L38.3949 71.2252ZM35.6051 71.2252C36.5297 71.3662 37.4703 71.3662 38.3949 71.2252L38.3195 70.7309C37.4449 70.8643 36.5551 70.8643 35.6805 70.7309L35.6051 71.2252ZM33.0376 70.8335L35.6051 71.2252L35.6805 70.7309L33.113 70.3393L33.0376 70.8335ZM29.1358 69.2727C30.2994 70.0855 31.6345 70.6195 33.0376 70.8335L33.113 70.3393C31.7857 70.1368 30.5228 69.6316 29.4221 68.8628L29.1358 69.2727ZM11.8568 57.2042L29.1358 69.2727L29.4221 68.8628L12.1431 56.7942L11.8568 57.2042ZM7.97321 56.3343L11.9442 57.2429L12.0558 56.7555L8.08473 55.8469L7.97321 56.3343ZM7.75125 56.1228C7.7809 56.2286 7.86605 56.3098 7.97322 56.3343L8.08472 55.8469C8.15617 55.8632 8.21294 55.9173 8.23271 55.9879L7.75125 56.1228ZM2.87459 38.7155L7.75125 56.1228L8.23271 55.9879L3.35605 38.5806L2.87459 38.7155ZM3.28469 37.8312C2.94896 37.9848 2.77498 38.36 2.87459 38.7155L3.35605 38.5806C3.32285 38.4621 3.38084 38.3371 3.49275 38.2858L3.28469 37.8312ZM6.89597 36.1786L3.28469 37.8312L3.49275 38.2858L7.10402 36.6332L6.89597 36.1786ZM6.86181 36.192L6.82676 36.2257L7.17323 36.5862L7.20827 36.5525L6.86181 36.192ZM6.75 35.0334C6.75 35.4867 6.76188 35.9374 6.78538 36.3853L7.2847 36.3591C7.26166 35.9199 7.25 35.4779 7.25 35.0334H6.75ZM11.2147 14.6696C7.21967 20.5571 5.83264 27.9128 6.75204 35.0653L7.24796 35.0016C6.34163 27.9507 7.71212 20.7218 11.6284 14.9503L11.2147 14.6696ZM11.6442 14.9515C11.6496 14.9269 11.6558 14.9014 11.6629 14.875L11.1802 14.7449C11.1711 14.7786 11.1629 14.8119 11.1558 14.8448L11.6442 14.9515ZM18.8224 20.9124C17.1087 18.0672 15.5094 15.3962 11.445 14.6522L11.355 15.144C15.1761 15.8435 16.6743 18.3151 18.3941 21.1703L18.8224 20.9124ZM37 30.2072C30.6723 30.2072 26.7874 28.9545 24.1629 27.1841C21.5358 25.412 20.1425 23.1039 18.8224 20.9124L18.3941 21.1703C19.7116 23.3576 21.154 25.7575 23.8833 27.5986C26.6152 29.4414 30.6074 30.7072 37 30.7072V30.2072ZM57.4502 19.239C56.1128 21.5385 54.5225 24.2679 51.5148 26.432C48.5112 28.5931 44.0677 30.2072 37 30.2072V30.7072C44.1467 30.7072 48.6994 29.0737 51.8069 26.8379C54.9102 24.605 56.546 21.7882 57.8824 19.4904L57.4502 19.239ZM62.6 14.6481C61.3479 14.6481 60.4186 15.1761 59.6249 16.0154C58.8424 16.8428 58.1779 17.988 57.4502 19.239L57.8824 19.4904C58.6194 18.2234 59.2539 17.1354 59.9881 16.359C60.7111 15.5945 61.5164 15.1481 62.6 15.1481V14.6481ZM62.2965 14.8347C62.3228 14.8903 62.3476 14.9449 62.3709 14.9982L62.8291 14.798C62.8037 14.74 62.7768 14.6809 62.7485 14.621L62.2965 14.8347ZM67.248 35.0653C68.1717 27.8792 66.7672 20.4879 62.7288 14.5867L62.3162 14.869C66.2749 20.6538 67.6626 27.9176 66.752 35.0016L67.248 35.0653ZM48.2733 4.29779C44.9669 3.30035 41.2147 2.75 37 2.75V3.25C41.1711 3.25 44.8742 3.79464 48.1289 4.77648L48.2733 4.29779ZM37 2.75C29.3791 2.75 23.271 4.54953 18.5785 7.53568L18.8469 7.95751C23.4473 5.02999 29.459 3.25 37 3.25V2.75ZM18.8402 7.96162C23.1169 5.42505 29.2236 3.25 37 3.25V2.75C29.1278 2.75 22.9337 4.95239 18.5852 7.53157L18.8402 7.96162ZM37 3.25C41.2782 3.25 44.9776 3.84211 48.13 4.77682L48.2721 4.29745C45.0722 3.34864 41.3249 2.75 37 2.75V3.25Z" fill="#DCD6D6"/>
<path d="M63 14.7C56.2969 14.7 59.3438 30 37 30C15.6719 30 21.1562 16.5 11 14.7C11.6094 12 20 2.5 37 2.5C54 2.5 61.375 11.1 63 14.7Z" fill="url(#paint1_linear)"/>
</g>
<defs>
<filter id="filter0_d" x="0" y="0" width="74" height="74" filterUnits="userSpaceOnUse" color-interpolation-filters="sRGB">
<feFlood flood-opacity="0" result="BackgroundImageFix"/>
<feColorMatrix in="SourceAlpha" type="matrix" values="0 0 0 0 0 0 0 0 0 0 0 0 0 0 0 0 0 0 127 0"/>
<feOffset/>
<feGaussianBlur stdDeviation="1"/>
<feColorMatrix type="matrix" values="0 0 0 0 0.0706208 0 0 0 0 0 0 0 0 0 0.162428 0 0 0 1 0"/>
<feBlend mode="normal" in2="BackgroundImageFix" result="effect1_dropShadow"/>
<feBlend mode="normal" in="SourceGraphic" in2="effect1_dropShadow" result="shape"/>
</filter>
<linearGradient id="paint0_linear" x1="35.5" y1="2.98949" x2="37.1685" y2="108.003" gradientUnits="userSpaceOnUse">
<stop offset="0.348633" stop-color="white"/>
<stop offset="1" stop-color="white" stop-opacity="0.89"/>
</linearGradient>
<linearGradient id="paint1_linear" x1="37.0028" y1="45.7756" x2="34.1464" y2="-47.6482" gradientUnits="userSpaceOnUse">
<stop offset="0.182988" stop-color="#6F00FF" stop-opacity="0.67"/>
<stop offset="0.48038" stop-color="#6F00FF"/>
</linearGradient>
</defs>
</svg>
