<svg width="68" height="68" viewBox="0 0 68 68" fill="none" xmlns="http://www.w3.org/2000/svg">
<circle cx="34" cy="34" r="34" fill="#B31A63"/>
<g filter="url(#filter0_d)">
<path fill-rule="evenodd" clip-rule="evenodd" d="M34.6685 10.0077C37.4149 10.0675 39.8152 10.4735 41.8866 11.0877C39.7516 10.4436 37.3489 10.0642 34.6685 10.0074V10.0077ZM55.1856 32.9768C55.1874 32.8734 55.1883 32.7699 55.1883 32.6661C55.8372 27.6175 54.8494 22.4328 52.0201 18.2984C52.0394 18.3393 52.0577 18.3794 52.0749 18.4189C50.4222 18.4189 49.6203 19.7976 48.584 21.5793C46.6919 24.8322 44.0187 29.4281 33.9609 29.4281C24.9604 29.4281 22.8136 25.864 20.9474 22.7657C19.7326 20.7489 18.6367 18.9295 15.8469 18.4189C15.8514 18.3986 15.8565 18.3778 15.8622 18.3565C13.0633 22.4813 12.0877 27.6412 12.7336 32.6661C12.7336 32.9837 12.7419 33.2996 12.7584 33.6135L12.7336 33.6373L10.292 34.7546C10.0682 34.857 9.95221 35.1071 10.0186 35.3441L13.4309 47.5245C13.437 47.5461 13.4567 47.561 13.4791 47.561H16.2715L27.9125 56.2525C29.0963 57.1363 30.4794 57.7152 31.9398 57.9379L32.6038 58.0392C33.5033 58.1764 34.4185 58.1764 35.3181 58.0392L36.0971 57.9204C37.4841 57.7088 38.8024 57.1759 39.9468 56.3642L52.3579 47.561H55.1482C55.1716 47.561 55.1919 47.5448 55.197 47.522L57.9402 35.2821C57.9871 35.0731 57.8956 34.8575 57.7128 34.7459L55.8958 33.6373L55.1856 32.9768Z" fill="url(#paint0_linear)"/>
</g>
<path d="M49.9717 17.3667C45.8467 17.3667 47.7217 27 33.9717 27C20.8467 27 24.2217 18.5 17.9717 17.3667C18.3467 15.6667 23.9717 10 33.9717 10C43.9717 10 48.9717 15.1 49.9717 17.3667Z" fill="white"/>
<defs>
<filter id="filter0_d" x="8" y="9.50744" width="51.9524" height="52.1347" filterUnits="userSpaceOnUse" color-interpolation-filters="sRGB">
<feFlood flood-opacity="0" result="BackgroundImageFix"/>
<feColorMatrix in="SourceAlpha" type="matrix" values="0 0 0 0 0 0 0 0 0 0 0 0 0 0 0 0 0 0 127 0"/>
<feOffset dy="1.5"/>
<feGaussianBlur stdDeviation="1"/>
<feColorMatrix type="matrix" values="0 0 0 0 0 0 0 0 0 0 0 0 0 0 0 0 0 0 0.1 0"/>
<feBlend mode="normal" in2="BackgroundImageFix" result="effect1_dropShadow"/>
<feBlend mode="normal" in="SourceGraphic" in2="effect1_dropShadow" result="shape"/>
</filter>
<linearGradient id="paint0_linear" x1="33.9762" y1="34.0424" x2="43.1878" y2="58.0679" gradientUnits="userSpaceOnUse">
<stop stop-color="white"/>
<stop offset="1" stop-color="white" stop-opacity="0.95"/>
</linearGradient>
</defs>
</svg>
