<svg width="76" height="75" viewBox="0 0 76 75" fill="none" xmlns="http://www.w3.org/2000/svg">
<path fill-rule="evenodd" clip-rule="evenodd" d="M57.501 15.6204C58.9122 13.2169 60.0042 11.3569 62.2548 11.3569C60.7131 7.8625 53.0048 0 37.5881 0C22.1714 0 13.4996 8.73611 12.9214 11.3569C16.7204 12.0458 18.2127 14.5002 19.8669 17.2207C22.4082 21.4004 25.3316 26.2083 37.5881 26.2083C51.2843 26.2083 54.9245 20.0085 57.501 15.6204ZM49.7909 1.677C46.5973 0.730015 42.8967 0.104048 38.6623 0.0118177V0.011467C42.7948 0.0989197 46.4992 0.683915 49.7909 1.677ZM70.2969 34.9436C70.2969 35.1035 70.2956 35.2632 70.2928 35.4225L71.3878 36.4408L74.023 37.409C74.9488 37.7491 75.4884 38.7133 75.2941 39.6803L71.9544 56.3006C71.7667 57.2346 70.9463 57.9066 69.9936 57.9066H65.9335L45.857 72.1468C44.7126 72.9585 43.3943 73.4914 42.0073 73.703L38.9286 74.1726C38.0291 74.3098 37.1139 74.3098 36.2143 74.1726L33.2507 73.7205C31.7903 73.4977 30.4072 72.9189 29.2235 72.0351L10.3002 57.9066H6.36909C5.46931 57.9066 4.68029 57.3057 4.44107 56.4383L0.0722298 40.5972C-0.183283 39.6707 0.256304 38.6935 1.11905 38.27L4.846 36.4408L4.88423 36.4041C4.85884 35.9202 4.84601 35.4333 4.84601 34.9436C3.8502 27.1968 5.35422 19.242 9.66924 12.8829C9.6604 12.9157 9.65256 12.9478 9.64572 12.9791C13.9467 13.7663 15.6361 16.5712 17.5089 19.6804C20.386 24.457 23.6956 29.9517 37.5714 29.9517C53.0772 29.9517 57.1984 22.8663 60.1153 17.8514C61.713 15.1047 62.9493 12.9791 65.4972 12.9791C65.4706 12.9183 65.4424 12.8563 65.4126 12.7933C69.7745 19.1671 71.2974 27.1603 70.2969 34.9436Z" fill="#7558C8"/>
</svg>
