<svg width="72" height="73" viewBox="0 0 72 73" fill="none" xmlns="http://www.w3.org/2000/svg">
<g filter="url(#filter0_dd)">
<path fill-rule="evenodd" clip-rule="evenodd" d="M37 2.01083C40.8814 2.09538 44.2736 2.66913 47.2011 3.53713C44.1837 2.62688 40.788 2.09068 37 2.01051V2.01083ZM65.9962 34.4724C65.9987 34.3264 66 34.18 66 34.0334C66.9172 26.8984 65.5211 19.5709 61.5225 13.7279C61.5498 13.7856 61.5756 13.8424 61.6 13.8981C59.2643 13.8981 58.1309 15.8467 56.6663 18.3647C53.9924 22.9619 50.2144 29.4572 36 29.4572C23.2798 29.4572 20.2458 24.4201 17.6083 20.0414C15.8915 17.1911 14.3427 14.6198 10.4 13.8981C10.4063 13.8694 10.4134 13.84 10.4215 13.81C6.46589 19.6394 5.08713 26.9318 6 34.0334C6 34.4823 6.01177 34.9286 6.03504 35.3722L6 35.4059L2.38872 37.0585C2.1649 37.1609 2.04892 37.411 2.11532 37.6481L6.98977 55.0475C6.99581 55.069 7.01549 55.084 7.03791 55.084H11L28.1971 67.9237C29.3808 68.8075 30.7639 69.3864 32.2243 69.6091L34.6428 69.9781C35.5424 70.1153 36.4576 70.1153 37.3572 69.9781L39.8907 69.5916C41.2777 69.38 42.596 68.8471 43.7404 68.0354L62 55.084H65.96C65.9834 55.084 66.0036 55.0677 66.0088 55.0449L69.9216 37.586C69.9685 37.377 69.877 37.1614 69.6942 37.0498L67 35.4059L65.9962 34.4724Z" fill="url(#paint0_linear)"/>
<path d="M61.5972 13.8981C54.9972 13.8981 57.9972 29.4572 35.9972 29.4572C14.9972 29.4572 20.3972 15.7286 10.3972 13.8981C10.9972 11.1524 19.9972 2 35.9972 2C51.9972 2 59.9972 10.2372 61.5972 13.8981Z" fill="url(#paint1_linear)"/>
</g>
<defs>
<filter id="filter0_dd" x="0.5" y="0" width="71" height="72.081" filterUnits="userSpaceOnUse" color-interpolation-filters="sRGB">
<feFlood flood-opacity="0" result="BackgroundImageFix"/>
<feColorMatrix in="SourceAlpha" type="matrix" values="0 0 0 0 0 0 0 0 0 0 0 0 0 0 0 0 0 0 127 0"/>
<feOffset dy="1"/>
<feGaussianBlur stdDeviation="0.5"/>
<feColorMatrix type="matrix" values="0 0 0 0 0 0 0 0 0 0 0 0 0 0 0 0 0 0 0.3 0"/>
<feBlend mode="normal" in2="BackgroundImageFix" result="effect1_dropShadow"/>
<feColorMatrix in="SourceAlpha" type="matrix" values="0 0 0 0 0 0 0 0 0 0 0 0 0 0 0 0 0 0 127 0"/>
<feOffset dy="-0.5"/>
<feGaussianBlur stdDeviation="0.75"/>
<feColorMatrix type="matrix" values="0 0 0 0 0 0 0 0 0 0 0 0 0 0 0 0 0 0 0.6 0"/>
<feBlend mode="normal" in2="effect1_dropShadow" result="effect2_dropShadow"/>
<feBlend mode="normal" in="SourceGraphic" in2="effect2_dropShadow" result="shape"/>
</filter>
<linearGradient id="paint0_linear" x1="36.0152" y1="36" x2="49.0385" y2="69.9792" gradientUnits="userSpaceOnUse">
<stop stop-color="white"/>
<stop offset="1" stop-color="white" stop-opacity="0.95"/>
</linearGradient>
<linearGradient id="paint1_linear" x1="36" y1="61" x2="33" y2="-72.5" gradientUnits="userSpaceOnUse">
<stop offset="0.163134" stop-color="#3900B4"/>
<stop offset="0.439181" stop-color="#7900FF"/>
<stop offset="0.877277" stop-color="#F200E9"/>
</linearGradient>
</defs>
</svg>
