<svg width="70" height="70" viewBox="0 0 70 70" fill="none" xmlns="http://www.w3.org/2000/svg">
<path fill-rule="evenodd" clip-rule="evenodd" d="M65 33.0334C65 33.18 64.9987 33.3264 64.9962 33.4724L66 34.4059L68.6942 36.0498C68.877 36.1614 68.9685 36.377 68.9216 36.586L65.0059 54.0577C65.0022 54.0741 64.9906 54.0876 64.9749 54.0935L59 56.3717L42.6502 67.179C41.563 67.8977 40.3328 68.3716 39.0445 68.5681L36.3572 68.9781C35.4576 69.1153 34.5424 69.1153 33.6428 68.9781L31.0753 68.5864C29.7101 68.3782 28.4111 67.8585 27.279 67.0678L10 54.9992L6.02897 54.0906C6.01111 54.0865 5.99692 54.073 5.99198 54.0553L1.11532 36.6481C1.04892 36.411 1.1649 36.1609 1.38872 36.0585L5 34.4059L5.03504 34.3722C5.01177 33.9286 5 33.4823 5 33.0334C4.08713 25.9318 5.46589 18.6394 9.42155 12.81C9.41345 12.84 9.40626 12.8694 9.39999 12.8981C13.3427 13.6198 14.8915 16.1911 16.6083 19.0414C19.2458 23.4201 22.2798 28.4572 35 28.4572C49.2144 28.4572 52.9924 21.9619 55.6663 17.3647C57.1309 14.8467 58.2643 12.8981 60.6 12.8981C60.5756 12.8424 60.5498 12.7856 60.5225 12.7279C64.5211 18.5709 65.9172 25.8984 65 33.0334ZM46.2011 2.53713C42.9205 1.5475 39.1929 1 35 1C27.4191 1 21.3591 2.78976 16.7127 5.7466C21.0253 3.18872 27.1757 1 35 1C39.3016 1 43.0249 1.59537 46.2011 2.53713Z" fill="url(#paint0_linear)"/>
<path d="M64.9962 33.4724L64.4963 33.4639L64.4925 33.6868L64.6557 33.8386L64.9962 33.4724ZM65 33.0334L64.5041 32.9697L64.5 33.0014V33.0334H65ZM66 34.4059L65.6595 34.7721L65.6965 34.8064L65.7396 34.8327L66 34.4059ZM68.6942 36.0498L68.4337 36.4766L68.4338 36.4766L68.6942 36.0498ZM68.9216 36.586L69.4095 36.6953L69.4095 36.6953L68.9216 36.586ZM65.0059 54.0577L65.4938 54.1671L65.4938 54.1671L65.0059 54.0577ZM64.9749 54.0935L65.153 54.5607L65.1531 54.5607L64.9749 54.0935ZM59 56.3717L58.8219 55.9045L58.7703 55.9242L58.7243 55.9546L59 56.3717ZM42.6502 67.179L42.9259 67.5962L42.9259 67.5962L42.6502 67.179ZM39.0445 68.5681L39.1199 69.0624L39.1199 69.0624L39.0445 68.5681ZM36.3572 68.9781L36.2818 68.4838L36.2818 68.4838L36.3572 68.9781ZM33.6428 68.9781L33.7182 68.4838L33.7182 68.4838L33.6428 68.9781ZM31.0753 68.5864L31.1507 68.0921L31.1507 68.0921L31.0753 68.5864ZM27.279 67.0678L27.5653 66.6578L27.5653 66.6578L27.279 67.0678ZM10 54.9992L10.2863 54.5893L10.2065 54.5335L10.1115 54.5118L10 54.9992ZM6.02897 54.0906L6.14049 53.6032L6.14048 53.6032L6.02897 54.0906ZM5.99198 54.0553L5.51051 54.1902L5.51052 54.1902L5.99198 54.0553ZM1.11532 36.6481L0.633855 36.7829L0.633855 36.7829L1.11532 36.6481ZM1.38872 36.0585L1.59678 36.5132L1.59678 36.5132L1.38872 36.0585ZM5 34.4059L5.20805 34.8606L5.28525 34.8253L5.34646 34.7664L5 34.4059ZM5.03504 34.3722L5.3815 34.7327L5.54633 34.5743L5.53435 34.346L5.03504 34.3722ZM5 33.0334H5.5V33.0014L5.49592 32.9697L5 33.0334ZM9.42155 12.81L9.90433 12.9401L9.00781 12.5292L9.42155 12.81ZM9.39999 12.8981L8.91152 12.7914L8.80106 13.2968L9.30996 13.39L9.39999 12.8981ZM16.6083 19.0414L16.18 19.2993L16.18 19.2993L16.6083 19.0414ZM55.6663 17.3647L55.2341 17.1133L55.2341 17.1133L55.6663 17.3647ZM60.6 12.8981V13.3981H61.3642L61.0581 12.6979L60.6 12.8981ZM60.5225 12.7279L60.9351 12.4455L60.0705 12.9415L60.5225 12.7279ZM46.2011 2.53713L46.0589 3.0165L46.3455 2.05844L46.2011 2.53713ZM16.7127 5.7466L16.4442 5.32477L16.9678 6.17664L16.7127 5.7466ZM65.4962 33.481C65.4987 33.3321 65.5 33.1829 65.5 33.0334H64.5C64.5 33.1772 64.4988 33.3207 64.4963 33.4639L65.4962 33.481ZM66.3405 34.0398L65.3367 33.1063L64.6557 33.8386L65.6595 34.7721L66.3405 34.0398ZM68.9546 35.623L66.2604 33.9791L65.7396 34.8327L68.4337 36.4766L68.9546 35.623ZM69.4095 36.6953C69.5032 36.2773 69.3203 35.8461 68.9546 35.623L68.4338 36.4766L68.4337 36.4766L69.4095 36.6953ZM65.4938 54.1671L69.4095 36.6953L68.4337 36.4766L64.518 53.9484L65.4938 54.1671ZM65.1531 54.5607C65.3255 54.495 65.4534 54.3471 65.4938 54.1671L64.518 53.9484C64.551 53.8011 64.6556 53.6802 64.7967 53.6264L65.1531 54.5607ZM59.1781 56.8389L65.153 54.5607L64.7968 53.6263L58.8219 55.9045L59.1781 56.8389ZM42.9259 67.5962L59.2757 56.7888L58.7243 55.9546L42.3745 66.7619L42.9259 67.5962ZM39.1199 69.0624C40.4798 68.855 41.7784 68.3547 42.9259 67.5962L42.3745 66.7619C41.3477 67.4406 40.1858 67.8882 38.9691 68.0738L39.1199 69.0624ZM36.4326 69.4723L39.1199 69.0624L38.9691 68.0738L36.2818 68.4838L36.4326 69.4723ZM33.5674 69.4723C34.517 69.6172 35.483 69.6172 36.4326 69.4723L36.2818 68.4838C35.4322 68.6134 34.5678 68.6134 33.7182 68.4838L33.5674 69.4723ZM30.9999 69.0807L33.5674 69.4723L33.7182 68.4838L31.1507 68.0921L30.9999 69.0807ZM26.9926 67.4777C28.1877 68.3124 29.5589 68.8609 30.9999 69.0807L31.1507 68.0921C29.8613 67.8954 28.6345 67.4047 27.5653 66.6578L26.9926 67.4777ZM9.71369 55.4091L26.9926 67.4777L27.5653 66.6578L10.2863 54.5893L9.71369 55.4091ZM5.91745 54.578L9.88847 55.4866L10.1115 54.5118L6.14049 53.6032L5.91745 54.578ZM5.51052 54.1902C5.56487 54.3842 5.72099 54.533 5.91746 54.578L6.14048 53.6032C6.30124 53.64 6.42896 53.7617 6.47344 53.9204L5.51052 54.1902ZM0.633855 36.7829L5.51051 54.1902L6.47344 53.9205L1.59678 36.5132L0.633855 36.7829ZM1.18067 35.6039C0.733015 35.8087 0.501053 36.3089 0.633855 36.7829L1.59678 36.5132L1.59678 36.5132L1.18067 35.6039ZM4.79194 33.9513L1.18066 35.6039L1.59678 36.5132L5.20805 34.8606L4.79194 33.9513ZM4.68858 34.0117L4.65353 34.0454L5.34646 34.7664L5.3815 34.7327L4.68858 34.0117ZM4.5 33.0334C4.5 33.491 4.512 33.9461 4.53573 34.3984L5.53435 34.346C5.51154 33.9112 5.5 33.4736 5.5 33.0334H4.5ZM9.00781 12.5292C4.97344 18.4747 3.57814 25.8938 4.50408 33.0972L5.49592 32.9697C4.59612 25.9697 5.95834 18.8042 9.83529 13.0907L9.00781 12.5292ZM9.88846 13.0049C9.89293 12.9844 9.89819 12.9628 9.90433 12.9401L8.93877 12.6799C8.9287 12.7173 8.91959 12.7544 8.91152 12.7914L9.88846 13.0049ZM17.0366 18.7834C15.3259 15.9433 13.6761 13.1726 9.49002 12.4063L9.30996 13.39C13.0094 14.0671 14.4571 16.439 16.18 19.2993L17.0366 18.7834ZM35 27.9572C28.7047 27.9572 24.8736 26.711 22.3027 24.9768C19.7268 23.2392 18.358 20.9771 17.0366 18.7834L16.18 19.2993C17.4961 21.4844 18.963 23.9302 21.7435 25.8058C24.5291 27.6849 28.575 28.9572 35 28.9572V27.9572ZM55.2341 17.1133C53.8962 19.4136 52.3287 22.0994 49.3688 24.2291C46.4171 26.3528 42.0282 27.9572 35 27.9572V28.9572C42.1862 28.9572 46.7935 27.314 49.9529 25.0408C53.1041 22.7735 54.7626 19.913 56.0986 17.6161L55.2341 17.1133ZM60.6 12.3981C59.2637 12.3981 58.2724 12.9669 57.4432 13.8436C56.6367 14.6965 55.9572 15.8703 55.2341 17.1133L56.0986 17.6161C56.8401 16.3412 57.4596 15.2817 58.1698 14.5307C58.8574 13.8037 59.6006 13.3981 60.6 13.3981V12.3981ZM60.0705 12.9415C60.0957 12.9951 60.1195 13.0474 60.1418 13.0984L61.0581 12.6979C61.0317 12.6375 61.0039 12.5762 60.9745 12.5142L60.0705 12.9415ZM65.4959 33.0972C66.4262 25.86 65.0134 18.4049 60.9351 12.4455L60.1099 13.0102C64.0288 18.7368 65.4081 25.9368 64.5041 32.9697L65.4959 33.0972ZM46.3455 2.05844C43.0132 1.05321 39.2365 0.5 35 0.5V1.5C39.1493 1.5 42.8278 2.04179 46.0567 3.01583L46.3455 2.05844ZM35 0.5C27.3392 0.5 21.1828 2.3093 16.4442 5.32477L16.9811 6.16843C21.5354 3.27022 27.499 1.5 35 1.5V0.5ZM16.9678 6.17664C21.2085 3.66138 27.2714 1.5 35 1.5V0.5C27.0799 0.5 20.8421 2.71605 16.4576 5.31655L16.9678 6.17664ZM35 1.5C39.2549 1.5 42.9303 2.08884 46.0589 3.0165L46.3432 2.05776C43.1195 1.1019 39.3482 0.5 35 0.5V1.5Z" fill="white"/>
<path d="M61 12.7C54.2969 12.7 57.3438 28 35 28C13.6719 28 19.1562 14.5 9 12.7C9.60938 10 18 0.5 35 0.5C52 0.5 59.375 9.1 61 12.7Z" fill="url(#paint1_linear)"/>
<defs>
<linearGradient id="paint0_linear" x1="33.5" y1="0.989485" x2="35.1685" y2="106.003" gradientUnits="userSpaceOnUse">
<stop offset="0.348633" stop-color="white"/>
<stop offset="1" stop-color="white" stop-opacity="0.89"/>
</linearGradient>
<linearGradient id="paint1_linear" x1="35.0028" y1="43.7756" x2="32.1464" y2="-49.6482" gradientUnits="userSpaceOnUse">
<stop offset="0.182988" stop-color="#6F00FF" stop-opacity="0.67"/>
<stop offset="0.48038" stop-color="#6F00FF"/>
</linearGradient>
</defs>
</svg>
