<svg width="51" height="44" viewBox="0 0 51 44" fill="none" xmlns="http://www.w3.org/2000/svg">
<mask id="path-1-inside-1" fill="white">
<path fill-rule="evenodd" clip-rule="evenodd" d="M39.811 23.1679V23.332V23.3772C39.811 25.7126 38.7905 27.9314 37.0173 29.4513L35.4656 30.7813V38.2306V38.8195C34.605 39.4899 33.639 40.1114 32.5686 40.6849V29.505L36.914 26.0878V24.5722L26.6231 25.9181C25.7622 26.0307 24.8903 26.0307 24.0295 25.9181L13.7385 24.5722V26.0878L18.084 29.505V40.6562C17.0056 40.0657 16.0403 39.4246 15.187 38.7318V38.2292V30.7799L13.6696 29.4793C11.9884 28.0382 10.9756 25.9766 10.854 23.7786C12.4685 17.4904 17.3466 11.1041 25.036 8.30796C32.4766 11.0136 37.8114 17.0809 39.811 23.1679Z"/>
</mask>
<path fill-rule="evenodd" clip-rule="evenodd" d="M39.811 23.1679V23.332V23.3772C39.811 25.7126 38.7905 27.9314 37.0173 29.4513L35.4656 30.7813V38.2306V38.8195C34.605 39.4899 33.639 40.1114 32.5686 40.6849V29.505L36.914 26.0878V24.5722L26.6231 25.9181C25.7622 26.0307 24.8903 26.0307 24.0295 25.9181L13.7385 24.5722V26.0878L18.084 29.505V40.6562C17.0056 40.0657 16.0403 39.4246 15.187 38.7318V38.2292V30.7799L13.6696 29.4793C11.9884 28.0382 10.9756 25.9766 10.854 23.7786C12.4685 17.4904 17.3466 11.1041 25.036 8.30796C32.4766 11.0136 37.8114 17.0809 39.811 23.1679Z" fill="#D7D7D7"/>
<path d="M39.811 23.1679H40.011V23.1359L40.001 23.1055L39.811 23.1679ZM37.0173 29.4513L37.1475 29.6031L37.1475 29.6031L37.0173 29.4513ZM35.4656 30.7813L35.3354 30.6295L35.2656 30.6893V30.7813H35.4656ZM35.4656 38.8195L35.5885 38.9773L35.6656 38.9172V38.8195H35.4656ZM32.5686 40.6849H32.3686V41.019L32.6631 40.8612L32.5686 40.6849ZM32.5686 29.505L32.445 29.3478L32.3686 29.4078V29.505H32.5686ZM36.914 26.0878L37.0376 26.245L37.114 26.1849V26.0878H36.914ZM36.914 24.5722H37.114V24.3444L36.8881 24.3739L36.914 24.5722ZM26.6231 25.9181L26.5972 25.7198L26.5972 25.7198L26.6231 25.9181ZM24.0295 25.9181L24.0035 26.1165L24.0035 26.1165L24.0295 25.9181ZM13.7385 24.5722L13.7645 24.3739L13.5385 24.3444V24.5722H13.7385ZM13.7385 26.0878H13.5385V26.1849L13.6149 26.245L13.7385 26.0878ZM18.084 29.505H18.284V29.4078L18.2076 29.3478L18.084 29.505ZM18.084 40.6562L17.9879 40.8316L18.284 40.9938V40.6562H18.084ZM15.187 38.7318H14.987V38.827L15.061 38.887L15.187 38.7318ZM15.187 30.7799H15.387V30.6879L15.3172 30.6281L15.187 30.7799ZM13.6696 29.4793L13.7997 29.3274L13.7997 29.3274L13.6696 29.4793ZM10.854 23.7786L10.6603 23.7288L10.6526 23.7588L10.6543 23.7896L10.854 23.7786ZM25.036 8.30796L25.1044 8.12L25.036 8.09515L24.9677 8.12L25.036 8.30796ZM39.611 23.1679V23.332H40.011V23.1679H39.611ZM39.611 23.332V23.3772H40.011V23.332H39.611ZM39.611 23.3772C39.611 25.6542 38.616 27.8175 36.8871 29.2994L37.1475 29.6031C38.9649 28.0452 40.011 25.771 40.011 23.3772H39.611ZM36.8871 29.2994L35.3354 30.6295L35.5957 30.9332L37.1475 29.6031L36.8871 29.2994ZM35.2656 30.7813V38.2306H35.6656V30.7813H35.2656ZM35.2656 38.2306V38.8195H35.6656V38.2306H35.2656ZM35.3426 38.6617C34.492 39.3244 33.5358 39.9398 32.4742 40.5086L32.6631 40.8612C33.7423 40.2829 34.718 39.6555 35.5885 38.9773L35.3426 38.6617ZM32.7686 40.6849V29.505H32.3686V40.6849H32.7686ZM32.6923 29.6622L37.0376 26.245L36.7904 25.9305L32.445 29.3478L32.6923 29.6622ZM37.114 26.0878V24.5722H36.714V26.0878H37.114ZM36.8881 24.3739L26.5972 25.7198L26.649 26.1165L36.9399 24.7706L36.8881 24.3739ZM26.5972 25.7198C25.7535 25.8302 24.8991 25.8302 24.0554 25.7198L24.0035 26.1165C24.8816 26.2313 25.7709 26.2313 26.649 26.1165L26.5972 25.7198ZM24.0554 25.7198L13.7645 24.3739L13.7126 24.7706L24.0035 26.1165L24.0554 25.7198ZM13.5385 24.5722V26.0878H13.9385V24.5722H13.5385ZM13.6149 26.245L17.9603 29.6622L18.2076 29.3478L13.8622 25.9305L13.6149 26.245ZM17.884 29.505V40.6562H18.284V29.505H17.884ZM18.18 40.4808C17.111 39.8953 16.1559 39.2608 15.3131 38.5765L15.061 38.887C15.9246 39.5883 16.9002 40.236 17.9879 40.8316L18.18 40.4808ZM15.387 38.7318V38.2292H14.987V38.7318H15.387ZM15.387 38.2292V30.7799H14.987V38.2292H15.387ZM15.3172 30.6281L13.7997 29.3274L13.5394 29.6311L15.0569 30.9318L15.3172 30.6281ZM13.7997 29.3274C12.1601 27.922 11.1723 25.9112 11.0537 23.7675L10.6543 23.7896C10.7789 26.0419 11.8167 28.1545 13.5394 29.6311L13.7997 29.3274ZM11.0477 23.8283C12.6473 17.5983 17.4824 11.2675 25.1044 8.49592L24.9677 8.12C17.2108 10.9407 12.2897 17.3826 10.6603 23.7288L11.0477 23.8283ZM24.9677 8.49592C32.3494 11.1802 37.6401 17.2004 39.621 23.2303L40.001 23.1055C37.9826 16.9614 32.6038 10.8471 25.1044 8.12L24.9677 8.49592Z" fill="#454545" mask="url(#path-1-inside-1)"/>
<path d="M26.8959 28.65L31.8896 29.4517V39.6982C31.8896 39.872 31.7774 40.0259 31.6119 40.0791L25.3267 42.0971L19.0415 40.0791C18.876 40.0259 18.7637 39.872 18.7637 39.6982V29.4517L23.7575 28.65C24.797 28.4831 25.8564 28.4831 26.8959 28.65Z" fill="#E9E6E6" stroke="#454545" stroke-width="0.2"/>
<path d="M28.0925 35.3663L29.4907 38.056L28.071 42.3428L25.262 43.8271L22.4529 42.3428L21.0332 38.056L22.4314 35.3663L25.262 35.3663L28.0925 35.3663Z" fill="#FF6666" stroke="#454545" stroke-width="0.2"/>
<path d="M22.6615 31.2833L25.2437 30.5167C25.2804 30.5058 25.3196 30.5057 25.3564 30.5164L27.9919 31.2833" stroke="#464646" stroke-width="0.4" stroke-linecap="square"/>
<path d="M22.6615 33.0214L25.2285 32.0277C25.2745 32.0099 25.3255 32.0097 25.3717 32.0272L27.9919 33.0214" stroke="#464646" stroke-width="0.4" stroke-linecap="square"/>
<path d="M12.2197 29.0597L12.2247 29.0663L12.2306 29.072L14.508 31.2684V38.5372L12.8886 37.4392L10.5927 27.5394C10.4398 26.8801 10.3626 26.2055 10.3626 25.5288V24.0923L10.8575 26.5668C10.9764 27.1611 11.2255 27.7217 11.587 28.2081L12.2197 29.0597Z" fill="#E9E6E6" stroke="#454545" stroke-width="0.2"/>
<path d="M13.1224 35.1494L12.657 33.6113H14.1604V35.1494H13.1224Z" fill="#454545" stroke="#454545" stroke-width="0.2"/>
<path d="M12.6101 33.0636L12.138 29.4445L12.7992 30.1057L12.799 30.1058L12.8039 30.1101L14.1604 31.302V33.0636H12.6101Z" fill="#454545" stroke="#454545" stroke-width="0.2"/>
<path d="M13.4735 37.2352L13.1698 35.697H14.1604V37.2352H13.4735Z" fill="#454545" stroke="#454545" stroke-width="0.2"/>
<path d="M38.3768 29.0641L38.377 29.0642L38.3717 29.0697L36.2346 31.2666V38.528L37.7115 37.441L40.1245 27.5899C40.2942 26.8969 40.38 26.186 40.38 25.4725V24.0923L39.9083 26.4508C39.7742 27.1211 39.4747 27.7473 39.0369 28.2723L38.3768 29.0641Z" fill="#E9E6E6" stroke="#454545" stroke-width="0.2"/>
<path d="M37.6203 35.1494L38.0857 33.6113H36.5823V35.1494H37.6203Z" fill="#454545" stroke="#454545" stroke-width="0.2"/>
<path d="M38.1326 33.0636L38.6047 29.4445L37.9435 30.1057L37.9437 30.1058L37.9388 30.1101L36.5823 31.302V33.0636H38.1326Z" fill="#454545" stroke="#454545" stroke-width="0.2"/>
<path d="M37.2691 37.2352L37.5728 35.697H36.5822V37.2352H37.2691Z" fill="#454545" stroke="#454545" stroke-width="0.2"/>
<circle cx="15.8516" cy="21.0516" r="2.05164" fill="#454545"/>
<circle cx="15.8" cy="21" r="0.9" fill="#FAFF00" stroke="#646464" stroke-width="0.2"/>
<circle cx="34.6927" cy="20.8927" r="1.89266" fill="#454545"/>
<circle cx="34.6927" cy="20.8927" r="0.846329" fill="#FAFF00" stroke="#646464" stroke-width="0.2"/>
<path d="M25.5561 27.8226L25.5561 27.8219L25.5479 27.8228L18.3259 28.5925L14.65 25.6654V25.4569L23.9103 26.6815C25.0006 26.8257 26.1055 26.8199 27.1942 26.6644L35.6424 25.4575L35.6424 25.6672L32.7776 28.2456L25.5561 27.8226Z" fill="#FF6666" stroke="#C56D6D" stroke-width="0.1"/>
<path d="M15.0264 25.5L22.5264 26.5L18.328 28.1276L15.0264 25.5Z" fill="#454545"/>
<path d="M35.7915 25.3L27.6703 26.4L32.3131 28.0846L35.7915 25.3Z" fill="#454545"/>
<path d="M18.3196 27.8936L15.0183 25.4728L22.8018 26.4225L18.3196 27.8936Z" fill="#FAFF00" stroke="#454545" stroke-width="0.1"/>
<path d="M32.2813 27.8789L35.6044 25.3782L27.891 26.5174L32.2813 27.8789Z" fill="#FAFF00" stroke="#454545" stroke-width="0.1"/>
<line x1="25.6265" y1="27.1" x2="25.6265" y2="27.6" stroke="#893A3A" stroke-width="0.2" stroke-linecap="round"/>
<path d="M21.8881 15.1L25.2645 15.1L28.69 15.1L28.6408 17.1603L28.6403 17.1824L28.6491 17.2027L30.3538 21.1074L25.2645 24.5003L20.1752 21.1074L21.8798 17.2027L21.8881 17.1835V17.1626V15.1Z" fill="#FF6666" stroke="#454545" stroke-width="0.2"/>
<path d="M20.6379 17.0813L19.4366 20.0848L0.816114 6.20172L20.6379 15.2795L20.6379 17.0813Z" fill="#E9E6E6" stroke="url(#paint0_linear)" stroke-width="0.2"/>
<path d="M29.9621 17.0813L31.1635 20.0848L49.7839 6.20172L29.9621 15.2795L29.9621 17.0813Z" fill="#E9E6E6" stroke="url(#paint1_linear)" stroke-width="0.2"/>
<path d="M29.7 9.68957L28.8188 13.9H21.7812L20.9 9.68957V5.49155L25.4123 5.10039L29.7 5.49114V9.68957Z" fill="#D7D7D7" stroke="#454545" stroke-width="0.2"/>
<path d="M22.3428 9.35107L22.3428 6.46492L25.2844 7.09691L25.3063 7.10161L25.3276 7.09693L28.3288 6.43794L28.3288 9.34152L27.9552 12.6413L22.8892 12.6633L22.3428 9.35107Z" fill="#F06868" stroke="#454545" stroke-width="0.2" stroke-linecap="round"/>
<line x1="15.5531" y1="30.6753" x2="17.4077" y2="29.7196" stroke="#454545" stroke-width="0.2" stroke-linecap="round" stroke-dasharray="2.2 0"/>
<line x1="21.8862" y1="20.7779" x2="23.5631" y2="19.9138" stroke="#454545" stroke-width="0.4" stroke-linecap="round"/>
<line x1="0.2" y1="-0.2" x2="2.0864" y2="-0.2" transform="matrix(-0.888931 -0.458041 -0.458041 0.888931 28.8325 21.0473)" stroke="#454545" stroke-width="0.4" stroke-linecap="round"/>
<line x1="0.1" y1="-0.1" x2="2.1864" y2="-0.1" transform="matrix(-0.888931 -0.458041 -0.458041 0.888931 35.14 30.81)" stroke="#454545" stroke-width="0.2" stroke-linecap="round" stroke-dasharray="2.2 0"/>
<defs>
<linearGradient id="paint0_linear" x1="2.91984" y1="2.85898" x2="19.716" y2="20.0127" gradientUnits="userSpaceOnUse">
<stop stop-color="#AAAAAA"/>
<stop offset="0.569391" stop-color="#454545"/>
</linearGradient>
<linearGradient id="paint1_linear" x1="47.6802" y1="2.85898" x2="30.884" y2="20.0127" gradientUnits="userSpaceOnUse">
<stop stop-color="#DDDDDD"/>
<stop offset="0.392305" stop-color="#454545"/>
</linearGradient>
</defs>
</svg>
