<svg width="60" height="60" viewBox="0 0 60 60" fill="none" xmlns="http://www.w3.org/2000/svg">
<path fill-rule="evenodd" clip-rule="evenodd" d="M30 60C46.5685 60 60 46.5685 60 30H0C0 46.5685 13.4315 60 30 60Z" fill="#686868"/>
<path fill-rule="evenodd" clip-rule="evenodd" d="M58.2929 40C59.3985 36.8722 60 33.5064 60 30C60 13.4315 46.5685 0 30 0C13.4315 0 0 13.4315 0 30C0 33.5064 0.601542 36.8722 1.70706 40H58.2929Z" fill="#444444"/>
<mask id="path-3-inside-1" fill="white">
<path fill-rule="evenodd" clip-rule="evenodd" d="M43.647 31.6176V31.7708C43.647 33.9766 42.6831 36.0724 41.0083 37.5079L39.5924 38.7216V45.6724V46.2219C38.7894 46.8475 37.8881 47.4273 36.8893 47.9625V37.5306L40.9439 34.3421V32.928L31.4284 34.1725C30.5675 34.2851 29.6957 34.2851 28.8348 34.1725L19.3192 32.928V34.3421L23.3739 37.5306V47.9357C22.3677 47.3847 21.467 46.7865 20.6708 46.14V45.6711V38.7203L19.2549 37.5066C17.6862 36.1621 16.7412 34.2383 16.6277 32.1874C18.1342 26.32 22.6858 20.3611 29.8607 17.752C36.8035 20.2766 41.7812 25.9379 43.647 31.6176Z"/>
</mask>
<path fill-rule="evenodd" clip-rule="evenodd" d="M43.647 31.6176V31.7708C43.647 33.9766 42.6831 36.0724 41.0083 37.5079L39.5924 38.7216V45.6724V46.2219C38.7894 46.8475 37.8881 47.4273 36.8893 47.9625V37.5306L40.9439 34.3421V32.928L31.4284 34.1725C30.5675 34.2851 29.6957 34.2851 28.8348 34.1725L19.3192 32.928V34.3421L23.3739 37.5306V47.9357C22.3677 47.3847 21.467 46.7865 20.6708 46.14V45.6711V38.7203L19.2549 37.5066C17.6862 36.1621 16.7412 34.2383 16.6277 32.1874C18.1342 26.32 22.6858 20.3611 29.8607 17.752C36.8035 20.2766 41.7812 25.9379 43.647 31.6176Z" fill="white"/>
<path d="M43.647 31.6176H43.847V31.5856L43.8371 31.5552L43.647 31.6176ZM41.0083 37.5079L40.8782 37.3561L40.8782 37.3561L41.0083 37.5079ZM39.5924 38.7216L39.4623 38.5697L39.3924 38.6296V38.7216H39.5924ZM39.5924 46.2219L39.7153 46.3797L39.7924 46.3196V46.2219H39.5924ZM36.8893 47.9625H36.6893V48.2965L36.9838 48.1388L36.8893 47.9625ZM36.8893 37.5306L36.7657 37.3734L36.6893 37.4335V37.5306H36.8893ZM40.9439 34.3421L41.0676 34.4993L41.1439 34.4392V34.3421H40.9439ZM40.9439 32.928H41.1439V32.7001L40.918 32.7297L40.9439 32.928ZM31.4284 34.1725L31.4025 33.9742L31.4025 33.9742L31.4284 34.1725ZM28.8348 34.1725L28.8088 34.3708L28.8088 34.3708L28.8348 34.1725ZM19.3192 32.928L19.3452 32.7297L19.1192 32.7001V32.928H19.3192ZM19.3192 34.3421H19.1192V34.4392L19.1956 34.4993L19.3192 34.3421ZM23.3739 37.5306H23.5739V37.4335L23.4975 37.3734L23.3739 37.5306ZM23.3739 47.9357L23.2778 48.1111L23.5739 48.2733V47.9357H23.3739ZM20.6708 46.14H20.4708V46.2353L20.5447 46.2953L20.6708 46.14ZM20.6708 38.7203H20.8708V38.6283L20.801 38.5684L20.6708 38.7203ZM19.2549 37.5066L19.1247 37.6585L19.1247 37.6585L19.2549 37.5066ZM16.6277 32.1874L16.434 32.1377L16.4263 32.1676L16.428 32.1985L16.6277 32.1874ZM29.8607 17.752L29.9291 17.5641L29.8607 17.5392L29.7924 17.5641L29.8607 17.752ZM43.447 31.6176V31.7708H43.847V31.6176H43.447ZM43.447 31.7708C43.447 33.9183 42.5087 35.9585 40.8782 37.3561L41.1385 37.6598C42.8576 36.1862 43.847 34.035 43.847 31.7708H43.447ZM40.8782 37.3561L39.4623 38.5697L39.7226 38.8734L41.1385 37.6598L40.8782 37.3561ZM39.3924 38.7216V45.6724H39.7924V38.7216H39.3924ZM39.3924 45.6724V46.2219H39.7924V45.6724H39.3924ZM39.4695 46.0641C38.6764 46.682 37.7848 47.2557 36.7949 47.7862L36.9838 48.1388C37.9914 47.5989 38.9024 47.013 39.7153 46.3797L39.4695 46.0641ZM37.0893 47.9625V37.5306H36.6893V47.9625H37.0893ZM37.013 37.6879L41.0676 34.4993L40.8203 34.1849L36.7657 37.3734L37.013 37.6879ZM41.1439 34.3421V32.928H40.7439V34.3421H41.1439ZM40.918 32.7297L31.4025 33.9742L31.4543 34.3708L40.9699 33.1263L40.918 32.7297ZM31.4025 33.9742C30.5588 34.0845 29.7044 34.0845 28.8607 33.9742L28.8088 34.3708C29.6869 34.4856 30.5762 34.4856 31.4543 34.3708L31.4025 33.9742ZM28.8607 33.9742L19.3452 32.7297L19.2933 33.1263L28.8088 34.3708L28.8607 33.9742ZM19.1192 32.928V34.3421H19.5192V32.928H19.1192ZM19.1956 34.4993L23.2503 37.6879L23.4975 37.3734L19.4429 34.1849L19.1956 34.4993ZM23.1739 37.5306V47.9357H23.5739V37.5306H23.1739ZM23.47 47.7603C22.4731 47.2144 21.5826 46.6228 20.7969 45.9848L20.5447 46.2953C21.3513 46.9502 22.2623 47.555 23.2778 48.1111L23.47 47.7603ZM20.8708 46.14V45.6711H20.4708V46.14H20.8708ZM20.8708 45.6711V38.7203H20.4708V45.6711H20.8708ZM20.801 38.5684L19.385 37.3548L19.1247 37.6585L20.5406 38.8721L20.801 38.5684ZM19.385 37.3548C17.8579 36.0458 16.9379 34.173 16.8274 32.1764L16.428 32.1985C16.5445 34.3037 17.5145 36.2783 19.1247 37.6585L19.385 37.3548ZM16.8214 32.2371C18.313 26.4279 22.8217 20.5245 29.9291 17.94L29.7924 17.5641C22.55 20.1976 17.9554 26.2122 16.434 32.1377L16.8214 32.2371ZM29.7924 17.94C36.6763 20.4432 41.61 26.0574 43.457 31.6801L43.8371 31.5552C41.9525 25.8184 36.9306 20.1101 29.9291 17.5641L29.7924 17.94Z" fill="url(#paint0_linear)" mask="url(#path-3-inside-1)"/>
<path d="M31.7012 36.7565L36.2491 37.4866V47.0174C36.2491 47.1912 36.1368 47.3452 35.9714 47.3983L30.132 49.2731L24.2926 47.3983C24.1271 47.3452 24.0149 47.1912 24.0149 47.0174V37.4866L28.5628 36.7565C29.6023 36.5897 30.6617 36.5897 31.7012 36.7565Z" fill="white" stroke="url(#paint1_linear)" stroke-width="0.2"/>
<path d="M32.7087 43.0065L34.0101 45.5101L32.6871 49.5048L30.0716 50.8869L27.456 49.5048L26.133 45.5101L27.4344 43.0065L30.0716 43.0065L32.7087 43.0065Z" fill="#FF4E63" stroke="#454545" stroke-width="0.2"/>
<path d="M27.6452 39.1899L30.0507 38.4758C30.0875 38.4649 30.1267 38.4648 30.1635 38.4755L32.6189 39.1899" stroke="#464646" stroke-width="0.4" stroke-linecap="square"/>
<path d="M27.6452 40.8118L30.0356 39.8864C30.0816 39.8686 30.1326 39.8684 30.1787 39.8859L32.6189 40.8118" stroke="#464646" stroke-width="0.4" stroke-linecap="square"/>
<path d="M17.8967 37.1191L17.9016 37.1258L17.9075 37.1315L20.0306 39.179V45.9459L18.5321 44.93L16.406 35.7622C16.2531 35.1029 16.1759 34.4284 16.1759 33.7516V32.5477L16.6127 34.7315C16.7315 35.3258 16.9807 35.8864 17.3421 36.3728L17.8967 37.1191Z" fill="white" stroke="url(#paint2_linear)" stroke-width="0.2"/>
<path d="M18.6717 42.8406L18.2415 41.4187H19.6287V42.8406H18.6717Z" fill="#454545" stroke="#CBCBCB" stroke-width="0.2"/>
<path d="M18.2051 40.9712L17.768 37.6196L18.371 38.2226L18.3708 38.2228L18.3757 38.227L19.0244 38.797L19.6392 39.3372V40.9712H18.2051Z" fill="#454545" stroke="#CBCBCB" stroke-width="0.2"/>
<path d="M18.9814 44.7369L18.7006 43.3151H19.6101V44.7369H18.9814Z" fill="#454545" stroke="#CBCBCB" stroke-width="0.2"/>
<path d="M42.314 37.1235L42.3142 37.1237L42.3089 37.1292L40.3166 39.1771V45.9367L41.6821 44.9317L43.9158 35.8127C44.0855 35.1197 44.1713 34.4088 44.1713 33.6953V32.5477L43.7577 34.6155C43.6237 35.2858 43.3241 35.912 42.8864 36.437L42.314 37.1235Z" fill="white" stroke="url(#paint3_linear)" stroke-width="0.2"/>
<path d="M41.6762 42.7907L42.1064 41.3689H40.7193V42.7907H41.6762Z" fill="#454545" stroke="#CBCBCB" stroke-width="0.2"/>
<path d="M42.1625 40.8445L42.5997 37.4929L41.9966 38.0959L41.9968 38.096L41.9919 38.1003L40.7284 39.2105V40.8445H42.1625Z" fill="#454545" stroke="#CBCBCB" stroke-width="0.2"/>
<path d="M41.3351 44.7369L41.6158 43.3151H40.7063V44.7369H41.3351Z" fill="#454545" stroke="#CBCBCB" stroke-width="0.2"/>
<circle cx="21.2909" cy="29.643" r="1.91435" fill="#454545"/>
<circle cx="21.2427" cy="29.5948" r="0.833086" fill="#DBFF00" stroke="#646464" stroke-width="0.2"/>
<circle cx="38.8712" cy="29.4946" r="1.76601" fill="#454545"/>
<circle cx="38.8712" cy="29.4946" r="0.783006" fill="#DBFF00" stroke="#646464" stroke-width="0.2"/>
<path d="M30.3548 35.9081L30.3438 35.9068L30.3327 35.908L23.6158 36.6239L20.2231 33.9223V33.8143L28.6939 34.9345C29.7887 35.0793 30.8982 35.0735 31.9914 34.9173L39.7041 33.8155L39.7041 33.9268L36.7616 36.65L30.3548 35.9081Z" fill="#FF4E63" stroke="#454545" stroke-width="0.2"/>
<path d="M20.521 33.7937L27.5191 34.7268L23.6016 36.2455L20.521 33.7937Z" fill="#454545"/>
<path d="M39.8965 33.6071L32.4678 34.7874L36.6509 36.2053L39.8965 33.6071Z" fill="#454545"/>
<path d="M23.5952 36.0242L20.5329 33.8169L27.8947 34.805L23.5952 36.0242Z" fill="#DBFF00" stroke="#454545" stroke-width="0.1"/>
<path d="M36.6205 36.0098L39.7058 33.688L32.6887 34.8029L36.6205 36.0098Z" fill="#DBFF00" stroke="#454545" stroke-width="0.1"/>
<line x1="30.4184" y1="35.2933" x2="30.4184" y2="35.7465" stroke="#893A3A" stroke-width="0.2" stroke-linecap="round"/>
<path d="M26.9302 24.0963L30.0739 24.0963L33.2633 24.0963L33.2176 26.0118L33.2171 26.0339L33.226 26.0542L34.8143 29.6925L30.0739 32.8528L25.3335 29.6925L26.9218 26.0542L26.9302 26.0351V26.0142V24.0963Z" fill="#FF4E63" stroke="#454545" stroke-width="0.2"/>
<path d="M25.7503 25.9371L24.633 28.7303L7.31611 15.8191L25.7503 24.2614L25.7503 25.9371Z" fill="white" stroke="url(#paint4_linear)" stroke-width="0.2"/>
<path d="M34.4639 25.9371L35.5811 28.7303L52.898 15.8191L34.4639 24.2614L34.4639 25.9371Z" fill="white" stroke="url(#paint5_linear)" stroke-width="0.2"/>
<path d="M34.206 19.0405L33.3849 22.9632H26.8292L26.0082 19.0405V15.1302L30.2118 14.7658L34.206 15.1298V19.0405Z" fill="white" stroke="url(#paint6_linear)" stroke-width="0.2"/>
<path d="M27.3545 18.7252L27.3545 16.0405L30.0914 16.6285L30.1133 16.6332L30.1347 16.6285L32.9265 16.0155L32.9265 18.7157L32.5785 21.7888L27.8633 21.8093L27.3545 18.7252Z" fill="#FF4E63" stroke="url(#paint7_linear)" stroke-width="0.2" stroke-linecap="round"/>
<line x1="21.0152" y1="38.6137" x2="22.7339" y2="37.7281" stroke="#7A7777" stroke-width="0.2" stroke-linecap="round" stroke-dasharray="2.2 0"/>
<line x1="0.1" y1="-0.1" x2="2.03341" y2="-0.1" transform="matrix(-0.888931 -0.458041 -0.458041 0.888931 39.2886 38.7484)" stroke="#7A7777" stroke-width="0.2" stroke-linecap="round" stroke-dasharray="2.2 0"/>
<path d="M37.4115 36.6531L37.3986 36.7451L37.5231 36.9038L37.477 36.94L37.0142 36.3497L37.0603 36.3136L37.3565 36.6913L37.3631 36.6104L37.3996 36.3293L37.4576 36.2838L37.4186 36.5973L37.799 36.6875L37.744 36.7306L37.4115 36.6531ZM37.9591 36.5743C37.9238 36.602 37.8849 36.6184 37.8426 36.6235C37.8005 36.6284 37.7594 36.6215 37.7192 36.603C37.6788 36.5842 37.6434 36.5555 37.6131 36.5168L37.6001 36.5002C37.5688 36.4603 37.5483 36.4183 37.5385 36.3742C37.5291 36.3299 37.531 36.2878 37.5444 36.248C37.5576 36.2078 37.5804 36.1751 37.6127 36.1498C37.6631 36.1102 37.7166 36.0962 37.7732 36.1077C37.8298 36.1187 37.8816 36.1541 37.9284 36.2138L37.9485 36.2395L37.6519 36.4721L37.6588 36.4809C37.6958 36.5281 37.7401 36.5568 37.7917 36.5673C37.8433 36.5772 37.8896 36.5661 37.9306 36.534C37.9552 36.5147 37.9734 36.4933 37.985 36.4696C37.997 36.4458 38.0029 36.418 38.0028 36.3862L38.0488 36.3855C38.0533 36.461 38.0234 36.5239 37.9591 36.5743ZM37.6434 36.189C37.6088 36.2161 37.5895 36.2517 37.5856 36.2957C37.5819 36.3396 37.5943 36.3849 37.6227 36.4317L37.8721 36.2362L37.8682 36.2312C37.8356 36.1922 37.7986 36.1686 37.7574 36.1604C37.7162 36.1521 37.6782 36.1617 37.6434 36.189ZM38.2101 36.2628L38.0602 35.8113L38.1075 35.7742L38.2783 36.3117L38.241 36.3409L37.759 36.0475L37.8063 36.0104L38.2101 36.2628ZM38.4977 36.1396L38.4516 36.1758L38.1256 35.76L38.1717 35.7239L38.4977 36.1396ZM38.0233 35.6461C38.0164 35.6374 38.0135 35.6278 38.0145 35.6175C38.0154 35.607 38.0206 35.5979 38.0304 35.5902C38.0401 35.5826 38.0502 35.5797 38.0607 35.5814C38.0712 35.5827 38.0798 35.5876 38.0867 35.5964C38.0935 35.6051 38.0963 35.6147 38.095 35.6252C38.094 35.6355 38.0886 35.6445 38.0789 35.6521C38.0691 35.6597 38.0591 35.6628 38.0489 35.6613C38.0386 35.6599 38.0301 35.6548 38.0233 35.6461ZM38.2779 35.6407L38.3351 35.7105C38.3307 35.6727 38.3349 35.6379 38.3477 35.6063C38.3604 35.5745 38.3808 35.5475 38.409 35.5254C38.4536 35.4905 38.4966 35.477 38.5381 35.485C38.5795 35.4931 38.6201 35.5221 38.6597 35.5721L38.8736 35.8449L38.8279 35.8808L38.6137 35.6076C38.5843 35.5706 38.5546 35.5492 38.5248 35.5432C38.4951 35.5371 38.4633 35.5474 38.4292 35.5741C38.4008 35.5964 38.3826 35.6252 38.3746 35.6604C38.3667 35.6951 38.3693 35.7317 38.3825 35.7702L38.6058 36.0549L38.56 36.0908L38.2341 35.675L38.2779 35.6407ZM38.7202 35.122L38.8036 35.2284L38.8897 35.1609L38.9192 35.1986L38.8332 35.2661L39.0504 35.5431C39.0685 35.5662 39.086 35.5801 39.1031 35.585C39.1203 35.5896 39.1387 35.5843 39.1582 35.569C39.1659 35.563 39.1773 35.552 39.1925 35.536L39.2239 35.5721C39.2153 35.5859 39.2006 35.6009 39.1798 35.6172C39.1483 35.6419 39.1183 35.6508 39.0897 35.6439C39.0609 35.6367 39.0325 35.6153 39.0046 35.5797L38.7871 35.3022L38.7106 35.3622L38.6811 35.3245L38.7575 35.2646L38.6741 35.1581L38.7202 35.122ZM39.0472 35.3632C39.0158 35.3233 38.9953 35.2812 38.9856 35.2372C38.9761 35.1929 38.9785 35.1509 38.9928 35.1111C39.0072 35.0709 39.0323 35.0367 39.0682 35.0086C39.1235 34.9652 39.1836 34.9495 39.2485 34.9615C39.3131 34.9733 39.3706 35.0112 39.4208 35.0753L39.4283 35.0849C39.4598 35.1251 39.4805 35.1675 39.4901 35.212C39.4999 35.2561 39.4975 35.2979 39.483 35.3374C39.4684 35.3769 39.4431 35.4108 39.407 35.4391C39.3519 35.4823 39.2919 35.4981 39.227 35.4865C39.1622 35.4745 39.1046 35.4365 39.0544 35.3724L39.0472 35.3632ZM39.1032 35.3397C39.1422 35.3894 39.187 35.4203 39.2378 35.4322C39.2885 35.4437 39.3348 35.433 39.3766 35.4003C39.4181 35.3678 39.4392 35.3256 39.4399 35.2737C39.4406 35.2214 39.4205 35.1691 39.3796 35.1169L39.3726 35.108C39.3477 35.0763 39.319 35.0518 39.2866 35.0347C39.2541 35.0175 39.2216 35.0101 39.1891 35.0124C39.1564 35.0145 39.1263 35.0263 39.0989 35.0478C39.0579 35.0799 39.0372 35.1223 39.0366 35.1748C39.0358 35.2271 39.0558 35.2793 39.0966 35.3313L39.1032 35.3397ZM39.643 35.0871L39.678 35.1175L39.6577 35.0726L39.5081 34.6761L39.5473 34.6453L39.8934 34.8834L39.9385 34.9188L39.9157 34.8715L39.751 34.4857L39.7986 34.4483L40.0035 34.959L39.9643 34.9897L39.599 34.7438L39.5763 34.725L39.5893 34.752L39.7426 35.1635L39.7034 35.1943L39.2568 34.8731L39.3041 34.8361L39.643 35.0871ZM39.8667 34.3949L39.9239 34.4648C39.9195 34.427 39.9237 34.3922 39.9366 34.3606C39.9492 34.3288 39.9697 34.3018 39.9978 34.2797C40.0424 34.2448 40.0854 34.2313 40.1269 34.2393C40.1683 34.2474 40.2089 34.2764 40.2485 34.3264L40.4624 34.5992L40.4167 34.6351L40.2025 34.3619C40.1731 34.3249 40.1435 34.3035 40.1136 34.2975C40.0839 34.2914 40.0521 34.3017 40.018 34.3284C39.9896 34.3507 39.9714 34.3794 39.9634 34.4146C39.9555 34.4494 39.9581 34.486 39.9713 34.5245L40.1946 34.8092L40.1489 34.845L39.8229 34.4293L39.8667 34.3949ZM40.6856 34.4366C40.6502 34.4643 40.6114 34.4807 40.569 34.4858C40.527 34.4907 40.4858 34.4839 40.4456 34.4653C40.4052 34.4465 40.3699 34.4178 40.3396 34.3791L40.3266 34.3626C40.2953 34.3226 40.2747 34.2806 40.265 34.2365C40.2555 34.1922 40.2575 34.1502 40.2709 34.1103C40.2841 34.0701 40.3068 34.0374 40.3391 34.0121C40.3896 33.9726 40.4431 33.9585 40.4997 33.97C40.5563 33.981 40.608 34.0164 40.6548 34.0761L40.675 34.1018L40.3784 34.3344L40.3853 34.3432C40.4222 34.3904 40.4665 34.4191 40.5181 34.4296C40.5698 34.4395 40.6161 34.4284 40.6571 34.3963C40.6817 34.377 40.6998 34.3556 40.7115 34.3319C40.7234 34.3081 40.7293 34.2803 40.7292 34.2485L40.7752 34.2478C40.7798 34.3233 40.7499 34.3862 40.6856 34.4366ZM40.3698 34.0513C40.3353 34.0784 40.316 34.114 40.3121 34.158C40.3084 34.2019 40.3207 34.2472 40.3492 34.294L40.5985 34.0985L40.5946 34.0935C40.562 34.0545 40.5251 34.0309 40.4839 34.0227C40.4427 34.0145 40.4047 34.024 40.3698 34.0513ZM40.759 33.7586C40.7479 33.7644 40.7368 33.7717 40.7258 33.7803C40.6971 33.8028 40.6791 33.8299 40.6718 33.8617C40.6645 33.8931 40.6686 33.9273 40.684 33.9644L40.9079 34.2499L40.8622 34.2858L40.5362 33.87L40.5811 33.8348L40.6337 33.9003C40.6195 33.832 40.6393 33.7768 40.6931 33.7346C40.7059 33.7246 40.7173 33.7183 40.7273 33.7158L40.759 33.7586Z" fill="#565656"/>
<path d="M6.05811 40.2461H6.19189C6.25635 40.2461 6.30322 40.2624 6.33252 40.2949C6.36182 40.3278 6.37646 40.3799 6.37646 40.4512C6.37646 40.5514 6.34701 40.6162 6.28809 40.6455C6.25846 40.6589 6.21566 40.6655 6.15967 40.6655V41H6.05811V40.2461ZM6.15967 40.5786C6.20166 40.5786 6.23063 40.5701 6.24658 40.5532C6.26286 40.536 6.271 40.5054 6.271 40.4614C6.271 40.4165 6.26318 40.3836 6.24756 40.3628C6.23193 40.342 6.20736 40.3315 6.17383 40.3315H6.15967V40.5786ZM6.46922 40.4946H6.56248V40.5576C6.57843 40.5309 6.59422 40.5122 6.60984 40.5015C6.62547 40.4907 6.64614 40.4845 6.67186 40.4829V40.5806C6.66534 40.5796 6.65981 40.5791 6.65525 40.5791C6.62173 40.5791 6.5978 40.5877 6.58348 40.605C6.56948 40.6219 6.56248 40.6515 6.56248 40.6938V41H6.46922V40.4946ZM7.05807 40.7515C7.05807 40.9224 7.00517 41.0078 6.89937 41.0078C6.79358 41.0078 6.74068 40.9211 6.74068 40.7476C6.74068 40.5734 6.79342 40.4863 6.89889 40.4863C6.92623 40.4863 6.94983 40.4915 6.96969 40.502C6.98987 40.5124 7.00647 40.5285 7.01949 40.5503C7.03251 40.5721 7.04212 40.5996 7.0483 40.6328C7.05481 40.666 7.05807 40.7056 7.05807 40.7515ZM6.96139 40.749C6.96139 40.6826 6.95699 40.6364 6.9482 40.6104C6.93941 40.584 6.92379 40.5708 6.90133 40.5708C6.87919 40.5708 6.8634 40.5838 6.85396 40.6099C6.84518 40.6359 6.84078 40.6813 6.84078 40.7461C6.84078 40.8109 6.84518 40.8561 6.85396 40.8818C6.8634 40.9079 6.87919 40.9209 6.90133 40.9209C6.92346 40.9209 6.93893 40.908 6.94771 40.8823C6.95683 40.8582 6.96139 40.8138 6.96139 40.749ZM7.17572 40.353H7.26898V40.4946H7.31977V40.5688H7.26898V41H7.17572V40.5688H7.12445V40.4946H7.17572V40.353ZM7.70353 40.7515C7.70353 40.9224 7.65064 41.0078 7.54484 41.0078C7.43905 41.0078 7.38615 40.9211 7.38615 40.7476C7.38615 40.5734 7.43889 40.4863 7.54436 40.4863C7.5717 40.4863 7.5953 40.4915 7.61516 40.502C7.63534 40.5124 7.65194 40.5285 7.66496 40.5503C7.67798 40.5721 7.68758 40.5996 7.69377 40.6328C7.70028 40.666 7.70353 40.7056 7.70353 40.7515ZM7.60686 40.749C7.60686 40.6826 7.60246 40.6364 7.59367 40.6104C7.58488 40.584 7.56926 40.5708 7.5468 40.5708C7.52466 40.5708 7.50887 40.5838 7.49943 40.6099C7.49064 40.6359 7.48625 40.6813 7.48625 40.7461C7.48625 40.8109 7.49064 40.8561 7.49943 40.8818C7.50887 40.9079 7.52466 40.9209 7.5468 40.9209C7.56893 40.9209 7.58439 40.908 7.59318 40.8823C7.6023 40.8582 7.60686 40.8138 7.60686 40.749ZM7.82119 40.353H7.91445V40.4946H7.96523V40.5688H7.91445V41H7.82119V40.5688H7.76992V40.4946H7.82119V40.353ZM8.00379 40.4946H8.10926L8.18348 40.8472L8.27039 40.4946H8.36512L8.15857 41.207H8.06043L8.13807 40.9595L8.00379 40.4946ZM8.44176 41.207V40.4946H8.53502V40.5601C8.54804 40.5324 8.56139 40.5132 8.57506 40.5024C8.58873 40.4917 8.60663 40.4863 8.62877 40.4863C8.67044 40.4863 8.70087 40.508 8.72008 40.5513C8.73961 40.5942 8.74937 40.6616 8.74937 40.7534C8.74937 40.8433 8.73945 40.9079 8.71959 40.9473C8.70006 40.9876 8.66865 41.0078 8.62535 41.0078C8.60452 41.0078 8.58743 41.0031 8.57408 40.9937C8.56757 40.9891 8.56106 40.9826 8.55455 40.9741C8.54804 40.9657 8.54153 40.9554 8.53502 40.9434V41.207H8.44176ZM8.6527 40.75C8.6527 40.6813 8.64814 40.6348 8.63902 40.6104C8.63023 40.584 8.61445 40.5708 8.59166 40.5708C8.57018 40.5708 8.55488 40.5845 8.54576 40.6118C8.53665 40.6372 8.53209 40.6825 8.53209 40.7476C8.53209 40.8127 8.53665 40.8579 8.54576 40.8833C8.5552 40.9103 8.5705 40.9238 8.59166 40.9238C8.6138 40.9238 8.62958 40.9108 8.63902 40.8848C8.64814 40.8607 8.6527 40.8158 8.6527 40.75ZM9.0516 40.8296H9.13852C9.13168 40.9484 9.08285 41.0078 8.99203 41.0078C8.96501 41.0078 8.94174 41.0028 8.92221 40.9927C8.903 40.9826 8.88705 40.967 8.87436 40.9458C8.86166 40.9246 8.85222 40.8978 8.84603 40.8652C8.84018 40.8327 8.83725 40.7939 8.83725 40.749C8.83725 40.6598 8.84962 40.5937 8.87436 40.5508C8.89942 40.5078 8.93799 40.4863 8.99008 40.4863C9.09131 40.4863 9.14193 40.5755 9.14193 40.7539V40.7656H8.92855C8.92855 40.8737 8.95004 40.9277 8.99301 40.9277C9.03207 40.9277 9.0516 40.895 9.0516 40.8296ZM9.04672 40.6982C9.04281 40.6452 9.03679 40.6104 9.02865 40.5937C9.02019 40.5752 9.00652 40.5659 8.98764 40.5659C8.96843 40.5659 8.95476 40.5752 8.94662 40.5937C8.93848 40.6104 8.93246 40.6452 8.92855 40.6982H9.04672ZM9.47783 40.2461H9.61162C9.66696 40.2461 9.70814 40.2593 9.73516 40.2856C9.76934 40.3198 9.78643 40.3721 9.78643 40.4424C9.78643 40.4964 9.77731 40.5399 9.75908 40.5728C9.74118 40.6053 9.71546 40.6255 9.68193 40.6333L9.82061 41H9.71758L9.57939 40.6309V41H9.47783V40.2461ZM9.57939 40.5801C9.61878 40.5801 9.64661 40.571 9.66289 40.5527C9.67917 40.5345 9.6873 40.5037 9.6873 40.4604C9.6873 40.437 9.68551 40.417 9.68193 40.4004C9.67868 40.3838 9.67331 40.3703 9.66582 40.3599C9.65866 40.3494 9.64922 40.3418 9.6375 40.3369C9.62611 40.332 9.61243 40.3296 9.59648 40.3296H9.57939V40.5801ZM9.86844 40.2461H9.96707L10.0193 40.3921C10.0398 40.4497 10.052 40.4919 10.0559 40.5186C10.0595 40.502 10.0634 40.4858 10.0677 40.4702C10.0722 40.4546 10.0769 40.439 10.0818 40.4233L10.0887 40.4014L10.137 40.2461H10.2395L10.0999 40.6172L10.2395 41H10.137L10.0872 40.8564C10.0771 40.8278 10.069 40.8021 10.0628 40.7793C10.0566 40.7565 10.0522 40.7363 10.0496 40.7187C10.047 40.7406 10.0426 40.7614 10.0364 40.7812L10.0193 40.835L10.0105 40.8633L9.96707 41H9.85965L10.0022 40.6172L9.86844 40.2461ZM10.2703 40.7031H10.448V40.7793H10.2703V40.7031ZM10.5163 40.2461H10.8533L10.6247 41H10.5163L10.7258 40.332H10.5163V40.2461ZM11.1833 40.5908C11.2172 40.6032 11.2404 40.6229 11.2531 40.6499C11.2658 40.6769 11.2722 40.7207 11.2722 40.7812C11.2722 40.8594 11.259 40.9168 11.2326 40.9536C11.2066 40.9904 11.1656 41.0088 11.1096 41.0088C11.0533 41.0088 11.0119 40.9904 10.9856 40.9536C10.9595 40.9168 10.9465 40.8594 10.9465 40.7812C10.9465 40.7207 10.9529 40.6769 10.9655 40.6499C10.9782 40.6229 11.0015 40.6032 11.0354 40.5908C11.0054 40.5778 10.9843 40.5586 10.9719 40.5332C10.9595 40.5059 10.9533 40.4689 10.9533 40.4224C10.9533 40.3901 10.9563 40.3623 10.9621 40.3389C10.9683 40.3154 10.9778 40.2962 10.9904 40.2812C11.0031 40.266 11.0193 40.2547 11.0388 40.2476C11.0586 40.2404 11.0822 40.2368 11.1096 40.2368C11.1369 40.2368 11.1604 40.2404 11.1799 40.2476C11.1994 40.2547 11.2155 40.266 11.2282 40.2812C11.2409 40.2962 11.2502 40.3154 11.2561 40.3389C11.2623 40.3623 11.2654 40.3901 11.2654 40.4224C11.2654 40.4689 11.2592 40.5059 11.2468 40.5332C11.2344 40.5586 11.2133 40.5778 11.1833 40.5908ZM11.1653 40.4307C11.1653 40.3597 11.1465 40.3242 11.1091 40.3242C11.072 40.3242 11.0534 40.3594 11.0534 40.4297C11.0534 40.5078 11.0722 40.5469 11.1096 40.5469C11.1467 40.5469 11.1653 40.5081 11.1653 40.4307ZM11.1721 40.793C11.1721 40.7666 11.171 40.7441 11.1687 40.7256C11.1664 40.7067 11.1626 40.6914 11.1574 40.6797C11.1522 40.668 11.1456 40.6593 11.1374 40.6538C11.1296 40.6483 11.1202 40.6455 11.1091 40.6455C11.0873 40.6455 11.0713 40.6567 11.0612 40.6792C11.0515 40.7017 11.0466 40.738 11.0466 40.7881C11.0466 40.8757 11.0676 40.9194 11.1096 40.9194C11.1513 40.9194 11.1721 40.8773 11.1721 40.793ZM11.3361 40.7031H11.5139V40.7793H11.3361V40.7031ZM11.6813 40.4912H11.5817L11.5807 40.4614C11.5807 40.3791 11.5931 40.3211 11.6179 40.2876C11.6429 40.2537 11.6849 40.2368 11.7438 40.2368C11.8548 40.2368 11.9103 40.2983 11.9103 40.4214C11.9103 40.5044 11.8688 40.624 11.7858 40.7803L11.7258 40.8931C11.7254 40.8937 11.7245 40.8957 11.7228 40.8989C11.7212 40.9022 11.7189 40.9069 11.716 40.9131H11.9025V41H11.5715C11.577 40.9876 11.5886 40.9631 11.6061 40.9263C11.6237 40.8895 11.6476 40.8398 11.6779 40.7773C11.7036 40.7227 11.7251 40.6763 11.7424 40.6382C11.7596 40.6001 11.7726 40.5688 11.7814 40.5444C11.799 40.4956 11.8078 40.4535 11.8078 40.418C11.8078 40.3555 11.7861 40.3242 11.7429 40.3242C11.7012 40.3242 11.6804 40.363 11.6804 40.4404L11.6808 40.4834L11.6813 40.4912Z" fill="#444444"/>
<defs>
<linearGradient id="paint0_linear" x1="30.1374" y1="17.752" x2="30" y2="50.5" gradientUnits="userSpaceOnUse">
<stop offset="0.480303" stop-color="#AFA8A8"/>
<stop offset="1" stop-color="#454545"/>
</linearGradient>
<linearGradient id="paint1_linear" x1="30" y1="37.5" x2="30" y2="40" gradientUnits="userSpaceOnUse">
<stop stop-color="#AFA9A9"/>
<stop offset="1" stop-color="#454545"/>
</linearGradient>
<linearGradient id="paint2_linear" x1="18.1032" y1="32.3487" x2="18.1032" y2="46.1345" gradientUnits="userSpaceOnUse">
<stop stop-color="#AFA9A9"/>
<stop offset="1" stop-color="#454545"/>
</linearGradient>
<linearGradient id="paint3_linear" x1="42.244" y1="32.3487" x2="42.244" y2="46.1345" gradientUnits="userSpaceOnUse">
<stop stop-color="#AFA9A9"/>
<stop offset="1" stop-color="#454545"/>
</linearGradient>
<linearGradient id="paint4_linear" x1="9.22446" y1="12.6677" x2="24.8967" y2="28.6735" gradientUnits="userSpaceOnUse">
<stop stop-color="#AFA9A9"/>
<stop offset="0.569391" stop-color="#454545"/>
</linearGradient>
<linearGradient id="paint5_linear" x1="50.9897" y1="12.6677" x2="35.3174" y2="28.6735" gradientUnits="userSpaceOnUse">
<stop stop-color="#DDDDDD"/>
<stop offset="0.392305" stop-color="#454545"/>
</linearGradient>
<linearGradient id="paint6_linear" x1="30.1071" y1="14.6654" x2="30.1071" y2="23.0632" gradientUnits="userSpaceOnUse">
<stop stop-color="#AFA9A9"/>
<stop offset="1" stop-color="#454545"/>
</linearGradient>
<linearGradient id="paint7_linear" x1="30.8714" y1="22.0496" x2="30.2943" y2="15.6446" gradientUnits="userSpaceOnUse">
<stop stop-color="#AFA9A9"/>
<stop offset="1" stop-color="#454545"/>
</linearGradient>
</defs>
</svg>
