<svg width="48" height="41" viewBox="0 0 48 41" fill="none" xmlns="http://www.w3.org/2000/svg">
<mask id="path-1-inside-1" fill="white">
<path fill-rule="evenodd" clip-rule="evenodd" d="M37.147 21.6176V21.7708C37.147 23.9766 36.1831 26.0724 34.5083 27.5079L33.0924 28.7216V35.6724V36.2219C32.2894 36.8475 31.3881 37.4273 30.3893 37.9625V27.5306L34.4439 24.3421V22.928L24.9284 24.1725C24.0675 24.2851 23.1957 24.2851 22.3348 24.1725L12.8192 22.928V24.3421L16.8739 27.5306V37.9357C15.8677 37.3847 14.967 36.7865 14.1708 36.14V35.6711V28.7203L12.7549 27.5066C11.1862 26.1621 10.2412 24.2383 10.1277 22.1874C11.6342 16.32 16.1858 10.3611 23.3607 7.75201C30.3035 10.2766 35.2812 15.9379 37.147 21.6176Z"/>
</mask>
<path fill-rule="evenodd" clip-rule="evenodd" d="M37.147 21.6176V21.7708C37.147 23.9766 36.1831 26.0724 34.5083 27.5079L33.0924 28.7216V35.6724V36.2219C32.2894 36.8475 31.3881 37.4273 30.3893 37.9625V27.5306L34.4439 24.3421V22.928L24.9284 24.1725C24.0675 24.2851 23.1957 24.2851 22.3348 24.1725L12.8192 22.928V24.3421L16.8739 27.5306V37.9357C15.8677 37.3847 14.967 36.7865 14.1708 36.14V35.6711V28.7203L12.7549 27.5066C11.1862 26.1621 10.2412 24.2383 10.1277 22.1874C11.6342 16.32 16.1858 10.3611 23.3607 7.75201C30.3035 10.2766 35.2812 15.9379 37.147 21.6176Z" fill="white"/>
<path d="M37.147 21.6176H37.347V21.5856L37.3371 21.5552L37.147 21.6176ZM34.5083 27.5079L34.3782 27.3561L34.3782 27.3561L34.5083 27.5079ZM33.0924 28.7216L32.9623 28.5697L32.8924 28.6296V28.7216H33.0924ZM33.0924 36.2219L33.2153 36.3797L33.2924 36.3196V36.2219H33.0924ZM30.3893 37.9625H30.1893V38.2965L30.4838 38.1388L30.3893 37.9625ZM30.3893 27.5306L30.2657 27.3734L30.1893 27.4335V27.5306H30.3893ZM34.4439 24.3421L34.5676 24.4993L34.6439 24.4392V24.3421H34.4439ZM34.4439 22.928H34.6439V22.7001L34.418 22.7297L34.4439 22.928ZM24.9284 24.1725L24.9025 23.9742L24.9025 23.9742L24.9284 24.1725ZM22.3348 24.1725L22.3088 24.3708L22.3088 24.3708L22.3348 24.1725ZM12.8192 22.928L12.8452 22.7297L12.6192 22.7001V22.928H12.8192ZM12.8192 24.3421H12.6192V24.4392L12.6956 24.4993L12.8192 24.3421ZM16.8739 27.5306H17.0739V27.4335L16.9975 27.3734L16.8739 27.5306ZM16.8739 37.9357L16.7778 38.1111L17.0739 38.2733V37.9357H16.8739ZM14.1708 36.14H13.9708V36.2353L14.0447 36.2953L14.1708 36.14ZM14.1708 28.7203H14.3708V28.6283L14.301 28.5684L14.1708 28.7203ZM12.7549 27.5066L12.6247 27.6585L12.6247 27.6585L12.7549 27.5066ZM10.1277 22.1874L9.934 22.1377L9.92631 22.1676L9.92802 22.1985L10.1277 22.1874ZM23.3607 7.75201L23.4291 7.56406L23.3607 7.5392L23.2924 7.56406L23.3607 7.75201ZM36.947 21.6176V21.7708H37.347V21.6176H36.947ZM36.947 21.7708C36.947 23.9183 36.0087 25.9585 34.3782 27.3561L34.6385 27.6598C36.3576 26.1862 37.347 24.035 37.347 21.7708H36.947ZM34.3782 27.3561L32.9623 28.5697L33.2226 28.8734L34.6385 27.6598L34.3782 27.3561ZM32.8924 28.7216V35.6724H33.2924V28.7216H32.8924ZM32.8924 35.6724V36.2219H33.2924V35.6724H32.8924ZM32.9695 36.0641C32.1764 36.682 31.2848 37.2557 30.2949 37.7862L30.4838 38.1388C31.4914 37.5989 32.4024 37.013 33.2153 36.3797L32.9695 36.0641ZM30.5893 37.9625V27.5306H30.1893V37.9625H30.5893ZM30.513 27.6879L34.5676 24.4993L34.3203 24.1849L30.2657 27.3734L30.513 27.6879ZM34.6439 24.3421V22.928H34.2439V24.3421H34.6439ZM34.418 22.7297L24.9025 23.9742L24.9543 24.3708L34.4699 23.1263L34.418 22.7297ZM24.9025 23.9742C24.0588 24.0845 23.2044 24.0845 22.3607 23.9742L22.3088 24.3708C23.1869 24.4856 24.0762 24.4856 24.9543 24.3708L24.9025 23.9742ZM22.3607 23.9742L12.8452 22.7297L12.7933 23.1263L22.3088 24.3708L22.3607 23.9742ZM12.6192 22.928V24.3421H13.0192V22.928H12.6192ZM12.6956 24.4993L16.7503 27.6879L16.9975 27.3734L12.9429 24.1849L12.6956 24.4993ZM16.6739 27.5306V37.9357H17.0739V27.5306H16.6739ZM16.97 37.7603C15.9731 37.2144 15.0826 36.6228 14.2969 35.9848L14.0447 36.2953C14.8513 36.9502 15.7623 37.555 16.7778 38.1111L16.97 37.7603ZM14.3708 36.14V35.6711H13.9708V36.14H14.3708ZM14.3708 35.6711V28.7203H13.9708V35.6711H14.3708ZM14.301 28.5684L12.885 27.3548L12.6247 27.6585L14.0406 28.8721L14.301 28.5684ZM12.885 27.3548C11.3579 26.0458 10.4379 24.173 10.3274 22.1764L9.92802 22.1985C10.0445 24.3037 11.0145 26.2783 12.6247 27.6585L12.885 27.3548ZM10.3214 22.2371C11.813 16.4279 16.3217 10.5245 23.4291 7.93997L23.2924 7.56406C16.05 10.1976 11.4554 16.2122 9.934 22.1377L10.3214 22.2371ZM23.2924 7.93997C30.1763 10.4432 35.11 16.0574 36.957 21.6801L37.3371 21.5552C35.4525 15.8184 30.4306 10.1101 23.4291 7.56406L23.2924 7.93997Z" fill="#454545" mask="url(#path-1-inside-1)"/>
<path d="M25.2012 26.7565L29.7491 27.4866V37.0174C29.7491 37.1912 29.6368 37.3452 29.4714 37.3983L23.632 39.2731L17.7926 37.3983C17.6271 37.3452 17.5149 37.1912 17.5149 37.0174V27.4866L22.0628 26.7565C23.1023 26.5897 24.1617 26.5897 25.2012 26.7565Z" fill="white" stroke="#454545" stroke-width="0.2"/>
<path d="M26.2087 33.0065L27.5101 35.5101L26.1871 39.5048L23.5716 40.8869L20.956 39.5048L19.633 35.5101L20.9344 33.0065L23.5716 33.0065L26.2087 33.0065Z" fill="#FF4E63" stroke="#454545" stroke-width="0.2"/>
<path d="M21.1452 29.1899L23.5507 28.4758C23.5875 28.4649 23.6267 28.4648 23.6635 28.4755L26.1188 29.1899" stroke="#464646" stroke-width="0.4" stroke-linecap="square"/>
<path d="M21.1452 30.8118L23.5356 29.8864C23.5816 29.8686 23.6326 29.8684 23.6787 29.8859L26.1188 30.8118" stroke="#464646" stroke-width="0.4" stroke-linecap="square"/>
<path d="M11.3967 27.1191L11.4016 27.1258L11.4075 27.1315L13.5306 29.179V35.9459L12.0321 34.93L9.90598 25.7622C9.75309 25.1029 9.6759 24.4284 9.6759 23.7516V22.5477L10.1127 24.7315C10.2315 25.3258 10.4807 25.8864 10.8421 26.3728L11.3967 27.1191Z" fill="white" stroke="#454545" stroke-width="0.2"/>
<path d="M12.1717 32.8406L11.7415 31.4187H13.1287V32.8406H12.1717Z" fill="#454545" stroke="#454545" stroke-width="0.2"/>
<path d="M11.1308 27.341L11.1308 27.341L11.1308 27.341L11.1308 27.341ZM11.268 27.6196L11.871 28.2226L11.8708 28.2228L11.8757 28.227L12.5244 28.7971L13.1392 29.3372V30.9712H11.7051L11.268 27.6196Z" fill="#454545" stroke="#454545" stroke-width="0.2"/>
<path d="M12.4814 34.7369L12.2006 33.3151H13.1101V34.7369H12.4814Z" fill="#454545" stroke="#454545" stroke-width="0.2"/>
<path d="M35.814 27.1235L35.8142 27.1237L35.8089 27.1292L33.8167 29.1771V35.9367L35.1821 34.9317L37.4158 25.8127C37.5855 25.1197 37.6713 24.4088 37.6713 23.6953V22.5477L37.2577 24.6155C37.1237 25.2858 36.8241 25.912 36.3864 26.437L35.814 27.1235Z" fill="white" stroke="#454545" stroke-width="0.2"/>
<path d="M35.1762 32.7907L35.6064 31.3689H34.2193V32.7907H35.1762Z" fill="#454545" stroke="#454545" stroke-width="0.2"/>
<path d="M35.6625 30.8445L36.0997 27.4929L35.4966 28.0959L35.4968 28.096L35.4919 28.1003L34.2285 29.2105V30.8445H35.6625Z" fill="#454545" stroke="#454545" stroke-width="0.2"/>
<path d="M34.8351 34.7369L35.1158 33.3151H34.2064V34.7369H34.8351Z" fill="#454545" stroke="#454545" stroke-width="0.2"/>
<circle cx="14.7909" cy="19.643" r="1.91435" fill="#454545"/>
<circle cx="14.7427" cy="19.5948" r="0.833086" fill="#FAFF00" stroke="#646464" stroke-width="0.2"/>
<circle cx="32.3712" cy="19.4946" r="1.76601" fill="#454545"/>
<circle cx="32.3713" cy="19.4946" r="0.783006" fill="#FAFF00" stroke="#646464" stroke-width="0.2"/>
<path d="M23.8548 25.9081L23.8438 25.9068L23.8327 25.908L17.1158 26.6239L13.7231 23.9223V23.8143L22.1939 24.9345C23.2887 25.0793 24.3982 25.0735 25.4914 24.9173L33.2041 23.8155L33.2041 23.9268L30.2616 26.65L23.8548 25.9081Z" fill="#FF4E63" stroke="#454545" stroke-width="0.2"/>
<path d="M14.021 23.7937L21.0191 24.7268L17.1016 26.2455L14.021 23.7937Z" fill="#454545"/>
<path d="M33.3965 23.6071L25.9678 24.7874L30.1509 26.2053L33.3965 23.6071Z" fill="#454545"/>
<path d="M17.0952 26.0242L14.0329 23.8169L21.3947 24.805L17.0952 26.0242Z" fill="#FAFF00" stroke="#454545" stroke-width="0.1"/>
<path d="M30.1205 26.0098L33.2058 23.688L26.1887 24.8029L30.1205 26.0098Z" fill="#FAFF00" stroke="#454545" stroke-width="0.1"/>
<line x1="23.9184" y1="25.2933" x2="23.9184" y2="25.7465" stroke="#893A3A" stroke-width="0.2" stroke-linecap="round"/>
<path d="M20.4302 14.0963L23.5739 14.0963L26.7633 14.0963L26.7176 16.0118L26.7171 16.0339L26.726 16.0542L28.3143 19.6925L23.5739 22.8528L18.8335 19.6925L20.4218 16.0542L20.4302 16.0351V16.0142V14.0963Z" fill="#FF4E63" stroke="#454545" stroke-width="0.2"/>
<path d="M19.2503 15.9371L18.133 18.7303L0.816114 5.8191L19.2503 14.2614L19.2503 15.9371Z" fill="white" stroke="url(#paint0_linear)" stroke-width="0.2"/>
<path d="M27.9639 15.9371L29.0811 18.7303L46.398 5.8191L27.9639 14.2614L27.9639 15.9371Z" fill="white" stroke="url(#paint1_linear)" stroke-width="0.2"/>
<path d="M27.706 9.0405L26.8849 12.9632H20.3292L19.5082 9.0405V5.13021L23.7118 4.76581L27.706 5.12981V9.0405Z" fill="white" stroke="#454545" stroke-width="0.2"/>
<path d="M20.8041 8.72621L20.8041 5.97952L23.5993 6.58005L23.6102 6.5824L23.6209 6.58006L26.4769 5.95296L26.4768 8.72143L26.1239 11.8382L21.321 11.8591L20.8041 8.72621Z" fill="#FF4E63" stroke="#454545" stroke-width="0.1" stroke-linecap="round"/>
<line x1="14.5152" y1="28.6137" x2="16.2339" y2="27.7281" stroke="#7A7777" stroke-width="0.2" stroke-linecap="round" stroke-dasharray="2.2 0"/>
<line x1="20.4275" y1="19.3695" x2="21.9683" y2="18.5756" stroke="#454545" stroke-width="0.4" stroke-linecap="round"/>
<line x1="0.2" y1="-0.2" x2="1.93341" y2="-0.2" transform="matrix(-0.888931 -0.458041 -0.458041 0.888931 26.9032 19.6389)" stroke="#454545" stroke-width="0.4" stroke-linecap="round"/>
<line x1="0.1" y1="-0.1" x2="2.03341" y2="-0.1" transform="matrix(-0.888931 -0.458041 -0.458041 0.888931 32.7886 28.7484)" stroke="#7A7777" stroke-width="0.2" stroke-linecap="round" stroke-dasharray="2.2 0"/>
<defs>
<linearGradient id="paint0_linear" x1="2.72446" y1="2.66768" x2="18.3967" y2="18.6735" gradientUnits="userSpaceOnUse">
<stop stop-color="#AFA9A9"/>
<stop offset="0.569391" stop-color="#454545"/>
</linearGradient>
<linearGradient id="paint1_linear" x1="44.4897" y1="2.66768" x2="28.8174" y2="18.6735" gradientUnits="userSpaceOnUse">
<stop stop-color="#DDDDDD"/>
<stop offset="0.392305" stop-color="#454545"/>
</linearGradient>
</defs>
</svg>
