<svg width="60" height="60" viewBox="0 0 60 60" fill="none" xmlns="http://www.w3.org/2000/svg">
<path fill-rule="evenodd" clip-rule="evenodd" d="M30 60C46.5685 60 60 46.5685 60 30H0C0 46.5685 13.4315 60 30 60Z" fill="#333333"/>
<path fill-rule="evenodd" clip-rule="evenodd" d="M58.2929 40C59.3985 36.8722 60 33.5064 60 30C60 13.4315 46.5685 0 30 0C13.4315 0 0 13.4315 0 30C0 33.5064 0.601542 36.8722 1.70706 40H58.2929Z" fill="#454545"/>
<path fill-rule="evenodd" clip-rule="evenodd" d="M45.011 30.1679V30.332V30.3772C45.011 32.7126 43.9905 34.9314 42.2173 36.4512L40.6656 37.7813V45.2306V45.8195C39.805 46.4899 38.8391 47.1114 37.7686 47.6849V36.505L42.114 33.0877V31.5722L31.8231 32.9181C30.9622 33.0307 30.0904 33.0307 29.2295 32.9181L18.9386 31.5722V33.0877L23.284 36.505V47.6562C22.2056 47.0656 21.2403 46.4246 20.387 45.7318V45.2292V37.7799L18.8696 36.4792C17.1884 35.0382 16.1756 32.9766 16.054 30.7786C17.6685 24.4904 22.5466 18.1041 30.236 15.308C37.6766 18.0136 43.0114 24.0809 45.011 30.1679Z" fill="#F5F5F5"/>
<path d="M23.8637 36.3665L28.9416 35.5513C29.9916 35.3827 31.0618 35.3827 32.1117 35.5513L37.1896 36.3665V46.6982C37.1896 46.9155 37.0493 47.1079 36.8425 47.1743L30.5267 49.2021L24.2109 47.1743C24.004 47.1079 23.8637 46.9155 23.8637 46.6982V36.3665Z" fill="white"/>
<path d="M33.2318 42.4663L34.5825 45.0646L33.1887 49.2732L30.4619 50.714L27.7352 49.2732L26.3414 45.0646L27.6921 42.4663L30.4619 42.4664L33.2318 42.4663Z" fill="#FF4E63" stroke="#454545" stroke-width="0.4"/>
<path d="M27.8615 38.2833L30.4436 37.5167C30.4804 37.5058 30.5196 37.5057 30.5564 37.5164L33.1919 38.2833" stroke="#464646" stroke-width="0.4" stroke-linecap="square"/>
<path d="M27.8615 40.0214L30.4285 39.0277C30.4745 39.0099 30.5255 39.0097 30.5717 39.0272L33.1919 40.0214" stroke="#464646" stroke-width="0.4" stroke-linecap="square"/>
<path d="M19.808 38.2259V45.7258L18 44.5L15.6953 34.562C15.5407 33.8953 15.4626 33.2131 15.4626 32.5288V30.9514H15.6364L16.1556 33.5472C16.2716 34.127 16.5146 34.6739 16.8673 35.1485L17.5 36L19.808 38.2259Z" fill="#F5F5F5"/>
<path d="M17.7222 40.5113H19.4604V42.2494H18.2481L17.7222 40.5113Z" fill="#454545"/>
<path d="M17.2008 36.1659L18.0699 37.0349L19.4604 38.2568V40.1636H17.7223L17.2008 36.1659Z" fill="#454545"/>
<path d="M18.2481 42.597H19.4604V44.3352H18.5913L18.2481 42.597Z" fill="#454545"/>
<path d="M41.3346 38.2259V45.7258L43 44.5L45.4216 34.6137C45.5932 33.9129 45.68 33.194 45.68 32.4725V30.9514H45.5062L45.0102 33.4312C44.8794 34.0852 44.5872 34.6961 44.1601 35.2083L43.5 36L41.3346 38.2259Z" fill="#F5F5F5"/>
<path d="M43.4204 40.5113H41.6823V42.2494H42.8945L43.4204 40.5113Z" fill="#454545"/>
<path d="M43.9419 36.1659L43.0728 37.0349L41.6823 38.2568V40.1636H43.4204L43.9419 36.1659Z" fill="#454545"/>
<path d="M42.8945 42.597H41.6822V44.3352H42.5513L42.8945 42.597Z" fill="#454545"/>
<circle cx="21.0516" cy="28.0516" r="2.05164" fill="#454545"/>
<circle cx="21" cy="28" r="0.9" fill="#FAFF00" stroke="#646464" stroke-width="0.2"/>
<circle cx="39.8927" cy="27.8927" r="1.89266" fill="#454545"/>
<circle cx="39.8927" cy="27.8927" r="0.846329" fill="#FAFF00" stroke="#646464" stroke-width="0.2"/>
<path d="M30.7578 34.8227L30.7579 34.8217L30.7479 34.8228L23.5259 35.5925L19.85 32.6654V32.4569L29.1103 33.6815C30.2006 33.8257 31.3055 33.8199 32.3942 33.6644L40.8424 32.4575L40.8424 32.666L37.484 35.4483L30.7578 34.8227Z" fill="#FF4E63" stroke="#C56D6D" stroke-width="0.1"/>
<path d="M20.2264 32.5L27.7264 33.5L23.528 35.1276L20.2264 32.5Z" fill="#454545"/>
<path d="M40.9915 32.3L33.5 33.5L37.5131 35.0846L40.9915 32.3Z" fill="#454545"/>
<path d="M23.5196 34.8936L20.2183 32.4728L28.0018 33.4225L23.5196 34.8936Z" fill="#ECE538" stroke="#454545" stroke-width="0.1"/>
<path d="M37.4815 34.8788L40.8036 32.3788L33.2195 33.5176L37.4815 34.8788Z" fill="#ECE538" stroke="#454545" stroke-width="0.1"/>
<line x1="30.8265" y1="34.1" x2="30.8265" y2="34.6" stroke="#893A3A" stroke-width="0.2" stroke-linecap="round"/>
<path d="M27.2298 24.1626V22.2L30.4649 22.2L33.7462 22.2L33.7 24.1579L33.699 24.2017L33.7163 24.2419L35.3682 28.0711L30.4649 31.3792L25.5616 28.0711L27.2134 24.2419L27.2298 24.2039V24.1626Z" fill="#FF4E63" stroke="#454545" stroke-width="0.4"/>
<path d="M25.7932 24.0619L24.6616 26.925L7.12264 13.6913L25.7932 22.3445L25.7932 24.0619Z" fill="white" stroke="url(#paint0_linear)" stroke-width="0.4"/>
<path d="M35.2068 24.0619L36.3384 26.925L53.8774 13.6913L35.2068 22.3445L35.2068 24.0619Z" fill="white" stroke="url(#paint1_linear)" stroke-width="0.4"/>
<path d="M34.7466 16.6795L33.8944 20.8H27.1056L26.2534 16.6795V12.5831L30.6107 12.2008L34.7466 12.5822V16.6795Z" fill="white" stroke="#454545" stroke-width="0.4"/>
<path d="M27.6798 16.3487L27.6798 13.5876L30.4677 14.1938L30.512 14.2034L30.5551 14.1938L33.391 13.5637L33.391 16.3306L33.0317 19.5423L28.2038 19.5636L27.6798 16.3487Z" fill="#FF4E63" stroke="#454545" stroke-width="0.4" stroke-linecap="round"/>
<line x1="20.7531" y1="37.6753" x2="22.6077" y2="36.7196" stroke="#454545" stroke-width="0.2" stroke-linecap="round" stroke-dasharray="2.2 0"/>
<line x1="27.0862" y1="27.7779" x2="28.7631" y2="26.9138" stroke="#454545" stroke-width="0.4" stroke-linecap="round"/>
<line x1="0.2" y1="-0.2" x2="2.0864" y2="-0.2" transform="matrix(-0.888931 -0.458041 -0.458041 0.888931 34.0325 28.0473)" stroke="#454545" stroke-width="0.4" stroke-linecap="round"/>
<line x1="0.1" y1="-0.1" x2="2.1864" y2="-0.1" transform="matrix(-0.888931 -0.458041 -0.458041 0.888931 40.34 37.81)" stroke="#454545" stroke-width="0.2" stroke-linecap="round" stroke-dasharray="2.2 0"/>
<path d="M47.471 39.745C47.471 39.729 47.468 39.714 47.462 39.7C47.456 39.6853 47.4477 39.6727 47.437 39.662C47.4263 39.6513 47.414 39.643 47.4 39.637C47.386 39.6303 47.3707 39.627 47.354 39.627C47.338 39.627 47.323 39.63 47.309 39.636C47.295 39.642 47.2827 39.6503 47.272 39.661C47.262 39.6717 47.2537 39.6843 47.247 39.699C47.241 39.713 47.238 39.728 47.238 39.744C47.238 39.76 47.241 39.775 47.247 39.789C47.253 39.803 47.2613 39.8153 47.272 39.826C47.2827 39.836 47.295 39.8443 47.309 39.851C47.3237 39.857 47.339 39.86 47.355 39.86C47.371 39.86 47.386 39.857 47.4 39.851C47.414 39.845 47.426 39.8367 47.436 39.826C47.4467 39.8153 47.455 39.803 47.461 39.789C47.4677 39.775 47.471 39.7603 47.471 39.745ZM47.243 39.17V39.538C47.2857 39.4933 47.339 39.471 47.403 39.471C47.441 39.471 47.4757 39.4783 47.507 39.493C47.539 39.507 47.566 39.5263 47.588 39.551C47.6107 39.575 47.6283 39.6037 47.641 39.637C47.6537 39.6697 47.66 39.7047 47.66 39.742C47.66 39.78 47.6533 39.8157 47.64 39.849C47.6273 39.8823 47.6093 39.9113 47.586 39.936C47.5627 39.9607 47.535 39.9803 47.503 39.995C47.4717 40.009 47.4377 40.016 47.401 40.016C47.3343 40.016 47.2817 39.9917 47.243 39.943V40H47.062V39.17H47.243ZM47.9218 39.93L47.6738 39.487H47.8838L48.0208 39.75L48.1538 39.487H48.3618L47.9498 40.256H47.7468L47.9218 39.93ZM48.427 39.567C48.427 39.551 48.43 39.536 48.436 39.522C48.442 39.5073 48.4504 39.4947 48.461 39.484C48.4717 39.4733 48.484 39.465 48.498 39.459C48.5127 39.453 48.528 39.45 48.544 39.45C48.56 39.45 48.575 39.453 48.589 39.459C48.6037 39.465 48.6164 39.4733 48.627 39.484C48.6377 39.4947 48.646 39.5073 48.652 39.522C48.658 39.536 48.661 39.551 48.661 39.567C48.661 39.583 48.658 39.5983 48.652 39.613C48.646 39.627 48.6377 39.6393 48.627 39.65C48.6164 39.6607 48.6037 39.669 48.589 39.675C48.575 39.681 48.56 39.684 48.544 39.684C48.528 39.684 48.5127 39.681 48.498 39.675C48.484 39.669 48.4717 39.6607 48.461 39.65C48.4504 39.6393 48.442 39.627 48.436 39.613C48.43 39.5983 48.427 39.583 48.427 39.567ZM48.427 39.904C48.427 39.888 48.43 39.873 48.436 39.859C48.442 39.8443 48.4504 39.8317 48.461 39.821C48.4717 39.8103 48.484 39.802 48.498 39.796C48.5127 39.79 48.528 39.787 48.544 39.787C48.56 39.787 48.575 39.79 48.589 39.796C48.6037 39.802 48.6164 39.8103 48.627 39.821C48.6377 39.8317 48.646 39.8443 48.652 39.859C48.658 39.873 48.661 39.888 48.661 39.904C48.661 39.92 48.658 39.9353 48.652 39.95C48.646 39.964 48.6377 39.9763 48.627 39.987C48.6164 39.9977 48.6037 40.006 48.589 40.012C48.575 40.018 48.56 40.021 48.544 40.021C48.528 40.021 48.5127 40.018 48.498 40.012C48.484 40.006 48.4717 39.9977 48.461 39.987C48.4504 39.9763 48.442 39.964 48.436 39.95C48.43 39.9353 48.427 39.92 48.427 39.904ZM49.3287 39.557L49.5677 39.246H49.8097L49.5107 39.603L49.8377 40H49.5837L49.3287 39.673V40H49.1327V39.246H49.3287V39.557ZM50.2456 39.669C50.2396 39.6437 50.2273 39.6233 50.2086 39.608C50.1899 39.5927 50.1673 39.585 50.1406 39.585C50.1126 39.585 50.0896 39.5923 50.0716 39.607C50.0543 39.6217 50.0433 39.6423 50.0386 39.669H50.2456ZM50.0336 39.774C50.0336 39.852 50.0703 39.891 50.1436 39.891C50.1829 39.891 50.2126 39.875 50.2326 39.843H50.4076C50.3723 39.9603 50.2839 40.019 50.1426 40.019C50.0993 40.019 50.0596 40.0127 50.0236 40C49.9876 39.9867 49.9566 39.968 49.9306 39.944C49.9053 39.92 49.8856 39.8913 49.8716 39.858C49.8576 39.8247 49.8506 39.7873 49.8506 39.746C49.8506 39.7033 49.8573 39.665 49.8706 39.631C49.8839 39.5963 49.9029 39.567 49.9276 39.543C49.9523 39.519 49.9819 39.5007 50.0166 39.488C50.0519 39.4747 50.0916 39.468 50.1356 39.468C50.1789 39.468 50.2179 39.4747 50.2526 39.488C50.2873 39.5007 50.3166 39.5193 50.3406 39.544C50.3646 39.5687 50.3829 39.599 50.3956 39.635C50.4083 39.6703 50.4146 39.7103 50.4146 39.755V39.774H50.0336ZM50.6356 39.487L50.7576 39.75L50.8816 39.487H51.0836L50.8166 40H50.6956L50.4316 39.487H50.6356ZM51.327 39.487V40H51.146V39.487H51.327ZM51.134 39.29C51.134 39.276 51.1367 39.263 51.142 39.251C51.1473 39.2383 51.1547 39.2273 51.164 39.218C51.1733 39.2087 51.184 39.2013 51.196 39.196C51.2087 39.1907 51.222 39.188 51.236 39.188C51.25 39.188 51.263 39.1907 51.275 39.196C51.2877 39.2013 51.2987 39.2087 51.308 39.218C51.3173 39.2273 51.3247 39.2383 51.33 39.251C51.3353 39.263 51.338 39.276 51.338 39.29C51.338 39.304 51.3353 39.3173 51.33 39.33C51.3247 39.342 51.3173 39.3527 51.308 39.362C51.2987 39.3713 51.2877 39.3787 51.275 39.384C51.263 39.3893 51.25 39.392 51.236 39.392C51.222 39.392 51.2087 39.3893 51.196 39.384C51.184 39.3787 51.1733 39.3713 51.164 39.362C51.1547 39.3527 51.1473 39.342 51.142 39.33C51.1367 39.3173 51.134 39.304 51.134 39.29ZM51.4507 39.487H51.6317V39.552C51.6563 39.522 51.6813 39.502 51.7067 39.492C51.732 39.4813 51.7617 39.476 51.7957 39.476C51.8317 39.476 51.8623 39.482 51.8877 39.494C51.9137 39.5053 51.9357 39.5217 51.9537 39.543C51.9683 39.5603 51.9783 39.5797 51.9837 39.601C51.989 39.6223 51.9917 39.6467 51.9917 39.674V40H51.8107V39.741C51.8107 39.7157 51.8087 39.6953 51.8047 39.68C51.8013 39.664 51.795 39.6513 51.7857 39.642C51.7777 39.634 51.7687 39.6283 51.7587 39.625C51.7487 39.6217 51.738 39.62 51.7267 39.62C51.696 39.62 51.6723 39.6293 51.6557 39.648C51.6397 39.666 51.6317 39.692 51.6317 39.726V40H51.4507V39.487ZM52.7576 39.412V40H52.5616V39.412H52.4006V39.246H52.9186V39.412H52.7576ZM53.1226 39.741C53.1226 39.7583 53.1256 39.7743 53.1316 39.789C53.1383 39.803 53.1466 39.8153 53.1566 39.826C53.1673 39.8367 53.1796 39.845 53.1936 39.851C53.2083 39.857 53.2236 39.86 53.2396 39.86C53.2556 39.86 53.2706 39.857 53.2846 39.851C53.2993 39.845 53.3116 39.8367 53.3216 39.826C53.3323 39.8153 53.3406 39.803 53.3466 39.789C53.3533 39.7743 53.3566 39.7587 53.3566 39.742C53.3566 39.726 53.3533 39.711 53.3466 39.697C53.3406 39.6823 53.3323 39.6697 53.3216 39.659C53.3116 39.6483 53.2993 39.64 53.2846 39.634C53.2706 39.628 53.2556 39.625 53.2396 39.625C53.2236 39.625 53.2083 39.628 53.1936 39.634C53.1796 39.64 53.1673 39.6483 53.1566 39.659C53.1466 39.6697 53.1383 39.682 53.1316 39.696C53.1256 39.71 53.1226 39.725 53.1226 39.741ZM52.9316 39.739C52.9316 39.701 52.9393 39.6657 52.9546 39.633C52.97 39.5997 52.9913 39.571 53.0186 39.547C53.046 39.5223 53.0783 39.503 53.1156 39.489C53.1536 39.475 53.195 39.468 53.2396 39.468C53.2836 39.468 53.3243 39.475 53.3616 39.489C53.3996 39.5023 53.4323 39.5213 53.4596 39.546C53.4876 39.57 53.5093 39.599 53.5246 39.633C53.54 39.6663 53.5476 39.7033 53.5476 39.744C53.5476 39.7847 53.5396 39.822 53.5236 39.856C53.5083 39.8893 53.487 39.9183 53.4596 39.943C53.4323 39.967 53.3993 39.9857 53.3606 39.999C53.3226 40.0123 53.2813 40.019 53.2366 40.019C53.1926 40.019 53.152 40.0123 53.1146 39.999C53.0773 39.9857 53.045 39.9667 53.0176 39.942C52.991 39.9173 52.97 39.888 52.9546 39.854C52.9393 39.8193 52.9316 39.781 52.9316 39.739ZM53.7655 39.487L53.8885 39.757L54.0165 39.487H54.1305L54.2585 39.765L54.3875 39.487H54.5885L54.3205 40H54.1995L54.0715 39.719L53.9495 40H53.8265L53.5635 39.487H53.7655ZM54.6509 39.487H54.8319V39.552C54.8565 39.522 54.8815 39.502 54.9069 39.492C54.9322 39.4813 54.9619 39.476 54.9959 39.476C55.0319 39.476 55.0625 39.482 55.0879 39.494C55.1139 39.5053 55.1359 39.5217 55.1539 39.543C55.1685 39.5603 55.1785 39.5797 55.1839 39.601C55.1892 39.6223 55.1919 39.6467 55.1919 39.674V40H55.0109V39.741C55.0109 39.7157 55.0089 39.6953 55.0049 39.68C55.0015 39.664 54.9952 39.6513 54.9859 39.642C54.9779 39.634 54.9689 39.6283 54.9589 39.625C54.9489 39.6217 54.9382 39.62 54.9269 39.62C54.8962 39.62 54.8725 39.6293 54.8559 39.648C54.8399 39.666 54.8319 39.692 54.8319 39.726V40H54.6509V39.487ZM55.6899 39.669C55.6839 39.6437 55.6716 39.6233 55.6529 39.608C55.6343 39.5927 55.6116 39.585 55.5849 39.585C55.5569 39.585 55.5339 39.5923 55.5159 39.607C55.4986 39.6217 55.4876 39.6423 55.4829 39.669H55.6899ZM55.4779 39.774C55.4779 39.852 55.5146 39.891 55.5879 39.891C55.6273 39.891 55.6569 39.875 55.6769 39.843H55.8519C55.8166 39.9603 55.7283 40.019 55.5869 40.019C55.5436 40.019 55.5039 40.0127 55.4679 40C55.4319 39.9867 55.4009 39.968 55.3749 39.944C55.3496 39.92 55.3299 39.8913 55.3159 39.858C55.3019 39.8247 55.2949 39.7873 55.2949 39.746C55.2949 39.7033 55.3016 39.665 55.3149 39.631C55.3283 39.5963 55.3473 39.567 55.3719 39.543C55.3966 39.519 55.4263 39.5007 55.4609 39.488C55.4963 39.4747 55.5359 39.468 55.5799 39.468C55.6233 39.468 55.6623 39.4747 55.6969 39.488C55.7316 39.5007 55.7609 39.5193 55.7849 39.544C55.8089 39.5687 55.8273 39.599 55.8399 39.635C55.8526 39.6703 55.8589 39.7103 55.8589 39.755V39.774H55.4779ZM55.9624 39.487H56.1434V39.571C56.1627 39.5403 56.1864 39.517 56.2144 39.501C56.2424 39.4843 56.2751 39.476 56.3124 39.476C56.3171 39.476 56.3221 39.476 56.3274 39.476C56.3334 39.476 56.3401 39.4767 56.3474 39.478V39.651C56.3234 39.639 56.2974 39.633 56.2694 39.633C56.2274 39.633 56.1957 39.6457 56.1744 39.671C56.1537 39.6957 56.1434 39.732 56.1434 39.78V40H55.9624V39.487Z" fill="#646464"/>
<path d="M4.275 39.592H4.34C4.412 39.592 4.448 39.5607 4.448 39.498C4.448 39.4353 4.412 39.404 4.34 39.404H4.275V39.592ZM4.275 40H4.079V39.246H4.391C4.47567 39.246 4.54033 39.268 4.585 39.312C4.63033 39.356 4.653 39.418 4.653 39.498C4.653 39.578 4.63033 39.64 4.585 39.684C4.54033 39.728 4.47567 39.75 4.391 39.75H4.275V40ZM4.73973 39.487H4.92073V39.571C4.94007 39.5403 4.96373 39.517 4.99173 39.501C5.01973 39.4843 5.0524 39.476 5.08973 39.476C5.0944 39.476 5.0994 39.476 5.10473 39.476C5.11073 39.476 5.1174 39.4767 5.12473 39.478V39.651C5.10073 39.639 5.07473 39.633 5.04673 39.633C5.00473 39.633 4.97307 39.6457 4.95173 39.671C4.93107 39.6957 4.92073 39.732 4.92073 39.78V40H4.73973V39.487ZM5.38046 39.741C5.38046 39.7583 5.38346 39.7743 5.38946 39.789C5.39613 39.803 5.40446 39.8153 5.41446 39.826C5.42513 39.8367 5.43746 39.845 5.45146 39.851C5.46613 39.857 5.48146 39.86 5.49746 39.86C5.51346 39.86 5.52846 39.857 5.54246 39.851C5.55713 39.845 5.56946 39.8367 5.57946 39.826C5.59013 39.8153 5.59846 39.803 5.60446 39.789C5.61113 39.7743 5.61446 39.7587 5.61446 39.742C5.61446 39.726 5.61113 39.711 5.60446 39.697C5.59846 39.6823 5.59013 39.6697 5.57946 39.659C5.56946 39.6483 5.55713 39.64 5.54246 39.634C5.52846 39.628 5.51346 39.625 5.49746 39.625C5.48146 39.625 5.46613 39.628 5.45146 39.634C5.43746 39.64 5.42513 39.6483 5.41446 39.659C5.40446 39.6697 5.39613 39.682 5.38946 39.696C5.38346 39.71 5.38046 39.725 5.38046 39.741ZM5.18946 39.739C5.18946 39.701 5.19713 39.6657 5.21246 39.633C5.22779 39.5997 5.24913 39.571 5.27646 39.547C5.30379 39.5223 5.33613 39.503 5.37346 39.489C5.41146 39.475 5.45279 39.468 5.49746 39.468C5.54146 39.468 5.58213 39.475 5.61946 39.489C5.65746 39.5023 5.69013 39.5213 5.71746 39.546C5.74546 39.57 5.76713 39.599 5.78246 39.633C5.79779 39.6663 5.80546 39.7033 5.80546 39.744C5.80546 39.7847 5.79746 39.822 5.78146 39.856C5.76613 39.8893 5.74479 39.9183 5.71746 39.943C5.69013 39.967 5.65713 39.9857 5.61846 39.999C5.58046 40.0123 5.53913 40.019 5.49446 40.019C5.45046 40.019 5.40979 40.0123 5.37246 39.999C5.33513 39.9857 5.30279 39.9667 5.27546 39.942C5.24879 39.9173 5.22779 39.888 5.21246 39.854C5.19713 39.8193 5.18946 39.781 5.18946 39.739ZM6.11459 39.638V40H5.93359V39.638H5.87359V39.487H5.93359V39.333H6.11459V39.487H6.21759V39.638H6.11459ZM6.46542 39.741C6.46542 39.7583 6.46842 39.7743 6.47442 39.789C6.48109 39.803 6.48942 39.8153 6.49942 39.826C6.51009 39.8367 6.52242 39.845 6.53642 39.851C6.55109 39.857 6.56642 39.86 6.58242 39.86C6.59842 39.86 6.61342 39.857 6.62742 39.851C6.64209 39.845 6.65442 39.8367 6.66442 39.826C6.67509 39.8153 6.68342 39.803 6.68942 39.789C6.69609 39.7743 6.69942 39.7587 6.69942 39.742C6.69942 39.726 6.69609 39.711 6.68942 39.697C6.68342 39.6823 6.67509 39.6697 6.66442 39.659C6.65442 39.6483 6.64209 39.64 6.62742 39.634C6.61342 39.628 6.59842 39.625 6.58242 39.625C6.56642 39.625 6.55109 39.628 6.53642 39.634C6.52242 39.64 6.51009 39.6483 6.49942 39.659C6.48942 39.6697 6.48109 39.682 6.47442 39.696C6.46842 39.71 6.46542 39.725 6.46542 39.741ZM6.27442 39.739C6.27442 39.701 6.28209 39.6657 6.29742 39.633C6.31276 39.5997 6.33409 39.571 6.36142 39.547C6.38876 39.5223 6.42109 39.503 6.45842 39.489C6.49642 39.475 6.53776 39.468 6.58242 39.468C6.62642 39.468 6.66709 39.475 6.70442 39.489C6.74242 39.5023 6.77509 39.5213 6.80242 39.546C6.83042 39.57 6.85209 39.599 6.86742 39.633C6.88276 39.6663 6.89042 39.7033 6.89042 39.744C6.89042 39.7847 6.88242 39.822 6.86642 39.856C6.85109 39.8893 6.82976 39.9183 6.80242 39.943C6.77509 39.967 6.74209 39.9857 6.70342 39.999C6.66542 40.0123 6.62409 40.019 6.57942 40.019C6.53542 40.019 6.49476 40.0123 6.45742 39.999C6.42009 39.9857 6.38776 39.9667 6.36042 39.942C6.33376 39.9173 6.31276 39.888 6.29742 39.854C6.28209 39.8193 6.27442 39.781 6.27442 39.739ZM7.19955 39.638V40H7.01855V39.638H6.95855V39.487H7.01855V39.333H7.19955V39.487H7.30255V39.638H7.19955ZM7.55659 39.93L7.30859 39.487H7.51859L7.65559 39.75L7.78859 39.487H7.99659L7.58459 40.256H7.38159L7.55659 39.93ZM8.46807 39.745C8.46807 39.729 8.46507 39.714 8.45907 39.7C8.45374 39.6853 8.44574 39.6727 8.43507 39.662C8.4244 39.6513 8.41174 39.643 8.39707 39.637C8.38307 39.6303 8.36774 39.627 8.35107 39.627C8.33507 39.627 8.32007 39.63 8.30607 39.636C8.29207 39.642 8.27974 39.6503 8.26907 39.661C8.25907 39.6717 8.25074 39.6843 8.24407 39.699C8.23807 39.713 8.23507 39.728 8.23507 39.744C8.23507 39.76 8.23807 39.775 8.24407 39.789C8.25007 39.803 8.2584 39.8153 8.26907 39.826C8.27974 39.836 8.29207 39.8443 8.30607 39.851C8.32074 39.857 8.33607 39.86 8.35207 39.86C8.36807 39.86 8.38307 39.857 8.39707 39.851C8.41107 39.845 8.42307 39.8367 8.43307 39.826C8.44374 39.8153 8.45207 39.803 8.45807 39.789C8.46474 39.775 8.46807 39.7603 8.46807 39.745ZM8.24007 40.256H8.05907V39.487H8.24007V39.544C8.27874 39.4953 8.3314 39.471 8.39807 39.471C8.43474 39.471 8.46874 39.4783 8.50007 39.493C8.53207 39.507 8.55974 39.5263 8.58307 39.551C8.6064 39.5757 8.6244 39.6047 8.63707 39.638C8.6504 39.6713 8.65707 39.707 8.65707 39.745C8.65707 39.783 8.6504 39.8183 8.63707 39.851C8.6244 39.8837 8.6064 39.9123 8.58307 39.937C8.5604 39.9617 8.5334 39.981 8.50207 39.995C8.47074 40.009 8.43674 40.016 8.40007 40.016C8.33607 40.016 8.28274 39.994 8.24007 39.95V40.256ZM9.13524 39.669C9.12924 39.6437 9.11691 39.6233 9.09824 39.608C9.07958 39.5927 9.05691 39.585 9.03024 39.585C9.00224 39.585 8.97924 39.5923 8.96124 39.607C8.94391 39.6217 8.93291 39.6423 8.92824 39.669H9.13524ZM8.92324 39.774C8.92324 39.852 8.95991 39.891 9.03324 39.891C9.07258 39.891 9.10224 39.875 9.12224 39.843H9.29724C9.26191 39.9603 9.17358 40.019 9.03224 40.019C8.98891 40.019 8.94924 40.0127 8.91324 40C8.87724 39.9867 8.84624 39.968 8.82024 39.944C8.79491 39.92 8.77524 39.8913 8.76124 39.858C8.74724 39.8247 8.74024 39.7873 8.74024 39.746C8.74024 39.7033 8.74691 39.665 8.76024 39.631C8.77358 39.5963 8.79258 39.567 8.81724 39.543C8.84191 39.519 8.87158 39.5007 8.90624 39.488C8.94158 39.4747 8.98124 39.468 9.02524 39.468C9.06858 39.468 9.10758 39.4747 9.14224 39.488C9.17691 39.5007 9.20624 39.5193 9.23024 39.544C9.25424 39.5687 9.27258 39.599 9.28524 39.635C9.29791 39.6703 9.30424 39.7103 9.30424 39.755V39.774H8.92324ZM9.96055 39.583H9.99755C10.0362 39.583 10.0659 39.575 10.0865 39.559C10.1072 39.543 10.1175 39.52 10.1175 39.49C10.1175 39.46 10.1072 39.437 10.0865 39.421C10.0659 39.405 10.0362 39.397 9.99755 39.397H9.96055V39.583ZM10.3915 40H10.1475L9.96055 39.71V40H9.76455V39.246H10.0695C10.1115 39.246 10.1482 39.2523 10.1795 39.265C10.2109 39.277 10.2365 39.2937 10.2565 39.315C10.2772 39.3363 10.2925 39.361 10.3025 39.389C10.3132 39.417 10.3185 39.447 10.3185 39.479C10.3185 39.5363 10.3045 39.583 10.2765 39.619C10.2492 39.6543 10.2085 39.6783 10.1545 39.691L10.3915 40ZM10.6895 39.598L10.4545 39.246H10.6965L10.7985 39.441L10.9245 39.246H11.1665L10.9175 39.598L11.1985 40H10.9595L10.8085 39.754L10.6315 40H10.3945L10.6895 39.598ZM11.2119 39.657H11.4989V39.808H11.2119V39.657ZM11.894 39.412H11.579V39.246H12.198L11.766 40H11.55L11.894 39.412ZM12.4287 39.772C12.4287 39.7847 12.431 39.7967 12.4357 39.808C12.4404 39.8193 12.4467 39.8293 12.4547 39.838C12.4627 39.846 12.472 39.8527 12.4827 39.858C12.494 39.8627 12.506 39.865 12.5187 39.865C12.5307 39.865 12.542 39.8627 12.5527 39.858C12.564 39.8527 12.5737 39.846 12.5817 39.838C12.5904 39.8293 12.597 39.8197 12.6017 39.809C12.6064 39.7977 12.6087 39.7857 12.6087 39.773C12.6087 39.7477 12.5997 39.7263 12.5817 39.709C12.5644 39.691 12.5434 39.682 12.5187 39.682C12.4934 39.682 12.472 39.691 12.4547 39.709C12.4374 39.7263 12.4287 39.7473 12.4287 39.772ZM12.4357 39.438C12.4357 39.4613 12.4437 39.4813 12.4597 39.498C12.4757 39.514 12.4954 39.522 12.5187 39.522C12.5307 39.522 12.5417 39.5197 12.5517 39.515C12.5617 39.5103 12.5704 39.5043 12.5777 39.497C12.585 39.489 12.5907 39.48 12.5947 39.47C12.5994 39.46 12.6017 39.4497 12.6017 39.439C12.6017 39.4163 12.5937 39.397 12.5777 39.381C12.5617 39.3643 12.542 39.356 12.5187 39.356C12.4954 39.356 12.4757 39.364 12.4597 39.38C12.4437 39.396 12.4357 39.4153 12.4357 39.438ZM12.3797 39.602C12.301 39.5693 12.2617 39.514 12.2617 39.436C12.2617 39.404 12.268 39.3753 12.2807 39.35C12.2934 39.324 12.3107 39.3017 12.3327 39.283C12.3554 39.2643 12.3824 39.25 12.4137 39.24C12.4457 39.23 12.4807 39.225 12.5187 39.225C12.5567 39.225 12.5914 39.23 12.6227 39.24C12.6547 39.25 12.6817 39.2643 12.7037 39.283C12.7264 39.3017 12.744 39.324 12.7567 39.35C12.7694 39.3753 12.7757 39.404 12.7757 39.436C12.7757 39.456 12.7737 39.474 12.7697 39.49C12.7657 39.5053 12.7587 39.5197 12.7487 39.533C12.7394 39.5457 12.7267 39.5577 12.7107 39.569C12.6954 39.5803 12.676 39.5913 12.6527 39.602C12.7554 39.642 12.8067 39.7067 12.8067 39.796C12.8067 39.828 12.7994 39.8577 12.7847 39.885C12.7707 39.9123 12.7507 39.936 12.7247 39.956C12.6994 39.976 12.669 39.9917 12.6337 40.003C12.599 40.0143 12.5607 40.02 12.5187 40.02C12.478 40.02 12.44 40.0143 12.4047 40.003C12.37 39.9923 12.3397 39.977 12.3137 39.957C12.2877 39.937 12.2674 39.9133 12.2527 39.886C12.238 39.8587 12.2307 39.8287 12.2307 39.796C12.2307 39.7047 12.2804 39.64 12.3797 39.602ZM12.8584 39.657H13.1454V39.808H12.8584V39.657ZM13.7805 40H13.1735L13.3605 39.806C13.4098 39.7547 13.4485 39.7113 13.4765 39.676C13.5045 39.64 13.5252 39.6097 13.5385 39.585C13.5525 39.5603 13.5612 39.5403 13.5645 39.525C13.5678 39.5097 13.5695 39.4967 13.5695 39.486C13.5695 39.4747 13.5675 39.4637 13.5635 39.453C13.5602 39.4423 13.5548 39.433 13.5475 39.425C13.5402 39.4163 13.5312 39.4097 13.5205 39.405C13.5105 39.3997 13.4985 39.397 13.4845 39.397C13.4578 39.397 13.4368 39.4057 13.4215 39.423C13.4068 39.4403 13.3995 39.462 13.3995 39.488C13.3995 39.4953 13.4005 39.506 13.4025 39.52H13.1885C13.1885 39.476 13.1955 39.436 13.2095 39.4C13.2242 39.364 13.2445 39.333 13.2705 39.307C13.2965 39.281 13.3272 39.261 13.3625 39.247C13.3985 39.233 13.4378 39.226 13.4805 39.226C13.5225 39.226 13.5612 39.2327 13.5965 39.246C13.6325 39.2593 13.6635 39.278 13.6895 39.302C13.7155 39.326 13.7358 39.3547 13.7505 39.388C13.7652 39.4207 13.7725 39.4563 13.7725 39.495C13.7725 39.5363 13.7635 39.5747 13.7455 39.61C13.7282 39.6447 13.7002 39.6803 13.6615 39.717L13.5365 39.834H13.7805V40Z" fill="#333333"/>
<defs>
<linearGradient id="paint0_linear" x1="8.38521" y1="9.85898" x2="25.1844" y2="26.8123" gradientUnits="userSpaceOnUse">
<stop stop-color="#AAAAAA"/>
<stop offset="0.569391" stop-color="#454545"/>
</linearGradient>
<linearGradient id="paint1_linear" x1="52.6148" y1="9.85898" x2="35.8156" y2="26.8123" gradientUnits="userSpaceOnUse">
<stop stop-color="#DDDDDD"/>
<stop offset="0.392305" stop-color="#454545"/>
</linearGradient>
</defs>
</svg>
