<svg width="60" height="60" viewBox="0 0 60 60" fill="none" xmlns="http://www.w3.org/2000/svg">
<path fill-rule="evenodd" clip-rule="evenodd" d="M30 60C46.5685 60 60 46.5685 60 30H0C0 46.5685 13.4315 60 30 60Z" fill="#686868"/>
<path fill-rule="evenodd" clip-rule="evenodd" d="M58.2929 40C59.3985 36.8722 60 33.5064 60 30C60 13.4315 46.5685 0 30 0C13.4315 0 0 13.4315 0 30C0 33.5064 0.601542 36.8722 1.70706 40H58.2929Z" fill="#444444"/>
<mask id="path-3-inside-1" fill="white">
<path fill-rule="evenodd" clip-rule="evenodd" d="M43.647 31.6176V31.7708C43.647 33.9766 42.6831 36.0724 41.0083 37.5079L39.5924 38.7216V45.6724V46.2219C38.7894 46.8475 37.8881 47.4273 36.8893 47.9625V37.5306L40.9439 34.3421V32.928L31.4284 34.1725C30.5675 34.2851 29.6957 34.2851 28.8348 34.1725L19.3192 32.928V34.3421L23.3739 37.5306V47.9357C22.3677 47.3847 21.467 46.7865 20.6708 46.14V45.6711V38.7203L19.2549 37.5066C17.6862 36.1621 16.7412 34.2383 16.6277 32.1874C18.1342 26.32 22.6858 20.3611 29.8607 17.752C36.8035 20.2766 41.7812 25.9379 43.647 31.6176Z"/>
</mask>
<path fill-rule="evenodd" clip-rule="evenodd" d="M43.647 31.6176V31.7708C43.647 33.9766 42.6831 36.0724 41.0083 37.5079L39.5924 38.7216V45.6724V46.2219C38.7894 46.8475 37.8881 47.4273 36.8893 47.9625V37.5306L40.9439 34.3421V32.928L31.4284 34.1725C30.5675 34.2851 29.6957 34.2851 28.8348 34.1725L19.3192 32.928V34.3421L23.3739 37.5306V47.9357C22.3677 47.3847 21.467 46.7865 20.6708 46.14V45.6711V38.7203L19.2549 37.5066C17.6862 36.1621 16.7412 34.2383 16.6277 32.1874C18.1342 26.32 22.6858 20.3611 29.8607 17.752C36.8035 20.2766 41.7812 25.9379 43.647 31.6176Z" fill="white"/>
<path d="M43.647 31.6176H43.847V31.5856L43.8371 31.5552L43.647 31.6176ZM41.0083 37.5079L40.8782 37.3561L40.8782 37.3561L41.0083 37.5079ZM39.5924 38.7216L39.4623 38.5697L39.3924 38.6296V38.7216H39.5924ZM39.5924 46.2219L39.7153 46.3797L39.7924 46.3196V46.2219H39.5924ZM36.8893 47.9625H36.6893V48.2965L36.9838 48.1388L36.8893 47.9625ZM36.8893 37.5306L36.7657 37.3734L36.6893 37.4335V37.5306H36.8893ZM40.9439 34.3421L41.0676 34.4993L41.1439 34.4392V34.3421H40.9439ZM40.9439 32.928H41.1439V32.7001L40.918 32.7297L40.9439 32.928ZM31.4284 34.1725L31.4025 33.9742L31.4025 33.9742L31.4284 34.1725ZM28.8348 34.1725L28.8088 34.3708L28.8088 34.3708L28.8348 34.1725ZM19.3192 32.928L19.3452 32.7297L19.1192 32.7001V32.928H19.3192ZM19.3192 34.3421H19.1192V34.4392L19.1956 34.4993L19.3192 34.3421ZM23.3739 37.5306H23.5739V37.4335L23.4975 37.3734L23.3739 37.5306ZM23.3739 47.9357L23.2778 48.1111L23.5739 48.2733V47.9357H23.3739ZM20.6708 46.14H20.4708V46.2353L20.5447 46.2953L20.6708 46.14ZM20.6708 38.7203H20.8708V38.6283L20.801 38.5684L20.6708 38.7203ZM19.2549 37.5066L19.1247 37.6585L19.1247 37.6585L19.2549 37.5066ZM16.6277 32.1874L16.434 32.1377L16.4263 32.1676L16.428 32.1985L16.6277 32.1874ZM29.8607 17.752L29.9291 17.5641L29.8607 17.5392L29.7924 17.5641L29.8607 17.752ZM43.447 31.6176V31.7708H43.847V31.6176H43.447ZM43.447 31.7708C43.447 33.9183 42.5087 35.9585 40.8782 37.3561L41.1385 37.6598C42.8576 36.1862 43.847 34.035 43.847 31.7708H43.447ZM40.8782 37.3561L39.4623 38.5697L39.7226 38.8734L41.1385 37.6598L40.8782 37.3561ZM39.3924 38.7216V45.6724H39.7924V38.7216H39.3924ZM39.3924 45.6724V46.2219H39.7924V45.6724H39.3924ZM39.4695 46.0641C38.6764 46.682 37.7848 47.2557 36.7949 47.7862L36.9838 48.1388C37.9914 47.5989 38.9024 47.013 39.7153 46.3797L39.4695 46.0641ZM37.0893 47.9625V37.5306H36.6893V47.9625H37.0893ZM37.013 37.6879L41.0676 34.4993L40.8203 34.1849L36.7657 37.3734L37.013 37.6879ZM41.1439 34.3421V32.928H40.7439V34.3421H41.1439ZM40.918 32.7297L31.4025 33.9742L31.4543 34.3708L40.9699 33.1263L40.918 32.7297ZM31.4025 33.9742C30.5588 34.0845 29.7044 34.0845 28.8607 33.9742L28.8088 34.3708C29.6869 34.4856 30.5762 34.4856 31.4543 34.3708L31.4025 33.9742ZM28.8607 33.9742L19.3452 32.7297L19.2933 33.1263L28.8088 34.3708L28.8607 33.9742ZM19.1192 32.928V34.3421H19.5192V32.928H19.1192ZM19.1956 34.4993L23.2503 37.6879L23.4975 37.3734L19.4429 34.1849L19.1956 34.4993ZM23.1739 37.5306V47.9357H23.5739V37.5306H23.1739ZM23.47 47.7603C22.4731 47.2144 21.5826 46.6228 20.7969 45.9848L20.5447 46.2953C21.3513 46.9502 22.2623 47.555 23.2778 48.1111L23.47 47.7603ZM20.8708 46.14V45.6711H20.4708V46.14H20.8708ZM20.8708 45.6711V38.7203H20.4708V45.6711H20.8708ZM20.801 38.5684L19.385 37.3548L19.1247 37.6585L20.5406 38.8721L20.801 38.5684ZM19.385 37.3548C17.8579 36.0458 16.9379 34.173 16.8274 32.1764L16.428 32.1985C16.5445 34.3037 17.5145 36.2783 19.1247 37.6585L19.385 37.3548ZM16.8214 32.2371C18.313 26.4279 22.8217 20.5245 29.9291 17.94L29.7924 17.5641C22.55 20.1976 17.9554 26.2122 16.434 32.1377L16.8214 32.2371ZM29.7924 17.94C36.6763 20.4432 41.61 26.0574 43.457 31.6801L43.8371 31.5552C41.9525 25.8184 36.9306 20.1101 29.9291 17.5641L29.7924 17.94Z" fill="url(#paint0_linear)" mask="url(#path-3-inside-1)"/>
<path d="M31.7012 36.7565L36.2491 37.4866V47.0174C36.2491 47.1912 36.1368 47.3452 35.9714 47.3983L30.132 49.2731L24.2926 47.3983C24.1271 47.3452 24.0149 47.1912 24.0149 47.0174V37.4866L28.5628 36.7565C29.6023 36.5897 30.6617 36.5897 31.7012 36.7565Z" fill="white" stroke="url(#paint1_linear)" stroke-width="0.2"/>
<path d="M32.7087 43.0065L34.0101 45.5101L32.6871 49.5048L30.0716 50.8869L27.456 49.5048L26.133 45.5101L27.4344 43.0065L30.0716 43.0065L32.7087 43.0065Z" fill="#FF4E63" stroke="#454545" stroke-width="0.2"/>
<path d="M27.6452 39.1899L30.0507 38.4758C30.0875 38.4649 30.1267 38.4648 30.1635 38.4755L32.6189 39.1899" stroke="#464646" stroke-width="0.4" stroke-linecap="square"/>
<path d="M27.6452 40.8118L30.0356 39.8864C30.0816 39.8686 30.1326 39.8684 30.1787 39.8859L32.6189 40.8118" stroke="#464646" stroke-width="0.4" stroke-linecap="square"/>
<path d="M17.8967 37.1191L17.9016 37.1258L17.9075 37.1315L20.0306 39.179V45.9459L18.5321 44.93L16.406 35.7622C16.2531 35.1029 16.1759 34.4284 16.1759 33.7516V32.5477L16.6127 34.7315C16.7315 35.3258 16.9807 35.8864 17.3421 36.3728L17.8967 37.1191Z" fill="white" stroke="url(#paint2_linear)" stroke-width="0.2"/>
<path d="M18.6717 42.8406L18.2415 41.4187H19.6287V42.8406H18.6717Z" fill="#454545" stroke="url(#paint3_linear)" stroke-width="0.2"/>
<path d="M17.6308 37.341L17.6308 37.341L17.6308 37.341L17.6308 37.341ZM17.768 37.6196L18.371 38.2226L18.3708 38.2228L18.3757 38.227L19.0244 38.7971L19.6392 39.3372V40.9712H18.2051L17.768 37.6196Z" fill="#454545" stroke="url(#paint4_linear)" stroke-width="0.2"/>
<path d="M18.9814 44.7369L18.7006 43.3151H19.6101V44.7369H18.9814Z" fill="#454545" stroke="url(#paint5_linear)" stroke-width="0.2"/>
<path d="M42.314 37.1235L42.3142 37.1237L42.3089 37.1292L40.3166 39.1771V45.9367L41.6821 44.9317L43.9158 35.8127C44.0855 35.1197 44.1713 34.4088 44.1713 33.6953V32.5477L43.7577 34.6155C43.6237 35.2858 43.3241 35.912 42.8864 36.437L42.314 37.1235Z" fill="white" stroke="url(#paint6_linear)" stroke-width="0.2"/>
<path d="M41.6762 42.7907L42.1064 41.3689H40.7193V42.7907H41.6762Z" fill="#454545" stroke="url(#paint7_linear)" stroke-width="0.2"/>
<path d="M42.1625 40.8445L42.5997 37.4929L41.9966 38.0959L41.9968 38.096L41.9919 38.1003L40.7284 39.2105V40.8445H42.1625Z" fill="#454545" stroke="url(#paint8_linear)" stroke-width="0.2"/>
<path d="M41.3351 44.7369L41.6158 43.3151H40.7063V44.7369H41.3351Z" fill="#454545" stroke="url(#paint9_linear)" stroke-width="0.2"/>
<circle cx="21.2909" cy="29.643" r="1.91435" fill="#454545"/>
<circle cx="21.2427" cy="29.5948" r="0.833086" fill="#DBFF00" stroke="#646464" stroke-width="0.2"/>
<circle cx="38.8712" cy="29.4946" r="1.76601" fill="#454545"/>
<circle cx="38.8712" cy="29.4946" r="0.783006" fill="#DBFF00" stroke="#646464" stroke-width="0.2"/>
<path d="M30.3548 35.9081L30.3438 35.9068L30.3327 35.908L23.6158 36.6239L20.2231 33.9223V33.8143L28.6939 34.9345C29.7887 35.0793 30.8982 35.0735 31.9914 34.9173L39.7041 33.8155L39.7041 33.9268L36.7616 36.65L30.3548 35.9081Z" fill="#FF4E63" stroke="#454545" stroke-width="0.2"/>
<path d="M20.521 33.7937L27.5191 34.7268L23.6016 36.2455L20.521 33.7937Z" fill="#454545"/>
<path d="M39.8965 33.6071L32.4678 34.7874L36.6509 36.2053L39.8965 33.6071Z" fill="#454545"/>
<path d="M23.5952 36.0242L20.5329 33.8169L27.8947 34.805L23.5952 36.0242Z" fill="#DBFF00" stroke="#454545" stroke-width="0.1"/>
<path d="M36.6205 36.0098L39.7058 33.688L32.6887 34.8029L36.6205 36.0098Z" fill="#DBFF00" stroke="#454545" stroke-width="0.1"/>
<line x1="30.4184" y1="35.2933" x2="30.4184" y2="35.7465" stroke="#893A3A" stroke-width="0.2" stroke-linecap="round"/>
<path d="M26.9302 24.0963L30.0739 24.0963L33.2633 24.0963L33.2176 26.0118L33.2171 26.0339L33.226 26.0542L34.8143 29.6925L30.0739 32.8528L25.3335 29.6925L26.9218 26.0542L26.9302 26.0351V26.0142V24.0963Z" fill="#FF4E63" stroke="#454545" stroke-width="0.2"/>
<path d="M25.7503 25.9371L24.633 28.7303L7.31611 15.8191L25.7503 24.2614L25.7503 25.9371Z" fill="white" stroke="url(#paint10_linear)" stroke-width="0.2"/>
<path d="M34.4639 25.9371L35.5811 28.7303L52.898 15.8191L34.4639 24.2614L34.4639 25.9371Z" fill="white" stroke="url(#paint11_linear)" stroke-width="0.2"/>
<path d="M34.206 19.0405L33.3849 22.9632H26.8292L26.0082 19.0405V15.1302L30.2118 14.7658L34.206 15.1298V19.0405Z" fill="white" stroke="url(#paint12_linear)" stroke-width="0.2"/>
<path d="M27.3545 18.7252L27.3545 16.0405L30.0914 16.6285L30.1133 16.6332L30.1347 16.6285L32.9265 16.0155L32.9265 18.7157L32.5785 21.7888L27.8633 21.8093L27.3545 18.7252Z" fill="#FF4E63" stroke="url(#paint13_linear)" stroke-width="0.2" stroke-linecap="round"/>
<line x1="21.0152" y1="38.6137" x2="22.7339" y2="37.7281" stroke="#7A7777" stroke-width="0.2" stroke-linecap="round" stroke-dasharray="2.2 0"/>
<line x1="26.9275" y1="29.3695" x2="28.4683" y2="28.5756" stroke="#454545" stroke-width="0.4" stroke-linecap="round"/>
<line x1="0.2" y1="-0.2" x2="1.93341" y2="-0.2" transform="matrix(-0.888931 -0.458041 -0.458041 0.888931 33.4032 29.6389)" stroke="#454545" stroke-width="0.4" stroke-linecap="round"/>
<line x1="0.1" y1="-0.1" x2="2.03341" y2="-0.1" transform="matrix(-0.888931 -0.458041 -0.458041 0.888931 39.2886 38.7484)" stroke="#7A7777" stroke-width="0.2" stroke-linecap="round" stroke-dasharray="2.2 0"/>
<path d="M37.4115 36.6531L37.3986 36.7451L37.5231 36.9038L37.477 36.94L37.0142 36.3497L37.0603 36.3136L37.3565 36.6913L37.3631 36.6104L37.3996 36.3293L37.4576 36.2838L37.4186 36.5973L37.799 36.6875L37.744 36.7306L37.4115 36.6531ZM37.9591 36.5743C37.9238 36.602 37.8849 36.6184 37.8426 36.6235C37.8005 36.6284 37.7594 36.6215 37.7192 36.603C37.6788 36.5842 37.6434 36.5555 37.6131 36.5168L37.6001 36.5002C37.5688 36.4603 37.5483 36.4183 37.5385 36.3742C37.5291 36.3299 37.531 36.2878 37.5444 36.248C37.5576 36.2078 37.5804 36.1751 37.6127 36.1498C37.6631 36.1102 37.7166 36.0962 37.7732 36.1077C37.8298 36.1187 37.8816 36.1541 37.9284 36.2138L37.9485 36.2395L37.6519 36.4721L37.6588 36.4809C37.6958 36.5281 37.7401 36.5568 37.7917 36.5673C37.8433 36.5772 37.8896 36.5661 37.9306 36.534C37.9552 36.5147 37.9734 36.4933 37.985 36.4696C37.997 36.4458 38.0029 36.418 38.0028 36.3862L38.0488 36.3855C38.0533 36.461 38.0234 36.5239 37.9591 36.5743ZM37.6434 36.189C37.6088 36.2161 37.5895 36.2517 37.5856 36.2957C37.5819 36.3396 37.5943 36.3849 37.6227 36.4317L37.8721 36.2362L37.8682 36.2312C37.8356 36.1922 37.7986 36.1686 37.7574 36.1604C37.7162 36.1521 37.6782 36.1617 37.6434 36.189ZM38.2101 36.2628L38.0602 35.8113L38.1075 35.7742L38.2783 36.3117L38.241 36.3409L37.759 36.0475L37.8063 36.0104L38.2101 36.2628ZM38.4977 36.1396L38.4516 36.1758L38.1256 35.76L38.1717 35.7239L38.4977 36.1396ZM38.0233 35.6461C38.0164 35.6374 38.0135 35.6278 38.0145 35.6175C38.0154 35.607 38.0206 35.5979 38.0304 35.5902C38.0401 35.5826 38.0502 35.5797 38.0607 35.5814C38.0712 35.5827 38.0798 35.5876 38.0867 35.5964C38.0935 35.6051 38.0963 35.6147 38.095 35.6252C38.094 35.6355 38.0886 35.6445 38.0789 35.6521C38.0691 35.6597 38.0591 35.6628 38.0489 35.6613C38.0386 35.6599 38.0301 35.6548 38.0233 35.6461ZM38.2779 35.6407L38.3351 35.7105C38.3307 35.6727 38.3349 35.6379 38.3477 35.6063C38.3604 35.5745 38.3808 35.5475 38.409 35.5254C38.4536 35.4905 38.4966 35.477 38.5381 35.485C38.5795 35.4931 38.6201 35.5221 38.6597 35.5721L38.8736 35.8449L38.8279 35.8808L38.6137 35.6076C38.5843 35.5706 38.5546 35.5492 38.5248 35.5432C38.4951 35.5371 38.4633 35.5474 38.4292 35.5741C38.4008 35.5964 38.3826 35.6252 38.3746 35.6604C38.3667 35.6951 38.3693 35.7317 38.3825 35.7702L38.6058 36.0549L38.56 36.0908L38.2341 35.675L38.2779 35.6407ZM38.7202 35.122L38.8036 35.2284L38.8897 35.1609L38.9192 35.1986L38.8332 35.2661L39.0504 35.5431C39.0685 35.5662 39.086 35.5801 39.1031 35.585C39.1203 35.5896 39.1387 35.5843 39.1582 35.569C39.1659 35.563 39.1773 35.552 39.1925 35.536L39.2239 35.5721C39.2153 35.5859 39.2006 35.6009 39.1798 35.6172C39.1483 35.6419 39.1183 35.6508 39.0897 35.6439C39.0609 35.6367 39.0325 35.6153 39.0046 35.5797L38.7871 35.3022L38.7106 35.3622L38.6811 35.3245L38.7575 35.2646L38.6741 35.1581L38.7202 35.122ZM39.0472 35.3632C39.0158 35.3233 38.9953 35.2812 38.9856 35.2372C38.9761 35.1929 38.9785 35.1509 38.9928 35.1111C39.0072 35.0709 39.0323 35.0367 39.0682 35.0086C39.1235 34.9652 39.1836 34.9495 39.2485 34.9615C39.3131 34.9733 39.3706 35.0112 39.4208 35.0753L39.4283 35.0849C39.4598 35.1251 39.4805 35.1675 39.4901 35.212C39.4999 35.2561 39.4975 35.2979 39.483 35.3374C39.4684 35.3769 39.4431 35.4108 39.407 35.4391C39.3519 35.4823 39.2919 35.4981 39.227 35.4865C39.1622 35.4745 39.1046 35.4365 39.0544 35.3724L39.0472 35.3632ZM39.1032 35.3397C39.1422 35.3894 39.187 35.4203 39.2378 35.4322C39.2885 35.4437 39.3348 35.433 39.3766 35.4003C39.4181 35.3678 39.4392 35.3256 39.4399 35.2737C39.4406 35.2214 39.4205 35.1691 39.3796 35.1169L39.3726 35.108C39.3477 35.0763 39.319 35.0518 39.2866 35.0347C39.2541 35.0175 39.2216 35.0101 39.1891 35.0124C39.1564 35.0145 39.1263 35.0263 39.0989 35.0478C39.0579 35.0799 39.0372 35.1223 39.0366 35.1748C39.0358 35.2271 39.0558 35.2793 39.0966 35.3313L39.1032 35.3397ZM39.643 35.0871L39.678 35.1175L39.6577 35.0726L39.5081 34.6761L39.5473 34.6453L39.8934 34.8834L39.9385 34.9188L39.9157 34.8715L39.751 34.4857L39.7986 34.4483L40.0035 34.959L39.9643 34.9897L39.599 34.7438L39.5763 34.725L39.5893 34.752L39.7426 35.1635L39.7034 35.1943L39.2568 34.8731L39.3041 34.8361L39.643 35.0871ZM39.8667 34.3949L39.9239 34.4648C39.9195 34.427 39.9237 34.3922 39.9366 34.3606C39.9492 34.3288 39.9697 34.3018 39.9978 34.2797C40.0424 34.2448 40.0854 34.2313 40.1269 34.2393C40.1683 34.2474 40.2089 34.2764 40.2485 34.3264L40.4624 34.5992L40.4167 34.6351L40.2025 34.3619C40.1731 34.3249 40.1435 34.3035 40.1136 34.2975C40.0839 34.2914 40.0521 34.3017 40.018 34.3284C39.9896 34.3507 39.9714 34.3794 39.9634 34.4146C39.9555 34.4494 39.9581 34.486 39.9713 34.5245L40.1946 34.8092L40.1489 34.845L39.8229 34.4293L39.8667 34.3949ZM40.6856 34.4366C40.6502 34.4643 40.6114 34.4807 40.569 34.4858C40.527 34.4907 40.4858 34.4839 40.4456 34.4653C40.4052 34.4465 40.3699 34.4178 40.3396 34.3791L40.3266 34.3626C40.2953 34.3226 40.2747 34.2806 40.265 34.2365C40.2555 34.1922 40.2575 34.1502 40.2709 34.1103C40.2841 34.0701 40.3068 34.0374 40.3391 34.0121C40.3896 33.9726 40.4431 33.9585 40.4997 33.97C40.5563 33.981 40.608 34.0164 40.6548 34.0761L40.675 34.1018L40.3784 34.3344L40.3853 34.3432C40.4222 34.3904 40.4665 34.4191 40.5181 34.4296C40.5698 34.4395 40.6161 34.4284 40.6571 34.3963C40.6817 34.377 40.6998 34.3556 40.7115 34.3319C40.7234 34.3081 40.7293 34.2803 40.7292 34.2485L40.7752 34.2478C40.7798 34.3233 40.7499 34.3862 40.6856 34.4366ZM40.3698 34.0513C40.3353 34.0784 40.316 34.114 40.3121 34.158C40.3084 34.2019 40.3207 34.2472 40.3492 34.294L40.5985 34.0985L40.5946 34.0935C40.562 34.0545 40.5251 34.0309 40.4839 34.0227C40.4427 34.0145 40.4047 34.024 40.3698 34.0513ZM40.759 33.7586C40.7479 33.7644 40.7368 33.7717 40.7258 33.7803C40.6971 33.8028 40.6791 33.8299 40.6718 33.8617C40.6645 33.8931 40.6686 33.9273 40.684 33.9644L40.9079 34.2499L40.8622 34.2858L40.5362 33.87L40.5811 33.8348L40.6337 33.9003C40.6195 33.832 40.6393 33.7768 40.6931 33.7346C40.7059 33.7246 40.7173 33.7183 40.7273 33.7158L40.759 33.7586Z" fill="#565656"/>
<path d="M4.3155 38.6405C4.34017 38.6405 4.36167 38.6375 4.38 38.6315C4.39833 38.6252 4.4135 38.6163 4.4255 38.605C4.43783 38.5933 4.447 38.5793 4.453 38.563C4.459 38.5463 4.462 38.5278 4.462 38.5075C4.462 38.4882 4.459 38.4707 4.453 38.455C4.447 38.4393 4.438 38.426 4.426 38.415C4.414 38.404 4.39883 38.3957 4.3805 38.39C4.36217 38.384 4.3405 38.381 4.3155 38.381H4.215V38.6405H4.3155ZM4.3155 38.277C4.36383 38.277 4.40567 38.2827 4.441 38.294C4.47633 38.3053 4.5055 38.3212 4.5285 38.3415C4.5515 38.3618 4.5685 38.3862 4.5795 38.4145C4.59083 38.4428 4.5965 38.4738 4.5965 38.5075C4.5965 38.5425 4.59067 38.5747 4.579 38.604C4.56733 38.633 4.54983 38.658 4.5265 38.679C4.50317 38.7 4.47383 38.7163 4.4385 38.728C4.4035 38.7397 4.3625 38.7455 4.3155 38.7455H4.215V39H4.0805V38.277H4.3155ZM4.80883 38.576C4.82483 38.5453 4.84383 38.5213 4.86583 38.504C4.88783 38.4863 4.91383 38.4775 4.94383 38.4775C4.96749 38.4775 4.98649 38.4827 5.00083 38.493L4.99283 38.5855C4.99116 38.5915 4.98866 38.5958 4.98533 38.5985C4.98233 38.6008 4.97816 38.602 4.97283 38.602C4.96783 38.602 4.96033 38.6012 4.95033 38.5995C4.94066 38.5978 4.93116 38.597 4.92183 38.597C4.90816 38.597 4.89599 38.599 4.88533 38.603C4.87466 38.607 4.86499 38.6128 4.85633 38.6205C4.84799 38.6278 4.84049 38.6368 4.83383 38.6475C4.82749 38.6582 4.82149 38.6703 4.81583 38.684V39H4.69233V38.487H4.76483C4.77749 38.487 4.78633 38.4893 4.79133 38.494C4.79633 38.4983 4.79966 38.5063 4.80133 38.518L4.80883 38.576ZM5.29773 38.479C5.33573 38.479 5.37023 38.4852 5.40123 38.4975C5.43256 38.5098 5.45923 38.5273 5.48123 38.55C5.50356 38.5727 5.52073 38.6003 5.53273 38.633C5.54473 38.6657 5.55073 38.7022 5.55073 38.7425C5.55073 38.7832 5.54473 38.8198 5.53273 38.8525C5.52073 38.8852 5.50356 38.913 5.48123 38.936C5.45923 38.959 5.43256 38.9767 5.40123 38.989C5.37023 39.0013 5.33573 39.0075 5.29773 39.0075C5.25939 39.0075 5.22456 39.0013 5.19323 38.989C5.16189 38.9767 5.13506 38.959 5.11273 38.936C5.09073 38.913 5.07356 38.8852 5.06123 38.8525C5.04923 38.8198 5.04323 38.7832 5.04323 38.7425C5.04323 38.7022 5.04923 38.6657 5.06123 38.633C5.07356 38.6003 5.09073 38.5727 5.11273 38.55C5.13506 38.5273 5.16189 38.5098 5.19323 38.4975C5.22456 38.4852 5.25939 38.479 5.29773 38.479ZM5.29773 38.9125C5.34039 38.9125 5.37189 38.8982 5.39223 38.8695C5.41289 38.8408 5.42323 38.7988 5.42323 38.7435C5.42323 38.6882 5.41289 38.646 5.39223 38.617C5.37189 38.588 5.34039 38.5735 5.29773 38.5735C5.25439 38.5735 5.22223 38.5882 5.20123 38.6175C5.18056 38.6465 5.17023 38.6885 5.17023 38.7435C5.17023 38.7985 5.18056 38.8405 5.20123 38.8695C5.22223 38.8982 5.25439 38.9125 5.29773 38.9125ZM5.82618 39.008C5.78151 39.008 5.74718 38.9955 5.72318 38.9705C5.69951 38.9452 5.68768 38.9103 5.68768 38.866V38.5795H5.63518C5.62851 38.5795 5.62285 38.5773 5.61818 38.573C5.61351 38.5687 5.61118 38.5622 5.61118 38.5535V38.5045L5.69368 38.491L5.71968 38.351C5.72135 38.3443 5.72451 38.3392 5.72918 38.3355C5.73385 38.3318 5.73985 38.33 5.74718 38.33H5.81118V38.4915H5.94818V38.5795H5.81118V38.8575C5.81118 38.8735 5.81501 38.886 5.82268 38.895C5.83068 38.904 5.84151 38.9085 5.85518 38.9085C5.86285 38.9085 5.86918 38.9077 5.87418 38.906C5.87951 38.904 5.88401 38.902 5.88768 38.9C5.89168 38.898 5.89518 38.8962 5.89818 38.8945C5.90118 38.8925 5.90418 38.8915 5.90718 38.8915C5.91085 38.8915 5.91385 38.8925 5.91618 38.8945C5.91851 38.8962 5.92101 38.8988 5.92368 38.9025L5.96068 38.9625C5.94268 38.9775 5.92201 38.9888 5.89868 38.9965C5.87535 39.0042 5.85118 39.008 5.82618 39.008ZM6.27034 38.479C6.30834 38.479 6.34284 38.4852 6.37384 38.4975C6.40518 38.5098 6.43184 38.5273 6.45384 38.55C6.47618 38.5727 6.49334 38.6003 6.50534 38.633C6.51734 38.6657 6.52334 38.7022 6.52334 38.7425C6.52334 38.7832 6.51734 38.8198 6.50534 38.8525C6.49334 38.8852 6.47618 38.913 6.45384 38.936C6.43184 38.959 6.40518 38.9767 6.37384 38.989C6.34284 39.0013 6.30834 39.0075 6.27034 39.0075C6.23201 39.0075 6.19718 39.0013 6.16584 38.989C6.13451 38.9767 6.10768 38.959 6.08534 38.936C6.06334 38.913 6.04618 38.8852 6.03384 38.8525C6.02184 38.8198 6.01584 38.7832 6.01584 38.7425C6.01584 38.7022 6.02184 38.6657 6.03384 38.633C6.04618 38.6003 6.06334 38.5727 6.08534 38.55C6.10768 38.5273 6.13451 38.5098 6.16584 38.4975C6.19718 38.4852 6.23201 38.479 6.27034 38.479ZM6.27034 38.9125C6.31301 38.9125 6.34451 38.8982 6.36484 38.8695C6.38551 38.8408 6.39584 38.7988 6.39584 38.7435C6.39584 38.6882 6.38551 38.646 6.36484 38.617C6.34451 38.588 6.31301 38.5735 6.27034 38.5735C6.22701 38.5735 6.19484 38.5882 6.17384 38.6175C6.15318 38.6465 6.14284 38.6885 6.14284 38.7435C6.14284 38.7985 6.15318 38.8405 6.17384 38.8695C6.19484 38.8982 6.22701 38.9125 6.27034 38.9125ZM6.7988 39.008C6.75413 39.008 6.7198 38.9955 6.6958 38.9705C6.67213 38.9452 6.6603 38.9103 6.6603 38.866V38.5795H6.6078C6.60113 38.5795 6.59546 38.5773 6.5908 38.573C6.58613 38.5687 6.5838 38.5622 6.5838 38.5535V38.5045L6.6663 38.491L6.6923 38.351C6.69396 38.3443 6.69713 38.3392 6.7018 38.3355C6.70646 38.3318 6.71246 38.33 6.7198 38.33H6.7838V38.4915H6.9208V38.5795H6.7838V38.8575C6.7838 38.8735 6.78763 38.886 6.7953 38.895C6.8033 38.904 6.81413 38.9085 6.8278 38.9085C6.83546 38.9085 6.8418 38.9077 6.8468 38.906C6.85213 38.904 6.85663 38.902 6.8603 38.9C6.8643 38.898 6.8678 38.8962 6.8708 38.8945C6.8738 38.8925 6.8768 38.8915 6.8798 38.8915C6.88346 38.8915 6.88646 38.8925 6.8888 38.8945C6.89113 38.8962 6.89363 38.8988 6.8963 38.9025L6.9333 38.9625C6.9153 38.9775 6.89463 38.9888 6.8713 38.9965C6.84796 39.0042 6.8238 39.008 6.7988 39.008ZM7.48587 38.487L7.20637 39.141C7.2027 39.1497 7.19787 39.1562 7.19187 39.1605C7.1862 39.1652 7.17737 39.1675 7.16537 39.1675H7.07337L7.16937 38.9615L6.96187 38.487H7.07037C7.08003 38.487 7.08753 38.4893 7.09287 38.494C7.09853 38.4987 7.1027 38.504 7.10537 38.51L7.21437 38.776C7.21803 38.785 7.22103 38.794 7.22337 38.803C7.22603 38.812 7.22853 38.8212 7.23087 38.8305C7.23387 38.8212 7.23687 38.812 7.23987 38.803C7.24287 38.7937 7.2462 38.7845 7.24987 38.7755L7.35287 38.51C7.35553 38.5033 7.35987 38.4978 7.36587 38.4935C7.3722 38.4892 7.3792 38.487 7.38687 38.487H7.48587ZM7.69071 38.867C7.70471 38.884 7.71988 38.896 7.73621 38.903C7.75288 38.91 7.77088 38.9135 7.79021 38.9135C7.80888 38.9135 7.82571 38.91 7.84071 38.903C7.85571 38.896 7.86838 38.8853 7.87871 38.871C7.88938 38.8567 7.89754 38.8387 7.90321 38.817C7.90888 38.795 7.91171 38.7692 7.91171 38.7395C7.91171 38.7095 7.90921 38.6842 7.90421 38.6635C7.89954 38.6425 7.89271 38.6255 7.88371 38.6125C7.87471 38.5995 7.86371 38.59 7.85071 38.584C7.83804 38.578 7.82354 38.575 7.80721 38.575C7.78154 38.575 7.75971 38.5805 7.74171 38.5915C7.72371 38.6022 7.70671 38.6173 7.69071 38.637V38.867ZM7.68421 38.557C7.70521 38.5333 7.72904 38.5142 7.75571 38.4995C7.78238 38.4848 7.81371 38.4775 7.84971 38.4775C7.87771 38.4775 7.90321 38.4833 7.92621 38.495C7.94954 38.5067 7.96954 38.5237 7.98621 38.546C8.00321 38.568 8.01621 38.5953 8.02521 38.628C8.03454 38.6603 8.03921 38.6975 8.03921 38.7395C8.03921 38.7778 8.03404 38.8133 8.02371 38.846C8.01338 38.8787 7.99854 38.907 7.97921 38.931C7.96021 38.955 7.93704 38.9738 7.90971 38.9875C7.88271 39.0008 7.85238 39.0075 7.81871 39.0075C7.79004 39.0075 7.76554 39.0032 7.74521 38.9945C7.72488 38.9855 7.70671 38.9732 7.69071 38.9575V39.1675H7.56721V38.487H7.64271C7.65871 38.487 7.66921 38.4945 7.67421 38.5095L7.68421 38.557ZM8.48607 38.6845C8.48607 38.6685 8.48374 38.6535 8.47907 38.6395C8.47474 38.6252 8.46807 38.6127 8.45907 38.602C8.45007 38.5913 8.43857 38.583 8.42457 38.577C8.4109 38.5707 8.3949 38.5675 8.37657 38.5675C8.3409 38.5675 8.31274 38.5777 8.29207 38.598C8.27174 38.6183 8.25874 38.6472 8.25307 38.6845H8.48607ZM8.25057 38.759C8.25257 38.7853 8.25724 38.8082 8.26457 38.8275C8.2719 38.8465 8.28157 38.8623 8.29357 38.875C8.30557 38.8873 8.31974 38.8967 8.33607 38.903C8.35274 38.909 8.37107 38.912 8.39107 38.912C8.41107 38.912 8.42824 38.9097 8.44257 38.905C8.45724 38.9003 8.4699 38.8952 8.48057 38.8895C8.49157 38.8838 8.50107 38.8787 8.50907 38.874C8.5174 38.8693 8.5254 38.867 8.53307 38.867C8.5434 38.867 8.55107 38.8708 8.55607 38.8785L8.59157 38.9235C8.5779 38.9395 8.56257 38.953 8.54557 38.964C8.52857 38.9747 8.51074 38.9833 8.49207 38.99C8.47374 38.9963 8.4549 39.0008 8.43557 39.0035C8.41657 39.0062 8.39807 39.0075 8.38007 39.0075C8.3444 39.0075 8.31124 39.0017 8.28057 38.99C8.2499 38.978 8.22324 38.9605 8.20057 38.9375C8.1779 38.9142 8.16007 38.8855 8.14707 38.8515C8.13407 38.8172 8.12757 38.7775 8.12757 38.7325C8.12757 38.6975 8.13324 38.6647 8.14457 38.634C8.1559 38.603 8.17207 38.5762 8.19307 38.5535C8.2144 38.5305 8.24024 38.5123 8.27057 38.499C8.30124 38.4857 8.33574 38.479 8.37407 38.479C8.4064 38.479 8.43624 38.4842 8.46357 38.4945C8.4909 38.5048 8.5144 38.52 8.53407 38.54C8.55374 38.5597 8.56907 38.584 8.58007 38.613C8.5914 38.6417 8.59707 38.6745 8.59707 38.7115C8.59707 38.7302 8.59507 38.7428 8.59107 38.7495C8.58707 38.7558 8.5794 38.759 8.56807 38.759H8.25057ZM9.21091 38.621C9.23625 38.621 9.25825 38.6178 9.27691 38.6115C9.29591 38.6052 9.31141 38.5965 9.32341 38.5855C9.33575 38.5742 9.34491 38.5608 9.35091 38.5455C9.35691 38.5302 9.35991 38.5133 9.35991 38.495C9.35991 38.4583 9.34775 38.4302 9.32341 38.4105C9.29941 38.3908 9.26258 38.381 9.21291 38.381H9.12691V38.621H9.21091ZM9.55691 39H9.43541C9.41241 39 9.39575 38.991 9.38541 38.973L9.23341 38.7415C9.22775 38.7328 9.22141 38.7267 9.21441 38.723C9.20775 38.7193 9.19775 38.7175 9.18441 38.7175H9.12691V39H8.99241V38.277H9.21291C9.26191 38.277 9.30391 38.2822 9.33891 38.2925C9.37425 38.3025 9.40308 38.3167 9.42541 38.335C9.44808 38.3533 9.46475 38.3753 9.47541 38.401C9.48608 38.4263 9.49141 38.4543 9.49141 38.485C9.49141 38.5093 9.48775 38.5323 9.48041 38.554C9.47341 38.5757 9.46308 38.5953 9.44941 38.613C9.43608 38.6307 9.41941 38.6462 9.39941 38.6595C9.37975 38.6728 9.35725 38.6833 9.33191 38.691C9.34058 38.696 9.34858 38.702 9.35591 38.709C9.36325 38.7157 9.36991 38.7237 9.37591 38.733L9.55691 39ZM10.2425 39H10.1085C10.0992 39 10.0917 38.9977 10.086 38.993C10.0807 38.9883 10.0763 38.983 10.073 38.977L9.90549 38.6995C9.90283 38.7078 9.89966 38.715 9.89599 38.721L9.73549 38.977C9.73149 38.9827 9.72683 38.988 9.72149 38.993C9.71649 38.9977 9.70983 39 9.70149 39H9.57599L9.81599 38.628L9.58549 38.277H9.71949C9.72883 38.277 9.73549 38.2783 9.73949 38.281C9.74383 38.2833 9.74783 38.2873 9.75149 38.293L9.91599 38.558C9.91933 38.5497 9.92333 38.5413 9.92799 38.533L10.079 38.2955C10.0827 38.2892 10.0867 38.2845 10.091 38.2815C10.0953 38.2785 10.1008 38.277 10.1075 38.277H10.236L10.0035 38.6225L10.2425 39ZM10.298 38.6465H10.557V38.7495H10.298V38.6465ZM11.18 38.277V38.3305C11.18 38.3465 11.1784 38.3595 11.175 38.3695C11.1717 38.3792 11.1684 38.3873 11.165 38.394L10.891 38.958C10.8854 38.9697 10.8774 38.9797 10.867 38.988C10.8567 38.996 10.8429 39 10.8255 39H10.736L11.0155 38.4475C11.0219 38.4362 11.028 38.4258 11.034 38.4165C11.0404 38.4068 11.0474 38.3977 11.055 38.389H10.709C10.7014 38.389 10.6947 38.3862 10.689 38.3805C10.6834 38.3748 10.6805 38.3682 10.6805 38.3605V38.277H11.18ZM11.5241 38.9115C11.5444 38.9115 11.5623 38.9087 11.5776 38.903C11.5929 38.897 11.6058 38.8888 11.6161 38.8785C11.6268 38.8682 11.6348 38.8558 11.6401 38.8415C11.6454 38.8272 11.6481 38.8117 11.6481 38.795C11.6481 38.7553 11.6371 38.7253 11.6151 38.705C11.5931 38.6847 11.5628 38.6745 11.5241 38.6745C11.4854 38.6745 11.4551 38.6847 11.4331 38.705C11.4111 38.7253 11.4001 38.7553 11.4001 38.795C11.4001 38.8117 11.4028 38.8272 11.4081 38.8415C11.4134 38.8558 11.4213 38.8682 11.4316 38.8785C11.4423 38.8888 11.4553 38.897 11.4706 38.903C11.4859 38.9087 11.5038 38.9115 11.5241 38.9115ZM11.5241 38.362C11.5058 38.362 11.4899 38.3648 11.4766 38.3705C11.4633 38.3762 11.4521 38.3838 11.4431 38.3935C11.4344 38.4028 11.4279 38.4137 11.4236 38.426C11.4196 38.4383 11.4176 38.4513 11.4176 38.465C11.4176 38.4793 11.4193 38.4933 11.4226 38.507C11.4263 38.5203 11.4323 38.5323 11.4406 38.543C11.4489 38.5533 11.4599 38.5617 11.4736 38.568C11.4873 38.5743 11.5041 38.5775 11.5241 38.5775C11.5441 38.5775 11.5609 38.5743 11.5746 38.568C11.5883 38.5617 11.5993 38.5533 11.6076 38.543C11.6159 38.5323 11.6218 38.5203 11.6251 38.507C11.6288 38.4933 11.6306 38.4793 11.6306 38.465C11.6306 38.4513 11.6284 38.4383 11.6241 38.426C11.6198 38.4137 11.6133 38.4028 11.6046 38.3935C11.5959 38.3838 11.5849 38.3762 11.5716 38.3705C11.5583 38.3648 11.5424 38.362 11.5241 38.362ZM11.6461 38.623C11.6901 38.6373 11.7226 38.6593 11.7436 38.689C11.7646 38.7183 11.7751 38.7543 11.7751 38.797C11.7751 38.829 11.7689 38.858 11.7566 38.884C11.7446 38.91 11.7276 38.9322 11.7056 38.9505C11.6836 38.9688 11.6571 38.983 11.6261 38.993C11.5954 39.003 11.5614 39.008 11.5241 39.008C11.4868 39.008 11.4526 39.003 11.4216 38.993C11.3909 38.983 11.3646 38.9688 11.3426 38.9505C11.3206 38.9322 11.3034 38.91 11.2911 38.884C11.2791 38.858 11.2731 38.829 11.2731 38.797C11.2731 38.7543 11.2836 38.7183 11.3046 38.689C11.3256 38.6593 11.3581 38.6373 11.4021 38.623C11.3671 38.6083 11.3408 38.5875 11.3231 38.5605C11.3058 38.5335 11.2971 38.501 11.2971 38.463C11.2971 38.4357 11.3026 38.4102 11.3136 38.3865C11.3249 38.3628 11.3406 38.3423 11.3606 38.325C11.3806 38.3073 11.4044 38.2937 11.4321 38.284C11.4601 38.274 11.4908 38.269 11.5241 38.269C11.5574 38.269 11.5879 38.274 11.6156 38.284C11.6436 38.2937 11.6676 38.3073 11.6876 38.325C11.7076 38.3423 11.7231 38.3628 11.7341 38.3865C11.7454 38.4102 11.7511 38.4357 11.7511 38.463C11.7511 38.501 11.7423 38.5335 11.7246 38.5605C11.7073 38.5875 11.6811 38.6083 11.6461 38.623ZM11.8912 38.6465H12.1502V38.7495H11.8912V38.6465ZM12.7177 38.885C12.7311 38.885 12.7416 38.8888 12.7492 38.8965C12.7572 38.9038 12.7612 38.9137 12.7612 38.926V39H12.2652V38.959C12.2652 38.9507 12.2669 38.942 12.2702 38.933C12.2739 38.9237 12.2796 38.9153 12.2872 38.908L12.5067 38.688C12.5251 38.6693 12.5414 38.6515 12.5557 38.6345C12.5704 38.6175 12.5826 38.6007 12.5922 38.584C12.6019 38.5673 12.6092 38.5505 12.6142 38.5335C12.6196 38.5162 12.6222 38.498 12.6222 38.479C12.6222 38.4617 12.6197 38.4465 12.6147 38.4335C12.6097 38.4202 12.6026 38.409 12.5932 38.4C12.5842 38.391 12.5732 38.3843 12.5602 38.38C12.5476 38.3753 12.5332 38.373 12.5172 38.373C12.5026 38.373 12.4889 38.3752 12.4762 38.3795C12.4639 38.3835 12.4529 38.3893 12.4432 38.397C12.4336 38.4043 12.4254 38.413 12.4187 38.423C12.4121 38.433 12.4071 38.444 12.4037 38.456C12.3981 38.4713 12.3907 38.4815 12.3817 38.4865C12.3727 38.4915 12.3597 38.4927 12.3427 38.49L12.2777 38.4785C12.2827 38.4438 12.2924 38.4135 12.3067 38.3875C12.3211 38.3612 12.3389 38.3393 12.3602 38.322C12.3819 38.3043 12.4066 38.2912 12.4342 38.2825C12.4622 38.2735 12.4922 38.269 12.5242 38.269C12.5576 38.269 12.5881 38.274 12.6157 38.284C12.6434 38.2937 12.6671 38.3075 12.6867 38.3255C12.7064 38.3435 12.7217 38.3652 12.7327 38.3905C12.7437 38.4158 12.7492 38.444 12.7492 38.475C12.7492 38.5017 12.7452 38.5263 12.7372 38.549C12.7296 38.5717 12.7191 38.5933 12.7057 38.614C12.6927 38.6347 12.6774 38.6547 12.6597 38.674C12.6421 38.6933 12.6236 38.713 12.6042 38.733L12.4412 38.8995C12.4569 38.8948 12.4724 38.8913 12.4877 38.889C12.5034 38.8863 12.5182 38.885 12.5322 38.885H12.7177Z" fill="white"/>
<defs>
<linearGradient id="paint0_linear" x1="30.1374" y1="17.752" x2="30" y2="50.5" gradientUnits="userSpaceOnUse">
<stop offset="0.480303" stop-color="#AFA8A8"/>
<stop offset="1" stop-color="#454545"/>
</linearGradient>
<linearGradient id="paint1_linear" x1="30" y1="37.5" x2="30" y2="40" gradientUnits="userSpaceOnUse">
<stop stop-color="#AFA9A9"/>
<stop offset="1" stop-color="#454545"/>
</linearGradient>
<linearGradient id="paint2_linear" x1="18.1032" y1="32.3487" x2="18.1032" y2="46.1345" gradientUnits="userSpaceOnUse">
<stop stop-color="#AFA9A9"/>
<stop offset="1" stop-color="#454545"/>
</linearGradient>
<linearGradient id="paint3_linear" x1="18.9177" y1="41.3187" x2="18.9177" y2="42.9406" gradientUnits="userSpaceOnUse">
<stop stop-color="#AFA9A9"/>
<stop offset="1" stop-color="#454545"/>
</linearGradient>
<linearGradient id="paint4_linear" x1="18.685" y1="37.341" x2="18.685" y2="41.0712" gradientUnits="userSpaceOnUse">
<stop stop-color="#AFA9A9"/>
<stop offset="1" stop-color="#454545"/>
</linearGradient>
<linearGradient id="paint5_linear" x1="19.1445" y1="43.2151" x2="19.1445" y2="44.8369" gradientUnits="userSpaceOnUse">
<stop stop-color="#AFA9A9"/>
<stop offset="1" stop-color="#454545"/>
</linearGradient>
<linearGradient id="paint6_linear" x1="42.244" y1="32.3487" x2="42.244" y2="46.1345" gradientUnits="userSpaceOnUse">
<stop stop-color="#AFA9A9"/>
<stop offset="1" stop-color="#454545"/>
</linearGradient>
<linearGradient id="paint7_linear" x1="41.4302" y1="41.2689" x2="41.4302" y2="42.8907" gradientUnits="userSpaceOnUse">
<stop stop-color="#AFA9A9"/>
<stop offset="1" stop-color="#454545"/>
</linearGradient>
<linearGradient id="paint8_linear" x1="41.6826" y1="37.2142" x2="41.6826" y2="40.9445" gradientUnits="userSpaceOnUse">
<stop stop-color="#AFA9A9"/>
<stop offset="1" stop-color="#454545"/>
</linearGradient>
<linearGradient id="paint9_linear" x1="41.1719" y1="43.2151" x2="41.1719" y2="44.8369" gradientUnits="userSpaceOnUse">
<stop stop-color="#AFA9A9"/>
<stop offset="1" stop-color="#454545"/>
</linearGradient>
<linearGradient id="paint10_linear" x1="9.22446" y1="12.6677" x2="24.8967" y2="28.6735" gradientUnits="userSpaceOnUse">
<stop stop-color="#AFA9A9"/>
<stop offset="0.569391" stop-color="#454545"/>
</linearGradient>
<linearGradient id="paint11_linear" x1="50.9897" y1="12.6677" x2="35.3174" y2="28.6735" gradientUnits="userSpaceOnUse">
<stop stop-color="#DDDDDD"/>
<stop offset="0.392305" stop-color="#454545"/>
</linearGradient>
<linearGradient id="paint12_linear" x1="30.1071" y1="14.6654" x2="30.1071" y2="23.0632" gradientUnits="userSpaceOnUse">
<stop stop-color="#AFA9A9"/>
<stop offset="1" stop-color="#454545"/>
</linearGradient>
<linearGradient id="paint13_linear" x1="30.8714" y1="22.0496" x2="30.2943" y2="15.6446" gradientUnits="userSpaceOnUse">
<stop stop-color="#AFA9A9"/>
<stop offset="1" stop-color="#454545"/>
</linearGradient>
</defs>
</svg>
