<svg width="60" height="60" viewBox="0 0 60 60" fill="none" xmlns="http://www.w3.org/2000/svg">
<path fill-rule="evenodd" clip-rule="evenodd" d="M30 60C46.5685 60 60 46.5685 60 30H0C0 46.5685 13.4315 60 30 60Z" fill="#333333"/>
<path fill-rule="evenodd" clip-rule="evenodd" d="M58.2929 40C59.3985 36.8722 60 33.5064 60 30C60 13.4315 46.5685 0 30 0C13.4315 0 0 13.4315 0 30C0 33.5064 0.601542 36.8722 1.70706 40H58.2929Z" fill="#454545"/>
<path fill-rule="evenodd" clip-rule="evenodd" d="M45.011 30.1679V30.332V30.3772C45.011 32.7126 43.9905 34.9314 42.2173 36.4512L40.6656 37.7813V45.2306V45.8195C39.805 46.4899 38.8391 47.1114 37.7686 47.6849V36.505L42.114 33.0877V31.5722L31.8231 32.9181C30.9622 33.0307 30.0904 33.0307 29.2295 32.9181L18.9386 31.5722V33.0877L23.284 36.505V47.6562C22.2056 47.0656 21.2403 46.4246 20.387 45.7318V45.2292V37.7799L18.8696 36.4792C17.1884 35.0382 16.1756 32.9766 16.054 30.7786C17.6685 24.4904 22.5466 18.1041 30.236 15.308C37.6766 18.0136 43.0114 24.0809 45.011 30.1679Z" fill="#F5F5F5"/>
<path d="M23.8637 36.3665L28.9416 35.5513C29.9916 35.3827 31.0618 35.3827 32.1117 35.5513L37.1896 36.3665V46.6982C37.1896 46.9155 37.0493 47.1079 36.8425 47.1743L30.5267 49.2021L24.2109 47.1743C24.004 47.1079 23.8637 46.9155 23.8637 46.6982V36.3665Z" fill="white"/>
<path d="M33.2318 42.4663L34.5825 45.0646L33.1887 49.2732L30.4619 50.714L27.7352 49.2732L26.3414 45.0646L27.6921 42.4663L30.4619 42.4664L33.2318 42.4663Z" fill="#FF4E63" stroke="#454545" stroke-width="0.4"/>
<path d="M27.8615 38.2833L30.4436 37.5167C30.4804 37.5058 30.5196 37.5057 30.5564 37.5164L33.1919 38.2833" stroke="#464646" stroke-width="0.4" stroke-linecap="square"/>
<path d="M27.8615 40.0214L30.4285 39.0277C30.4745 39.0099 30.5255 39.0097 30.5717 39.0272L33.1919 40.0214" stroke="#464646" stroke-width="0.4" stroke-linecap="square"/>
<path d="M19.808 38.2259V45.7258L18 44.5L15.6953 34.562C15.5407 33.8953 15.4626 33.2131 15.4626 32.5288V30.9514H15.6364L16.1556 33.5472C16.2716 34.127 16.5146 34.6739 16.8673 35.1485L17.5 36L19.808 38.2259Z" fill="#F5F5F5"/>
<path d="M17.7222 40.5113H19.4604V42.2494H18.2481L17.7222 40.5113Z" fill="#454545"/>
<path d="M17.2008 36.1659L18.0699 37.0349L19.4604 38.2568V40.1636H17.7223L17.2008 36.1659Z" fill="#454545"/>
<path d="M18.2481 42.597H19.4604V44.3352H18.5913L18.2481 42.597Z" fill="#454545"/>
<path d="M41.3346 38.2259V45.7258L43 44.5L45.4216 34.6137C45.5932 33.9129 45.68 33.194 45.68 32.4725V30.9514H45.5062L45.0102 33.4312C44.8794 34.0852 44.5872 34.6961 44.1601 35.2083L43.5 36L41.3346 38.2259Z" fill="#F5F5F5"/>
<path d="M43.4204 40.5113H41.6823V42.2494H42.8945L43.4204 40.5113Z" fill="#454545"/>
<path d="M43.9419 36.1659L43.0728 37.0349L41.6823 38.2568V40.1636H43.4204L43.9419 36.1659Z" fill="#454545"/>
<path d="M42.8945 42.597H41.6822V44.3352H42.5513L42.8945 42.597Z" fill="#454545"/>
<circle cx="21.0516" cy="28.0516" r="2.05164" fill="#454545"/>
<circle cx="21" cy="28" r="0.9" fill="#FAFF00" stroke="#646464" stroke-width="0.2"/>
<circle cx="39.8927" cy="27.8927" r="1.89266" fill="#454545"/>
<circle cx="39.8927" cy="27.8927" r="0.846329" fill="#FAFF00" stroke="#646464" stroke-width="0.2"/>
<path d="M30.7561 34.8226L30.7561 34.8219L30.7479 34.8228L23.5259 35.5925L19.85 32.6654V32.4569L29.1103 33.6815C30.2006 33.8257 31.3055 33.8199 32.3942 33.6644L40.8424 32.4575L40.8424 32.6672L37.9776 35.2456L30.7561 34.8226Z" fill="#FF4E63" stroke="#C56D6D" stroke-width="0.1"/>
<path d="M20.2264 32.5L27.7264 33.5L23.528 35.1276L20.2264 32.5Z" fill="#454545"/>
<path d="M40.9915 32.3L32.8703 33.4L37.5131 35.0846L40.9915 32.3Z" fill="#454545"/>
<path d="M23.5196 34.8936L20.2183 32.4728L28.0018 33.4225L23.5196 34.8936Z" fill="#ECE538" stroke="#454545" stroke-width="0.1"/>
<path d="M37.4813 34.8789L40.8044 32.3782L33.091 33.5174L37.4813 34.8789Z" fill="#ECE538" stroke="#454545" stroke-width="0.1"/>
<line x1="30.8265" y1="34.1" x2="30.8265" y2="34.6" stroke="#893A3A" stroke-width="0.2" stroke-linecap="round"/>
<path d="M27.1881 22.2L30.4645 22.2L33.7875 22.2L33.7408 24.1579L33.7398 24.2021L33.7575 24.2427L35.4286 28.0706L30.4645 31.3801L25.5003 28.0706L27.1714 24.2427L27.1881 24.2044V24.1626V22.2Z" fill="#FF4E63" stroke="#454545" stroke-width="0.4"/>
<path d="M25.7379 24.0621L24.592 26.9268L6.83223 13.6855L25.7379 22.3437L25.7379 24.0621Z" fill="white" stroke="url(#paint0_linear)" stroke-width="0.4"/>
<path d="M35.2621 24.0621L36.408 26.9268L54.1678 13.6855L35.2621 22.3437L35.2621 24.0621Z" fill="white" stroke="url(#paint1_linear)" stroke-width="0.4"/>
<path d="M34.8 16.6792L33.9375 20.8H27.0625L26.2 16.6792V12.5833L30.6121 12.2008L34.8 12.5824V16.6792Z" fill="white" stroke="#454545" stroke-width="0.4"/>
<path d="M27.6436 16.3491L27.6436 13.5868L30.4687 14.1938L30.5125 14.2032L30.5552 14.1939L33.4281 13.563L33.428 16.33L33.0643 19.5424L28.1739 19.5637L27.6436 16.3491Z" fill="#FF4E63" stroke="#454545" stroke-width="0.4" stroke-linecap="round"/>
<line x1="20.7531" y1="37.6753" x2="22.6077" y2="36.7196" stroke="#454545" stroke-width="0.2" stroke-linecap="round" stroke-dasharray="2.2 0"/>
<line x1="27.0862" y1="27.7779" x2="28.7631" y2="26.9138" stroke="#454545" stroke-width="0.4" stroke-linecap="round"/>
<line x1="0.2" y1="-0.2" x2="2.0864" y2="-0.2" transform="matrix(-0.888931 -0.458041 -0.458041 0.888931 34.0325 28.0473)" stroke="#454545" stroke-width="0.4" stroke-linecap="round"/>
<line x1="0.1" y1="-0.1" x2="2.1864" y2="-0.1" transform="matrix(-0.888931 -0.458041 -0.458041 0.888931 40.34 37.81)" stroke="#454545" stroke-width="0.2" stroke-linecap="round" stroke-dasharray="2.2 0"/>
<path d="M50.139 39.739C50.139 39.7703 50.1427 39.7997 50.15 39.827C50.158 39.8537 50.1693 39.877 50.184 39.897C50.1987 39.9163 50.217 39.9317 50.239 39.943C50.261 39.9543 50.286 39.96 50.314 39.96C50.3393 39.96 50.3627 39.9557 50.384 39.947C50.4053 39.9377 50.424 39.9243 50.44 39.907C50.456 39.8897 50.4683 39.8687 50.477 39.844C50.4863 39.8187 50.491 39.7897 50.491 39.757C50.4923 39.7243 50.4897 39.694 50.483 39.666C50.4763 39.6373 50.4657 39.6123 50.451 39.591C50.4363 39.5697 50.4173 39.553 50.394 39.541C50.3713 39.5283 50.3447 39.522 50.314 39.522C50.2867 39.522 50.262 39.528 50.24 39.54C50.2187 39.5513 50.2003 39.567 50.185 39.587C50.1703 39.6063 50.159 39.6293 50.151 39.656C50.143 39.682 50.139 39.7097 50.139 39.739ZM50.139 40H50.079V39.28H50.139V39.565C50.1583 39.533 50.1847 39.509 50.218 39.493C50.252 39.4763 50.2873 39.468 50.324 39.468C50.3633 39.468 50.3973 39.4757 50.426 39.491C50.4553 39.5057 50.4793 39.5257 50.498 39.551C50.5173 39.5757 50.5317 39.6047 50.541 39.638C50.5503 39.6713 50.555 39.706 50.555 39.742C50.555 39.78 50.5507 39.8157 50.542 39.849C50.5333 39.8823 50.5193 39.9113 50.5 39.936C50.4813 39.96 50.4573 39.979 50.428 39.993C50.3987 40.007 50.363 40.014 50.321 40.014C50.3043 40.014 50.2873 40.0117 50.27 40.007C50.2527 40.0023 50.2357 39.9957 50.219 39.987C50.203 39.9783 50.188 39.9677 50.174 39.955C50.1607 39.9417 50.1497 39.9263 50.141 39.909H50.139V40ZM50.6793 40.141C50.6873 40.1423 50.6953 40.1437 50.7033 40.145C50.712 40.1463 50.7207 40.147 50.7293 40.147C50.746 40.147 50.7597 40.1417 50.7703 40.131C50.781 40.1203 50.7897 40.1073 50.7963 40.092C50.8037 40.0773 50.8097 40.0617 50.8143 40.045C50.819 40.029 50.8243 40.0153 50.8303 40.004L50.6293 39.482H50.6963L50.8623 39.927L51.0283 39.482H51.0933L50.9003 39.993C50.8883 40.0257 50.8767 40.055 50.8653 40.081C50.8547 40.107 50.843 40.129 50.8303 40.147C50.8183 40.1657 50.8047 40.1797 50.7893 40.189C50.7747 40.199 50.757 40.204 50.7363 40.204C50.7257 40.204 50.7153 40.2033 50.7053 40.202C50.696 40.2007 50.6873 40.199 50.6793 40.197V40.141ZM51.2133 40V39.912H51.2863V40H51.2133ZM51.2133 39.596V39.508H51.2863V39.596H51.2133ZM51.753 40V39.28H51.821V39.653L52.19 39.28H52.267L51.983 39.567L52.317 40H52.234L51.934 39.609L51.821 39.722V40H51.753ZM52.782 39.705C52.782 39.6797 52.7783 39.656 52.771 39.634C52.7643 39.6113 52.754 39.592 52.74 39.576C52.7266 39.5593 52.7096 39.5463 52.689 39.537C52.6683 39.527 52.6446 39.522 52.618 39.522C52.5913 39.522 52.5676 39.527 52.547 39.537C52.527 39.547 52.5096 39.5603 52.495 39.577C52.481 39.5937 52.4696 39.613 52.461 39.635C52.4523 39.657 52.4466 39.6803 52.444 39.705H52.782ZM52.444 39.755C52.444 39.783 52.4476 39.8097 52.455 39.835C52.4623 39.8597 52.473 39.8813 52.487 39.9C52.5016 39.918 52.52 39.9327 52.542 39.944C52.564 39.9547 52.5893 39.96 52.618 39.96C52.6573 39.96 52.691 39.9497 52.719 39.929C52.747 39.9083 52.7656 39.879 52.775 39.841H52.842C52.8346 39.8657 52.825 39.8887 52.813 39.91C52.801 39.9307 52.786 39.949 52.768 39.965C52.75 39.9803 52.7286 39.9923 52.704 40.001C52.6793 40.0097 52.6506 40.014 52.618 40.014C52.5766 40.014 52.541 40.007 52.511 39.993C52.481 39.979 52.4563 39.96 52.437 39.936C52.4176 39.9113 52.4033 39.8827 52.394 39.85C52.3846 39.8167 52.38 39.781 52.38 39.743C52.38 39.705 52.3853 39.6693 52.396 39.636C52.4073 39.6027 52.423 39.5737 52.443 39.549C52.4636 39.5237 52.4886 39.504 52.518 39.49C52.5473 39.4753 52.5806 39.468 52.618 39.468C52.6893 39.468 52.7453 39.4927 52.786 39.542C52.8266 39.5907 52.8466 39.6617 52.846 39.755H52.444ZM52.9076 39.482H52.9726L53.1406 39.926L53.3086 39.482H53.3736L53.1726 40H53.1056L52.9076 39.482ZM53.454 40V39.482H53.514V40H53.454ZM53.451 39.369V39.28H53.517V39.369H53.451ZM53.7267 40H53.6667V39.482H53.7267V39.554C53.7507 39.5287 53.7754 39.508 53.8007 39.492C53.8267 39.476 53.8577 39.468 53.8937 39.468C53.9257 39.468 53.9554 39.4737 53.9827 39.485C54.0101 39.4957 54.0331 39.5147 54.0517 39.542C54.0644 39.5607 54.0717 39.58 54.0737 39.6C54.0764 39.6193 54.0777 39.6397 54.0777 39.661V40H54.0177V39.662C54.0177 39.6153 54.0074 39.5803 53.9867 39.557C53.9661 39.5337 53.9317 39.522 53.8837 39.522C53.8651 39.522 53.8481 39.525 53.8327 39.531C53.8174 39.5363 53.8034 39.5437 53.7907 39.553C53.7787 39.5623 53.7684 39.573 53.7597 39.585C53.7511 39.597 53.7444 39.6097 53.7397 39.623C53.7337 39.6397 53.7301 39.6557 53.7287 39.671C53.7274 39.6863 53.7267 39.703 53.7267 39.721V40ZM54.4447 39.28H54.9687V39.338H54.7407V40H54.6727V39.338H54.4447V39.28ZM55.151 40.014C55.1177 40.0133 55.0864 40.0073 55.057 39.996C55.0284 39.9847 55.003 39.9677 54.981 39.945C54.9597 39.9223 54.9427 39.894 54.93 39.86C54.9174 39.826 54.911 39.7863 54.911 39.741C54.911 39.703 54.916 39.6677 54.926 39.635C54.936 39.6017 54.951 39.5727 54.971 39.548C54.991 39.5233 55.016 39.504 55.046 39.49C55.076 39.4753 55.111 39.468 55.151 39.468C55.1917 39.468 55.227 39.4753 55.257 39.49C55.287 39.504 55.312 39.5233 55.332 39.548C55.352 39.572 55.3667 39.6007 55.376 39.634C55.386 39.6673 55.391 39.703 55.391 39.741C55.391 39.7823 55.3854 39.8197 55.374 39.853C55.3627 39.8863 55.3464 39.915 55.325 39.939C55.3044 39.963 55.279 39.9817 55.249 39.995C55.2197 40.0077 55.187 40.014 55.151 40.014ZM55.327 39.741C55.327 39.7103 55.3237 39.6817 55.317 39.655C55.3104 39.6283 55.3 39.6053 55.286 39.586C55.272 39.566 55.254 39.5503 55.232 39.539C55.21 39.5277 55.183 39.522 55.151 39.522C55.1197 39.522 55.0927 39.5283 55.07 39.541C55.048 39.553 55.03 39.5693 55.016 39.59C55.002 39.61 54.9917 39.6333 54.985 39.66C54.9784 39.686 54.975 39.713 54.975 39.741C54.975 39.773 54.9787 39.8027 54.986 39.83C54.994 39.8567 55.0054 39.8797 55.02 39.899C55.0347 39.9183 55.053 39.9333 55.075 39.944C55.097 39.9547 55.1224 39.96 55.151 39.96C55.1824 39.96 55.209 39.954 55.231 39.942C55.2537 39.9293 55.272 39.9127 55.286 39.892C55.3 39.8713 55.3104 39.848 55.317 39.822C55.3237 39.796 55.327 39.769 55.327 39.741ZM55.9387 39.92L56.0747 39.482H56.1357L55.9677 40H55.9037L55.7907 39.565H55.7887L55.6737 40H55.6017L55.4437 39.482H55.5037L55.6377 39.924L55.7577 39.482H55.8247L55.9387 39.92ZM56.2824 40H56.2224V39.482H56.2824V39.554C56.3064 39.5287 56.3311 39.508 56.3564 39.492C56.3824 39.476 56.4134 39.468 56.4494 39.468C56.4814 39.468 56.5111 39.4737 56.5384 39.485C56.5657 39.4957 56.5887 39.5147 56.6074 39.542C56.6201 39.5607 56.6274 39.58 56.6294 39.6C56.6321 39.6193 56.6334 39.6397 56.6334 39.661V40H56.5734V39.662C56.5734 39.6153 56.5631 39.5803 56.5424 39.557C56.5217 39.5337 56.4874 39.522 56.4394 39.522C56.4207 39.522 56.4037 39.525 56.3884 39.531C56.3731 39.5363 56.3591 39.5437 56.3464 39.553C56.3344 39.5623 56.3241 39.573 56.3154 39.585C56.3067 39.597 56.3001 39.6097 56.2954 39.623C56.2894 39.6397 56.2857 39.6557 56.2844 39.671C56.2831 39.6863 56.2824 39.703 56.2824 39.721V40ZM57.1531 39.705C57.1531 39.6797 57.1494 39.656 57.1421 39.634C57.1354 39.6113 57.1251 39.592 57.1111 39.576C57.0977 39.5593 57.0807 39.5463 57.0601 39.537C57.0394 39.527 57.0157 39.522 56.9891 39.522C56.9624 39.522 56.9387 39.527 56.9181 39.537C56.8981 39.547 56.8807 39.5603 56.8661 39.577C56.8521 39.5937 56.8407 39.613 56.8321 39.635C56.8234 39.657 56.8177 39.6803 56.8151 39.705H57.1531ZM56.8151 39.755C56.8151 39.783 56.8187 39.8097 56.8261 39.835C56.8334 39.8597 56.8441 39.8813 56.8581 39.9C56.8727 39.918 56.8911 39.9327 56.9131 39.944C56.9351 39.9547 56.9604 39.96 56.9891 39.96C57.0284 39.96 57.0621 39.9497 57.0901 39.929C57.1181 39.9083 57.1367 39.879 57.1461 39.841H57.2131C57.2057 39.8657 57.1961 39.8887 57.1841 39.91C57.1721 39.9307 57.1571 39.949 57.1391 39.965C57.1211 39.9803 57.0997 39.9923 57.0751 40.001C57.0504 40.0097 57.0217 40.014 56.9891 40.014C56.9477 40.014 56.9121 40.007 56.8821 39.993C56.8521 39.979 56.8274 39.96 56.8081 39.936C56.7887 39.9113 56.7744 39.8827 56.7651 39.85C56.7557 39.8167 56.7511 39.781 56.7511 39.743C56.7511 39.705 56.7564 39.6693 56.7671 39.636C56.7784 39.6027 56.7941 39.5737 56.8141 39.549C56.8347 39.5237 56.8597 39.504 56.8891 39.49C56.9184 39.4753 56.9517 39.468 56.9891 39.468C57.0604 39.468 57.1164 39.4927 57.1571 39.542C57.1977 39.5907 57.2177 39.6617 57.2171 39.755H56.8151ZM57.3967 40H57.3367V39.482H57.3967V39.579H57.3987C57.4154 39.5377 57.4367 39.509 57.4627 39.493C57.4894 39.4763 57.5244 39.468 57.5677 39.468V39.533C57.5337 39.5323 57.5057 39.5377 57.4837 39.549C57.4617 39.5603 57.4441 39.5757 57.4307 39.595C57.4181 39.6143 57.4091 39.6373 57.4037 39.664C57.3991 39.69 57.3967 39.7173 57.3967 39.746V40Z" fill="#646464"/>
<path d="M3.275 30.592H3.34C3.412 30.592 3.448 30.5607 3.448 30.498C3.448 30.4353 3.412 30.404 3.34 30.404H3.275V30.592ZM3.275 31H3.079V30.246H3.391C3.47567 30.246 3.54033 30.268 3.585 30.312C3.63033 30.356 3.653 30.418 3.653 30.498C3.653 30.578 3.63033 30.64 3.585 30.684C3.54033 30.728 3.47567 30.75 3.391 30.75H3.275V31ZM3.73973 30.487H3.92073V30.571C3.94007 30.5403 3.96373 30.517 3.99173 30.501C4.01973 30.4843 4.0524 30.476 4.08973 30.476C4.0944 30.476 4.0994 30.476 4.10473 30.476C4.11073 30.476 4.1174 30.4767 4.12473 30.478V30.651C4.10073 30.639 4.07473 30.633 4.04673 30.633C4.00473 30.633 3.97307 30.6457 3.95173 30.671C3.93107 30.6957 3.92073 30.732 3.92073 30.78V31H3.73973V30.487ZM4.38046 30.741C4.38046 30.7583 4.38346 30.7743 4.38946 30.789C4.39613 30.803 4.40446 30.8153 4.41446 30.826C4.42513 30.8367 4.43746 30.845 4.45146 30.851C4.46613 30.857 4.48146 30.86 4.49746 30.86C4.51346 30.86 4.52846 30.857 4.54246 30.851C4.55713 30.845 4.56946 30.8367 4.57946 30.826C4.59013 30.8153 4.59846 30.803 4.60446 30.789C4.61113 30.7743 4.61446 30.7587 4.61446 30.742C4.61446 30.726 4.61113 30.711 4.60446 30.697C4.59846 30.6823 4.59013 30.6697 4.57946 30.659C4.56946 30.6483 4.55713 30.64 4.54246 30.634C4.52846 30.628 4.51346 30.625 4.49746 30.625C4.48146 30.625 4.46613 30.628 4.45146 30.634C4.43746 30.64 4.42513 30.6483 4.41446 30.659C4.40446 30.6697 4.39613 30.682 4.38946 30.696C4.38346 30.71 4.38046 30.725 4.38046 30.741ZM4.18946 30.739C4.18946 30.701 4.19713 30.6657 4.21246 30.633C4.22779 30.5997 4.24913 30.571 4.27646 30.547C4.30379 30.5223 4.33613 30.503 4.37346 30.489C4.41146 30.475 4.45279 30.468 4.49746 30.468C4.54146 30.468 4.58213 30.475 4.61946 30.489C4.65746 30.5023 4.69013 30.5213 4.71746 30.546C4.74546 30.57 4.76713 30.599 4.78246 30.633C4.79779 30.6663 4.80546 30.7033 4.80546 30.744C4.80546 30.7847 4.79746 30.822 4.78146 30.856C4.76613 30.8893 4.74479 30.9183 4.71746 30.943C4.69013 30.967 4.65713 30.9857 4.61846 30.999C4.58046 31.0123 4.53913 31.019 4.49446 31.019C4.45046 31.019 4.40979 31.0123 4.37246 30.999C4.33513 30.9857 4.30279 30.9667 4.27546 30.942C4.24879 30.9173 4.22779 30.888 4.21246 30.854C4.19713 30.8193 4.18946 30.781 4.18946 30.739ZM5.11459 30.638V31H4.93359V30.638H4.87359V30.487H4.93359V30.333H5.11459V30.487H5.21759V30.638H5.11459ZM5.46542 30.741C5.46542 30.7583 5.46842 30.7743 5.47442 30.789C5.48109 30.803 5.48942 30.8153 5.49942 30.826C5.51009 30.8367 5.52242 30.845 5.53642 30.851C5.55109 30.857 5.56642 30.86 5.58242 30.86C5.59842 30.86 5.61342 30.857 5.62742 30.851C5.64209 30.845 5.65442 30.8367 5.66442 30.826C5.67509 30.8153 5.68342 30.803 5.68942 30.789C5.69609 30.7743 5.69942 30.7587 5.69942 30.742C5.69942 30.726 5.69609 30.711 5.68942 30.697C5.68342 30.6823 5.67509 30.6697 5.66442 30.659C5.65442 30.6483 5.64209 30.64 5.62742 30.634C5.61342 30.628 5.59842 30.625 5.58242 30.625C5.56642 30.625 5.55109 30.628 5.53642 30.634C5.52242 30.64 5.51009 30.6483 5.49942 30.659C5.48942 30.6697 5.48109 30.682 5.47442 30.696C5.46842 30.71 5.46542 30.725 5.46542 30.741ZM5.27442 30.739C5.27442 30.701 5.28209 30.6657 5.29742 30.633C5.31276 30.5997 5.33409 30.571 5.36142 30.547C5.38876 30.5223 5.42109 30.503 5.45842 30.489C5.49642 30.475 5.53776 30.468 5.58242 30.468C5.62642 30.468 5.66709 30.475 5.70442 30.489C5.74242 30.5023 5.77509 30.5213 5.80242 30.546C5.83042 30.57 5.85209 30.599 5.86742 30.633C5.88276 30.6663 5.89042 30.7033 5.89042 30.744C5.89042 30.7847 5.88242 30.822 5.86642 30.856C5.85109 30.8893 5.82976 30.9183 5.80242 30.943C5.77509 30.967 5.74209 30.9857 5.70342 30.999C5.66542 31.0123 5.62409 31.019 5.57942 31.019C5.53542 31.019 5.49476 31.0123 5.45742 30.999C5.42009 30.9857 5.38776 30.9667 5.36042 30.942C5.33376 30.9173 5.31276 30.888 5.29742 30.854C5.28209 30.8193 5.27442 30.781 5.27442 30.739ZM6.19955 30.638V31H6.01855V30.638H5.95855V30.487H6.01855V30.333H6.19955V30.487H6.30255V30.638H6.19955ZM6.55659 30.93L6.30859 30.487H6.51859L6.65559 30.75L6.78859 30.487H6.99659L6.58459 31.256H6.38159L6.55659 30.93ZM7.46807 30.745C7.46807 30.729 7.46507 30.714 7.45907 30.7C7.45374 30.6853 7.44574 30.6727 7.43507 30.662C7.4244 30.6513 7.41174 30.643 7.39707 30.637C7.38307 30.6303 7.36774 30.627 7.35107 30.627C7.33507 30.627 7.32007 30.63 7.30607 30.636C7.29207 30.642 7.27974 30.6503 7.26907 30.661C7.25907 30.6717 7.25074 30.6843 7.24407 30.699C7.23807 30.713 7.23507 30.728 7.23507 30.744C7.23507 30.76 7.23807 30.775 7.24407 30.789C7.25007 30.803 7.2584 30.8153 7.26907 30.826C7.27974 30.836 7.29207 30.8443 7.30607 30.851C7.32074 30.857 7.33607 30.86 7.35207 30.86C7.36807 30.86 7.38307 30.857 7.39707 30.851C7.41107 30.845 7.42307 30.8367 7.43307 30.826C7.44374 30.8153 7.45207 30.803 7.45807 30.789C7.46474 30.775 7.46807 30.7603 7.46807 30.745ZM7.24007 31.256H7.05907V30.487H7.24007V30.544C7.27874 30.4953 7.3314 30.471 7.39807 30.471C7.43474 30.471 7.46874 30.4783 7.50007 30.493C7.53207 30.507 7.55974 30.5263 7.58307 30.551C7.6064 30.5757 7.6244 30.6047 7.63707 30.638C7.6504 30.6713 7.65707 30.707 7.65707 30.745C7.65707 30.783 7.6504 30.8183 7.63707 30.851C7.6244 30.8837 7.6064 30.9123 7.58307 30.937C7.5604 30.9617 7.5334 30.981 7.50207 30.995C7.47074 31.009 7.43674 31.016 7.40007 31.016C7.33607 31.016 7.28274 30.994 7.24007 30.95V31.256ZM8.13524 30.669C8.12924 30.6437 8.11691 30.6233 8.09824 30.608C8.07958 30.5927 8.05691 30.585 8.03024 30.585C8.00224 30.585 7.97924 30.5923 7.96124 30.607C7.94391 30.6217 7.93291 30.6423 7.92824 30.669H8.13524ZM7.92324 30.774C7.92324 30.852 7.95991 30.891 8.03324 30.891C8.07258 30.891 8.10224 30.875 8.12224 30.843H8.29724C8.26191 30.9603 8.17358 31.019 8.03224 31.019C7.98891 31.019 7.94924 31.0127 7.91324 31C7.87724 30.9867 7.84624 30.968 7.82024 30.944C7.79491 30.92 7.77524 30.8913 7.76124 30.858C7.74724 30.8247 7.74024 30.7873 7.74024 30.746C7.74024 30.7033 7.74691 30.665 7.76024 30.631C7.77358 30.5963 7.79258 30.567 7.81724 30.543C7.84191 30.519 7.87158 30.5007 7.90624 30.488C7.94158 30.4747 7.98124 30.468 8.02524 30.468C8.06858 30.468 8.10758 30.4747 8.14224 30.488C8.17691 30.5007 8.20624 30.5193 8.23024 30.544C8.25424 30.5687 8.27258 30.599 8.28524 30.635C8.29791 30.6703 8.30424 30.7103 8.30424 30.755V30.774H7.92324ZM8.96055 30.583H8.99755C9.03621 30.583 9.06588 30.575 9.08655 30.559C9.10721 30.543 9.11755 30.52 9.11755 30.49C9.11755 30.46 9.10721 30.437 9.08655 30.421C9.06588 30.405 9.03621 30.397 8.99755 30.397H8.96055V30.583ZM9.39155 31H9.14755L8.96055 30.71V31H8.76455V30.246H9.06955C9.11155 30.246 9.14821 30.2523 9.17955 30.265C9.21088 30.277 9.23655 30.2937 9.25655 30.315C9.27721 30.3363 9.29255 30.361 9.30255 30.389C9.31321 30.417 9.31855 30.447 9.31855 30.479C9.31855 30.5363 9.30455 30.583 9.27655 30.619C9.24921 30.6543 9.20855 30.6783 9.15455 30.691L9.39155 31ZM9.68953 30.598L9.45453 30.246H9.69653L9.79853 30.441L9.92453 30.246H10.1665L9.91753 30.598L10.1985 31H9.95953L9.80853 30.754L9.63153 31H9.39453L9.68953 30.598ZM10.2119 30.657H10.4989V30.808H10.2119V30.657ZM10.894 30.412H10.579V30.246H11.198L10.766 31H10.55L10.894 30.412ZM11.4287 30.772C11.4287 30.7847 11.431 30.7967 11.4357 30.808C11.4404 30.8193 11.4467 30.8293 11.4547 30.838C11.4627 30.846 11.472 30.8527 11.4827 30.858C11.494 30.8627 11.506 30.865 11.5187 30.865C11.5307 30.865 11.542 30.8627 11.5527 30.858C11.564 30.8527 11.5737 30.846 11.5817 30.838C11.5904 30.8293 11.597 30.8197 11.6017 30.809C11.6064 30.7977 11.6087 30.7857 11.6087 30.773C11.6087 30.7477 11.5997 30.7263 11.5817 30.709C11.5644 30.691 11.5434 30.682 11.5187 30.682C11.4934 30.682 11.472 30.691 11.4547 30.709C11.4374 30.7263 11.4287 30.7473 11.4287 30.772ZM11.4357 30.438C11.4357 30.4613 11.4437 30.4813 11.4597 30.498C11.4757 30.514 11.4954 30.522 11.5187 30.522C11.5307 30.522 11.5417 30.5197 11.5517 30.515C11.5617 30.5103 11.5704 30.5043 11.5777 30.497C11.585 30.489 11.5907 30.48 11.5947 30.47C11.5994 30.46 11.6017 30.4497 11.6017 30.439C11.6017 30.4163 11.5937 30.397 11.5777 30.381C11.5617 30.3643 11.542 30.356 11.5187 30.356C11.4954 30.356 11.4757 30.364 11.4597 30.38C11.4437 30.396 11.4357 30.4153 11.4357 30.438ZM11.3797 30.602C11.301 30.5693 11.2617 30.514 11.2617 30.436C11.2617 30.404 11.268 30.3753 11.2807 30.35C11.2934 30.324 11.3107 30.3017 11.3327 30.283C11.3554 30.2643 11.3824 30.25 11.4137 30.24C11.4457 30.23 11.4807 30.225 11.5187 30.225C11.5567 30.225 11.5914 30.23 11.6227 30.24C11.6547 30.25 11.6817 30.2643 11.7037 30.283C11.7264 30.3017 11.744 30.324 11.7567 30.35C11.7694 30.3753 11.7757 30.404 11.7757 30.436C11.7757 30.456 11.7737 30.474 11.7697 30.49C11.7657 30.5053 11.7587 30.5197 11.7487 30.533C11.7394 30.5457 11.7267 30.5577 11.7107 30.569C11.6954 30.5803 11.676 30.5913 11.6527 30.602C11.7554 30.642 11.8067 30.7067 11.8067 30.796C11.8067 30.828 11.7994 30.8577 11.7847 30.885C11.7707 30.9123 11.7507 30.936 11.7247 30.956C11.6994 30.976 11.669 30.9917 11.6337 31.003C11.599 31.0143 11.5607 31.02 11.5187 31.02C11.478 31.02 11.44 31.0143 11.4047 31.003C11.37 30.9923 11.3397 30.977 11.3137 30.957C11.2877 30.937 11.2674 30.9133 11.2527 30.886C11.238 30.8587 11.2307 30.8287 11.2307 30.796C11.2307 30.7047 11.2804 30.64 11.3797 30.602ZM11.8584 30.657H12.1454V30.808H11.8584V30.657ZM12.7805 31H12.1735L12.3605 30.806C12.4098 30.7547 12.4485 30.7113 12.4765 30.676C12.5045 30.64 12.5252 30.6097 12.5385 30.585C12.5525 30.5603 12.5612 30.5403 12.5645 30.525C12.5678 30.5097 12.5695 30.4967 12.5695 30.486C12.5695 30.4747 12.5675 30.4637 12.5635 30.453C12.5602 30.4423 12.5548 30.433 12.5475 30.425C12.5402 30.4163 12.5312 30.4097 12.5205 30.405C12.5105 30.3997 12.4985 30.397 12.4845 30.397C12.4578 30.397 12.4368 30.4057 12.4215 30.423C12.4068 30.4403 12.3995 30.462 12.3995 30.488C12.3995 30.4953 12.4005 30.506 12.4025 30.52H12.1885C12.1885 30.476 12.1955 30.436 12.2095 30.4C12.2242 30.364 12.2445 30.333 12.2705 30.307C12.2965 30.281 12.3272 30.261 12.3625 30.247C12.3985 30.233 12.4378 30.226 12.4805 30.226C12.5225 30.226 12.5612 30.2327 12.5965 30.246C12.6325 30.2593 12.6635 30.278 12.6895 30.302C12.7155 30.326 12.7358 30.3547 12.7505 30.388C12.7652 30.4207 12.7725 30.4563 12.7725 30.495C12.7725 30.5363 12.7635 30.5747 12.7455 30.61C12.7282 30.6447 12.7002 30.6803 12.6615 30.717L12.5365 30.834H12.7805V31Z" fill="white"/>
<path d="M3.489 32.72L3.401 32.469L3.313 32.72H3.489ZM3.541 32.869H3.261L3.216 33H3.007L3.294 32.246H3.508L3.795 33H3.586L3.541 32.869ZM3.8745 32.487H4.0555V32.55C4.10483 32.5027 4.16017 32.479 4.2215 32.479C4.2975 32.479 4.3555 32.511 4.3955 32.575C4.43617 32.5103 4.49417 32.478 4.5695 32.478C4.5935 32.478 4.61617 32.4817 4.6375 32.489C4.65883 32.4957 4.67717 32.5067 4.6925 32.522C4.70783 32.5367 4.71983 32.556 4.7285 32.58C4.73783 32.604 4.7425 32.633 4.7425 32.667V33H4.5615V32.747C4.5615 32.721 4.5595 32.6997 4.5555 32.683C4.55217 32.6663 4.54683 32.6533 4.5395 32.644C4.53283 32.6347 4.52483 32.6283 4.5155 32.625C4.50617 32.6217 4.49617 32.62 4.4855 32.62C4.4275 32.62 4.3985 32.6623 4.3985 32.747V33H4.2175V32.747C4.2175 32.721 4.21583 32.6997 4.2125 32.683C4.20917 32.6657 4.20417 32.652 4.1975 32.642C4.1915 32.632 4.1835 32.6253 4.1735 32.622C4.1635 32.618 4.15183 32.616 4.1385 32.616C4.12717 32.616 4.1165 32.6177 4.1065 32.621C4.0965 32.6243 4.0875 32.631 4.0795 32.641C4.07217 32.6503 4.06617 32.6637 4.0615 32.681C4.0575 32.6977 4.0555 32.7197 4.0555 32.747V33H3.8745V32.487ZM5.04769 32.487V32.776C5.04769 32.8393 5.07835 32.871 5.13969 32.871C5.20102 32.871 5.23169 32.8393 5.23169 32.776V32.487H5.41269V32.811C5.41269 32.8803 5.38969 32.9323 5.34369 32.967C5.29835 33.0017 5.23035 33.019 5.13969 33.019C5.04902 33.019 4.98069 33.0017 4.93469 32.967C4.88935 32.9323 4.86669 32.8803 4.86669 32.811V32.487H5.04769ZM5.53563 32.487H5.71663V32.571C5.73597 32.5403 5.75963 32.517 5.78763 32.501C5.81563 32.4843 5.8483 32.476 5.88563 32.476C5.8903 32.476 5.8953 32.476 5.90063 32.476C5.90663 32.476 5.9133 32.4767 5.92063 32.478V32.651C5.89663 32.639 5.87063 32.633 5.84263 32.633C5.80063 32.633 5.76897 32.6457 5.74763 32.671C5.72697 32.6957 5.71663 32.732 5.71663 32.78V33H5.53563V32.487ZM6.17636 32.741C6.17636 32.7583 6.17936 32.7743 6.18536 32.789C6.19203 32.803 6.20036 32.8153 6.21036 32.826C6.22103 32.8367 6.23336 32.845 6.24736 32.851C6.26203 32.857 6.27736 32.86 6.29336 32.86C6.30936 32.86 6.32436 32.857 6.33836 32.851C6.35303 32.845 6.36536 32.8367 6.37536 32.826C6.38603 32.8153 6.39436 32.803 6.40036 32.789C6.40703 32.7743 6.41036 32.7587 6.41036 32.742C6.41036 32.726 6.40703 32.711 6.40036 32.697C6.39436 32.6823 6.38603 32.6697 6.37536 32.659C6.36536 32.6483 6.35303 32.64 6.33836 32.634C6.32436 32.628 6.30936 32.625 6.29336 32.625C6.27736 32.625 6.26203 32.628 6.24736 32.634C6.23336 32.64 6.22103 32.6483 6.21036 32.659C6.20036 32.6697 6.19203 32.682 6.18536 32.696C6.17936 32.71 6.17636 32.725 6.17636 32.741ZM5.98536 32.739C5.98536 32.701 5.99303 32.6657 6.00836 32.633C6.02369 32.5997 6.04503 32.571 6.07236 32.547C6.09969 32.5223 6.13203 32.503 6.16936 32.489C6.20736 32.475 6.24869 32.468 6.29336 32.468C6.33736 32.468 6.37803 32.475 6.41536 32.489C6.45336 32.5023 6.48603 32.5213 6.51336 32.546C6.54136 32.57 6.56303 32.599 6.57836 32.633C6.59369 32.6663 6.60136 32.7033 6.60136 32.744C6.60136 32.7847 6.59336 32.822 6.57736 32.856C6.56203 32.8893 6.54069 32.9183 6.51336 32.943C6.48603 32.967 6.45303 32.9857 6.41436 32.999C6.37636 33.0123 6.33503 33.019 6.29036 33.019C6.24636 33.019 6.20569 33.0123 6.16836 32.999C6.13103 32.9857 6.09869 32.9667 6.07136 32.942C6.04469 32.9173 6.02369 32.888 6.00836 32.854C5.99303 32.8193 5.98536 32.781 5.98536 32.739ZM7.2584 32.583H7.2954C7.33407 32.583 7.36373 32.575 7.3844 32.559C7.40507 32.543 7.4154 32.52 7.4154 32.49C7.4154 32.46 7.40507 32.437 7.3844 32.421C7.36373 32.405 7.33407 32.397 7.2954 32.397H7.2584V32.583ZM7.6894 33H7.4454L7.2584 32.71V33H7.0624V32.246H7.3674C7.4094 32.246 7.44607 32.2523 7.4774 32.265C7.50873 32.277 7.5344 32.2937 7.5544 32.315C7.57507 32.3363 7.5904 32.361 7.6004 32.389C7.61107 32.417 7.6164 32.447 7.6164 32.479C7.6164 32.5363 7.6024 32.583 7.5744 32.619C7.54707 32.6543 7.5064 32.6783 7.4524 32.691L7.6894 33ZM7.91066 32.742C7.91066 32.7587 7.91366 32.7743 7.91966 32.789C7.92566 32.803 7.93366 32.8153 7.94366 32.826C7.95433 32.8367 7.96666 32.845 7.98066 32.851C7.99533 32.857 8.011 32.86 8.02766 32.86C8.04366 32.86 8.05866 32.857 8.07266 32.851C8.08733 32.845 8.09966 32.8367 8.10966 32.826C8.12033 32.8153 8.12866 32.803 8.13466 32.789C8.14133 32.775 8.14466 32.76 8.14466 32.744C8.14466 32.728 8.14133 32.713 8.13466 32.699C8.12866 32.6843 8.12033 32.6717 8.10966 32.661C8.09966 32.6503 8.08733 32.642 8.07266 32.636C8.05866 32.63 8.04366 32.627 8.02766 32.627C8.011 32.627 7.99533 32.63 7.98066 32.636C7.96666 32.642 7.95433 32.6503 7.94366 32.661C7.93366 32.6717 7.92566 32.684 7.91966 32.698C7.91366 32.7113 7.91066 32.726 7.91066 32.742ZM8.13866 32.487H8.32066V33H8.13866V32.943C8.1 32.9917 8.04766 33.016 7.98166 33.016C7.94433 33.016 7.91 33.0093 7.87866 32.996C7.84733 32.982 7.82 32.9627 7.79666 32.938C7.77333 32.9133 7.755 32.8843 7.74166 32.851C7.729 32.8177 7.72266 32.7813 7.72266 32.742C7.72266 32.7053 7.729 32.6707 7.74166 32.638C7.75433 32.6047 7.772 32.5757 7.79466 32.551C7.81733 32.5263 7.84433 32.507 7.87566 32.493C7.907 32.4783 7.94166 32.471 7.97966 32.471C8.04366 32.471 8.09666 32.4933 8.13866 32.538V32.487ZM8.6396 32.93L8.3916 32.487H8.6016L8.7386 32.75L8.8716 32.487H9.0796L8.6676 33.256H8.4646L8.6396 32.93Z" fill="white"/>
<path d="M3.223 34.578H3.053L3.237 34.246H3.353L3.223 34.578ZM3.479 34.578H3.309L3.493 34.246H3.609L3.479 34.578ZM3.72646 35V34.246H3.92246L4.28446 34.707V34.246H4.47946V35H4.28446L3.92246 34.539V35H3.72646ZM5.00731 34.669C5.00131 34.6437 4.98898 34.6233 4.97031 34.608C4.95165 34.5927 4.92898 34.585 4.90231 34.585C4.87431 34.585 4.85131 34.5923 4.83331 34.607C4.81598 34.6217 4.80498 34.6423 4.80031 34.669H5.00731ZM4.79531 34.774C4.79531 34.852 4.83198 34.891 4.90531 34.891C4.94465 34.891 4.97431 34.875 4.99431 34.843H5.16931C5.13398 34.9603 5.04565 35.019 4.90431 35.019C4.86098 35.019 4.82131 35.0127 4.78531 35C4.74931 34.9867 4.71831 34.968 4.69231 34.944C4.66698 34.92 4.64731 34.8913 4.63331 34.858C4.61931 34.8247 4.61231 34.7873 4.61231 34.746C4.61231 34.7033 4.61898 34.665 4.63231 34.631C4.64565 34.5963 4.66465 34.567 4.68931 34.543C4.71398 34.519 4.74365 34.5007 4.77831 34.488C4.81365 34.4747 4.85331 34.468 4.89731 34.468C4.94065 34.468 4.97965 34.4747 5.01431 34.488C5.04898 34.5007 5.07831 34.5193 5.10231 34.544C5.12631 34.5687 5.14465 34.599 5.15731 34.635C5.16998 34.6703 5.17631 34.7103 5.17631 34.755V34.774H4.79531ZM5.39536 34.487L5.51836 34.757L5.64636 34.487H5.76036L5.88836 34.765L6.01736 34.487H6.21836L5.95036 35H5.82936L5.70136 34.719L5.57936 35H5.45636L5.19336 34.487H5.39536ZM6.48275 34.638V35H6.30175V34.638H6.24175V34.487H6.30175V34.333H6.48275V34.487H6.58575V34.638H6.48275ZM6.8398 34.93L6.5918 34.487H6.8018L6.9388 34.75L7.0718 34.487H7.2798L6.8678 35.256H6.6648L6.8398 34.93ZM7.75127 34.745C7.75127 34.729 7.74827 34.714 7.74227 34.7C7.73694 34.6853 7.72894 34.6727 7.71827 34.662C7.70761 34.6513 7.69494 34.643 7.68027 34.637C7.66627 34.6303 7.65094 34.627 7.63427 34.627C7.61827 34.627 7.60327 34.63 7.58927 34.636C7.57527 34.642 7.56294 34.6503 7.55227 34.661C7.54227 34.6717 7.53394 34.6843 7.52727 34.699C7.52127 34.713 7.51827 34.728 7.51827 34.744C7.51827 34.76 7.52127 34.775 7.52727 34.789C7.53327 34.803 7.54161 34.8153 7.55227 34.826C7.56294 34.836 7.57527 34.8443 7.58927 34.851C7.60394 34.857 7.61927 34.86 7.63527 34.86C7.65127 34.86 7.66627 34.857 7.68027 34.851C7.69427 34.845 7.70627 34.8367 7.71627 34.826C7.72694 34.8153 7.73527 34.803 7.74127 34.789C7.74794 34.775 7.75127 34.7603 7.75127 34.745ZM7.52327 35.256H7.34227V34.487H7.52327V34.544C7.56194 34.4953 7.61461 34.471 7.68127 34.471C7.71794 34.471 7.75194 34.4783 7.78327 34.493C7.81527 34.507 7.84294 34.5263 7.86627 34.551C7.88961 34.5757 7.90761 34.6047 7.92027 34.638C7.93361 34.6713 7.94027 34.707 7.94027 34.745C7.94027 34.783 7.93361 34.8183 7.92027 34.851C7.90761 34.8837 7.88961 34.9123 7.86627 34.937C7.84361 34.9617 7.81661 34.981 7.78527 34.995C7.75394 35.009 7.71994 35.016 7.68327 35.016C7.61927 35.016 7.56594 34.994 7.52327 34.95V35.256ZM8.41845 34.669C8.41245 34.6437 8.40011 34.6233 8.38145 34.608C8.36278 34.5927 8.34011 34.585 8.31345 34.585C8.28545 34.585 8.26245 34.5923 8.24445 34.607C8.22711 34.6217 8.21611 34.6423 8.21145 34.669H8.41845ZM8.20645 34.774C8.20645 34.852 8.24311 34.891 8.31645 34.891C8.35578 34.891 8.38545 34.875 8.40545 34.843H8.58045C8.54511 34.9603 8.45678 35.019 8.31545 35.019C8.27211 35.019 8.23245 35.0127 8.19645 35C8.16045 34.9867 8.12945 34.968 8.10345 34.944C8.07811 34.92 8.05845 34.8913 8.04445 34.858C8.03045 34.8247 8.02345 34.7873 8.02345 34.746C8.02345 34.7033 8.03011 34.665 8.04345 34.631C8.05678 34.5963 8.07578 34.567 8.10045 34.543C8.12511 34.519 8.15478 34.5007 8.18945 34.488C8.22478 34.4747 8.26445 34.468 8.30845 34.468C8.35178 34.468 8.39078 34.4747 8.42545 34.488C8.46011 34.5007 8.48945 34.5193 8.51345 34.544C8.53745 34.5687 8.55578 34.599 8.56845 34.635C8.58111 34.6703 8.58745 34.7103 8.58745 34.755V34.774H8.20645ZM9.0617 34.246H9.2317L9.0477 34.578H8.9317L9.0617 34.246ZM8.8047 34.246H8.9757L8.7917 34.578H8.6757L8.8047 34.246Z" fill="#ECE538"/>
<defs>
<linearGradient id="paint0_linear" x1="8.11983" y1="9.85898" x2="24.916" y2="27.0127" gradientUnits="userSpaceOnUse">
<stop stop-color="#AAAAAA"/>
<stop offset="0.569391" stop-color="#454545"/>
</linearGradient>
<linearGradient id="paint1_linear" x1="52.8802" y1="9.85898" x2="36.084" y2="27.0127" gradientUnits="userSpaceOnUse">
<stop stop-color="#DDDDDD"/>
<stop offset="0.392305" stop-color="#454545"/>
</linearGradient>
</defs>
</svg>
