<svg width="60" height="60" viewBox="0 0 60 60" fill="none" xmlns="http://www.w3.org/2000/svg">
<path fill-rule="evenodd" clip-rule="evenodd" d="M30 60C46.5685 60 60 46.5685 60 30H0C0 46.5685 13.4315 60 30 60Z" fill="#333333"/>
<path fill-rule="evenodd" clip-rule="evenodd" d="M58.2929 40C59.3985 36.8722 60 33.5064 60 30C60 13.4315 46.5685 0 30 0C13.4315 0 0 13.4315 0 30C0 33.5064 0.601542 36.8722 1.70706 40H58.2929Z" fill="#454545"/>
<path fill-rule="evenodd" clip-rule="evenodd" d="M45.011 30.1679V30.332V30.3772C45.011 32.7126 43.9905 34.9314 42.2173 36.4512L40.6656 37.7813V45.2306V45.8195C39.805 46.4899 38.8391 47.1114 37.7686 47.6849V36.505L42.114 33.0877V31.5722L31.8231 32.9181C30.9622 33.0307 30.0904 33.0307 29.2295 32.9181L18.9386 31.5722V33.0877L23.284 36.505V47.6562C22.2056 47.0656 21.2403 46.4246 20.387 45.7318V45.2292V37.7799L18.8696 36.4792C17.1884 35.0382 16.1756 32.9766 16.054 30.7786C17.6685 24.4904 22.5466 18.1041 30.236 15.308C37.6766 18.0136 43.0114 24.0809 45.011 30.1679Z" fill="#F5F5F5"/>
<path d="M23.8637 36.3665L28.9416 35.5513C29.9916 35.3827 31.0618 35.3827 32.1117 35.5513L37.1896 36.3665V46.6982C37.1896 46.9155 37.0493 47.1079 36.8425 47.1743L30.5267 49.2021L24.2109 47.1743C24.004 47.1079 23.8637 46.9155 23.8637 46.6982V36.3665Z" fill="white"/>
<path d="M33.2318 42.4663L34.5825 45.0646L33.1887 49.2732L30.4619 50.714L27.7352 49.2732L26.3414 45.0646L27.6921 42.4663L30.4619 42.4664L33.2318 42.4663Z" fill="#FF4E63" stroke="#454545" stroke-width="0.4"/>
<path d="M27.8615 38.2833L30.4436 37.5167C30.4804 37.5058 30.5196 37.5057 30.5564 37.5164L33.1919 38.2833" stroke="#464646" stroke-width="0.4" stroke-linecap="square"/>
<path d="M27.8615 40.0214L30.4285 39.0277C30.4745 39.0099 30.5255 39.0097 30.5717 39.0272L33.1919 40.0214" stroke="#464646" stroke-width="0.4" stroke-linecap="square"/>
<path d="M19.808 38.2259V45.7258L18 44.5L15.6953 34.562C15.5407 33.8953 15.4626 33.2131 15.4626 32.5288V30.9514H15.6364L16.1556 33.5472C16.2716 34.127 16.5146 34.6739 16.8673 35.1485L17.5 36L19.808 38.2259Z" fill="#F5F5F5"/>
<path d="M17.7222 40.5113H19.4604V42.2494H18.2481L17.7222 40.5113Z" fill="#454545"/>
<path d="M17.2008 36.1659L18.0699 37.0349L19.4604 38.2568V40.1636H17.7223L17.2008 36.1659Z" fill="#454545"/>
<path d="M18.2481 42.597H19.4604V44.3352H18.5913L18.2481 42.597Z" fill="#454545"/>
<path d="M41.3346 38.2259V45.7258L43 44.5L45.4216 34.6137C45.5932 33.9129 45.68 33.194 45.68 32.4725V30.9514H45.5062L45.0102 33.4312C44.8794 34.0852 44.5872 34.6961 44.1601 35.2083L43.5 36L41.3346 38.2259Z" fill="#F5F5F5"/>
<path d="M43.4204 40.5113H41.6823V42.2494H42.8945L43.4204 40.5113Z" fill="#454545"/>
<path d="M43.9419 36.1659L43.0728 37.0349L41.6823 38.2568V40.1636H43.4204L43.9419 36.1659Z" fill="#454545"/>
<path d="M42.8945 42.597H41.6822V44.3352H42.5513L42.8945 42.597Z" fill="#454545"/>
<circle cx="21.0516" cy="28.0516" r="2.05164" fill="#454545"/>
<circle cx="21" cy="28" r="0.9" fill="#FAFF00" stroke="#646464" stroke-width="0.2"/>
<circle cx="39.8927" cy="27.8927" r="1.89266" fill="#454545"/>
<circle cx="39.8927" cy="27.8927" r="0.846329" fill="#FAFF00" stroke="#646464" stroke-width="0.2"/>
<path d="M30.7561 34.8226L30.7561 34.8219L30.7479 34.8228L23.5259 35.5925L19.85 32.6654V32.4569L29.1103 33.6815C30.2006 33.8257 31.3055 33.8199 32.3942 33.6644L40.8424 32.4575L40.8424 32.6672L37.9776 35.2456L30.7561 34.8226Z" fill="#FF4E63" stroke="#C56D6D" stroke-width="0.1"/>
<path d="M20.2264 32.5L27.7264 33.5L23.528 35.1276L20.2264 32.5Z" fill="#454545"/>
<path d="M40.9915 32.3L32.8703 33.4L37.5131 35.0846L40.9915 32.3Z" fill="#454545"/>
<path d="M23.5196 34.8936L20.2183 32.4728L28.0018 33.4225L23.5196 34.8936Z" fill="#ECE538" stroke="#454545" stroke-width="0.1"/>
<path d="M37.4813 34.8789L40.8044 32.3782L33.091 33.5174L37.4813 34.8789Z" fill="#ECE538" stroke="#454545" stroke-width="0.1"/>
<line x1="30.8265" y1="34.1" x2="30.8265" y2="34.6" stroke="#893A3A" stroke-width="0.2" stroke-linecap="round"/>
<path d="M27.1881 22.2L30.4645 22.2L33.7875 22.2L33.7408 24.1579L33.7398 24.2021L33.7575 24.2427L35.4286 28.0706L30.4645 31.3801L25.5003 28.0706L27.1714 24.2427L27.1881 24.2044V24.1626V22.2Z" fill="#FF4E63" stroke="#454545" stroke-width="0.4"/>
<path d="M25.7379 24.0621L24.592 26.9268L6.83223 13.6855L25.7379 22.3437L25.7379 24.0621Z" fill="white" stroke="url(#paint0_linear)" stroke-width="0.4"/>
<path d="M35.2621 24.0621L36.408 26.9268L54.1678 13.6855L35.2621 22.3437L35.2621 24.0621Z" fill="white" stroke="url(#paint1_linear)" stroke-width="0.4"/>
<path d="M34.8 16.6792L33.9375 20.8H27.0625L26.2 16.6792V12.5833L30.6121 12.2008L34.8 12.5824V16.6792Z" fill="white" stroke="#454545" stroke-width="0.4"/>
<path d="M27.6436 16.3491L27.6436 13.5868L30.4687 14.1938L30.5125 14.2032L30.5552 14.1939L33.4281 13.563L33.428 16.33L33.0643 19.5424L28.1739 19.5637L27.6436 16.3491Z" fill="#FF4E63" stroke="#454545" stroke-width="0.4" stroke-linecap="round"/>
<line x1="20.7531" y1="37.6753" x2="22.6077" y2="36.7196" stroke="#454545" stroke-width="0.2" stroke-linecap="round" stroke-dasharray="2.2 0"/>
<line x1="27.0862" y1="27.7779" x2="28.7631" y2="26.9138" stroke="#454545" stroke-width="0.4" stroke-linecap="round"/>
<line x1="0.2" y1="-0.2" x2="2.0864" y2="-0.2" transform="matrix(-0.888931 -0.458041 -0.458041 0.888931 34.0325 28.0473)" stroke="#454545" stroke-width="0.4" stroke-linecap="round"/>
<line x1="0.1" y1="-0.1" x2="2.1864" y2="-0.1" transform="matrix(-0.888931 -0.458041 -0.458041 0.888931 40.34 37.81)" stroke="#454545" stroke-width="0.2" stroke-linecap="round" stroke-dasharray="2.2 0"/>
<path d="M47.0723 42V41.2891H47.3159C47.3963 41.2891 47.4575 41.3052 47.4995 41.3374C47.5415 41.3696 47.5625 41.4176 47.5625 41.4814C47.5625 41.514 47.5537 41.5433 47.5361 41.5693C47.5186 41.5954 47.4928 41.6156 47.459 41.6299C47.4974 41.6403 47.527 41.66 47.5479 41.689C47.569 41.7176 47.5796 41.7521 47.5796 41.7925C47.5796 41.8592 47.5581 41.9105 47.5151 41.9463C47.4725 41.9821 47.4113 42 47.3315 42H47.0723ZM47.1958 41.6792V41.9014H47.333C47.3717 41.9014 47.402 41.8918 47.4238 41.8726C47.4456 41.8534 47.4565 41.8267 47.4565 41.7925C47.4565 41.7186 47.4188 41.6808 47.3433 41.6792H47.1958ZM47.1958 41.5884H47.3169C47.3553 41.5884 47.3853 41.5798 47.4067 41.5625C47.4285 41.5449 47.4395 41.5202 47.4395 41.4883C47.4395 41.4531 47.4294 41.4277 47.4092 41.4121C47.3893 41.3965 47.3582 41.3887 47.3159 41.3887H47.1958V41.5884ZM47.8765 41.8301L47.9839 41.4717H48.1104L47.9004 42.0801C47.8682 42.1689 47.8135 42.2134 47.7363 42.2134C47.7191 42.2134 47.7 42.2104 47.6792 42.2046V42.1128L47.7017 42.1143C47.7316 42.1143 47.7541 42.1087 47.769 42.0977C47.7843 42.0869 47.7964 42.0687 47.8052 42.043L47.8223 41.9976L47.6367 41.4717H47.7646L47.8765 41.8301ZM48.2505 41.875C48.2726 41.875 48.2897 41.8813 48.3018 41.894C48.3138 41.9064 48.3198 41.922 48.3198 41.9409C48.3198 41.9595 48.3138 41.9749 48.3018 41.9873C48.2897 41.9993 48.2726 42.0054 48.2505 42.0054C48.2293 42.0054 48.2126 41.9993 48.2002 41.9873C48.1878 41.9753 48.1816 41.9598 48.1816 41.9409C48.1816 41.922 48.1877 41.9064 48.1997 41.894C48.2118 41.8813 48.2287 41.875 48.2505 41.875ZM48.2505 41.4604C48.2726 41.4604 48.2897 41.4668 48.3018 41.4795C48.3138 41.4919 48.3198 41.5075 48.3198 41.5264C48.3198 41.5449 48.3138 41.5604 48.3018 41.5728C48.2897 41.5848 48.2726 41.5908 48.2505 41.5908C48.2293 41.5908 48.2126 41.5848 48.2002 41.5728C48.1878 41.5607 48.1816 41.5452 48.1816 41.5264C48.1816 41.5075 48.1877 41.4919 48.1997 41.4795C48.2118 41.4668 48.2287 41.4604 48.2505 41.4604ZM48.9092 41.6929L48.8286 41.7783V42H48.7051V41.2891H48.8286V41.6226L48.897 41.5381L49.105 41.2891H49.2544L48.9902 41.604L49.2695 42H49.123L48.9092 41.6929ZM49.5444 42.0098C49.4692 42.0098 49.4082 41.9862 49.3613 41.939C49.3148 41.8914 49.2915 41.8283 49.2915 41.7495V41.7349C49.2915 41.6821 49.3016 41.6351 49.3218 41.5938C49.3423 41.5521 49.3709 41.5197 49.4077 41.4966C49.4445 41.4735 49.4855 41.4619 49.5308 41.4619C49.6027 41.4619 49.6582 41.4849 49.6973 41.5308C49.7367 41.5767 49.7563 41.6416 49.7563 41.7256V41.7734H49.4111C49.4147 41.8171 49.4292 41.8516 49.4546 41.877C49.4803 41.9023 49.5125 41.915 49.5513 41.915C49.6056 41.915 49.6499 41.8931 49.6841 41.8491L49.748 41.9102C49.7269 41.9417 49.6986 41.9663 49.6631 41.9839C49.6279 42.0011 49.5884 42.0098 49.5444 42.0098ZM49.5303 41.5571C49.4977 41.5571 49.4714 41.5685 49.4512 41.5913C49.4313 41.6141 49.4186 41.6458 49.4131 41.6865H49.6392V41.6777C49.6366 41.638 49.626 41.6081 49.6074 41.5879C49.5889 41.5674 49.5632 41.5571 49.5303 41.5571ZM50.0283 41.8496L50.1401 41.4717H50.2627L50.0796 42H49.9766L49.792 41.4717H49.915L50.0283 41.8496ZM50.4634 42H50.3447V41.4717H50.4634V42ZM50.3374 41.3345C50.3374 41.3162 50.3431 41.3011 50.3545 41.2891C50.3662 41.277 50.3828 41.271 50.4043 41.271C50.4258 41.271 50.4424 41.277 50.4541 41.2891C50.4658 41.3011 50.4717 41.3162 50.4717 41.3345C50.4717 41.3524 50.4658 41.3674 50.4541 41.3794C50.4424 41.3911 50.4258 41.397 50.4043 41.397C50.3828 41.397 50.3662 41.3911 50.3545 41.3794C50.3431 41.3674 50.3374 41.3524 50.3374 41.3345ZM50.7031 41.4717L50.7065 41.5327C50.7456 41.4855 50.7969 41.4619 50.8604 41.4619C50.9704 41.4619 51.0264 41.5249 51.0283 41.6509V42H50.9097V41.6577C50.9097 41.6242 50.9023 41.5994 50.8877 41.5835C50.8734 41.5672 50.8498 41.5591 50.8169 41.5591C50.769 41.5591 50.7334 41.5807 50.71 41.624V42H50.5913V41.4717H50.7031ZM51.8945 41.3887H51.6729V42H51.5503V41.3887H51.3306V41.2891H51.8945V41.3887ZM51.853 41.731C51.853 41.6792 51.8633 41.6326 51.8838 41.5913C51.9043 41.5496 51.9331 41.5177 51.9702 41.4956C52.0073 41.4731 52.05 41.4619 52.0981 41.4619C52.1694 41.4619 52.2272 41.4849 52.2715 41.5308C52.3161 41.5767 52.3402 41.6375 52.3438 41.7134L52.3442 41.7412C52.3442 41.7933 52.3341 41.8398 52.314 41.8809C52.2941 41.9219 52.2655 41.9536 52.228 41.9761C52.1909 41.9985 52.1479 42.0098 52.0991 42.0098C52.0246 42.0098 51.9648 41.985 51.9199 41.9355C51.8753 41.8857 51.853 41.8195 51.853 41.7368V41.731ZM51.9717 41.7412C51.9717 41.7956 51.9829 41.8382 52.0054 41.8691C52.0278 41.8997 52.0591 41.915 52.0991 41.915C52.1392 41.915 52.1702 41.8994 52.1924 41.8682C52.2148 41.8369 52.2261 41.7912 52.2261 41.731C52.2261 41.6776 52.2145 41.6353 52.1914 41.604C52.1686 41.5728 52.1375 41.5571 52.0981 41.5571C52.0594 41.5571 52.0286 41.5726 52.0059 41.6035C51.9831 41.6341 51.9717 41.68 51.9717 41.7412ZM52.9087 41.8364L52.9927 41.4717H53.1084L52.9644 42H52.8667L52.7534 41.6372L52.6421 42H52.5444L52.3999 41.4717H52.5156L52.6011 41.8325L52.7095 41.4717H52.7988L52.9087 41.8364ZM53.2979 41.4717L53.3013 41.5327C53.3403 41.4855 53.3916 41.4619 53.4551 41.4619C53.5651 41.4619 53.6211 41.5249 53.623 41.6509V42H53.5044V41.6577C53.5044 41.6242 53.4971 41.5994 53.4824 41.5835C53.4681 41.5672 53.4445 41.5591 53.4116 41.5591C53.3638 41.5591 53.3281 41.5807 53.3047 41.624V42H53.186V41.4717H53.2979ZM53.9771 42.0098C53.9019 42.0098 53.8408 41.9862 53.7939 41.939C53.7474 41.8914 53.7241 41.8283 53.7241 41.7495V41.7349C53.7241 41.6821 53.7342 41.6351 53.7544 41.5938C53.7749 41.5521 53.8035 41.5197 53.8403 41.4966C53.8771 41.4735 53.9181 41.4619 53.9634 41.4619C54.0353 41.4619 54.0908 41.4849 54.1299 41.5308C54.1693 41.5767 54.189 41.6416 54.189 41.7256V41.7734H53.8438C53.8473 41.8171 53.8618 41.8516 53.8872 41.877C53.9129 41.9023 53.9451 41.915 53.9839 41.915C54.0382 41.915 54.0825 41.8931 54.1167 41.8491L54.1807 41.9102C54.1595 41.9417 54.1312 41.9663 54.0957 41.9839C54.0605 42.0011 54.021 42.0098 53.9771 42.0098ZM53.9629 41.5571C53.9303 41.5571 53.904 41.5685 53.8838 41.5913C53.8639 41.6141 53.8512 41.6458 53.8457 41.6865H54.0718V41.6777C54.0692 41.638 54.0586 41.6081 54.04 41.5879C54.0215 41.5674 53.9958 41.5571 53.9629 41.5571ZM54.5581 41.5801C54.5425 41.5775 54.5264 41.5762 54.5098 41.5762C54.4554 41.5762 54.4188 41.597 54.3999 41.6387V42H54.2812V41.4717H54.3945L54.3975 41.5308C54.4261 41.4849 54.4658 41.4619 54.5166 41.4619C54.5335 41.4619 54.5475 41.4642 54.5586 41.4688L54.5581 41.5801Z" fill="#646464"/>
<path d="M5.1958 30.7358V31H5.07227V30.2891H5.34424C5.42367 30.2891 5.48665 30.3097 5.5332 30.3511C5.58008 30.3924 5.60352 30.4471 5.60352 30.5151C5.60352 30.5848 5.58057 30.639 5.53467 30.6777C5.4891 30.7165 5.42513 30.7358 5.34277 30.7358H5.1958ZM5.1958 30.6367H5.34424C5.38818 30.6367 5.42171 30.6265 5.44482 30.606C5.46794 30.5851 5.47949 30.5552 5.47949 30.5161C5.47949 30.4777 5.46777 30.4471 5.44434 30.4243C5.4209 30.4012 5.38867 30.3893 5.34766 30.3887H5.1958V30.6367ZM5.97705 30.5801C5.96143 30.5775 5.94531 30.5762 5.92871 30.5762C5.87435 30.5762 5.83773 30.597 5.81885 30.6387V31H5.7002V30.4717H5.81348L5.81641 30.5308C5.84505 30.4849 5.88477 30.4619 5.93555 30.4619C5.95247 30.4619 5.96647 30.4642 5.97754 30.4688L5.97705 30.5801ZM6.01221 30.731C6.01221 30.6792 6.02246 30.6326 6.04297 30.5913C6.06348 30.5496 6.09229 30.5177 6.12939 30.4956C6.1665 30.4731 6.20915 30.4619 6.25732 30.4619C6.32861 30.4619 6.38639 30.4849 6.43066 30.5308C6.47526 30.5767 6.49935 30.6375 6.50293 30.7134L6.50342 30.7412C6.50342 30.7933 6.49333 30.8398 6.47314 30.8809C6.45329 30.9219 6.42464 30.9536 6.38721 30.9761C6.3501 30.9985 6.30713 31.0098 6.2583 31.0098C6.18376 31.0098 6.12402 30.985 6.0791 30.9355C6.03451 30.8857 6.01221 30.8195 6.01221 30.7368V30.731ZM6.13086 30.7412C6.13086 30.7956 6.14209 30.8382 6.16455 30.8691C6.18701 30.8997 6.21826 30.915 6.2583 30.915C6.29834 30.915 6.32943 30.8994 6.35156 30.8682C6.37402 30.8369 6.38525 30.7912 6.38525 30.731C6.38525 30.6776 6.3737 30.6353 6.35059 30.604C6.3278 30.5728 6.29671 30.5571 6.25732 30.5571C6.21859 30.5571 6.18783 30.5726 6.16504 30.6035C6.14225 30.6341 6.13086 30.68 6.13086 30.7412ZM6.75244 30.3433V30.4717H6.8457V30.5596H6.75244V30.8545C6.75244 30.8747 6.75635 30.8893 6.76416 30.8984C6.7723 30.9072 6.78662 30.9116 6.80713 30.9116C6.8208 30.9116 6.83464 30.91 6.84863 30.9067V30.9985C6.82161 31.006 6.79557 31.0098 6.77051 31.0098C6.67936 31.0098 6.63379 30.9595 6.63379 30.8589V30.5596H6.54688V30.4717H6.63379V30.3433H6.75244ZM6.8999 30.731C6.8999 30.6792 6.91016 30.6326 6.93066 30.5913C6.95117 30.5496 6.97998 30.5177 7.01709 30.4956C7.0542 30.4731 7.09684 30.4619 7.14502 30.4619C7.21631 30.4619 7.27409 30.4849 7.31836 30.5308C7.36296 30.5767 7.38704 30.6375 7.39062 30.7134L7.39111 30.7412C7.39111 30.7933 7.38102 30.8398 7.36084 30.8809C7.34098 30.9219 7.31234 30.9536 7.2749 30.9761C7.23779 30.9985 7.19482 31.0098 7.146 31.0098C7.07145 31.0098 7.01172 30.985 6.9668 30.9355C6.9222 30.8857 6.8999 30.8195 6.8999 30.7368V30.731ZM7.01855 30.7412C7.01855 30.7956 7.02979 30.8382 7.05225 30.8691C7.07471 30.8997 7.10596 30.915 7.146 30.915C7.18604 30.915 7.21712 30.8994 7.23926 30.8682C7.26172 30.8369 7.27295 30.7912 7.27295 30.731C7.27295 30.6776 7.26139 30.6353 7.23828 30.604C7.21549 30.5728 7.18441 30.5571 7.14502 30.5571C7.10628 30.5571 7.07552 30.5726 7.05273 30.6035C7.02995 30.6341 7.01855 30.68 7.01855 30.7412ZM7.64014 30.3433V30.4717H7.7334V30.5596H7.64014V30.8545C7.64014 30.8747 7.64404 30.8893 7.65186 30.8984C7.65999 30.9072 7.67432 30.9116 7.69482 30.9116C7.7085 30.9116 7.72233 30.91 7.73633 30.9067V30.9985C7.70931 31.006 7.68327 31.0098 7.6582 31.0098C7.56706 31.0098 7.52148 30.9595 7.52148 30.8589V30.5596H7.43457V30.4717H7.52148V30.3433H7.64014ZM8.00928 30.8301L8.1167 30.4717H8.24316L8.0332 31.0801C8.00098 31.1689 7.94629 31.2134 7.86914 31.2134C7.85189 31.2134 7.83285 31.2104 7.81201 31.2046V31.1128L7.83447 31.1143C7.86442 31.1143 7.88688 31.1087 7.90186 31.0977C7.91715 31.0869 7.9292 31.0687 7.93799 31.043L7.95508 30.9976L7.76953 30.4717H7.89746L8.00928 30.8301ZM8.77441 30.7412C8.77441 30.8229 8.75586 30.8882 8.71875 30.937C8.68164 30.9855 8.63184 31.0098 8.56934 31.0098C8.51139 31.0098 8.46501 30.9907 8.43018 30.9526V31.2031H8.31152V30.4717H8.4209L8.42578 30.5254C8.46061 30.4831 8.50798 30.4619 8.56787 30.4619C8.63232 30.4619 8.68278 30.486 8.71924 30.5342C8.75602 30.582 8.77441 30.6486 8.77441 30.7339V30.7412ZM8.65625 30.731C8.65625 30.6782 8.64567 30.6364 8.62451 30.6055C8.60368 30.5745 8.57373 30.5591 8.53467 30.5591C8.48617 30.5591 8.45133 30.5791 8.43018 30.6191V30.8535C8.45166 30.8945 8.48682 30.915 8.53564 30.915C8.5734 30.915 8.60286 30.8999 8.62402 30.8696C8.64551 30.839 8.65625 30.7928 8.65625 30.731ZM9.10791 31.0098C9.03271 31.0098 8.97168 30.9862 8.9248 30.939C8.87826 30.8914 8.85498 30.8283 8.85498 30.7495V30.7349C8.85498 30.6821 8.86507 30.6351 8.88525 30.5938C8.90576 30.5521 8.93441 30.5197 8.97119 30.4966C9.00798 30.4735 9.04899 30.4619 9.09424 30.4619C9.16618 30.4619 9.22168 30.4849 9.26074 30.5308C9.30013 30.5767 9.31982 30.6416 9.31982 30.7256V30.7734H8.97461C8.97819 30.8171 8.99268 30.8516 9.01807 30.877C9.04378 30.9023 9.07601 30.915 9.11475 30.915C9.16911 30.915 9.21338 30.8931 9.24756 30.8491L9.31152 30.9102C9.29036 30.9417 9.26204 30.9663 9.22656 30.9839C9.19141 31.0011 9.15186 31.0098 9.10791 31.0098ZM9.09375 30.5571C9.0612 30.5571 9.03483 30.5685 9.01465 30.5913C8.99479 30.6141 8.9821 30.6458 8.97656 30.6865H9.20264V30.6777C9.20003 30.638 9.18945 30.6081 9.1709 30.5879C9.15234 30.5674 9.12663 30.5571 9.09375 30.5571ZM9.93408 30.7261H9.79639V31H9.67285V30.2891H9.92285C10.0049 30.2891 10.0682 30.3075 10.1128 30.3442C10.1574 30.381 10.1797 30.4342 10.1797 30.5039C10.1797 30.5514 10.1681 30.5913 10.145 30.6235C10.1222 30.6554 10.0903 30.68 10.0493 30.6973L10.209 30.9937V31H10.0767L9.93408 30.7261ZM9.79639 30.627H9.92334C9.96501 30.627 9.99756 30.6165 10.021 30.5957C10.0444 30.5745 10.0562 30.5457 10.0562 30.5093C10.0562 30.4712 10.0452 30.4417 10.0234 30.4209C10.002 30.4001 9.96973 30.3893 9.92676 30.3887H9.79639V30.627ZM10.5415 30.5459L10.6909 30.2891H10.8335L10.6187 30.6416L10.8384 31H10.6943L10.5415 30.7393L10.3882 31H10.2446L10.4648 30.6416L10.2495 30.2891H10.3921L10.5415 30.5459ZM11.0723 30.7456H10.8159V30.6499H11.0723V30.7456ZM11.6357 30.355L11.3516 31H11.2271L11.5107 30.3843H11.1431V30.2891H11.6357V30.355ZM12.1787 30.4766C12.1787 30.5114 12.1698 30.5425 12.1519 30.5698C12.134 30.5968 12.1095 30.6182 12.0786 30.6338C12.1157 30.651 12.1442 30.6746 12.1641 30.7046C12.1842 30.7345 12.1943 30.7684 12.1943 30.8062C12.1943 30.8687 12.1732 30.9183 12.1309 30.9551C12.0885 30.9915 12.0322 31.0098 11.9619 31.0098C11.8913 31.0098 11.8346 30.9914 11.792 30.9546C11.7497 30.9178 11.7285 30.8683 11.7285 30.8062C11.7285 30.7681 11.7386 30.7339 11.7588 30.7036C11.779 30.6733 11.8073 30.6501 11.8438 30.6338C11.8132 30.6182 11.7889 30.5968 11.771 30.5698C11.7534 30.5425 11.7446 30.5114 11.7446 30.4766C11.7446 30.416 11.7642 30.368 11.8032 30.3325C11.8423 30.297 11.895 30.2793 11.9614 30.2793C12.0282 30.2793 12.0811 30.297 12.1201 30.3325C12.1592 30.368 12.1787 30.416 12.1787 30.4766ZM12.0757 30.8003C12.0757 30.7651 12.0651 30.7368 12.0439 30.7153C12.0231 30.6935 11.9954 30.6826 11.9609 30.6826C11.9264 30.6826 11.8988 30.6934 11.8779 30.7148C11.8574 30.7363 11.8472 30.7648 11.8472 30.8003C11.8472 30.8351 11.8573 30.863 11.8774 30.8838C11.8979 30.9046 11.9261 30.915 11.9619 30.915C11.9977 30.915 12.0256 30.9049 12.0454 30.8848C12.0656 30.8646 12.0757 30.8364 12.0757 30.8003ZM12.0605 30.481C12.0605 30.45 12.0516 30.4246 12.0337 30.4048C12.0158 30.3846 11.9917 30.3745 11.9614 30.3745C11.9312 30.3745 11.9072 30.3841 11.8896 30.4033C11.8721 30.4222 11.8633 30.4481 11.8633 30.481C11.8633 30.5135 11.8721 30.5394 11.8896 30.5586C11.9076 30.5778 11.9316 30.5874 11.9619 30.5874C11.9922 30.5874 12.0161 30.5778 12.0337 30.5586C12.0516 30.5394 12.0605 30.5135 12.0605 30.481ZM12.5371 30.7456H12.2808V30.6499H12.5371V30.7456ZM13.1055 31H12.6274V30.9185L12.8643 30.6602C12.8984 30.6221 12.9227 30.5903 12.937 30.5649C12.9517 30.5392 12.959 30.5135 12.959 30.4878C12.959 30.4539 12.9494 30.4266 12.9302 30.4058C12.9113 30.3849 12.8857 30.3745 12.8535 30.3745C12.8151 30.3745 12.7853 30.3862 12.7642 30.4097C12.743 30.4331 12.7324 30.4652 12.7324 30.5059H12.6138C12.6138 30.4626 12.6235 30.4237 12.6431 30.3892C12.6629 30.3543 12.6911 30.3273 12.7275 30.3081C12.7643 30.2889 12.8066 30.2793 12.8545 30.2793C12.9235 30.2793 12.9779 30.2967 13.0176 30.3315C13.0576 30.366 13.0776 30.4139 13.0776 30.4751C13.0776 30.5106 13.0675 30.5479 13.0474 30.5869C13.0275 30.6257 12.9948 30.6698 12.9492 30.7192L12.7754 30.9053H13.1055V31Z" fill="white"/>
<path d="M5.47021 32.8345H5.19482L5.13721 33H5.00879L5.27734 32.2891H5.38818L5.65723 33H5.52832L5.47021 32.8345ZM5.22949 32.7349H5.43555L5.33252 32.4399L5.22949 32.7349ZM5.81494 32.4717L5.81836 32.5269C5.85547 32.4836 5.90625 32.4619 5.9707 32.4619C6.04134 32.4619 6.08968 32.4889 6.11572 32.543C6.15413 32.4889 6.20817 32.4619 6.27783 32.4619C6.3361 32.4619 6.37939 32.478 6.40771 32.5103C6.43636 32.5425 6.45101 32.59 6.45166 32.6528V33H6.33301V32.6562C6.33301 32.6227 6.32568 32.5981 6.31104 32.5825C6.29639 32.5669 6.27214 32.5591 6.23828 32.5591C6.21126 32.5591 6.18913 32.5664 6.17188 32.5811C6.15495 32.5954 6.14307 32.6143 6.13623 32.6377L6.13672 33H6.01807V32.6523C6.01644 32.5902 5.9847 32.5591 5.92285 32.5591C5.87533 32.5591 5.84163 32.5785 5.82178 32.6172V33H5.70312V32.4717H5.81494ZM6.89355 32.9482C6.85872 32.9893 6.80924 33.0098 6.74512 33.0098C6.68783 33.0098 6.64437 32.993 6.61475 32.9595C6.58545 32.9259 6.5708 32.8774 6.5708 32.814V32.4717H6.68945V32.8125C6.68945 32.8796 6.71729 32.9131 6.77295 32.9131C6.83057 32.9131 6.86947 32.8924 6.88965 32.8511V32.4717H7.0083V33H6.89648L6.89355 32.9482ZM7.40576 32.5801C7.39014 32.5775 7.37402 32.5762 7.35742 32.5762C7.30306 32.5762 7.26644 32.597 7.24756 32.6387V33H7.12891V32.4717H7.24219L7.24512 32.5308C7.27376 32.4849 7.31348 32.4619 7.36426 32.4619C7.38118 32.4619 7.39518 32.4642 7.40625 32.4688L7.40576 32.5801ZM7.44092 32.731C7.44092 32.6792 7.45117 32.6326 7.47168 32.5913C7.49219 32.5496 7.521 32.5177 7.55811 32.4956C7.59521 32.4731 7.63786 32.4619 7.68604 32.4619C7.75732 32.4619 7.8151 32.4849 7.85938 32.5308C7.90397 32.5767 7.92806 32.6375 7.93164 32.7134L7.93213 32.7412C7.93213 32.7933 7.92204 32.8398 7.90186 32.8809C7.882 32.9219 7.85335 32.9536 7.81592 32.9761C7.77881 32.9985 7.73584 33.0098 7.68701 33.0098C7.61247 33.0098 7.55273 32.985 7.50781 32.9355C7.46322 32.8857 7.44092 32.8195 7.44092 32.7368V32.731ZM7.55957 32.7412C7.55957 32.7956 7.5708 32.8382 7.59326 32.8691C7.61572 32.8997 7.64697 32.915 7.68701 32.915C7.72705 32.915 7.75814 32.8994 7.78027 32.8682C7.80273 32.8369 7.81396 32.7912 7.81396 32.731C7.81396 32.6776 7.80241 32.6353 7.7793 32.604C7.75651 32.5728 7.72542 32.5571 7.68604 32.5571C7.6473 32.5571 7.61654 32.5726 7.59375 32.6035C7.57096 32.6341 7.55957 32.68 7.55957 32.7412ZM8.5542 32.7261H8.4165V33H8.29297V32.2891H8.54297C8.625 32.2891 8.68831 32.3075 8.73291 32.3442C8.77751 32.381 8.7998 32.4342 8.7998 32.5039C8.7998 32.5514 8.78825 32.5913 8.76514 32.6235C8.74235 32.6554 8.71045 32.68 8.66943 32.6973L8.8291 32.9937V33H8.69678L8.5542 32.7261ZM8.4165 32.627H8.54346C8.58512 32.627 8.61768 32.6165 8.64111 32.5957C8.66455 32.5745 8.67627 32.5457 8.67627 32.5093C8.67627 32.4712 8.66536 32.4417 8.64355 32.4209C8.62207 32.4001 8.58984 32.3893 8.54688 32.3887H8.4165V32.627ZM9.22119 33C9.21598 32.9899 9.21143 32.9735 9.20752 32.9507C9.16976 32.9901 9.12354 33.0098 9.06885 33.0098C9.01579 33.0098 8.97249 32.9946 8.93896 32.9644C8.90544 32.9341 8.88867 32.8966 8.88867 32.8521C8.88867 32.7957 8.90951 32.7526 8.95117 32.7227C8.99316 32.6924 9.05306 32.6772 9.13086 32.6772H9.20361V32.6426C9.20361 32.6152 9.19596 32.5934 9.18066 32.5771C9.16536 32.5605 9.14209 32.5522 9.11084 32.5522C9.08382 32.5522 9.06169 32.5591 9.04443 32.5728C9.02718 32.5861 9.01855 32.6032 9.01855 32.624H8.8999C8.8999 32.5951 8.90951 32.568 8.92871 32.543C8.94792 32.5176 8.97396 32.4977 9.00684 32.4834C9.04004 32.4691 9.07699 32.4619 9.11768 32.4619C9.17952 32.4619 9.22884 32.4775 9.26562 32.5088C9.30241 32.5397 9.32129 32.5833 9.32227 32.6396V32.8779C9.32227 32.9255 9.32894 32.9634 9.34229 32.9917V33H9.22119ZM9.09082 32.9146C9.11426 32.9146 9.13623 32.9089 9.15674 32.8975C9.17757 32.8861 9.1932 32.8708 9.20361 32.8516V32.752H9.13965C9.0957 32.752 9.06266 32.7596 9.04053 32.7749C9.01839 32.7902 9.00732 32.8118 9.00732 32.8398C9.00732 32.8626 9.01481 32.8809 9.02979 32.8945C9.04508 32.9079 9.06543 32.9146 9.09082 32.9146ZM9.62354 32.8301L9.73096 32.4717H9.85742L9.64746 33.0801C9.61523 33.1689 9.56055 33.2134 9.4834 33.2134C9.46615 33.2134 9.4471 33.2104 9.42627 33.2046V33.1128L9.44873 33.1143C9.47868 33.1143 9.50114 33.1087 9.51611 33.0977C9.53141 33.0869 9.54346 33.0687 9.55225 33.043L9.56934 32.9976L9.38379 32.4717H9.51172L9.62354 32.8301Z" fill="white"/>
<path d="M5.14209 34.2373L5.20264 34.2749C5.17301 34.3182 5.15771 34.3633 5.15674 34.4102V34.4844H5.05273V34.417C5.05306 34.3857 5.06152 34.3532 5.07812 34.3193C5.09505 34.2852 5.11637 34.2578 5.14209 34.2373ZM5.30615 34.2373L5.3667 34.2749C5.33708 34.3182 5.32178 34.3633 5.3208 34.4102V34.4844H5.2168V34.417C5.21712 34.3857 5.22559 34.3532 5.24219 34.3193C5.25911 34.2852 5.28044 34.2578 5.30615 34.2373ZM6.021 35H5.89746L5.58057 34.4956V35H5.45703V34.2891H5.58057L5.89844 34.7954V34.2891H6.021V35ZM6.38818 35.0098C6.31299 35.0098 6.25195 34.9862 6.20508 34.939C6.15853 34.8914 6.13525 34.8283 6.13525 34.7495V34.7349C6.13525 34.6821 6.14535 34.6351 6.16553 34.5938C6.18604 34.5521 6.21468 34.5197 6.25146 34.4966C6.28825 34.4735 6.32926 34.4619 6.37451 34.4619C6.44645 34.4619 6.50195 34.4849 6.54102 34.5308C6.5804 34.5767 6.6001 34.6416 6.6001 34.7256V34.7734H6.25488C6.25846 34.8171 6.27295 34.8516 6.29834 34.877C6.32406 34.9023 6.35628 34.915 6.39502 34.915C6.44938 34.915 6.49365 34.8931 6.52783 34.8491L6.5918 34.9102C6.57064 34.9417 6.54232 34.9663 6.50684 34.9839C6.47168 35.0011 6.43213 35.0098 6.38818 35.0098ZM6.37402 34.5571C6.34147 34.5571 6.3151 34.5685 6.29492 34.5913C6.27507 34.6141 6.26237 34.6458 6.25684 34.6865H6.48291V34.6777C6.48031 34.638 6.46973 34.6081 6.45117 34.5879C6.43262 34.5674 6.4069 34.5571 6.37402 34.5571ZM7.15674 34.8364L7.24072 34.4717H7.35645L7.2124 35H7.11475L7.00146 34.6372L6.89014 35H6.79248L6.64795 34.4717H6.76367L6.84912 34.8325L6.95752 34.4717H7.04688L7.15674 34.8364ZM7.58447 34.3433V34.4717H7.67773V34.5596H7.58447V34.8545C7.58447 34.8747 7.58838 34.8893 7.59619 34.8984C7.60433 34.9072 7.61865 34.9116 7.63916 34.9116C7.65283 34.9116 7.66667 34.91 7.68066 34.9067V34.9985C7.65365 35.006 7.6276 35.0098 7.60254 35.0098C7.51139 35.0098 7.46582 34.9595 7.46582 34.8589V34.5596H7.37891V34.4717H7.46582V34.3433H7.58447ZM7.95361 34.8301L8.06104 34.4717H8.1875L7.97754 35.0801C7.94531 35.1689 7.89062 35.2134 7.81348 35.2134C7.79622 35.2134 7.77718 35.2104 7.75635 35.2046V35.1128L7.77881 35.1143C7.80876 35.1143 7.83122 35.1087 7.84619 35.0977C7.86149 35.0869 7.87354 35.0687 7.88232 35.043L7.89941 34.9976L7.71387 34.4717H7.8418L7.95361 34.8301ZM8.71875 34.7412C8.71875 34.8229 8.7002 34.8882 8.66309 34.937C8.62598 34.9855 8.57617 35.0098 8.51367 35.0098C8.45573 35.0098 8.40934 34.9907 8.37451 34.9526V35.2031H8.25586V34.4717H8.36523L8.37012 34.5254C8.40495 34.4831 8.45231 34.4619 8.51221 34.4619C8.57666 34.4619 8.62712 34.486 8.66357 34.5342C8.70036 34.582 8.71875 34.6486 8.71875 34.7339V34.7412ZM8.60059 34.731C8.60059 34.6782 8.59001 34.6364 8.56885 34.6055C8.54801 34.5745 8.51807 34.5591 8.479 34.5591C8.4305 34.5591 8.39567 34.5791 8.37451 34.6191V34.8535C8.396 34.8945 8.43115 34.915 8.47998 34.915C8.51774 34.915 8.5472 34.8999 8.56836 34.8696C8.58984 34.839 8.60059 34.7928 8.60059 34.731ZM9.05225 35.0098C8.97705 35.0098 8.91602 34.9862 8.86914 34.939C8.82259 34.8914 8.79932 34.8283 8.79932 34.7495V34.7349C8.79932 34.6821 8.80941 34.6351 8.82959 34.5938C8.8501 34.5521 8.87874 34.5197 8.91553 34.4966C8.95231 34.4735 8.99333 34.4619 9.03857 34.4619C9.11051 34.4619 9.16602 34.4849 9.20508 34.5308C9.24447 34.5767 9.26416 34.6416 9.26416 34.7256V34.7734H8.91895C8.92253 34.8171 8.93701 34.8516 8.9624 34.877C8.98812 34.9023 9.02035 34.915 9.05908 34.915C9.11344 34.915 9.15771 34.8931 9.19189 34.8491L9.25586 34.9102C9.2347 34.9417 9.20638 34.9663 9.1709 34.9839C9.13574 35.0011 9.09619 35.0098 9.05225 35.0098ZM9.03809 34.5571C9.00553 34.5571 8.97917 34.5685 8.95898 34.5913C8.93913 34.6141 8.92643 34.6458 8.9209 34.6865H9.14697V34.6777C9.14437 34.638 9.13379 34.6081 9.11523 34.5879C9.09668 34.5674 9.07096 34.5571 9.03809 34.5571ZM9.38086 34.5L9.32031 34.4624C9.34961 34.4198 9.36475 34.3747 9.36572 34.3271V34.25H9.46973V34.3174C9.46973 34.3509 9.4611 34.3848 9.44385 34.4189C9.42692 34.4528 9.40592 34.4798 9.38086 34.5ZM9.54395 34.5L9.4834 34.4624C9.5127 34.4198 9.52783 34.3747 9.52881 34.3271V34.25H9.63281V34.3174C9.63281 34.3509 9.62419 34.3848 9.60693 34.4189C9.59001 34.4528 9.56901 34.4798 9.54395 34.5Z" fill="#ECE538"/>
<defs>
<linearGradient id="paint0_linear" x1="8.11983" y1="9.85898" x2="24.916" y2="27.0127" gradientUnits="userSpaceOnUse">
<stop stop-color="#AAAAAA"/>
<stop offset="0.569391" stop-color="#454545"/>
</linearGradient>
<linearGradient id="paint1_linear" x1="52.8802" y1="9.85898" x2="36.084" y2="27.0127" gradientUnits="userSpaceOnUse">
<stop stop-color="#DDDDDD"/>
<stop offset="0.392305" stop-color="#454545"/>
</linearGradient>
</defs>
</svg>
