<svg width="60" height="60" viewBox="0 0 60 60" fill="none" xmlns="http://www.w3.org/2000/svg">
<path fill-rule="evenodd" clip-rule="evenodd" d="M30 60C46.5685 60 60 46.5685 60 30H0C0 46.5685 13.4315 60 30 60Z" fill="#333333"/>
<path fill-rule="evenodd" clip-rule="evenodd" d="M58.2929 40C59.3985 36.8722 60 33.5064 60 30C60 13.4315 46.5685 0 30 0C13.4315 0 0 13.4315 0 30C0 33.5064 0.601542 36.8722 1.70706 40H58.2929Z" fill="#454545"/>
<path fill-rule="evenodd" clip-rule="evenodd" d="M45.011 30.1679V30.332V30.3772C45.011 32.7126 43.9905 34.9314 42.2173 36.4512L40.6656 37.7813V45.2306V45.8195C39.805 46.4899 38.8391 47.1114 37.7686 47.6849V36.505L42.114 33.0877V31.5722L31.8231 32.9181C30.9622 33.0307 30.0904 33.0307 29.2295 32.9181L18.9386 31.5722V33.0877L23.284 36.505V47.6562C22.2056 47.0656 21.2403 46.4246 20.387 45.7318V45.2292V37.7799L18.8696 36.4792C17.1884 35.0382 16.1756 32.9766 16.054 30.7786C17.6685 24.4904 22.5466 18.1041 30.236 15.308C37.6766 18.0136 43.0114 24.0809 45.011 30.1679Z" fill="#F5F5F5"/>
<path d="M23.8637 36.3665L28.9416 35.5513C29.9916 35.3827 31.0618 35.3827 32.1117 35.5513L37.1896 36.3665V46.6982C37.1896 46.9155 37.0493 47.1079 36.8425 47.1743L30.5267 49.2021L24.2109 47.1743C24.004 47.1079 23.8637 46.9155 23.8637 46.6982V36.3665Z" fill="white"/>
<path d="M33.2318 42.4663L34.5825 45.0646L33.1887 49.2732L30.4619 50.714L27.7352 49.2732L26.3414 45.0646L27.6921 42.4663L30.4619 42.4664L33.2318 42.4663Z" fill="#FF4E63" stroke="#454545" stroke-width="0.4"/>
<path d="M27.8615 38.2833L30.4436 37.5167C30.4804 37.5058 30.5196 37.5057 30.5564 37.5164L33.1919 38.2833" stroke="#464646" stroke-width="0.4" stroke-linecap="square"/>
<path d="M27.8615 40.0214L30.4285 39.0277C30.4745 39.0099 30.5255 39.0097 30.5717 39.0272L33.1919 40.0214" stroke="#464646" stroke-width="0.4" stroke-linecap="square"/>
<path d="M19.808 38.2259V45.7258L18 44.5L15.6953 34.562C15.5407 33.8953 15.4626 33.2131 15.4626 32.5288V30.9514H15.6364L16.1556 33.5472C16.2716 34.127 16.5146 34.6739 16.8673 35.1485L17.5 36L19.808 38.2259Z" fill="#F5F5F5"/>
<path d="M17.7222 40.5113H19.4604V42.2494H18.2481L17.7222 40.5113Z" fill="#454545"/>
<path d="M17.2008 36.1659L18.0699 37.0349L19.4604 38.2568V40.1636H17.7223L17.2008 36.1659Z" fill="#454545"/>
<path d="M18.2481 42.597H19.4604V44.3352H18.5913L18.2481 42.597Z" fill="#454545"/>
<path d="M41.3346 38.2259V45.7258L43 44.5L45.4216 34.6137C45.5932 33.9129 45.68 33.194 45.68 32.4725V30.9514H45.5062L45.0102 33.4312C44.8794 34.0852 44.5872 34.6961 44.1601 35.2083L43.5 36L41.3346 38.2259Z" fill="#F5F5F5"/>
<path d="M43.4204 40.5113H41.6823V42.2494H42.8945L43.4204 40.5113Z" fill="#454545"/>
<path d="M43.9419 36.1659L43.0728 37.0349L41.6823 38.2568V40.1636H43.4204L43.9419 36.1659Z" fill="#454545"/>
<path d="M42.8945 42.597H41.6822V44.3352H42.5513L42.8945 42.597Z" fill="#454545"/>
<circle cx="21.0516" cy="28.0516" r="2.05164" fill="#454545"/>
<circle cx="21" cy="28" r="0.9" fill="#FAFF00" stroke="#646464" stroke-width="0.2"/>
<circle cx="39.8927" cy="27.8927" r="1.89266" fill="#454545"/>
<circle cx="39.8927" cy="27.8927" r="0.846329" fill="#FAFF00" stroke="#646464" stroke-width="0.2"/>
<path d="M30.7561 34.8226L30.7561 34.8219L30.7479 34.8228L23.5259 35.5925L19.85 32.6654V32.4569L29.1103 33.6815C30.2006 33.8257 31.3055 33.8199 32.3942 33.6644L40.8424 32.4575L40.8424 32.6672L37.9776 35.2456L30.7561 34.8226Z" fill="#FF4E63" stroke="#C56D6D" stroke-width="0.1"/>
<path d="M20.2264 32.5L27.7264 33.5L23.528 35.1276L20.2264 32.5Z" fill="#454545"/>
<path d="M40.9915 32.3L32.8703 33.4L37.5131 35.0846L40.9915 32.3Z" fill="#454545"/>
<path d="M23.5196 34.8936L20.2183 32.4728L28.0018 33.4225L23.5196 34.8936Z" fill="#ECE538" stroke="#454545" stroke-width="0.1"/>
<path d="M37.4813 34.8789L40.8044 32.3782L33.091 33.5174L37.4813 34.8789Z" fill="#ECE538" stroke="#454545" stroke-width="0.1"/>
<line x1="30.8265" y1="34.1" x2="30.8265" y2="34.6" stroke="#893A3A" stroke-width="0.2" stroke-linecap="round"/>
<path d="M27.1881 22.2L30.4645 22.2L33.7875 22.2L33.7408 24.1579L33.7398 24.2021L33.7575 24.2427L35.4286 28.0706L30.4645 31.3801L25.5003 28.0706L27.1714 24.2427L27.1881 24.2044V24.1626V22.2Z" fill="#FF4E63" stroke="#454545" stroke-width="0.4"/>
<path d="M25.7379 24.0621L24.592 26.9268L6.83223 13.6855L25.7379 22.3437L25.7379 24.0621Z" fill="white" stroke="url(#paint0_linear)" stroke-width="0.4"/>
<path d="M35.2621 24.0621L36.408 26.9268L54.1678 13.6855L35.2621 22.3437L35.2621 24.0621Z" fill="white" stroke="url(#paint1_linear)" stroke-width="0.4"/>
<path d="M34.8 16.6792L33.9375 20.8H27.0625L26.2 16.6792V12.5833L30.6121 12.2008L34.8 12.5824V16.6792Z" fill="white" stroke="#454545" stroke-width="0.4"/>
<path d="M27.6436 16.3491L27.6436 13.5868L30.4687 14.1938L30.5125 14.2032L30.5552 14.1939L33.4281 13.563L33.428 16.33L33.0643 19.5424L28.1739 19.5637L27.6436 16.3491Z" fill="#FF4E63" stroke="#454545" stroke-width="0.4" stroke-linecap="round"/>
<line x1="20.7531" y1="37.6753" x2="22.6077" y2="36.7196" stroke="#454545" stroke-width="0.2" stroke-linecap="round" stroke-dasharray="2.2 0"/>
<line x1="27.0862" y1="27.7779" x2="28.7631" y2="26.9138" stroke="#454545" stroke-width="0.4" stroke-linecap="round"/>
<line x1="0.2" y1="-0.2" x2="2.0864" y2="-0.2" transform="matrix(-0.888931 -0.458041 -0.458041 0.888931 34.0325 28.0473)" stroke="#454545" stroke-width="0.4" stroke-linecap="round"/>
<line x1="0.1" y1="-0.1" x2="2.1864" y2="-0.1" transform="matrix(-0.888931 -0.458041 -0.458041 0.888931 40.34 37.81)" stroke="#454545" stroke-width="0.2" stroke-linecap="round" stroke-dasharray="2.2 0"/>
<path d="M46.139 41.739C46.139 41.7703 46.1427 41.7997 46.15 41.827C46.158 41.8537 46.1693 41.877 46.184 41.897C46.1987 41.9163 46.217 41.9317 46.239 41.943C46.261 41.9543 46.286 41.96 46.314 41.96C46.3393 41.96 46.3627 41.9557 46.384 41.947C46.4053 41.9377 46.424 41.9243 46.44 41.907C46.456 41.8897 46.4683 41.8687 46.477 41.844C46.4863 41.8187 46.491 41.7897 46.491 41.757C46.4923 41.7243 46.4897 41.694 46.483 41.666C46.4763 41.6373 46.4657 41.6123 46.451 41.591C46.4363 41.5697 46.4173 41.553 46.394 41.541C46.3713 41.5283 46.3447 41.522 46.314 41.522C46.2867 41.522 46.262 41.528 46.24 41.54C46.2187 41.5513 46.2003 41.567 46.185 41.587C46.1703 41.6063 46.159 41.6293 46.151 41.656C46.143 41.682 46.139 41.7097 46.139 41.739ZM46.139 42H46.079V41.28H46.139V41.565C46.1583 41.533 46.1847 41.509 46.218 41.493C46.252 41.4763 46.2873 41.468 46.324 41.468C46.3633 41.468 46.3973 41.4757 46.426 41.491C46.4553 41.5057 46.4793 41.5257 46.498 41.551C46.5173 41.5757 46.5317 41.6047 46.541 41.638C46.5503 41.6713 46.555 41.706 46.555 41.742C46.555 41.78 46.5507 41.8157 46.542 41.849C46.5333 41.8823 46.5193 41.9113 46.5 41.936C46.4813 41.96 46.4573 41.979 46.428 41.993C46.3987 42.007 46.363 42.014 46.321 42.014C46.3043 42.014 46.2873 42.0117 46.27 42.007C46.2527 42.0023 46.2357 41.9957 46.219 41.987C46.203 41.9783 46.188 41.9677 46.174 41.955C46.1607 41.9417 46.1497 41.9263 46.141 41.909H46.139V42ZM46.6793 42.141C46.6873 42.1423 46.6953 42.1437 46.7033 42.145C46.712 42.1463 46.7207 42.147 46.7293 42.147C46.746 42.147 46.7597 42.1417 46.7703 42.131C46.781 42.1203 46.7897 42.1073 46.7963 42.092C46.8037 42.0773 46.8097 42.0617 46.8143 42.045C46.819 42.029 46.8243 42.0153 46.8303 42.004L46.6293 41.482H46.6963L46.8623 41.927L47.0283 41.482H47.0933L46.9003 41.993C46.8883 42.0257 46.8767 42.055 46.8653 42.081C46.8547 42.107 46.843 42.129 46.8303 42.147C46.8183 42.1657 46.8047 42.1797 46.7893 42.189C46.7747 42.199 46.757 42.204 46.7363 42.204C46.7257 42.204 46.7153 42.2033 46.7053 42.202C46.696 42.2007 46.6873 42.199 46.6793 42.197V42.141ZM47.2133 42V41.912H47.2863V42H47.2133ZM47.2133 41.596V41.508H47.2863V41.596H47.2133ZM46.085 44V43.28H46.153V43.653L46.522 43.28H46.599L46.315 43.567L46.649 44H46.566L46.266 43.609L46.153 43.722V44H46.085ZM47.114 43.705C47.114 43.6797 47.1103 43.656 47.103 43.634C47.0963 43.6113 47.086 43.592 47.072 43.576C47.0587 43.5593 47.0417 43.5463 47.021 43.537C47.0003 43.527 46.9767 43.522 46.95 43.522C46.9233 43.522 46.8997 43.527 46.879 43.537C46.859 43.547 46.8417 43.5603 46.827 43.577C46.813 43.5937 46.8017 43.613 46.793 43.635C46.7843 43.657 46.7787 43.6803 46.776 43.705H47.114ZM46.776 43.755C46.776 43.783 46.7797 43.8097 46.787 43.835C46.7943 43.8597 46.805 43.8813 46.819 43.9C46.8337 43.918 46.852 43.9327 46.874 43.944C46.896 43.9547 46.9213 43.96 46.95 43.96C46.9893 43.96 47.023 43.9497 47.051 43.929C47.079 43.9083 47.0977 43.879 47.107 43.841H47.174C47.1667 43.8657 47.157 43.8887 47.145 43.91C47.133 43.9307 47.118 43.949 47.1 43.965C47.082 43.9803 47.0607 43.9923 47.036 44.001C47.0113 44.0097 46.9827 44.014 46.95 44.014C46.9087 44.014 46.873 44.007 46.843 43.993C46.813 43.979 46.7883 43.96 46.769 43.936C46.7497 43.9113 46.7353 43.8827 46.726 43.85C46.7167 43.8167 46.712 43.781 46.712 43.743C46.712 43.705 46.7173 43.6693 46.728 43.636C46.7393 43.6027 46.755 43.5737 46.775 43.549C46.7957 43.5237 46.8207 43.504 46.85 43.49C46.8793 43.4753 46.9127 43.468 46.95 43.468C47.0213 43.468 47.0773 43.4927 47.118 43.542C47.1587 43.5907 47.1787 43.6617 47.178 43.755H46.776ZM47.2397 43.482H47.3047L47.4727 43.926L47.6407 43.482H47.7057L47.5047 44H47.4377L47.2397 43.482ZM47.7861 44V43.482H47.8461V44H47.7861ZM47.7831 43.369V43.28H47.8491V43.369H47.7831ZM48.0588 44H47.9988V43.482H48.0588V43.554C48.0828 43.5287 48.1074 43.508 48.1328 43.492C48.1588 43.476 48.1898 43.468 48.2258 43.468C48.2578 43.468 48.2874 43.4737 48.3148 43.485C48.3421 43.4957 48.3651 43.5147 48.3838 43.542C48.3964 43.5607 48.4038 43.58 48.4058 43.6C48.4084 43.6193 48.4098 43.6397 48.4098 43.661V44H48.3498V43.662C48.3498 43.6153 48.3394 43.5803 48.3188 43.557C48.2981 43.5337 48.2638 43.522 48.2158 43.522C48.1971 43.522 48.1801 43.525 48.1648 43.531C48.1494 43.5363 48.1354 43.5437 48.1228 43.553C48.1108 43.5623 48.1004 43.573 48.0918 43.585C48.0831 43.597 48.0764 43.6097 48.0718 43.623C48.0658 43.6397 48.0621 43.6557 48.0608 43.671C48.0594 43.6863 48.0588 43.703 48.0588 43.721V44ZM48.7767 43.28H49.3007V43.338H49.0727V44H49.0047V43.338H48.7767V43.28ZM49.4831 44.014C49.4497 44.0133 49.4184 44.0073 49.3891 43.996C49.3604 43.9847 49.3351 43.9677 49.3131 43.945C49.2917 43.9223 49.2747 43.894 49.2621 43.86C49.2494 43.826 49.2431 43.7863 49.2431 43.741C49.2431 43.703 49.2481 43.6677 49.2581 43.635C49.2681 43.6017 49.2831 43.5727 49.3031 43.548C49.3231 43.5233 49.3481 43.504 49.3781 43.49C49.4081 43.4753 49.4431 43.468 49.4831 43.468C49.5237 43.468 49.5591 43.4753 49.5891 43.49C49.6191 43.504 49.6441 43.5233 49.6641 43.548C49.6841 43.572 49.6987 43.6007 49.7081 43.634C49.7181 43.6673 49.7231 43.703 49.7231 43.741C49.7231 43.7823 49.7174 43.8197 49.7061 43.853C49.6947 43.8863 49.6784 43.915 49.6571 43.939C49.6364 43.963 49.6111 43.9817 49.5811 43.995C49.5517 44.0077 49.5191 44.014 49.4831 44.014ZM49.6591 43.741C49.6591 43.7103 49.6557 43.6817 49.6491 43.655C49.6424 43.6283 49.6321 43.6053 49.6181 43.586C49.6041 43.566 49.5861 43.5503 49.5641 43.539C49.5421 43.5277 49.5151 43.522 49.4831 43.522C49.4517 43.522 49.4247 43.5283 49.4021 43.541C49.3801 43.553 49.3621 43.5693 49.3481 43.59C49.3341 43.61 49.3237 43.6333 49.3171 43.66C49.3104 43.686 49.3071 43.713 49.3071 43.741C49.3071 43.773 49.3107 43.8027 49.3181 43.83C49.3261 43.8567 49.3374 43.8797 49.3521 43.899C49.3667 43.9183 49.3851 43.9333 49.4071 43.944C49.4291 43.9547 49.4544 43.96 49.4831 43.96C49.5144 43.96 49.5411 43.954 49.5631 43.942C49.5857 43.9293 49.6041 43.9127 49.6181 43.892C49.6321 43.8713 49.6424 43.848 49.6491 43.822C49.6557 43.796 49.6591 43.769 49.6591 43.741ZM50.2707 43.92L50.4067 43.482H50.4677L50.2997 44H50.2357L50.1227 43.565H50.1207L50.0057 44H49.9337L49.7757 43.482H49.8357L49.9697 43.924L50.0897 43.482H50.1567L50.2707 43.92ZM50.6144 44H50.5544V43.482H50.6144V43.554C50.6384 43.5287 50.6631 43.508 50.6884 43.492C50.7144 43.476 50.7454 43.468 50.7814 43.468C50.8134 43.468 50.8431 43.4737 50.8704 43.485C50.8978 43.4957 50.9208 43.5147 50.9394 43.542C50.9521 43.5607 50.9594 43.58 50.9614 43.6C50.9641 43.6193 50.9654 43.6397 50.9654 43.661V44H50.9054V43.662C50.9054 43.6153 50.8951 43.5803 50.8744 43.557C50.8538 43.5337 50.8194 43.522 50.7714 43.522C50.7528 43.522 50.7358 43.525 50.7204 43.531C50.7051 43.5363 50.6911 43.5437 50.6784 43.553C50.6664 43.5623 50.6561 43.573 50.6474 43.585C50.6388 43.597 50.6321 43.6097 50.6274 43.623C50.6214 43.6397 50.6178 43.6557 50.6164 43.671C50.6151 43.6863 50.6144 43.703 50.6144 43.721V44ZM51.4851 43.705C51.4851 43.6797 51.4814 43.656 51.4741 43.634C51.4674 43.6113 51.4571 43.592 51.4431 43.576C51.4298 43.5593 51.4128 43.5463 51.3921 43.537C51.3714 43.527 51.3478 43.522 51.3211 43.522C51.2944 43.522 51.2708 43.527 51.2501 43.537C51.2301 43.547 51.2128 43.5603 51.1981 43.577C51.1841 43.5937 51.1728 43.613 51.1641 43.635C51.1554 43.657 51.1498 43.6803 51.1471 43.705H51.4851ZM51.1471 43.755C51.1471 43.783 51.1508 43.8097 51.1581 43.835C51.1654 43.8597 51.1761 43.8813 51.1901 43.9C51.2048 43.918 51.2231 43.9327 51.2451 43.944C51.2671 43.9547 51.2924 43.96 51.3211 43.96C51.3604 43.96 51.3941 43.9497 51.4221 43.929C51.4501 43.9083 51.4688 43.879 51.4781 43.841H51.5451C51.5378 43.8657 51.5281 43.8887 51.5161 43.91C51.5041 43.9307 51.4891 43.949 51.4711 43.965C51.4531 43.9803 51.4318 43.9923 51.4071 44.001C51.3824 44.0097 51.3538 44.014 51.3211 44.014C51.2798 44.014 51.2441 44.007 51.2141 43.993C51.1841 43.979 51.1594 43.96 51.1401 43.936C51.1208 43.9113 51.1064 43.8827 51.0971 43.85C51.0878 43.8167 51.0831 43.781 51.0831 43.743C51.0831 43.705 51.0884 43.6693 51.0991 43.636C51.1104 43.6027 51.1261 43.5737 51.1461 43.549C51.1668 43.5237 51.1918 43.504 51.2211 43.49C51.2504 43.4753 51.2838 43.468 51.3211 43.468C51.3924 43.468 51.4484 43.4927 51.4891 43.542C51.5298 43.5907 51.5498 43.6617 51.5491 43.755H51.1471ZM51.7288 44H51.6688V43.482H51.7288V43.579H51.7308C51.7474 43.5377 51.7688 43.509 51.7948 43.493C51.8214 43.4763 51.8564 43.468 51.8998 43.468V43.533C51.8658 43.5323 51.8378 43.5377 51.8158 43.549C51.7938 43.5603 51.7761 43.5757 51.7628 43.595C51.7501 43.6143 51.7411 43.6373 51.7358 43.664C51.7311 43.69 51.7288 43.7173 51.7288 43.746V44Z" fill="#646464"/>
<path d="M3.275 30.592H3.34C3.412 30.592 3.448 30.5607 3.448 30.498C3.448 30.4353 3.412 30.404 3.34 30.404H3.275V30.592ZM3.275 31H3.079V30.246H3.391C3.47567 30.246 3.54033 30.268 3.585 30.312C3.63033 30.356 3.653 30.418 3.653 30.498C3.653 30.578 3.63033 30.64 3.585 30.684C3.54033 30.728 3.47567 30.75 3.391 30.75H3.275V31ZM3.73973 30.487H3.92073V30.571C3.94007 30.5403 3.96373 30.517 3.99173 30.501C4.01973 30.4843 4.0524 30.476 4.08973 30.476C4.0944 30.476 4.0994 30.476 4.10473 30.476C4.11073 30.476 4.1174 30.4767 4.12473 30.478V30.651C4.10073 30.639 4.07473 30.633 4.04673 30.633C4.00473 30.633 3.97307 30.6457 3.95173 30.671C3.93107 30.6957 3.92073 30.732 3.92073 30.78V31H3.73973V30.487ZM4.38046 30.741C4.38046 30.7583 4.38346 30.7743 4.38946 30.789C4.39613 30.803 4.40446 30.8153 4.41446 30.826C4.42513 30.8367 4.43746 30.845 4.45146 30.851C4.46613 30.857 4.48146 30.86 4.49746 30.86C4.51346 30.86 4.52846 30.857 4.54246 30.851C4.55713 30.845 4.56946 30.8367 4.57946 30.826C4.59013 30.8153 4.59846 30.803 4.60446 30.789C4.61113 30.7743 4.61446 30.7587 4.61446 30.742C4.61446 30.726 4.61113 30.711 4.60446 30.697C4.59846 30.6823 4.59013 30.6697 4.57946 30.659C4.56946 30.6483 4.55713 30.64 4.54246 30.634C4.52846 30.628 4.51346 30.625 4.49746 30.625C4.48146 30.625 4.46613 30.628 4.45146 30.634C4.43746 30.64 4.42513 30.6483 4.41446 30.659C4.40446 30.6697 4.39613 30.682 4.38946 30.696C4.38346 30.71 4.38046 30.725 4.38046 30.741ZM4.18946 30.739C4.18946 30.701 4.19713 30.6657 4.21246 30.633C4.22779 30.5997 4.24913 30.571 4.27646 30.547C4.30379 30.5223 4.33613 30.503 4.37346 30.489C4.41146 30.475 4.45279 30.468 4.49746 30.468C4.54146 30.468 4.58213 30.475 4.61946 30.489C4.65746 30.5023 4.69013 30.5213 4.71746 30.546C4.74546 30.57 4.76713 30.599 4.78246 30.633C4.79779 30.6663 4.80546 30.7033 4.80546 30.744C4.80546 30.7847 4.79746 30.822 4.78146 30.856C4.76613 30.8893 4.74479 30.9183 4.71746 30.943C4.69013 30.967 4.65713 30.9857 4.61846 30.999C4.58046 31.0123 4.53913 31.019 4.49446 31.019C4.45046 31.019 4.40979 31.0123 4.37246 30.999C4.33513 30.9857 4.30279 30.9667 4.27546 30.942C4.24879 30.9173 4.22779 30.888 4.21246 30.854C4.19713 30.8193 4.18946 30.781 4.18946 30.739ZM5.11459 30.638V31H4.93359V30.638H4.87359V30.487H4.93359V30.333H5.11459V30.487H5.21759V30.638H5.11459ZM5.46542 30.741C5.46542 30.7583 5.46842 30.7743 5.47442 30.789C5.48109 30.803 5.48942 30.8153 5.49942 30.826C5.51009 30.8367 5.52242 30.845 5.53642 30.851C5.55109 30.857 5.56642 30.86 5.58242 30.86C5.59842 30.86 5.61342 30.857 5.62742 30.851C5.64209 30.845 5.65442 30.8367 5.66442 30.826C5.67509 30.8153 5.68342 30.803 5.68942 30.789C5.69609 30.7743 5.69942 30.7587 5.69942 30.742C5.69942 30.726 5.69609 30.711 5.68942 30.697C5.68342 30.6823 5.67509 30.6697 5.66442 30.659C5.65442 30.6483 5.64209 30.64 5.62742 30.634C5.61342 30.628 5.59842 30.625 5.58242 30.625C5.56642 30.625 5.55109 30.628 5.53642 30.634C5.52242 30.64 5.51009 30.6483 5.49942 30.659C5.48942 30.6697 5.48109 30.682 5.47442 30.696C5.46842 30.71 5.46542 30.725 5.46542 30.741ZM5.27442 30.739C5.27442 30.701 5.28209 30.6657 5.29742 30.633C5.31276 30.5997 5.33409 30.571 5.36142 30.547C5.38876 30.5223 5.42109 30.503 5.45842 30.489C5.49642 30.475 5.53776 30.468 5.58242 30.468C5.62642 30.468 5.66709 30.475 5.70442 30.489C5.74242 30.5023 5.77509 30.5213 5.80242 30.546C5.83042 30.57 5.85209 30.599 5.86742 30.633C5.88276 30.6663 5.89042 30.7033 5.89042 30.744C5.89042 30.7847 5.88242 30.822 5.86642 30.856C5.85109 30.8893 5.82976 30.9183 5.80242 30.943C5.77509 30.967 5.74209 30.9857 5.70342 30.999C5.66542 31.0123 5.62409 31.019 5.57942 31.019C5.53542 31.019 5.49476 31.0123 5.45742 30.999C5.42009 30.9857 5.38776 30.9667 5.36042 30.942C5.33376 30.9173 5.31276 30.888 5.29742 30.854C5.28209 30.8193 5.27442 30.781 5.27442 30.739ZM6.19955 30.638V31H6.01855V30.638H5.95855V30.487H6.01855V30.333H6.19955V30.487H6.30255V30.638H6.19955ZM6.55659 30.93L6.30859 30.487H6.51859L6.65559 30.75L6.78859 30.487H6.99659L6.58459 31.256H6.38159L6.55659 30.93ZM7.46807 30.745C7.46807 30.729 7.46507 30.714 7.45907 30.7C7.45374 30.6853 7.44574 30.6727 7.43507 30.662C7.4244 30.6513 7.41174 30.643 7.39707 30.637C7.38307 30.6303 7.36774 30.627 7.35107 30.627C7.33507 30.627 7.32007 30.63 7.30607 30.636C7.29207 30.642 7.27974 30.6503 7.26907 30.661C7.25907 30.6717 7.25074 30.6843 7.24407 30.699C7.23807 30.713 7.23507 30.728 7.23507 30.744C7.23507 30.76 7.23807 30.775 7.24407 30.789C7.25007 30.803 7.2584 30.8153 7.26907 30.826C7.27974 30.836 7.29207 30.8443 7.30607 30.851C7.32074 30.857 7.33607 30.86 7.35207 30.86C7.36807 30.86 7.38307 30.857 7.39707 30.851C7.41107 30.845 7.42307 30.8367 7.43307 30.826C7.44374 30.8153 7.45207 30.803 7.45807 30.789C7.46474 30.775 7.46807 30.7603 7.46807 30.745ZM7.24007 31.256H7.05907V30.487H7.24007V30.544C7.27874 30.4953 7.3314 30.471 7.39807 30.471C7.43474 30.471 7.46874 30.4783 7.50007 30.493C7.53207 30.507 7.55974 30.5263 7.58307 30.551C7.6064 30.5757 7.6244 30.6047 7.63707 30.638C7.6504 30.6713 7.65707 30.707 7.65707 30.745C7.65707 30.783 7.6504 30.8183 7.63707 30.851C7.6244 30.8837 7.6064 30.9123 7.58307 30.937C7.5604 30.9617 7.5334 30.981 7.50207 30.995C7.47074 31.009 7.43674 31.016 7.40007 31.016C7.33607 31.016 7.28274 30.994 7.24007 30.95V31.256ZM8.13524 30.669C8.12924 30.6437 8.11691 30.6233 8.09824 30.608C8.07958 30.5927 8.05691 30.585 8.03024 30.585C8.00224 30.585 7.97924 30.5923 7.96124 30.607C7.94391 30.6217 7.93291 30.6423 7.92824 30.669H8.13524ZM7.92324 30.774C7.92324 30.852 7.95991 30.891 8.03324 30.891C8.07258 30.891 8.10224 30.875 8.12224 30.843H8.29724C8.26191 30.9603 8.17358 31.019 8.03224 31.019C7.98891 31.019 7.94924 31.0127 7.91324 31C7.87724 30.9867 7.84624 30.968 7.82024 30.944C7.79491 30.92 7.77524 30.8913 7.76124 30.858C7.74724 30.8247 7.74024 30.7873 7.74024 30.746C7.74024 30.7033 7.74691 30.665 7.76024 30.631C7.77358 30.5963 7.79258 30.567 7.81724 30.543C7.84191 30.519 7.87158 30.5007 7.90624 30.488C7.94158 30.4747 7.98124 30.468 8.02524 30.468C8.06858 30.468 8.10758 30.4747 8.14224 30.488C8.17691 30.5007 8.20624 30.5193 8.23024 30.544C8.25424 30.5687 8.27258 30.599 8.28524 30.635C8.29791 30.6703 8.30424 30.7103 8.30424 30.755V30.774H7.92324ZM8.96055 30.583H8.99755C9.03621 30.583 9.06588 30.575 9.08655 30.559C9.10721 30.543 9.11755 30.52 9.11755 30.49C9.11755 30.46 9.10721 30.437 9.08655 30.421C9.06588 30.405 9.03621 30.397 8.99755 30.397H8.96055V30.583ZM9.39155 31H9.14755L8.96055 30.71V31H8.76455V30.246H9.06955C9.11155 30.246 9.14821 30.2523 9.17955 30.265C9.21088 30.277 9.23655 30.2937 9.25655 30.315C9.27721 30.3363 9.29255 30.361 9.30255 30.389C9.31321 30.417 9.31855 30.447 9.31855 30.479C9.31855 30.5363 9.30455 30.583 9.27655 30.619C9.24921 30.6543 9.20855 30.6783 9.15455 30.691L9.39155 31ZM9.68953 30.598L9.45453 30.246H9.69653L9.79853 30.441L9.92453 30.246H10.1665L9.91753 30.598L10.1985 31H9.95953L9.80853 30.754L9.63153 31H9.39453L9.68953 30.598ZM10.2119 30.657H10.4989V30.808H10.2119V30.657ZM10.894 30.412H10.579V30.246H11.198L10.766 31H10.55L10.894 30.412ZM11.4287 30.772C11.4287 30.7847 11.431 30.7967 11.4357 30.808C11.4404 30.8193 11.4467 30.8293 11.4547 30.838C11.4627 30.846 11.472 30.8527 11.4827 30.858C11.494 30.8627 11.506 30.865 11.5187 30.865C11.5307 30.865 11.542 30.8627 11.5527 30.858C11.564 30.8527 11.5737 30.846 11.5817 30.838C11.5904 30.8293 11.597 30.8197 11.6017 30.809C11.6064 30.7977 11.6087 30.7857 11.6087 30.773C11.6087 30.7477 11.5997 30.7263 11.5817 30.709C11.5644 30.691 11.5434 30.682 11.5187 30.682C11.4934 30.682 11.472 30.691 11.4547 30.709C11.4374 30.7263 11.4287 30.7473 11.4287 30.772ZM11.4357 30.438C11.4357 30.4613 11.4437 30.4813 11.4597 30.498C11.4757 30.514 11.4954 30.522 11.5187 30.522C11.5307 30.522 11.5417 30.5197 11.5517 30.515C11.5617 30.5103 11.5704 30.5043 11.5777 30.497C11.585 30.489 11.5907 30.48 11.5947 30.47C11.5994 30.46 11.6017 30.4497 11.6017 30.439C11.6017 30.4163 11.5937 30.397 11.5777 30.381C11.5617 30.3643 11.542 30.356 11.5187 30.356C11.4954 30.356 11.4757 30.364 11.4597 30.38C11.4437 30.396 11.4357 30.4153 11.4357 30.438ZM11.3797 30.602C11.301 30.5693 11.2617 30.514 11.2617 30.436C11.2617 30.404 11.268 30.3753 11.2807 30.35C11.2934 30.324 11.3107 30.3017 11.3327 30.283C11.3554 30.2643 11.3824 30.25 11.4137 30.24C11.4457 30.23 11.4807 30.225 11.5187 30.225C11.5567 30.225 11.5914 30.23 11.6227 30.24C11.6547 30.25 11.6817 30.2643 11.7037 30.283C11.7264 30.3017 11.744 30.324 11.7567 30.35C11.7694 30.3753 11.7757 30.404 11.7757 30.436C11.7757 30.456 11.7737 30.474 11.7697 30.49C11.7657 30.5053 11.7587 30.5197 11.7487 30.533C11.7394 30.5457 11.7267 30.5577 11.7107 30.569C11.6954 30.5803 11.676 30.5913 11.6527 30.602C11.7554 30.642 11.8067 30.7067 11.8067 30.796C11.8067 30.828 11.7994 30.8577 11.7847 30.885C11.7707 30.9123 11.7507 30.936 11.7247 30.956C11.6994 30.976 11.669 30.9917 11.6337 31.003C11.599 31.0143 11.5607 31.02 11.5187 31.02C11.478 31.02 11.44 31.0143 11.4047 31.003C11.37 30.9923 11.3397 30.977 11.3137 30.957C11.2877 30.937 11.2674 30.9133 11.2527 30.886C11.238 30.8587 11.2307 30.8287 11.2307 30.796C11.2307 30.7047 11.2804 30.64 11.3797 30.602ZM11.8584 30.657H12.1454V30.808H11.8584V30.657ZM12.7805 31H12.1735L12.3605 30.806C12.4098 30.7547 12.4485 30.7113 12.4765 30.676C12.5045 30.64 12.5252 30.6097 12.5385 30.585C12.5525 30.5603 12.5612 30.5403 12.5645 30.525C12.5678 30.5097 12.5695 30.4967 12.5695 30.486C12.5695 30.4747 12.5675 30.4637 12.5635 30.453C12.5602 30.4423 12.5548 30.433 12.5475 30.425C12.5402 30.4163 12.5312 30.4097 12.5205 30.405C12.5105 30.3997 12.4985 30.397 12.4845 30.397C12.4578 30.397 12.4368 30.4057 12.4215 30.423C12.4068 30.4403 12.3995 30.462 12.3995 30.488C12.3995 30.4953 12.4005 30.506 12.4025 30.52H12.1885C12.1885 30.476 12.1955 30.436 12.2095 30.4C12.2242 30.364 12.2445 30.333 12.2705 30.307C12.2965 30.281 12.3272 30.261 12.3625 30.247C12.3985 30.233 12.4378 30.226 12.4805 30.226C12.5225 30.226 12.5612 30.2327 12.5965 30.246C12.6325 30.2593 12.6635 30.278 12.6895 30.302C12.7155 30.326 12.7358 30.3547 12.7505 30.388C12.7652 30.4207 12.7725 30.4563 12.7725 30.495C12.7725 30.5363 12.7635 30.5747 12.7455 30.61C12.7282 30.6447 12.7002 30.6803 12.6615 30.717L12.5365 30.834H12.7805V31Z" fill="white"/>
<path d="M3.489 32.72L3.401 32.469L3.313 32.72H3.489ZM3.541 32.869H3.261L3.216 33H3.007L3.294 32.246H3.508L3.795 33H3.586L3.541 32.869ZM3.8745 32.487H4.0555V32.55C4.10483 32.5027 4.16017 32.479 4.2215 32.479C4.2975 32.479 4.3555 32.511 4.3955 32.575C4.43617 32.5103 4.49417 32.478 4.5695 32.478C4.5935 32.478 4.61617 32.4817 4.6375 32.489C4.65883 32.4957 4.67717 32.5067 4.6925 32.522C4.70783 32.5367 4.71983 32.556 4.7285 32.58C4.73783 32.604 4.7425 32.633 4.7425 32.667V33H4.5615V32.747C4.5615 32.721 4.5595 32.6997 4.5555 32.683C4.55217 32.6663 4.54683 32.6533 4.5395 32.644C4.53283 32.6347 4.52483 32.6283 4.5155 32.625C4.50617 32.6217 4.49617 32.62 4.4855 32.62C4.4275 32.62 4.3985 32.6623 4.3985 32.747V33H4.2175V32.747C4.2175 32.721 4.21583 32.6997 4.2125 32.683C4.20917 32.6657 4.20417 32.652 4.1975 32.642C4.1915 32.632 4.1835 32.6253 4.1735 32.622C4.1635 32.618 4.15183 32.616 4.1385 32.616C4.12717 32.616 4.1165 32.6177 4.1065 32.621C4.0965 32.6243 4.0875 32.631 4.0795 32.641C4.07217 32.6503 4.06617 32.6637 4.0615 32.681C4.0575 32.6977 4.0555 32.7197 4.0555 32.747V33H3.8745V32.487ZM5.04769 32.487V32.776C5.04769 32.8393 5.07835 32.871 5.13969 32.871C5.20102 32.871 5.23169 32.8393 5.23169 32.776V32.487H5.41269V32.811C5.41269 32.8803 5.38969 32.9323 5.34369 32.967C5.29835 33.0017 5.23035 33.019 5.13969 33.019C5.04902 33.019 4.98069 33.0017 4.93469 32.967C4.88935 32.9323 4.86669 32.8803 4.86669 32.811V32.487H5.04769ZM5.53563 32.487H5.71663V32.571C5.73597 32.5403 5.75963 32.517 5.78763 32.501C5.81563 32.4843 5.8483 32.476 5.88563 32.476C5.8903 32.476 5.8953 32.476 5.90063 32.476C5.90663 32.476 5.9133 32.4767 5.92063 32.478V32.651C5.89663 32.639 5.87063 32.633 5.84263 32.633C5.80063 32.633 5.76897 32.6457 5.74763 32.671C5.72697 32.6957 5.71663 32.732 5.71663 32.78V33H5.53563V32.487ZM6.17636 32.741C6.17636 32.7583 6.17936 32.7743 6.18536 32.789C6.19203 32.803 6.20036 32.8153 6.21036 32.826C6.22103 32.8367 6.23336 32.845 6.24736 32.851C6.26203 32.857 6.27736 32.86 6.29336 32.86C6.30936 32.86 6.32436 32.857 6.33836 32.851C6.35303 32.845 6.36536 32.8367 6.37536 32.826C6.38603 32.8153 6.39436 32.803 6.40036 32.789C6.40703 32.7743 6.41036 32.7587 6.41036 32.742C6.41036 32.726 6.40703 32.711 6.40036 32.697C6.39436 32.6823 6.38603 32.6697 6.37536 32.659C6.36536 32.6483 6.35303 32.64 6.33836 32.634C6.32436 32.628 6.30936 32.625 6.29336 32.625C6.27736 32.625 6.26203 32.628 6.24736 32.634C6.23336 32.64 6.22103 32.6483 6.21036 32.659C6.20036 32.6697 6.19203 32.682 6.18536 32.696C6.17936 32.71 6.17636 32.725 6.17636 32.741ZM5.98536 32.739C5.98536 32.701 5.99303 32.6657 6.00836 32.633C6.02369 32.5997 6.04503 32.571 6.07236 32.547C6.09969 32.5223 6.13203 32.503 6.16936 32.489C6.20736 32.475 6.24869 32.468 6.29336 32.468C6.33736 32.468 6.37803 32.475 6.41536 32.489C6.45336 32.5023 6.48603 32.5213 6.51336 32.546C6.54136 32.57 6.56303 32.599 6.57836 32.633C6.59369 32.6663 6.60136 32.7033 6.60136 32.744C6.60136 32.7847 6.59336 32.822 6.57736 32.856C6.56203 32.8893 6.54069 32.9183 6.51336 32.943C6.48603 32.967 6.45303 32.9857 6.41436 32.999C6.37636 33.0123 6.33503 33.019 6.29036 33.019C6.24636 33.019 6.20569 33.0123 6.16836 32.999C6.13103 32.9857 6.09869 32.9667 6.07136 32.942C6.04469 32.9173 6.02369 32.888 6.00836 32.854C5.99303 32.8193 5.98536 32.781 5.98536 32.739ZM7.2584 32.583H7.2954C7.33407 32.583 7.36373 32.575 7.3844 32.559C7.40507 32.543 7.4154 32.52 7.4154 32.49C7.4154 32.46 7.40507 32.437 7.3844 32.421C7.36373 32.405 7.33407 32.397 7.2954 32.397H7.2584V32.583ZM7.6894 33H7.4454L7.2584 32.71V33H7.0624V32.246H7.3674C7.4094 32.246 7.44607 32.2523 7.4774 32.265C7.50873 32.277 7.5344 32.2937 7.5544 32.315C7.57507 32.3363 7.5904 32.361 7.6004 32.389C7.61107 32.417 7.6164 32.447 7.6164 32.479C7.6164 32.5363 7.6024 32.583 7.5744 32.619C7.54707 32.6543 7.5064 32.6783 7.4524 32.691L7.6894 33ZM7.91066 32.742C7.91066 32.7587 7.91366 32.7743 7.91966 32.789C7.92566 32.803 7.93366 32.8153 7.94366 32.826C7.95433 32.8367 7.96666 32.845 7.98066 32.851C7.99533 32.857 8.011 32.86 8.02766 32.86C8.04366 32.86 8.05866 32.857 8.07266 32.851C8.08733 32.845 8.09966 32.8367 8.10966 32.826C8.12033 32.8153 8.12866 32.803 8.13466 32.789C8.14133 32.775 8.14466 32.76 8.14466 32.744C8.14466 32.728 8.14133 32.713 8.13466 32.699C8.12866 32.6843 8.12033 32.6717 8.10966 32.661C8.09966 32.6503 8.08733 32.642 8.07266 32.636C8.05866 32.63 8.04366 32.627 8.02766 32.627C8.011 32.627 7.99533 32.63 7.98066 32.636C7.96666 32.642 7.95433 32.6503 7.94366 32.661C7.93366 32.6717 7.92566 32.684 7.91966 32.698C7.91366 32.7113 7.91066 32.726 7.91066 32.742ZM8.13866 32.487H8.32066V33H8.13866V32.943C8.1 32.9917 8.04766 33.016 7.98166 33.016C7.94433 33.016 7.91 33.0093 7.87866 32.996C7.84733 32.982 7.82 32.9627 7.79666 32.938C7.77333 32.9133 7.755 32.8843 7.74166 32.851C7.729 32.8177 7.72266 32.7813 7.72266 32.742C7.72266 32.7053 7.729 32.6707 7.74166 32.638C7.75433 32.6047 7.772 32.5757 7.79466 32.551C7.81733 32.5263 7.84433 32.507 7.87566 32.493C7.907 32.4783 7.94166 32.471 7.97966 32.471C8.04366 32.471 8.09666 32.4933 8.13866 32.538V32.487ZM8.6396 32.93L8.3916 32.487H8.6016L8.7386 32.75L8.8716 32.487H9.0796L8.6676 33.256H8.4646L8.6396 32.93Z" fill="white"/>
<path d="M3.223 34.578H3.053L3.237 34.246H3.353L3.223 34.578ZM3.479 34.578H3.309L3.493 34.246H3.609L3.479 34.578ZM3.72646 35V34.246H3.92246L4.28446 34.707V34.246H4.47946V35H4.28446L3.92246 34.539V35H3.72646ZM5.00731 34.669C5.00131 34.6437 4.98898 34.6233 4.97031 34.608C4.95165 34.5927 4.92898 34.585 4.90231 34.585C4.87431 34.585 4.85131 34.5923 4.83331 34.607C4.81598 34.6217 4.80498 34.6423 4.80031 34.669H5.00731ZM4.79531 34.774C4.79531 34.852 4.83198 34.891 4.90531 34.891C4.94465 34.891 4.97431 34.875 4.99431 34.843H5.16931C5.13398 34.9603 5.04565 35.019 4.90431 35.019C4.86098 35.019 4.82131 35.0127 4.78531 35C4.74931 34.9867 4.71831 34.968 4.69231 34.944C4.66698 34.92 4.64731 34.8913 4.63331 34.858C4.61931 34.8247 4.61231 34.7873 4.61231 34.746C4.61231 34.7033 4.61898 34.665 4.63231 34.631C4.64565 34.5963 4.66465 34.567 4.68931 34.543C4.71398 34.519 4.74365 34.5007 4.77831 34.488C4.81365 34.4747 4.85331 34.468 4.89731 34.468C4.94065 34.468 4.97965 34.4747 5.01431 34.488C5.04898 34.5007 5.07831 34.5193 5.10231 34.544C5.12631 34.5687 5.14465 34.599 5.15731 34.635C5.16998 34.6703 5.17631 34.7103 5.17631 34.755V34.774H4.79531ZM5.39536 34.487L5.51836 34.757L5.64636 34.487H5.76036L5.88836 34.765L6.01736 34.487H6.21836L5.95036 35H5.82936L5.70136 34.719L5.57936 35H5.45636L5.19336 34.487H5.39536ZM6.48275 34.638V35H6.30175V34.638H6.24175V34.487H6.30175V34.333H6.48275V34.487H6.58575V34.638H6.48275ZM6.8398 34.93L6.5918 34.487H6.8018L6.9388 34.75L7.0718 34.487H7.2798L6.8678 35.256H6.6648L6.8398 34.93ZM7.75127 34.745C7.75127 34.729 7.74827 34.714 7.74227 34.7C7.73694 34.6853 7.72894 34.6727 7.71827 34.662C7.70761 34.6513 7.69494 34.643 7.68027 34.637C7.66627 34.6303 7.65094 34.627 7.63427 34.627C7.61827 34.627 7.60327 34.63 7.58927 34.636C7.57527 34.642 7.56294 34.6503 7.55227 34.661C7.54227 34.6717 7.53394 34.6843 7.52727 34.699C7.52127 34.713 7.51827 34.728 7.51827 34.744C7.51827 34.76 7.52127 34.775 7.52727 34.789C7.53327 34.803 7.54161 34.8153 7.55227 34.826C7.56294 34.836 7.57527 34.8443 7.58927 34.851C7.60394 34.857 7.61927 34.86 7.63527 34.86C7.65127 34.86 7.66627 34.857 7.68027 34.851C7.69427 34.845 7.70627 34.8367 7.71627 34.826C7.72694 34.8153 7.73527 34.803 7.74127 34.789C7.74794 34.775 7.75127 34.7603 7.75127 34.745ZM7.52327 35.256H7.34227V34.487H7.52327V34.544C7.56194 34.4953 7.61461 34.471 7.68127 34.471C7.71794 34.471 7.75194 34.4783 7.78327 34.493C7.81527 34.507 7.84294 34.5263 7.86627 34.551C7.88961 34.5757 7.90761 34.6047 7.92027 34.638C7.93361 34.6713 7.94027 34.707 7.94027 34.745C7.94027 34.783 7.93361 34.8183 7.92027 34.851C7.90761 34.8837 7.88961 34.9123 7.86627 34.937C7.84361 34.9617 7.81661 34.981 7.78527 34.995C7.75394 35.009 7.71994 35.016 7.68327 35.016C7.61927 35.016 7.56594 34.994 7.52327 34.95V35.256ZM8.41845 34.669C8.41245 34.6437 8.40011 34.6233 8.38145 34.608C8.36278 34.5927 8.34011 34.585 8.31345 34.585C8.28545 34.585 8.26245 34.5923 8.24445 34.607C8.22711 34.6217 8.21611 34.6423 8.21145 34.669H8.41845ZM8.20645 34.774C8.20645 34.852 8.24311 34.891 8.31645 34.891C8.35578 34.891 8.38545 34.875 8.40545 34.843H8.58045C8.54511 34.9603 8.45678 35.019 8.31545 35.019C8.27211 35.019 8.23245 35.0127 8.19645 35C8.16045 34.9867 8.12945 34.968 8.10345 34.944C8.07811 34.92 8.05845 34.8913 8.04445 34.858C8.03045 34.8247 8.02345 34.7873 8.02345 34.746C8.02345 34.7033 8.03011 34.665 8.04345 34.631C8.05678 34.5963 8.07578 34.567 8.10045 34.543C8.12511 34.519 8.15478 34.5007 8.18945 34.488C8.22478 34.4747 8.26445 34.468 8.30845 34.468C8.35178 34.468 8.39078 34.4747 8.42545 34.488C8.46011 34.5007 8.48945 34.5193 8.51345 34.544C8.53745 34.5687 8.55578 34.599 8.56845 34.635C8.58111 34.6703 8.58745 34.7103 8.58745 34.755V34.774H8.20645ZM9.0617 34.246H9.2317L9.0477 34.578H8.9317L9.0617 34.246ZM8.8047 34.246H8.9757L8.7917 34.578H8.6757L8.8047 34.246Z" fill="#ECE538"/>
<defs>
<linearGradient id="paint0_linear" x1="8.11983" y1="9.85898" x2="24.916" y2="27.0127" gradientUnits="userSpaceOnUse">
<stop stop-color="#AAAAAA"/>
<stop offset="0.569391" stop-color="#454545"/>
</linearGradient>
<linearGradient id="paint1_linear" x1="52.8802" y1="9.85898" x2="36.084" y2="27.0127" gradientUnits="userSpaceOnUse">
<stop stop-color="#DDDDDD"/>
<stop offset="0.392305" stop-color="#454545"/>
</linearGradient>
</defs>
</svg>
