<svg width="60" height="60" viewBox="0 0 60 60" fill="none" xmlns="http://www.w3.org/2000/svg">
<g clip-path="url(#clip0)">
<rect width="60" height="60" fill="white"/>
<path fill-rule="evenodd" clip-rule="evenodd" d="M8.7868 51.2132C14.2157 56.6421 21.7157 60 30 60C46.5686 60 60 46.5686 60 30C60 21.7157 56.6421 14.2157 51.2132 8.7868L8.7868 51.2132Z" fill="#1D7CBE"/>
<path fill-rule="evenodd" clip-rule="evenodd" d="M8.7868 51.2132C3.35786 45.7843 0 38.2843 0 30C0 13.4315 13.4315 0 30 0C38.2843 0 45.7843 3.35786 51.2132 8.7868L8.7868 51.2132Z" fill="#359CE4"/>
<path d="M8.65785 48.6923L9.1047 48.2341L9.27365 48.3989L9.00275 48.6766L9.16454 48.8344L9.43544 48.5567L9.60296 48.72L9.33206 48.9978L9.65707 49.3148L9.48112 49.4952L8.65785 48.6923ZM10.4433 48.5087L10.1025 48.1764L9.90107 48.2425L9.96791 48.0451L9.71878 47.8021L9.45521 47.8747L9.16754 48.1697L9.33649 48.3344L9.61299 48.0509L9.77478 48.2087L9.49828 48.4922L9.6658 48.6556L9.94229 48.3721L10.2673 48.6891L10.4433 48.5087ZM10.7525 47.6359L10.7412 48.2032L10.5319 48.3147L10.5412 47.5862L9.81313 47.6137L9.91795 47.4003L10.4848 47.3748L10.7525 47.6359ZM10.7604 47.3614L11.494 47.3282L11.3822 47.546L10.8154 47.5715L10.5476 47.3104L10.5589 46.7431L10.7753 46.6272L10.7604 47.3614ZM11.605 46.4697L11.6751 46.5381L11.3456 46.876L11.2754 46.8076L11.605 46.4697ZM12.3303 44.924L12.7067 46.1851L12.4804 46.4171L12.1863 45.3982L12.0299 45.5586L11.8666 45.3994L12.3303 44.924ZM11.7996 45.4681L11.9628 45.6273L11.5216 46.0797L11.3583 45.9205L11.7996 45.4681ZM14.061 44.7966L13.7705 45.0944L13.6073 44.9352L13.8796 44.656L13.7149 44.4954L13.4426 44.7746L13.2737 44.6098L13.546 44.3306L13.3828 44.1714L13.1104 44.4506L12.9458 44.29L13.2362 43.9922L13.4942 43.9254L13.7405 44.1655L13.6794 44.3686L13.8751 44.2968L14.1214 44.537L14.061 44.7966ZM13.1522 45.5306L12.906 45.2905L12.9728 45.093L12.7714 45.1592L12.5251 44.919L12.5855 44.6594L12.876 44.3616L13.0406 44.5222L12.7683 44.8014L12.9315 44.9606L13.2038 44.6814L13.3728 44.8462L13.1005 45.1254L13.2651 45.286L13.5375 45.0068L13.7007 45.166L13.4102 45.4638L13.1522 45.5306ZM14.3501 43.6551L14.4202 43.7235L14.0907 44.0614L14.0205 43.993L14.3501 43.6551ZM14.6168 43.4389L14.6772 43.1794L14.9662 42.883L15.128 43.0408L14.8501 43.3257L15.0134 43.4849L15.2857 43.2057L15.4546 43.3705L15.012 43.8244L14.6168 43.4389ZM14.4478 43.2742L14.2846 43.115L14.345 42.8554L14.6341 42.559L14.7973 42.7182L14.525 42.9974L14.6238 43.0938L14.4478 43.2742ZM15.9769 42.835L15.5286 43.2946L15.3597 43.1298L15.8079 42.6702L15.9769 42.835ZM15.4632 42.6972L15.1909 42.9764L15.0291 42.8186L15.3014 42.5394L15.1324 42.3746L14.8601 42.6538L14.6969 42.4946L14.986 42.1982L15.2495 42.1256L15.5459 42.4147L15.4632 42.6972Z" fill="#F5F5F5"/>
<path d="M41.7616 19.0076L42.1996 18.53L42.3662 18.6828L42.1039 18.9687L42.2778 19.1283L42.5401 18.8423L42.7125 19.0005L42.4503 19.2864L42.7848 19.5933L42.6091 19.7849L41.7616 19.0076ZM43.1112 18.3647L42.8002 18.0794L42.5403 18.1586L42.2604 18.4637L42.427 18.6165L42.6893 18.3305L42.8632 18.49L42.6009 18.776L42.7734 18.9342L43.0532 18.6291L43.1112 18.3647ZM43.0344 18.0282L43.2033 17.844L43.2667 17.9021L43.4061 17.6229L43.5432 17.7486L43.3404 17.9697L43.8474 18.4348L43.6785 18.619L43.0344 18.0282ZM43.7238 17.4393L43.467 17.5566L43.6674 17.7405L43.8432 17.5488L43.7238 17.4393ZM43.8611 17.3222L43.9175 17.0565L44.1311 16.8236L44.2697 16.9507L44.0669 17.1718L44.4177 17.4935L44.6205 17.2724L44.7782 17.4171L44.5646 17.6499L44.3047 17.7291L43.8611 17.3222ZM44.6546 16.457L44.3948 16.5362L44.1798 16.7705L44.3184 16.8976L44.5225 16.675L44.8733 16.9968L44.6691 17.2194L44.8269 17.364L45.0418 17.1297L45.0983 16.8639L44.6546 16.457ZM45.0306 15.8518L45.2334 15.6307L45.3705 15.7565L45.1677 15.9775L45.0306 15.8518ZM45.8267 15.833L45.9461 15.9425L45.8937 16.2038L45.6747 16.4426L45.5199 16.3006L45.7227 16.0796L45.6564 16.0187L45.8267 15.833ZM44.8681 15.8249L45.4591 16.367L45.6139 16.5089L45.3432 16.5999L44.9379 16.2281L44.8177 16.3621L44.7528 16.3026L44.8681 15.8249ZM45.6341 15.3891L45.6906 15.1234L45.9042 14.8905L46.0427 15.0176L45.8399 15.2387L46.1907 15.5604L46.3935 15.3393L46.5512 15.484L46.3376 15.7169L46.0777 15.796L45.6341 15.3891ZM46.4277 14.5239L46.1678 14.6031L45.9528 14.8375L46.0914 14.9645L46.2955 14.742L46.6463 15.0637L46.4422 15.2863L46.5999 15.4309L46.8148 15.1966L46.8713 14.9309L46.4277 14.5239ZM46.8036 13.9187L47.0064 13.6977L47.1435 13.8234L46.9407 14.0445L46.8036 13.9187ZM47.5998 13.8999L47.7192 14.0094L47.6667 14.2707L47.4477 14.5095L47.293 14.3676L47.4958 14.1465L47.4294 14.0856L47.5998 13.8999ZM46.6411 13.8918L47.2321 14.4339L47.3869 14.5758L47.1162 14.6668L46.7109 14.295L46.5907 14.429L46.5258 14.3696L46.6411 13.8918ZM47.3377 13.3335L47.5081 13.1478L47.9502 13.5533L48.153 13.3322L48.2709 13.4404L48.0533 13.6777L47.7961 13.7539L47.3377 13.3335ZM48.22 13.8007L48.2878 13.8629L48.4906 13.6418L48.6438 13.7824L48.4262 14.0197L48.169 14.0959L48.0496 13.9864L48.22 13.8007ZM48.1462 12.4521L48.9775 13.2145L48.9088 13.4935L48.706 13.7146L48.5527 13.574L48.7555 13.3529L48.5359 13.1515L48.3331 13.3726L48.2152 13.2644L48.418 13.0434L47.9758 12.6378L48.1462 12.4521ZM49.6674 11.7107L49.6163 11.9677L49.4027 12.2006L49.2847 12.0925L49.4808 11.8787L49.1771 11.6002L48.973 11.8228L48.8345 11.6957L49.0562 11.454L49.3093 11.3822L49.6674 11.7107ZM48.4005 12.1689L48.775 11.7606L48.9135 11.8877L48.7107 12.1087L49.0144 12.3872L49.2104 12.1735L49.3283 12.2817L49.1323 12.4954L49.5052 12.8374L49.3335 13.0246L48.4005 12.1689ZM50.5106 10.4098L50.4528 10.677L50.2365 10.9128L50.123 10.8087L50.3271 10.5861L50.2063 10.4753L50.0021 10.6978L49.8636 10.5708L50.0799 10.3349L50.3426 10.2556L50.5106 10.4098ZM50.6845 10.5693L50.7877 10.6639L50.7299 10.9311L50.5136 11.1669L50.3573 11.0236L50.5561 10.807L50.5074 10.7624L50.6845 10.5693ZM49.9712 11.5541L50.2324 11.4735L50.4473 11.2392L50.2911 11.0959L50.087 11.3184L49.9661 11.2076L50.1702 10.985L50.0568 10.8809L49.8526 11.1035L49.7318 10.9926L49.9359 10.7701L49.7973 10.643L49.5824 10.8773L49.526 11.1459L49.9712 11.5541Z" fill="#F5F5F5"/>
<mask id="path-5-inside-1" fill="white">
<path fill-rule="evenodd" clip-rule="evenodd" d="M43.147 31.6176V31.7708C43.147 33.9766 42.1831 36.0724 40.5083 37.5079L39.0924 38.7216V45.6724V46.2219C38.2894 46.8475 37.3881 47.4273 36.3893 47.9625V37.5306L40.4439 34.3421V32.928L30.9284 34.1725C30.0675 34.2851 29.1957 34.2851 28.3348 34.1725L18.8192 32.928V34.3421L22.8739 37.5306V47.9357C21.8677 47.3847 20.967 46.7865 20.1708 46.14V45.6711V38.7203L18.7549 37.5066C17.1862 36.1621 16.2412 34.2383 16.1277 32.1874C17.6342 26.32 22.1858 20.3611 29.3607 17.752C36.3035 20.2766 41.2812 25.9379 43.147 31.6176Z"/>
</mask>
<path fill-rule="evenodd" clip-rule="evenodd" d="M43.147 31.6176V31.7708C43.147 33.9766 42.1831 36.0724 40.5083 37.5079L39.0924 38.7216V45.6724V46.2219C38.2894 46.8475 37.3881 47.4273 36.3893 47.9625V37.5306L40.4439 34.3421V32.928L30.9284 34.1725C30.0675 34.2851 29.1957 34.2851 28.3348 34.1725L18.8192 32.928V34.3421L22.8739 37.5306V47.9357C21.8677 47.3847 20.967 46.7865 20.1708 46.14V45.6711V38.7203L18.7549 37.5066C17.1862 36.1621 16.2412 34.2383 16.1277 32.1874C17.6342 26.32 22.1858 20.3611 29.3607 17.752C36.3035 20.2766 41.2812 25.9379 43.147 31.6176Z" fill="white"/>
<path d="M43.147 31.6176H43.347V31.5856L43.3371 31.5552L43.147 31.6176ZM40.5083 37.5079L40.3782 37.3561L40.3782 37.3561L40.5083 37.5079ZM39.0924 38.7216L38.9623 38.5697L38.8924 38.6296V38.7216H39.0924ZM39.0924 46.2219L39.2153 46.3797L39.2924 46.3196V46.2219H39.0924ZM36.3893 47.9625H36.1893V48.2965L36.4838 48.1388L36.3893 47.9625ZM36.3893 37.5306L36.2657 37.3734L36.1893 37.4335V37.5306H36.3893ZM40.4439 34.3421L40.5676 34.4993L40.6439 34.4392V34.3421H40.4439ZM40.4439 32.928H40.6439V32.7001L40.418 32.7297L40.4439 32.928ZM30.9284 34.1725L30.9025 33.9742L30.9025 33.9742L30.9284 34.1725ZM28.3348 34.1725L28.3088 34.3708L28.3088 34.3708L28.3348 34.1725ZM18.8192 32.928L18.8452 32.7297L18.6192 32.7001V32.928H18.8192ZM18.8192 34.3421H18.6192V34.4392L18.6956 34.4993L18.8192 34.3421ZM22.8739 37.5306H23.0739V37.4335L22.9975 37.3734L22.8739 37.5306ZM22.8739 47.9357L22.7778 48.1111L23.0739 48.2733V47.9357H22.8739ZM20.1708 46.14H19.9708V46.2353L20.0447 46.2953L20.1708 46.14ZM20.1708 38.7203H20.3708V38.6283L20.301 38.5684L20.1708 38.7203ZM18.7549 37.5066L18.6247 37.6585L18.6247 37.6585L18.7549 37.5066ZM16.1277 32.1874L15.934 32.1377L15.9263 32.1676L15.928 32.1985L16.1277 32.1874ZM29.3607 17.752L29.4291 17.5641L29.3607 17.5392L29.2924 17.5641L29.3607 17.752ZM42.947 31.6176V31.7708H43.347V31.6176H42.947ZM42.947 31.7708C42.947 33.9183 42.0087 35.9585 40.3782 37.3561L40.6385 37.6598C42.3576 36.1862 43.347 34.035 43.347 31.7708H42.947ZM40.3782 37.3561L38.9623 38.5697L39.2226 38.8734L40.6385 37.6598L40.3782 37.3561ZM38.8924 38.7216V45.6724H39.2924V38.7216H38.8924ZM38.8924 45.6724V46.2219H39.2924V45.6724H38.8924ZM38.9695 46.0641C38.1764 46.682 37.2848 47.2557 36.2949 47.7862L36.4838 48.1388C37.4914 47.5989 38.4024 47.013 39.2153 46.3797L38.9695 46.0641ZM36.5893 47.9625V37.5306H36.1893V47.9625H36.5893ZM36.513 37.6879L40.5676 34.4993L40.3203 34.1849L36.2657 37.3734L36.513 37.6879ZM40.6439 34.3421V32.928H40.2439V34.3421H40.6439ZM40.418 32.7297L30.9025 33.9742L30.9543 34.3708L40.4699 33.1263L40.418 32.7297ZM30.9025 33.9742C30.0588 34.0845 29.2044 34.0845 28.3607 33.9742L28.3088 34.3708C29.1869 34.4856 30.0762 34.4856 30.9543 34.3708L30.9025 33.9742ZM28.3607 33.9742L18.8452 32.7297L18.7933 33.1263L28.3088 34.3708L28.3607 33.9742ZM18.6192 32.928V34.3421H19.0192V32.928H18.6192ZM18.6956 34.4993L22.7503 37.6879L22.9975 37.3734L18.9429 34.1849L18.6956 34.4993ZM22.6739 37.5306V47.9357H23.0739V37.5306H22.6739ZM22.97 47.7603C21.9731 47.2144 21.0826 46.6228 20.2969 45.9848L20.0447 46.2953C20.8513 46.9502 21.7623 47.555 22.7778 48.1111L22.97 47.7603ZM20.3708 46.14V45.6711H19.9708V46.14H20.3708ZM20.3708 45.6711V38.7203H19.9708V45.6711H20.3708ZM20.301 38.5684L18.885 37.3548L18.6247 37.6585L20.0406 38.8721L20.301 38.5684ZM18.885 37.3548C17.3579 36.0458 16.4379 34.173 16.3274 32.1764L15.928 32.1985C16.0445 34.3037 17.0145 36.2783 18.6247 37.6585L18.885 37.3548ZM16.3214 32.2371C17.813 26.4279 22.3217 20.5245 29.4291 17.94L29.2924 17.5641C22.05 20.1976 17.4554 26.2122 15.934 32.1377L16.3214 32.2371ZM29.2924 17.94C36.1763 20.4432 41.11 26.0574 42.957 31.6801L43.3371 31.5552C41.4525 25.8184 36.4306 20.1101 29.4291 17.5641L29.2924 17.94Z" fill="#454545" mask="url(#path-5-inside-1)"/>
<path d="M31.2012 36.7565L35.7491 37.4866V47.0174C35.7491 47.1912 35.6368 47.3452 35.4714 47.3983L29.632 49.2731L23.7926 47.3983C23.6271 47.3452 23.5149 47.1912 23.5149 47.0174V37.4866L28.0628 36.7565C29.1023 36.5897 30.1617 36.5897 31.2012 36.7565Z" fill="white" stroke="#454545" stroke-width="0.2"/>
<path d="M32.2087 43.0065L33.5101 45.5101L32.1871 49.5048L29.5716 50.8869L26.956 49.5048L25.633 45.5101L26.9344 43.0065L29.5716 43.0065L32.2087 43.0065Z" fill="#FF4E63" stroke="#454545" stroke-width="0.2"/>
<path d="M27.1452 39.1899L29.5507 38.4758C29.5875 38.4649 29.6267 38.4648 29.6635 38.4755L32.1189 39.1899" stroke="#464646" stroke-width="0.4" stroke-linecap="square"/>
<path d="M27.1452 40.8118L29.5356 39.8864C29.5816 39.8686 29.6326 39.8684 29.6787 39.8859L32.1189 40.8118" stroke="#464646" stroke-width="0.4" stroke-linecap="square"/>
<path d="M17.3967 37.1191L17.4016 37.1258L17.4075 37.1315L19.5306 39.179V45.9459L18.0321 44.93L15.906 35.7622C15.7531 35.1029 15.6759 34.4284 15.6759 33.7516V32.5477L16.1127 34.7315C16.2315 35.3258 16.4807 35.8864 16.8421 36.3728L17.3967 37.1191Z" fill="white" stroke="#454545" stroke-width="0.2"/>
<path d="M18.1717 42.8406L17.7415 41.4187H19.1287V42.8406H18.1717Z" fill="#454545" stroke="#CBCBCB" stroke-width="0.2"/>
<path d="M17.7051 40.9712L17.268 37.6196L17.871 38.2226L17.8708 38.2228L17.8757 38.227L18.5244 38.797L19.1392 39.3372V40.9712H17.7051Z" fill="#454545" stroke="#CBCBCB" stroke-width="0.2"/>
<path d="M18.4814 44.7369L18.2006 43.3151H19.1101V44.7369H18.4814Z" fill="#454545" stroke="#CBCBCB" stroke-width="0.2"/>
<path d="M41.814 37.1235L41.8142 37.1237L41.8089 37.1292L39.8166 39.1771V45.9367L41.1821 44.9317L43.4158 35.8127C43.5855 35.1197 43.6713 34.4088 43.6713 33.6953V32.5477L43.2577 34.6155C43.1237 35.2858 42.8241 35.912 42.3864 36.437L41.814 37.1235Z" fill="white" stroke="#454545" stroke-width="0.2"/>
<path d="M41.1762 42.7907L41.6064 41.3689H40.2193V42.7907H41.1762Z" fill="#454545" stroke="#CBCBCB" stroke-width="0.2"/>
<path d="M41.6625 40.8445L42.0997 37.4929L41.4966 38.0959L41.4968 38.096L41.4919 38.1003L40.2284 39.2105V40.8445H41.6625Z" fill="#454545" stroke="#CBCBCB" stroke-width="0.2"/>
<path d="M40.8351 44.7369L41.1158 43.3151H40.2063V44.7369H40.8351Z" fill="#454545" stroke="#CBCBCB" stroke-width="0.2"/>
<circle cx="20.7909" cy="29.643" r="1.91435" fill="#454545"/>
<circle cx="20.7427" cy="29.5948" r="0.833086" fill="#DBFF00" stroke="#646464" stroke-width="0.2"/>
<circle cx="38.3712" cy="29.4946" r="1.76601" fill="#454545"/>
<circle cx="38.3712" cy="29.4946" r="0.783006" fill="#DBFF00" stroke="#646464" stroke-width="0.2"/>
<path d="M29.8548 35.9081L29.8438 35.9068L29.8327 35.908L23.1158 36.6239L19.7231 33.9223V33.8143L28.1939 34.9345C29.2887 35.0793 30.3982 35.0735 31.4914 34.9173L39.2041 33.8155L39.2041 33.9268L36.2616 36.6501L29.8548 35.9081Z" fill="#FF4E63" stroke="#262626" stroke-width="0.2"/>
<path d="M20.021 33.7937L27.0191 34.7268L23.1016 36.2455L20.021 33.7937Z" fill="#262626"/>
<path d="M39.3965 33.6071L31.9678 34.7874L36.1509 36.2053L39.3965 33.6071Z" fill="#262626"/>
<path d="M23.0952 36.0242L20.0329 33.8169L27.3947 34.805L23.0952 36.0242Z" fill="#DBFF00" stroke="#262626" stroke-width="0.1"/>
<path d="M36.1205 36.0098L39.2058 33.688L32.1887 34.8029L36.1205 36.0098Z" fill="#DBFF00" stroke="#262626" stroke-width="0.1"/>
<line x1="29.9184" y1="35.2933" x2="29.9184" y2="35.7465" stroke="#893A3A" stroke-width="0.2" stroke-linecap="round"/>
<path d="M26.4302 24.0963L29.5739 24.0963L32.7633 24.0963L32.7176 26.0118L32.7171 26.0339L32.726 26.0542L34.3143 29.6925L29.5739 32.8528L24.8335 29.6925L26.4218 26.0542L26.4302 26.0351V26.0142V24.0963Z" fill="#FF4E63" stroke="#454545" stroke-width="0.2"/>
<path d="M25.2503 25.9371L24.133 28.7303L6.81611 15.8191L25.2503 24.2614L25.2503 25.9371Z" fill="white" stroke="url(#paint0_linear)" stroke-width="0.2"/>
<path d="M33.9639 25.9371L35.0811 28.7303L52.398 15.8191L33.9639 24.2614L33.9639 25.9371Z" fill="white" stroke="url(#paint1_linear)" stroke-width="0.2"/>
<path d="M33.706 19.0405L32.8849 22.9632H26.3292L25.5082 19.0405V15.1302L29.7118 14.7658L33.706 15.1298V19.0405Z" fill="white" stroke="#454545" stroke-width="0.2"/>
<path d="M26.8545 18.7252L26.8545 16.0405L29.5914 16.6285L29.6133 16.6332L29.6347 16.6285L32.4265 16.0155L32.4265 18.7157L32.0785 21.7888L27.3633 21.8093L26.8545 18.7252Z" fill="#FF4E63" stroke="#454545" stroke-width="0.2" stroke-linecap="round"/>
<path d="M20.3 38.6137L22.7 37.68" stroke="#918C8C" stroke-width="0.2" stroke-linecap="square"/>
<path d="M38.86 38.6137L36.66 37.6" stroke="#969191" stroke-width="0.2" stroke-linecap="square"/>
<path d="M34.1813 33.2891L34.2987 33.1625L34.5777 33.4321L34.6044 33.4285L34.3117 33.1466L34.5198 32.9212L34.491 32.9251L34.178 33.2643L34.1128 32.7736L34.0929 32.7763L34.1871 33.484L34.2069 33.4814L34.1813 33.2891ZM34.5843 33.176L35.0105 33.1193C35.0072 33.0841 34.9991 33.0508 34.9862 33.0196C34.9739 32.9883 34.9569 32.9613 34.935 32.9386C34.9139 32.9159 34.8877 32.8989 34.8566 32.8875C34.8262 32.8761 34.7911 32.873 34.7515 32.8783C34.7231 32.8821 34.6961 32.8917 34.6706 32.9072C34.6451 32.9227 34.6236 32.9434 34.6062 32.9693C34.5887 32.9945 34.5759 33.0244 34.5677 33.0591C34.5596 33.0938 34.5583 33.1323 34.5639 33.1746C34.5689 33.2123 34.5779 33.2471 34.5909 33.279C34.6038 33.3102 34.6208 33.3369 34.6419 33.359C34.6629 33.3804 34.6882 33.3958 34.7177 33.4054C34.7479 33.4148 34.7827 33.4166 34.8223 33.4106C34.8805 33.4029 34.9272 33.3802 34.9625 33.3425C34.9978 33.3042 35.0151 33.2548 35.0145 33.1944L34.9946 33.197C34.9935 33.2543 34.977 33.2996 34.9451 33.3327C34.9138 33.3652 34.8713 33.3849 34.8178 33.392C34.7815 33.3969 34.7499 33.3947 34.7231 33.3855C34.6963 33.3763 34.6736 33.3618 34.6548 33.3421C34.636 33.3224 34.6208 33.2985 34.609 33.2705C34.5977 33.2418 34.5895 33.2102 34.5843 33.176ZM34.9881 33.1021L34.5816 33.1561C34.5789 33.1202 34.5812 33.0873 34.5887 33.0573C34.5961 33.0274 34.6075 33.0014 34.6227 32.9792C34.6384 32.9562 34.6575 32.9379 34.6799 32.9241C34.703 32.9103 34.7284 32.9016 34.7561 32.8979C34.7892 32.8935 34.8191 32.8959 34.8458 32.9051C34.8725 32.9137 34.8956 32.9274 34.9149 32.9464C34.9349 32.9652 34.9511 32.9883 34.9634 33.0156C34.9757 33.0422 34.9839 33.071 34.9881 33.1021ZM35.3944 32.8049L35.2772 33.3188L35.2752 33.3191L35.0128 32.8557L34.99 32.8587L35.2669 33.3404L35.2917 33.3371L35.4162 32.802L35.3944 32.8049ZM35.4659 32.6955L35.4525 32.5954L35.4327 32.598L35.446 32.6982L35.4659 32.6955ZM35.5467 33.3032L35.4789 32.7937L35.4591 32.7963L35.5269 33.3058L35.5467 33.3032ZM35.5878 32.7792L35.6556 33.2887L35.6754 33.286L35.6371 32.9976C35.6333 32.9692 35.6336 32.9415 35.6381 32.9147C35.6426 32.8879 35.6512 32.8639 35.6639 32.8427C35.6771 32.8208 35.6945 32.8026 35.7162 32.7883C35.7377 32.7734 35.7637 32.7638 35.7941 32.7598C35.8159 32.7569 35.8368 32.7575 35.8569 32.7615C35.8775 32.7648 35.896 32.7725 35.9124 32.7844C35.9293 32.7956 35.9435 32.8112 35.9549 32.8312C35.9662 32.8506 35.9739 32.8751 35.9778 32.9048L36.0224 33.2399L36.0422 33.2373L35.9972 32.8992C35.9933 32.8695 35.9852 32.844 35.9729 32.8228C35.9613 32.8008 35.9462 32.7833 35.9276 32.7703C35.9097 32.7565 35.8889 32.7472 35.8654 32.7422C35.8425 32.7372 35.8179 32.7365 35.7914 32.74C35.7663 32.7433 35.744 32.75 35.7245 32.76C35.7049 32.7693 35.688 32.7813 35.6738 32.796C35.6603 32.8106 35.6493 32.8268 35.6409 32.8447C35.6332 32.8626 35.6284 32.8817 35.6264 32.9022L35.6244 32.9024L35.6077 32.7765L35.5878 32.7792ZM36.4165 32.6891L36.5315 32.6738L36.5289 32.654L36.4139 32.6693L36.3925 32.5087L36.3727 32.5113L36.394 32.6719L36.3009 32.6843L36.3035 32.7041L36.3967 32.6917L36.4492 33.0863C36.454 33.1226 36.4653 33.1467 36.483 33.1584C36.5013 33.1695 36.522 33.1734 36.5451 33.1704C36.5603 33.1683 36.5705 33.1666 36.5757 33.1653C36.5815 33.1638 36.5874 33.1624 36.5933 33.1609L36.5906 33.1411C36.5875 33.1429 36.582 33.1446 36.5742 33.1463C36.5662 33.1474 36.5573 33.1486 36.5474 33.1499C36.5395 33.1509 36.5315 33.1517 36.5235 33.152C36.5154 33.1518 36.5077 33.1494 36.5004 33.145C36.493 33.1406 36.4864 33.1334 36.4803 33.1235C36.475 33.1134 36.471 33.0988 36.4685 33.0797L36.4165 32.6891ZM36.6254 32.9004C36.6212 32.8687 36.6214 32.8374 36.626 32.8065C36.6313 32.7755 36.6414 32.7476 36.6563 32.7228C36.671 32.6973 36.6904 32.6759 36.7143 32.6586C36.7389 32.6412 36.7684 32.6302 36.8027 32.6256C36.8364 32.6211 36.8671 32.6241 36.8947 32.6346C36.923 32.6449 36.9476 32.6605 36.9685 32.6813C36.9893 32.7014 37.006 32.7257 37.0186 32.7543C37.0318 32.7828 37.0405 32.8129 37.0447 32.8446C37.049 32.877 37.0485 32.9087 37.0432 32.9397C37.0386 32.9705 37.0289 32.9987 37.0141 33.0242C36.9993 33.0491 36.9796 33.0702 36.955 33.0876C36.931 33.1042 36.9021 33.1148 36.8684 33.1193C36.834 33.1239 36.8027 33.1213 36.7746 33.1116C36.7469 33.1011 36.7227 33.0859 36.7019 33.0658C36.681 33.045 36.6639 33.0204 36.6507 32.9919C36.6381 32.9633 36.6297 32.9328 36.6254 32.9004ZM36.6056 32.903C36.6102 32.9381 36.6197 32.9711 36.6339 33.0022C36.648 33.0326 36.6663 33.0587 36.6887 33.0806C36.7118 33.1025 36.7385 33.1187 36.7689 33.1295C36.7992 33.1403 36.8329 33.1432 36.8699 33.1382C36.9076 33.1332 36.9396 33.1216 36.9661 33.1033C36.9926 33.0849 37.0138 33.0623 37.0297 33.0353C37.0463 33.0082 37.0574 32.9781 37.0631 32.9451C37.0687 32.9114 37.0692 32.877 37.0645 32.842C37.0599 32.807 37.0505 32.7743 37.0364 32.7439C37.0221 32.7128 37.0035 32.6864 36.9804 32.6645C36.958 32.6426 36.9316 32.6263 36.9013 32.6156C36.8708 32.6041 36.8371 32.6009 36.8001 32.6058C36.7624 32.6108 36.7304 32.6228 36.704 32.6418C36.6775 32.6601 36.656 32.6828 36.6394 32.7099C36.6235 32.7369 36.6127 32.7673 36.6071 32.801C36.6014 32.834 36.6009 32.868 36.6056 32.903ZM37.7251 32.4949L37.6356 33.0051L37.6336 33.0054L37.4118 32.5365L37.3811 32.5406L37.2886 33.0513L37.2867 33.0515L37.0699 32.582L37.051 32.5845L37.2764 33.0731L37.3042 33.0694L37.3986 32.5585L37.4006 32.5582L37.6243 33.0268L37.6501 33.0234L37.7449 32.4922L37.7251 32.4949ZM37.7911 32.4861L37.8589 32.9956L37.8787 32.993L37.8403 32.7045C37.8365 32.6761 37.8369 32.6485 37.8414 32.6216C37.8459 32.5948 37.8545 32.5708 37.8671 32.5496C37.8803 32.5277 37.8978 32.5096 37.9194 32.4953C37.941 32.4803 37.9669 32.4708 37.9973 32.4667C38.0191 32.4638 38.0401 32.4644 38.0601 32.4685C38.0807 32.4718 38.0992 32.4794 38.1156 32.4913C38.1326 32.5025 38.1467 32.5181 38.1581 32.5381C38.1695 32.5575 38.1771 32.582 38.1811 32.6118L38.2256 32.9468L38.2454 32.9442L38.2005 32.6062C38.1965 32.5764 38.1884 32.5509 38.1762 32.5297C38.1645 32.5077 38.1494 32.4902 38.1309 32.4772C38.1129 32.4635 38.0922 32.4541 38.0686 32.4492C38.0458 32.4441 38.0211 32.4434 37.9947 32.4469C37.9696 32.4502 37.9473 32.4569 37.9277 32.4669C37.9081 32.4762 37.8912 32.4882 37.877 32.5029C37.8635 32.5175 37.8526 32.5337 37.8442 32.5517C37.8365 32.5695 37.8316 32.5886 37.8296 32.6091L37.8277 32.6093L37.8109 32.4835L37.7911 32.4861ZM38.3112 32.6802L38.7375 32.6235C38.7341 32.5883 38.726 32.5551 38.7131 32.5238C38.7009 32.4925 38.6838 32.4655 38.662 32.4429C38.6408 32.4201 38.6147 32.4031 38.5836 32.3918C38.5531 32.3804 38.5181 32.3773 38.4784 32.3826C38.45 32.3863 38.423 32.396 38.3975 32.4115C38.372 32.427 38.3506 32.4477 38.3332 32.4735C38.3157 32.4987 38.3028 32.5287 38.2947 32.5634C38.2865 32.5981 38.2852 32.6366 38.2909 32.6789C38.2959 32.7165 38.3049 32.7513 38.3179 32.7832C38.3308 32.8145 38.3478 32.8411 38.3688 32.8632C38.3899 32.8846 38.4151 32.9001 38.4446 32.9096C38.4748 32.9191 38.5097 32.9208 38.5492 32.9149C38.6074 32.9071 38.6541 32.8844 38.6895 32.8468C38.7247 32.8085 38.742 32.7591 38.7414 32.6986L38.7216 32.7013C38.7205 32.7586 38.7039 32.8038 38.672 32.837C38.6407 32.8694 38.5983 32.8892 38.5447 32.8963C38.5084 32.9011 38.4768 32.8989 38.4501 32.8897C38.4233 32.8805 38.4005 32.8661 38.3817 32.8464C38.363 32.8267 38.3477 32.8028 38.3359 32.7748C38.3247 32.746 38.3164 32.7145 38.3112 32.6802ZM38.715 32.6063L38.3086 32.6604C38.3058 32.6244 38.3082 32.5915 38.3156 32.5616C38.3231 32.5317 38.3344 32.5056 38.3496 32.4834C38.3654 32.4605 38.3845 32.4421 38.4068 32.4284C38.4299 32.4146 38.4553 32.4058 38.483 32.4021C38.5161 32.3977 38.546 32.4001 38.5728 32.4093C38.5995 32.4179 38.6225 32.4317 38.6418 32.4506C38.6618 32.4695 38.678 32.4925 38.6904 32.5198C38.7027 32.5464 38.7109 32.5753 38.715 32.6063ZM38.8699 32.8611L38.8316 32.5727C38.8279 32.5449 38.8282 32.5173 38.8327 32.4898C38.8371 32.4623 38.8462 32.4375 38.8601 32.4155C38.8739 32.3928 38.8926 32.3742 38.9162 32.3596C38.9404 32.3443 38.9702 32.3353 39.0054 32.3326L39.0028 32.3128C38.9723 32.3162 38.946 32.3231 38.9238 32.3334C38.9023 32.3437 38.8842 32.3562 38.8693 32.3709C38.8545 32.3857 38.8432 32.4023 38.8356 32.4208C38.8279 32.4386 38.823 32.4574 38.8209 32.4772L38.8189 32.4775L38.8022 32.3516L38.7823 32.3542L38.8501 32.8637L38.8699 32.8611Z" fill="#EEEEEE"/>
</g>
<defs>
<linearGradient id="paint0_linear" x1="8.72446" y1="12.6677" x2="24.3967" y2="28.6735" gradientUnits="userSpaceOnUse">
<stop stop-color="#262626"/>
<stop offset="0.569391" stop-color="#454545"/>
</linearGradient>
<linearGradient id="paint1_linear" x1="50.4897" y1="12.6677" x2="34.8174" y2="28.6735" gradientUnits="userSpaceOnUse">
<stop stop-color="#DDDDDD"/>
<stop offset="0.392305" stop-color="#262626"/>
</linearGradient>
<clipPath id="clip0">
<rect width="60" height="60" fill="white"/>
</clipPath>
</defs>
</svg>
