<svg width="69" height="61" viewBox="0 0 69 61" fill="none" xmlns="http://www.w3.org/2000/svg">
<g filter="url(#filter0_d)">
<mask id="path-1-inside-1" fill="white">
<path fill-rule="evenodd" clip-rule="evenodd" d="M51.2067 27.4719V27.6664V28.4035C51.2067 30.7389 50.1862 32.9577 48.413 34.4776L46.054 36.4996V45.3327V46.031C45.0336 46.826 43.8882 47.5629 42.6189 48.2429V34.9861L47.7715 30.9341V29.137L35.328 30.7645C34.4671 30.8771 33.5952 30.8771 32.7343 30.7645L20.2908 29.137V30.9341L25.4434 34.9861V48.2089C24.1648 47.5087 23.0201 46.7485 22.0083 45.927V45.331V36.4979L19.9986 34.7753C18.078 33.129 16.9423 30.7539 16.8604 28.2346C18.7648 20.7659 24.5533 13.1727 33.687 9.85132C42.5098 13.0596 48.8356 20.254 51.2067 27.4719Z"/>
</mask>
<path fill-rule="evenodd" clip-rule="evenodd" d="M51.2067 27.4719V27.6664V28.4035C51.2067 30.7389 50.1862 32.9577 48.413 34.4776L46.054 36.4996V45.3327V46.031C45.0336 46.826 43.8882 47.5629 42.6189 48.2429V34.9861L47.7715 30.9341V29.137L35.328 30.7645C34.4671 30.8771 33.5952 30.8771 32.7343 30.7645L20.2908 29.137V30.9341L25.4434 34.9861V48.2089C24.1648 47.5087 23.0201 46.7485 22.0083 45.927V45.331V36.4979L19.9986 34.7753C18.078 33.129 16.9423 30.7539 16.8604 28.2346C18.7648 20.7659 24.5533 13.1727 33.687 9.85132C42.5098 13.0596 48.8356 20.254 51.2067 27.4719Z" fill="white"/>
<path d="M51.2067 27.4719H51.4067V27.4399L51.3967 27.4094L51.2067 27.4719ZM48.413 34.4776L48.5432 34.6294L48.5432 34.6294L48.413 34.4776ZM46.054 36.4996L45.9239 36.3477L45.854 36.4076V36.4996H46.054ZM46.054 46.031L46.1769 46.1888L46.254 46.1287V46.031H46.054ZM42.6189 48.2429H42.4189V48.577L42.7134 48.4192L42.6189 48.2429ZM42.6189 34.9861L42.4953 34.8289L42.4189 34.889V34.9861H42.6189ZM47.7715 30.9341L47.8952 31.0913L47.9715 31.0312V30.9341H47.7715ZM47.7715 29.137H47.9715V28.9092L47.7456 28.9387L47.7715 29.137ZM35.328 30.7645L35.3539 30.9628L35.3539 30.9628L35.328 30.7645ZM32.7343 30.7645L32.7084 30.9628L32.7084 30.9628L32.7343 30.7645ZM20.2908 29.137L20.3167 28.9387L20.0908 28.9092V29.137H20.2908ZM20.2908 30.9341H20.0908V31.0312L20.1671 31.0913L20.2908 30.9341ZM25.4434 34.9861H25.6434V34.889L25.5671 34.8289L25.4434 34.9861ZM25.4434 48.2089L25.3474 48.3843L25.6434 48.5465V48.2089H25.4434ZM22.0083 45.927H21.8083V46.0222L21.8823 46.0823L22.0083 45.927ZM22.0083 36.4979H22.2083V36.4059L22.1385 36.3461L22.0083 36.4979ZM19.9986 34.7753L20.1287 34.6234L20.1287 34.6234L19.9986 34.7753ZM16.8604 28.2346L16.6666 28.1852L16.6596 28.2128L16.6605 28.2411L16.8604 28.2346ZM33.687 9.85132L33.7553 9.66336L33.687 9.63851L33.6186 9.66336L33.687 9.85132ZM51.0067 27.4719V27.6664H51.4067V27.4719H51.0067ZM51.0067 27.6664V28.4035H51.4067V27.6664H51.0067ZM51.0067 28.4035C51.0067 30.6805 50.0117 32.8439 48.2829 34.3257L48.5432 34.6294C50.3607 33.0716 51.4067 30.7973 51.4067 28.4035H51.0067ZM48.2829 34.3257L45.9239 36.3477L46.1842 36.6514L48.5432 34.6294L48.2829 34.3257ZM45.854 36.4996V45.3327H46.254V36.4996H45.854ZM45.854 45.3327V46.031H46.254V45.3327H45.854ZM45.9311 45.8732C44.9206 46.6605 43.7849 47.3913 42.5245 48.0667L42.7134 48.4192C43.9915 47.7344 45.1466 46.9915 46.1769 46.1888L45.9311 45.8732ZM42.8189 48.2429V34.9861H42.4189V48.2429H42.8189ZM42.7425 35.1433L47.8952 31.0913L47.6479 30.7769L42.4953 34.8289L42.7425 35.1433ZM47.9715 30.9341V29.137H47.5715V30.9341H47.9715ZM47.7456 28.9387L35.302 30.5662L35.3539 30.9628L47.7975 29.3353L47.7456 28.9387ZM35.302 30.5662C34.4584 30.6765 33.6039 30.6765 32.7603 30.5662L32.7084 30.9628C33.5865 31.0776 34.4758 31.0776 35.3539 30.9628L35.302 30.5662ZM32.7603 30.5662L20.3167 28.9387L20.2648 29.3353L32.7084 30.9628L32.7603 30.5662ZM20.0908 29.137V30.9341H20.4908V29.137H20.0908ZM20.1671 31.0913L25.3198 35.1433L25.5671 34.8289L20.4144 30.7769L20.1671 31.0913ZM25.2434 34.9861V48.2089H25.6434V34.9861H25.2434ZM25.5395 48.0335C24.2702 47.3384 23.1357 46.5848 22.1344 45.7717L21.8823 46.0823C22.9044 46.9122 24.0593 47.679 25.3474 48.3843L25.5395 48.0335ZM22.2083 45.927V45.331H21.8083V45.927H22.2083ZM22.2083 45.331V36.4979H21.8083V45.331H22.2083ZM22.1385 36.3461L20.1287 34.6234L19.8684 34.9271L21.8782 36.6498L22.1385 36.3461ZM20.1287 34.6234C18.2508 33.0138 17.1404 30.6915 17.0603 28.2282L16.6605 28.2411C16.7442 30.8164 17.9051 33.2443 19.8684 34.9271L20.1287 34.6234ZM17.0542 28.2841C18.9437 20.8736 24.6892 13.336 33.7553 10.0393L33.6186 9.66336C24.4173 13.0093 18.5858 20.6582 16.6666 28.1852L17.0542 28.2841ZM33.6186 10.0393C42.3826 13.2262 48.6644 20.3735 51.0167 27.5343L51.3967 27.4094C49.0069 20.1345 42.637 12.8931 33.7553 9.66336L33.6186 10.0393Z" fill="#454545" mask="url(#path-1-inside-1)"/>
<path d="M35.6009 33.9067L41.8324 34.9071V47.1407C41.8324 47.3145 41.7201 47.4684 41.5547 47.5216L34.0316 49.937L26.5086 47.5216C26.3432 47.4684 26.2309 47.3145 26.2309 47.1407V34.9071L32.4625 33.9067C33.5019 33.7398 34.5614 33.7398 35.6009 33.9067Z" fill="white" stroke="#454545" stroke-width="0.2"/>
<path d="M37.3226 41.9178L38.9893 45.124L37.301 50.2218L33.9549 51.9899L30.6087 50.2218L28.9205 45.124L30.5872 41.9178L33.9549 41.9178L37.3226 41.9178Z" fill="#FF4E63" stroke="#454545" stroke-width="0.2"/>
<path d="M30.8714 37.0947L33.9437 36.1827C33.9804 36.1718 34.0196 36.1717 34.0564 36.1824L37.192 37.0947" stroke="#464646" stroke-width="0.4" stroke-linecap="square"/>
<path d="M30.8714 39.1558L33.9285 37.9723C33.9745 37.9545 34.0255 37.9543 34.0717 37.9718L37.192 39.1558" stroke="#464646" stroke-width="0.4" stroke-linecap="square"/>
<path d="M18.5047 34.447L18.5096 34.4536L18.5156 34.4594L21.2218 37.0693V45.7313L19.2664 44.4057L16.4992 32.4732C16.3463 31.8139 16.2691 31.1394 16.2691 30.4626V28.5009H16.2932L16.9255 31.6621C17.0443 32.2564 17.2935 32.817 17.6549 33.3034L18.5047 34.447Z" fill="white" stroke="#454545" stroke-width="0.2"/>
<path d="M19.5463 41.6978L18.9832 39.8367H20.8096V41.6978H19.5463Z" fill="#454545" stroke="#454545" stroke-width="0.2"/>
<path d="M18.9363 39.2245L18.3674 34.8626L19.19 35.6853L19.1899 35.6854L19.1947 35.6897L20.8096 37.1086V39.2245H18.9363Z" fill="#454545" stroke="#454545" stroke-width="0.2"/>
<path d="M19.9612 44.171L19.5938 42.3099H20.8096V44.171H19.9612Z" fill="#454545" stroke="#454545" stroke-width="0.2"/>
<path d="M49.4918 34.4514L49.4921 34.4516L49.4867 34.4571L46.9473 37.0674V45.7221L48.7336 44.4074L51.6445 32.5237C51.8142 31.8307 51.9 31.1198 51.9 30.4063V28.5009H51.8759L51.2668 31.5461C51.1328 32.2164 50.8332 32.8426 50.3955 33.3676L49.4918 34.4514Z" fill="white" stroke="#454545" stroke-width="0.2"/>
<path d="M48.6229 41.6978L49.1859 39.8367H47.3596V41.6978H48.6229Z" fill="#454545" stroke="#454545" stroke-width="0.2"/>
<path d="M49.2329 39.2245L49.8018 34.8626L48.9792 35.6853L48.9793 35.6854L48.9745 35.6897L47.3596 37.1086V39.2245H49.2329Z" fill="#454545" stroke="#454545" stroke-width="0.2"/>
<path d="M48.2079 44.171L48.5754 42.3099H47.3596V44.171H48.2079Z" fill="#454545" stroke="#454545" stroke-width="0.2"/>
<circle cx="22.7964" cy="24.9624" r="2.43277" fill="#454545"/>
<circle cx="22.7352" cy="24.9012" r="1.08577" fill="#FAFF00" stroke="#646464" stroke-width="0.2"/>
<circle cx="45.1375" cy="24.7739" r="2.24426" fill="#454545"/>
<circle cx="45.1376" cy="24.7739" r="1.02213" fill="#FAFF00" stroke="#646464" stroke-width="0.2"/>
<path d="M34.3117 32.9511L34.3007 32.9498L34.2896 32.951L25.7427 33.8619L21.4123 30.4137V30.2325L32.6508 31.7187C33.7456 31.8635 34.8551 31.8577 35.9483 31.7015L46.223 30.2337L46.223 30.4182L42.4658 33.8954L34.3117 32.9511Z" fill="#FF4E63" stroke="#454545" stroke-width="0.2"/>
<path d="M21.8179 30.2371L30.7112 31.4229L25.7329 33.3529L21.8179 30.2371Z" fill="#454545"/>
<path d="M46.4405 30L37 31.5L42.316 33.3019L46.4405 30Z" fill="#454545"/>
<path d="M25.7223 33.0865L21.7797 30.1955L31.2578 31.5167L25.7223 33.0865Z" fill="#FAFF00" stroke="#454545" stroke-width="0.1"/>
<path d="M42.2799 33.0684L46.2498 30.0809L37.221 31.5155L42.2799 33.0684Z" fill="#FAFF00" stroke="#454545" stroke-width="0.1"/>
<line x1="34.3685" y1="32.1158" x2="34.3685" y2="32.7458" stroke="#893A3A" stroke-width="0.2" stroke-linecap="round"/>
<path d="M29.9357 20.351V17.8866L33.9579 17.8866L38.0387 17.8866L37.98 20.3486L37.9795 20.3707L37.9883 20.391L40.0159 25.0353L33.9579 29.074L27.8999 25.0353L29.9274 20.391L29.9357 20.3718V20.351Z" fill="#FF4E63" stroke="#454545" stroke-width="0.2"/>
<path d="M28.4904 20.2581L27.0556 23.8453L4.81611 7.26394L28.4904 18.1061L28.4904 20.2581Z" fill="white" stroke="url(#paint0_linear)" stroke-width="0.2"/>
<path d="M39.5096 20.2581L40.9444 23.8453L63.1839 7.26394L39.5096 18.1061L39.5096 20.2581Z" fill="white" stroke="url(#paint1_linear)" stroke-width="0.2"/>
<path d="M39.236 11.4915L38.1875 16.5008H29.8125L28.764 11.4915V6.49467L34.1332 6.02924L39.236 6.49427V11.4915Z" fill="white" stroke="#454545" stroke-width="0.2"/>
<path d="M30.4747 11.0886L30.4747 7.64326L33.9844 8.3973L34.0063 8.40201L34.0276 8.39732L37.6102 7.61067L37.6102 11.079L37.1653 15.008L31.1256 15.0343L30.4747 11.0886Z" fill="#FF4E63" stroke="#454545" stroke-width="0.2" stroke-linecap="round"/>
<line x1="22.4344" y1="36.3989" x2="24.6666" y2="35.2487" stroke="#454545" stroke-width="0.2" stroke-linecap="round" stroke-dasharray="2.2 0"/>
<line x1="29.936" y1="24.6879" x2="31.9904" y2="23.6293" stroke="#454545" stroke-width="0.4" stroke-linecap="round"/>
<line x1="0.2" y1="-0.2" x2="2.51115" y2="-0.2" transform="matrix(-0.888931 -0.458041 -0.458041 0.888931 38.1887 24.9573)" stroke="#454545" stroke-width="0.4" stroke-linecap="round"/>
<line x1="0.1" y1="-0.1" x2="2.61115" y2="-0.1" transform="matrix(-0.888931 -0.458041 -0.458041 0.888931 45.668 36.5336)" stroke="#454545" stroke-width="0.2" stroke-linecap="round" stroke-dasharray="2.2 0"/>
</g>
<defs>
<filter id="filter0_d" x="0.5" y="-1.52588e-05" width="68" height="60.1031" filterUnits="userSpaceOnUse" color-interpolation-filters="sRGB">
<feFlood flood-opacity="0" result="BackgroundImageFix"/>
<feColorMatrix in="SourceAlpha" type="matrix" values="0 0 0 0 0 0 0 0 0 0 0 0 0 0 0 0 0 0 127 0" result="hardAlpha"/>
<feOffset dx="0.5" dy="4"/>
<feGaussianBlur stdDeviation="2"/>
<feComposite in2="hardAlpha" operator="out"/>
<feColorMatrix type="matrix" values="0 0 0 0 0.483261 0 0 0 0 0.483261 0 0 0 0 0.483261 0 0 0 0.3 0"/>
<feBlend mode="normal" in2="BackgroundImageFix" result="effect1_dropShadow"/>
<feBlend mode="normal" in="SourceGraphic" in2="effect1_dropShadow" result="shape"/>
</filter>
<linearGradient id="paint0_linear" x1="7.46226" y1="3.39009" x2="27.3787" y2="23.7304" gradientUnits="userSpaceOnUse">
<stop stop-color="#AAAAAA"/>
<stop offset="0.569391" stop-color="#454545"/>
</linearGradient>
<linearGradient id="paint1_linear" x1="60.5377" y1="3.39009" x2="40.6213" y2="23.7304" gradientUnits="userSpaceOnUse">
<stop stop-color="#DDDDDD"/>
<stop offset="0.392305" stop-color="#454545"/>
</linearGradient>
</defs>
</svg>
