<svg width="60" height="60" viewBox="0 0 60 60" fill="none" xmlns="http://www.w3.org/2000/svg">
<path fill-rule="evenodd" clip-rule="evenodd" d="M30 60C46.5685 60 60 46.5685 60 30H0C0 46.5685 13.4315 60 30 60Z" fill="#646464"/>
<path fill-rule="evenodd" clip-rule="evenodd" d="M58.2929 40C59.3985 36.8722 60 33.5064 60 30C60 13.4315 46.5685 0 30 0C13.4315 0 0 13.4315 0 30C0 33.5064 0.601542 36.8722 1.70706 40H58.2929Z" fill="#454545"/>
<path fill-rule="evenodd" clip-rule="evenodd" d="M45.011 31.1679V31.332V31.3772C45.011 33.7126 43.9905 35.9314 42.2173 37.4512L40.6656 38.7813V46.2305V46.8195C39.805 47.4899 38.8391 48.1113 37.7686 48.6849V37.505L42.114 34.0877V32.5722L31.8231 33.9181C30.9622 34.0307 30.0904 34.0307 29.2295 33.9181L18.9386 32.5722V34.0877L23.284 37.505V48.6562C22.2056 48.0656 21.2403 47.4245 20.387 46.7317V46.2292V38.7799L18.8696 37.4792C17.1884 36.0382 16.1756 33.9765 16.054 31.7785C17.6685 25.4904 22.5466 19.1041 30.236 16.3079C37.6766 19.0136 43.0114 25.0808 45.011 31.1679Z" fill="#F5F5F5"/>
<path d="M27.0881 23.1L30.4645 23.1L33.89 23.1L33.8408 25.1603L33.8403 25.1824L33.8491 25.2027L35.5538 29.1074L30.4645 32.5003L25.3752 29.1074L27.0798 25.2027L27.0881 25.1835V25.1626V23.1Z" fill="#FF6666" stroke="#893A3A" stroke-width="0.2"/>
<path d="M23.8637 37.3664L28.9416 36.5513C29.9916 36.3827 31.0618 36.3827 32.1117 36.5513L37.1896 37.3664V47.6982C37.1896 47.9155 37.0493 48.1078 36.8425 48.1743L30.5267 50.2021L24.2109 48.1743C24.004 48.1078 23.8637 47.9155 23.8637 47.6982V37.3664Z" fill="white"/>
<path d="M33.2925 43.3663L34.6907 46.0559L33.271 50.3428L30.4619 51.8271L27.6529 50.3428L26.2332 46.0559L27.6314 43.3663L30.4619 43.3663L33.2925 43.3663Z" fill="#FF6666" stroke="#893A3A" stroke-width="0.2"/>
<path d="M27.8615 38.2832L30.5082 38.0367C30.5205 38.0355 30.5329 38.0355 30.5453 38.0367L33.1919 38.2832" stroke="#454545" stroke-width="0.4"/>
<path d="M27.8615 40.0214L30.5082 39.7748C30.5205 39.7736 30.5329 39.7736 30.5453 39.7748L33.1919 40.0214" stroke="#454545" stroke-width="0.4"/>
<path d="M30.5296 35.8226L30.5297 35.8219L30.5214 35.8228L23.2995 36.5925L19.6235 33.6654V33.4569L28.8839 34.6815C29.9741 34.8257 31.079 34.8199 32.1677 34.6644L40.616 33.4575L40.616 33.6672L37.7511 36.2456L30.5296 35.8226Z" fill="#FF6666" stroke="#C56D6D" stroke-width="0.1"/>
<path d="M19.808 39.2259V46.7258L18 45.5L15.6953 35.5619C15.5407 34.8953 15.4626 34.2131 15.4626 33.5287V31.9514H15.6364L16.1556 34.5472C16.2716 35.127 16.5146 35.6739 16.8673 36.1485L17.5 37L19.808 39.2259Z" fill="#F5F5F5"/>
<path d="M17.7222 41.5113H19.4604V43.2494H18.2481L17.7222 41.5113Z" fill="#454545"/>
<path d="M17.2008 37.1658L18.0699 38.0349L19.4604 39.2567V41.1636H17.7223L17.2008 37.1658Z" fill="#454545"/>
<path d="M18.2481 43.597H19.4604V45.3352H18.5913L18.2481 43.597Z" fill="#454545"/>
<path d="M41.3346 39.2259V46.7258L43 45.5L45.4216 35.6137C45.5932 34.9129 45.68 34.194 45.68 33.4725V31.9514H45.5062L45.0102 34.4312C44.8794 35.0852 44.5872 35.6961 44.1601 36.2083L43.5 37L41.3346 39.2259Z" fill="#F5F5F5"/>
<path d="M43.4204 41.5113H41.6823V43.2494H42.8945L43.4204 41.5113Z" fill="#454545"/>
<path d="M43.9419 37.1658L43.0728 38.0349L41.6823 39.2567V41.1636H43.4204L43.9419 37.1658Z" fill="#454545"/>
<path d="M42.8945 43.597H41.6822V45.3352H42.5513L42.8945 43.597Z" fill="#454545"/>
<path d="M26.1013 17L26.8826 12.1166L29.79 12.6448L29.8068 12.6479L29.8238 12.6452L33.1171 12.1146L33.8987 17L33.1147 21.9H26.8853L26.1013 17Z" fill="white" stroke="#7C7C7C" stroke-width="0.2"/>
<path d="M29.7938 16.3976L26.9183 15.9183L27.0783 15.1184L29.7797 15.6782L29.7987 15.6822L29.8178 15.6787L32.9375 15.113L33.0663 15.4351L29.7938 16.3976ZM26.918 16.6283L29.7786 17.256L29.8024 17.2613L29.8261 17.2549L33.0811 16.3764L32.4124 21.4H29.5H27.5867L27.0991 17.9868L27.0991 17.9863L26.918 16.6283Z" fill="#FF6666" stroke="#893A3A" stroke-width="0.2"/>
<path d="M26.6379 25.0813L25.4366 28.0848L6.81611 14.2017L26.6379 23.2795L26.6379 25.0813Z" fill="white" stroke="#7F7F7F" stroke-width="0.2"/>
<path d="M25.8082 23.5107L25.8082 25.0934L25.2019 27.1547L13.0652 18.238L14.1587 18.238L25.8082 23.5107Z" fill="white" stroke="#777777" stroke-width="0.1" stroke-linecap="round"/>
<path d="M34.362 25.0813L35.5634 28.0848L54.1839 14.2017L34.362 23.2795L34.362 25.0813Z" fill="white" stroke="#7F7F7F" stroke-width="0.2"/>
<path d="M35.1918 23.5107L35.1918 25.0934L35.7981 27.1547L47.9348 18.238L46.8413 18.238L35.1918 23.5107Z" stroke="#777777" stroke-width="0.1" stroke-linecap="round"/>
<path d="M20 33.5L27.5 34.5L23.3016 36.1276L20 33.5Z" fill="#454545"/>
<path d="M23.2932 35.8936L19.9919 33.4728L27.7753 34.4225L23.2932 35.8936Z" fill="#FFEB39" stroke="#454545" stroke-width="0.1"/>
<path d="M40.765 33.3L32.6439 34.4L37.2867 36.0846L40.765 33.3Z" fill="#454545"/>
<path d="M37.2548 35.8789L40.578 33.3782L32.8646 34.5174L37.2548 35.8789Z" fill="#FFEB39" stroke="#454545" stroke-width="0.1"/>
<circle cx="20.2215" cy="30.1345" r="1.32473" fill="#454545"/>
<circle cx="20.2225" cy="30.1355" r="0.562363" fill="#FFEB39" stroke="#646464" stroke-width="0.2"/>
<circle cx="40.4606" cy="30.1345" r="1.32473" fill="#454545"/>
<circle cx="40.4606" cy="30.1345" r="0.562363" fill="#FFEB39" stroke="#646464" stroke-width="0.2"/>
<line x1="20.7315" y1="38.7426" x2="22.6751" y2="37.7412" stroke="#8F8F8F" stroke-width="0.1" stroke-linecap="round" stroke-dasharray="2.2 0"/>
<path d="M17.3215 34.9799L18.5 34.5" stroke="#8F8F8F" stroke-width="0.1" stroke-linecap="round" stroke-dasharray="2.2 0"/>
<line x1="22.0215" y1="28.9799" x2="23.9651" y2="27.9785" stroke="#8F8F8F" stroke-width="0.1" stroke-linecap="round"/>
<line x1="0.05" y1="-0.05" x2="2.2364" y2="-0.05" transform="matrix(-0.888931 -0.458041 -0.458041 0.888931 39 29.0473)" stroke="#8F8F8F" stroke-width="0.1" stroke-linecap="round"/>
<line x1="0.05" y1="-0.05" x2="2.2364" y2="-0.05" transform="matrix(-0.888931 -0.458041 -0.458041 0.888931 40.34 38.81)" stroke="#8F8F8F" stroke-width="0.1" stroke-linecap="round" stroke-dasharray="2.2 0"/>
<path d="M43.4785 34.6326L42.5 34" stroke="#8F8F8F" stroke-width="0.1" stroke-linecap="round" stroke-dasharray="2.2 0"/>
<path d="M27.3 14.6419L27.3 12.628L29.7854 13.2474L29.8077 13.2529L29.8301 13.2482L32.8146 12.6242L32.7283 14.6391L29.811 15.1527L27.3 14.6419Z" fill="#F06868" stroke="#893A3A" stroke-width="0.2" stroke-linecap="round"/>
<line x1="30.6" y1="35.1" x2="30.6" y2="35.6" stroke="#893A3A" stroke-width="0.2" stroke-linecap="round"/>
<path d="M29 26L28 24" stroke="#C95757" stroke-width="0.2" stroke-linecap="round"/>
<path d="M28 28L29 26" stroke="#C95757" stroke-width="0.2" stroke-linecap="round"/>
<path d="M28 28L29 26" stroke="#C95757" stroke-width="0.2" stroke-linecap="round"/>
<path d="M33 24L32 26L33 28" stroke="#C95757" stroke-width="0.2" stroke-linecap="round"/>
<path d="M4.34326 38.7124H4.17627V39H4.08203V38.2891H4.31738C4.39746 38.2891 4.45898 38.3073 4.50195 38.3438C4.54525 38.3802 4.56689 38.4333 4.56689 38.5029C4.56689 38.5472 4.55485 38.5858 4.53076 38.6187C4.507 38.6515 4.4738 38.6761 4.43115 38.6924L4.59814 38.9941V39H4.49756L4.34326 38.7124ZM4.17627 38.6357H4.32031C4.36686 38.6357 4.40381 38.6237 4.43115 38.5996C4.45882 38.5755 4.47266 38.5433 4.47266 38.5029C4.47266 38.459 4.45947 38.4253 4.43311 38.4019C4.40706 38.3784 4.3693 38.3665 4.31982 38.3662H4.17627V38.6357ZM4.93066 38.5615L5.10107 38.2891H5.21143L4.98682 38.6416L5.2168 39H5.10547L4.93066 38.7227L4.75488 39H4.64404L4.87451 38.6416L4.64941 38.2891H4.75928L4.93066 38.5615ZM5.47705 38.7349H5.23877V38.6611H5.47705V38.7349ZM6.01514 38.3398L5.7207 39H5.62598L5.91943 38.3633H5.53467V38.2891H6.01514V38.3398ZM6.54883 38.4746C6.54883 38.5101 6.53939 38.5417 6.52051 38.5693C6.50195 38.597 6.47673 38.6187 6.44482 38.6343C6.48193 38.6502 6.51123 38.6735 6.53271 38.7041C6.55452 38.7347 6.56543 38.7694 6.56543 38.8081C6.56543 38.8696 6.5446 38.9186 6.50293 38.9551C6.46159 38.9915 6.40706 39.0098 6.33936 39.0098C6.271 39.0098 6.21615 38.9915 6.1748 38.9551C6.13379 38.9183 6.11328 38.8693 6.11328 38.8081C6.11328 38.7697 6.1237 38.735 6.14453 38.7041C6.16569 38.6732 6.19482 38.6497 6.23193 38.6338C6.20036 38.6182 6.17546 38.5965 6.15723 38.5688C6.139 38.5412 6.12988 38.5098 6.12988 38.4746C6.12988 38.4147 6.14909 38.3672 6.1875 38.332C6.22591 38.2969 6.27653 38.2793 6.33936 38.2793C6.40186 38.2793 6.45231 38.2969 6.49072 38.332C6.52946 38.3672 6.54883 38.4147 6.54883 38.4746ZM6.4751 38.8062C6.4751 38.7664 6.4624 38.734 6.43701 38.709C6.41195 38.6839 6.37907 38.6714 6.33838 38.6714C6.29769 38.6714 6.26497 38.6838 6.24023 38.7085C6.21582 38.7332 6.20361 38.7658 6.20361 38.8062C6.20361 38.8465 6.21549 38.8783 6.23926 38.9014C6.26335 38.9245 6.29671 38.936 6.33936 38.936C6.38167 38.936 6.41488 38.9245 6.43896 38.9014C6.46305 38.8779 6.4751 38.8462 6.4751 38.8062ZM6.33936 38.3535C6.30387 38.3535 6.27507 38.3646 6.25293 38.3867C6.23112 38.4085 6.22021 38.4383 6.22021 38.4761C6.22021 38.5122 6.23096 38.5415 6.25244 38.564C6.27425 38.5861 6.30322 38.5972 6.33936 38.5972C6.37549 38.5972 6.4043 38.5861 6.42578 38.564C6.44759 38.5415 6.4585 38.5122 6.4585 38.4761C6.4585 38.4399 6.44727 38.4105 6.4248 38.3877C6.40234 38.3649 6.37386 38.3535 6.33936 38.3535ZM6.87646 38.7349H6.63818V38.6611H6.87646V38.7349ZM7.42139 39H6.95557V38.9351L7.20166 38.6616C7.23812 38.6203 7.26318 38.5868 7.27686 38.561C7.29085 38.535 7.29785 38.5081 7.29785 38.4805C7.29785 38.4434 7.28662 38.4129 7.26416 38.3892C7.2417 38.3654 7.21175 38.3535 7.17432 38.3535C7.12939 38.3535 7.0944 38.3664 7.06934 38.3921C7.0446 38.4175 7.03223 38.453 7.03223 38.4985H6.94189C6.94189 38.4331 6.96289 38.3802 7.00488 38.3398C7.0472 38.2995 7.10368 38.2793 7.17432 38.2793C7.2404 38.2793 7.29264 38.2967 7.33105 38.3315C7.36947 38.366 7.38867 38.4121 7.38867 38.4697C7.38867 38.5397 7.34408 38.623 7.25488 38.7197L7.06445 38.9263H7.42139V39ZM8.31348 38.9067C8.28939 38.9412 8.2557 38.9671 8.2124 38.9844C8.16943 39.0013 8.1193 39.0098 8.06201 39.0098C8.00407 39.0098 7.95264 38.9963 7.90771 38.9692C7.86279 38.9419 7.82796 38.9032 7.80322 38.853C7.77881 38.8029 7.76628 38.7448 7.76562 38.6787V38.6167C7.76562 38.5096 7.79053 38.4266 7.84033 38.3677C7.89046 38.3088 7.96077 38.2793 8.05127 38.2793C8.12549 38.2793 8.18522 38.2983 8.23047 38.3364C8.27572 38.3742 8.30339 38.4279 8.31348 38.4976H8.21973C8.20215 38.4035 8.14616 38.3564 8.05176 38.3564C7.98893 38.3564 7.94124 38.3786 7.90869 38.4229C7.87646 38.4668 7.86019 38.5306 7.85986 38.6143V38.6724C7.85986 38.7521 7.87809 38.8156 7.91455 38.8628C7.95101 38.9097 8.00033 38.9331 8.0625 38.9331C8.09766 38.9331 8.12842 38.9292 8.15479 38.9214C8.18115 38.9136 8.20296 38.9004 8.22021 38.8818V38.7222H8.05566V38.646H8.31348V38.9067ZM8.78223 38.9478C8.74707 38.9891 8.69548 39.0098 8.62744 39.0098C8.57113 39.0098 8.52816 38.9935 8.49854 38.9609C8.46924 38.9281 8.45443 38.8796 8.4541 38.8154V38.4717H8.54443V38.813C8.54443 38.8931 8.57699 38.9331 8.64209 38.9331C8.7111 38.9331 8.757 38.9074 8.77979 38.856V38.4717H8.87012V39H8.78418L8.78223 38.9478ZM9.09326 38.4717L9.09619 38.5381C9.13656 38.4873 9.18929 38.4619 9.25439 38.4619C9.36605 38.4619 9.42236 38.5249 9.42334 38.6509V39H9.33301V38.6504C9.33268 38.6123 9.32389 38.5841 9.30664 38.5659C9.28971 38.5477 9.26318 38.5386 9.22705 38.5386C9.19775 38.5386 9.17204 38.5464 9.1499 38.562C9.12777 38.5776 9.11051 38.5981 9.09814 38.6235V39H9.00781V38.4717H9.09326ZM9.5376 38.7314C9.5376 38.6504 9.5568 38.5853 9.59521 38.5361C9.63363 38.4867 9.68392 38.4619 9.74609 38.4619C9.80794 38.4619 9.85693 38.4831 9.89307 38.5254V38.25H9.9834V39H9.90039L9.896 38.9434C9.85986 38.9876 9.80957 39.0098 9.74512 39.0098C9.68392 39.0098 9.63395 38.9847 9.59521 38.9346C9.5568 38.8844 9.5376 38.819 9.5376 38.7383V38.7314ZM9.62793 38.7417C9.62793 38.8016 9.6403 38.8485 9.66504 38.8823C9.68978 38.9162 9.72396 38.9331 9.76758 38.9331C9.82487 38.9331 9.8667 38.9074 9.89307 38.856V38.6133C9.86605 38.5635 9.82454 38.5386 9.76855 38.5386C9.72428 38.5386 9.68978 38.5557 9.66504 38.5898C9.6403 38.624 9.62793 38.6746 9.62793 38.7417ZM10.4502 39C10.445 38.9896 10.4408 38.971 10.4375 38.9443C10.3955 38.988 10.3454 39.0098 10.2871 39.0098C10.235 39.0098 10.1922 38.9951 10.1587 38.9658C10.1255 38.9362 10.1089 38.8988 10.1089 38.8535C10.1089 38.7985 10.1297 38.7559 10.1714 38.7256C10.2134 38.695 10.2723 38.6797 10.3481 38.6797H10.436V38.6382C10.436 38.6066 10.4266 38.5815 10.4077 38.563C10.3888 38.5441 10.361 38.5347 10.3242 38.5347C10.292 38.5347 10.265 38.5428 10.2432 38.5591C10.2214 38.5754 10.2104 38.5951 10.2104 38.6182H10.1196C10.1196 38.5918 10.1289 38.5664 10.1475 38.542C10.1663 38.5173 10.1917 38.4977 10.2236 38.4834C10.2559 38.4691 10.2912 38.4619 10.3296 38.4619C10.3905 38.4619 10.4382 38.4772 10.4727 38.5078C10.5072 38.5381 10.5251 38.5799 10.5264 38.6333V38.8765C10.5264 38.925 10.5326 38.9635 10.5449 38.9922V39H10.4502ZM10.3003 38.9312C10.3286 38.9312 10.3555 38.9238 10.3809 38.9092C10.4062 38.8945 10.4246 38.8755 10.436 38.8521V38.7437H10.3652C10.2546 38.7437 10.1992 38.776 10.1992 38.8408C10.1992 38.8691 10.2087 38.8913 10.2275 38.9072C10.2464 38.9232 10.2707 38.9312 10.3003 38.9312ZM10.7529 38.4717L10.7554 38.5303C10.7941 38.4847 10.8464 38.4619 10.9121 38.4619C10.986 38.4619 11.0363 38.4902 11.063 38.5469C11.0806 38.5215 11.1034 38.501 11.1313 38.4854C11.1597 38.4697 11.193 38.4619 11.2314 38.4619C11.3473 38.4619 11.4062 38.5233 11.4082 38.646V39H11.3179V38.6514C11.3179 38.6136 11.3092 38.5854 11.292 38.5669C11.2747 38.548 11.2458 38.5386 11.2051 38.5386C11.1715 38.5386 11.1437 38.5487 11.1216 38.5688C11.0994 38.5887 11.0866 38.6156 11.083 38.6494V39H10.9922V38.6538C10.9922 38.577 10.9546 38.5386 10.8794 38.5386C10.8201 38.5386 10.7796 38.5638 10.7578 38.6143V39H10.6675V38.4717H10.7529Z" fill="#646464"/>
<path d="M48.0825 42V41.2891H48.3149C48.3921 41.2891 48.45 41.305 48.4888 41.3369C48.5278 41.3688 48.5474 41.416 48.5474 41.4785C48.5474 41.5117 48.5379 41.5412 48.519 41.5669C48.5002 41.5923 48.4744 41.612 48.4419 41.626C48.4803 41.6367 48.5106 41.6572 48.5327 41.6875C48.5552 41.7174 48.5664 41.7533 48.5664 41.7949C48.5664 41.8587 48.5457 41.9089 48.5044 41.9453C48.4631 41.9818 48.4046 42 48.3291 42H48.0825ZM48.1763 41.6675V41.9233H48.3311C48.3747 41.9233 48.409 41.9121 48.4341 41.8896C48.4595 41.8669 48.4722 41.8356 48.4722 41.7959C48.4722 41.7103 48.4256 41.6675 48.3325 41.6675H48.1763ZM48.1763 41.5923H48.3179C48.3589 41.5923 48.3916 41.582 48.416 41.5615C48.4408 41.541 48.4531 41.5132 48.4531 41.478C48.4531 41.439 48.4417 41.4106 48.4189 41.3931C48.3962 41.3752 48.3615 41.3662 48.3149 41.3662H48.1763V41.5923ZM48.8643 41.8677L48.9873 41.4717H49.084L48.8716 42.0815C48.8387 42.1694 48.7865 42.2134 48.7148 42.2134L48.6978 42.2119L48.6641 42.2056V42.1323L48.6885 42.1343C48.7191 42.1343 48.7428 42.1281 48.7598 42.1157C48.777 42.1034 48.7912 42.0807 48.8022 42.0479L48.8223 41.9941L48.6338 41.4717H48.7324L48.8643 41.8677ZM49.1621 41.9526C49.1621 41.937 49.1667 41.924 49.1758 41.9136C49.1852 41.9032 49.1992 41.8979 49.2178 41.8979C49.2363 41.8979 49.2503 41.9032 49.2598 41.9136C49.2695 41.924 49.2744 41.937 49.2744 41.9526C49.2744 41.9676 49.2695 41.9801 49.2598 41.9902C49.2503 42.0003 49.2363 42.0054 49.2178 42.0054C49.1992 42.0054 49.1852 42.0003 49.1758 41.9902C49.1667 41.9801 49.1621 41.9676 49.1621 41.9526ZM49.1626 41.5215C49.1626 41.5059 49.1672 41.4928 49.1763 41.4824C49.1857 41.472 49.1997 41.4668 49.2183 41.4668C49.2368 41.4668 49.2508 41.472 49.2603 41.4824C49.27 41.4928 49.2749 41.5059 49.2749 41.5215C49.2749 41.5365 49.27 41.549 49.2603 41.5591C49.2508 41.5692 49.2368 41.5742 49.2183 41.5742C49.1997 41.5742 49.1857 41.5692 49.1763 41.5591C49.1672 41.549 49.1626 41.5365 49.1626 41.5215ZM49.8501 41.6694L49.7632 41.7598V42H49.6694V41.2891H49.7632V41.6406L50.0791 41.2891H50.1924L49.9126 41.603L50.2144 42H50.1021L49.8501 41.6694ZM50.4888 42.0098C50.4172 42.0098 50.3589 41.9863 50.314 41.9395C50.269 41.8923 50.2466 41.8293 50.2466 41.7505V41.7339C50.2466 41.6815 50.2565 41.6348 50.2764 41.5938C50.2965 41.5524 50.3245 41.5202 50.3604 41.4971C50.3965 41.4736 50.4355 41.4619 50.4775 41.4619C50.5462 41.4619 50.5996 41.4845 50.6377 41.5298C50.6758 41.575 50.6948 41.6398 50.6948 41.7241V41.7617H50.3369C50.3382 41.8138 50.3534 41.856 50.3823 41.8882C50.4116 41.9201 50.4487 41.936 50.4937 41.936C50.5256 41.936 50.5526 41.9295 50.5747 41.9165C50.5968 41.9035 50.6162 41.8862 50.6328 41.8647L50.688 41.9077C50.6437 41.9757 50.5773 42.0098 50.4888 42.0098ZM50.4775 41.5361C50.4411 41.5361 50.4105 41.5495 50.3857 41.5762C50.361 41.6025 50.3457 41.6396 50.3398 41.6875H50.6045V41.6807C50.6019 41.6348 50.5895 41.5993 50.5674 41.5742C50.5452 41.5488 50.5153 41.5361 50.4775 41.5361ZM50.9673 41.8774L51.0981 41.4717H51.1904L51.001 42H50.9321L50.7407 41.4717H50.833L50.9673 41.8774ZM51.3755 42H51.2852V41.4717H51.3755V42ZM51.2778 41.3315C51.2778 41.3169 51.2822 41.3045 51.291 41.2944C51.3001 41.2843 51.3135 41.2793 51.3311 41.2793C51.3486 41.2793 51.362 41.2843 51.3711 41.2944C51.3802 41.3045 51.3848 41.3169 51.3848 41.3315C51.3848 41.3462 51.3802 41.3584 51.3711 41.3682C51.362 41.3779 51.3486 41.3828 51.3311 41.3828C51.3135 41.3828 51.3001 41.3779 51.291 41.3682C51.2822 41.3584 51.2778 41.3462 51.2778 41.3315ZM51.606 41.4717L51.6089 41.5381C51.6493 41.4873 51.702 41.4619 51.7671 41.4619C51.8787 41.4619 51.9351 41.5249 51.936 41.6509V42H51.8457V41.6504C51.8454 41.6123 51.8366 41.5841 51.8193 41.5659C51.8024 41.5477 51.7759 41.5386 51.7397 41.5386C51.7104 41.5386 51.6847 41.5464 51.6626 41.562C51.6405 41.5776 51.6232 41.5981 51.6108 41.6235V42H51.5205V41.4717H51.606ZM52.8062 41.3662H52.5776V42H52.4844V41.3662H52.2563V41.2891H52.8062V41.3662ZM52.8247 41.731C52.8247 41.6792 52.8348 41.6326 52.855 41.5913C52.8755 41.55 52.9038 41.5181 52.9399 41.4956C52.9764 41.4731 53.0179 41.4619 53.0645 41.4619C53.1364 41.4619 53.1945 41.4868 53.2388 41.5366C53.2834 41.5864 53.3057 41.6527 53.3057 41.7354V41.7417C53.3057 41.7931 53.2957 41.8394 53.2759 41.8804C53.2563 41.9211 53.2282 41.9528 53.1914 41.9756C53.1549 41.9984 53.113 42.0098 53.0654 42.0098C52.9938 42.0098 52.9357 41.9849 52.8911 41.9351C52.8468 41.8853 52.8247 41.8193 52.8247 41.7373V41.731ZM52.9155 41.7417C52.9155 41.8003 52.929 41.8473 52.9561 41.8828C52.9834 41.9183 53.0199 41.936 53.0654 41.936C53.1113 41.936 53.1478 41.9181 53.1748 41.8823C53.2018 41.8462 53.2153 41.7957 53.2153 41.731C53.2153 41.673 53.2015 41.6261 53.1738 41.5903C53.1465 41.5542 53.11 41.5361 53.0645 41.5361C53.0199 41.5361 52.9839 41.5539 52.9565 41.5894C52.9292 41.6248 52.9155 41.6756 52.9155 41.7417ZM53.8867 41.8755L53.9883 41.4717H54.0786L53.9248 42H53.8516L53.7231 41.5996L53.5981 42H53.5249L53.3716 41.4717H53.4614L53.5654 41.8672L53.6885 41.4717H53.7612L53.8867 41.8755ZM54.2563 41.4717L54.2593 41.5381C54.2996 41.4873 54.3524 41.4619 54.4175 41.4619C54.5291 41.4619 54.5854 41.5249 54.5864 41.6509V42H54.4961V41.6504C54.4958 41.6123 54.487 41.5841 54.4697 41.5659C54.4528 41.5477 54.4263 41.5386 54.3901 41.5386C54.3608 41.5386 54.3351 41.5464 54.313 41.562C54.2909 41.5776 54.2736 41.5981 54.2612 41.6235V42H54.1709V41.4717H54.2563ZM54.9419 42.0098C54.8703 42.0098 54.812 41.9863 54.7671 41.9395C54.7222 41.8923 54.6997 41.8293 54.6997 41.7505V41.7339C54.6997 41.6815 54.7096 41.6348 54.7295 41.5938C54.7497 41.5524 54.7777 41.5202 54.8135 41.4971C54.8496 41.4736 54.8887 41.4619 54.9307 41.4619C54.9993 41.4619 55.0527 41.4845 55.0908 41.5298C55.1289 41.575 55.1479 41.6398 55.1479 41.7241V41.7617H54.79C54.7913 41.8138 54.8065 41.856 54.8354 41.8882C54.8647 41.9201 54.9019 41.936 54.9468 41.936C54.9787 41.936 55.0057 41.9295 55.0278 41.9165C55.05 41.9035 55.0693 41.8862 55.0859 41.8647L55.1411 41.9077C55.0968 41.9757 55.0304 42.0098 54.9419 42.0098ZM54.9307 41.5361C54.8942 41.5361 54.8636 41.5495 54.8389 41.5762C54.8141 41.6025 54.7988 41.6396 54.793 41.6875H55.0576V41.6807C55.055 41.6348 55.0426 41.5993 55.0205 41.5742C54.9984 41.5488 54.9684 41.5361 54.9307 41.5361ZM55.5083 41.5527C55.4946 41.5505 55.4798 41.5493 55.4639 41.5493C55.4046 41.5493 55.3644 41.5745 55.3433 41.625V42H55.2529V41.4717H55.3408L55.3423 41.5327C55.3719 41.4855 55.4139 41.4619 55.4683 41.4619C55.4858 41.4619 55.4992 41.4642 55.5083 41.4688V41.5527Z" fill="#454545"/>
</svg>
