<svg width="60" height="60" viewBox="0 0 60 60" fill="none" xmlns="http://www.w3.org/2000/svg">
<path fill-rule="evenodd" clip-rule="evenodd" d="M30 60C46.5685 60 60 46.5685 60 30H0C0 46.5685 13.4315 60 30 60Z" fill="#333333"/>
<path fill-rule="evenodd" clip-rule="evenodd" d="M58.2929 40C59.3985 36.8722 60 33.5064 60 30C60 13.4315 46.5685 0 30 0C13.4315 0 0 13.4315 0 30C0 33.5064 0.601542 36.8722 1.70706 40H58.2929Z" fill="#454545"/>
<path fill-rule="evenodd" clip-rule="evenodd" d="M45.011 30.1679V30.332V30.3772C45.011 32.7126 43.9905 34.9314 42.2173 36.4512L40.6656 37.7813V45.2306V45.8195C39.805 46.4899 38.8391 47.1114 37.7686 47.6849V36.505L42.114 33.0877V31.5722L31.8231 32.9181C30.9622 33.0307 30.0904 33.0307 29.2295 32.9181L18.9386 31.5722V33.0877L23.284 36.505V47.6562C22.2056 47.0656 21.2403 46.4246 20.387 45.7318V45.2292V37.7799L18.8696 36.4792C17.1884 35.0382 16.1756 32.9766 16.054 30.7786C17.6685 24.4904 22.5466 18.1041 30.236 15.308C37.6766 18.0136 43.0114 24.0809 45.011 30.1679Z" fill="#F5F5F5"/>
<path d="M23.8637 36.3665L28.9416 35.5513C29.9916 35.3827 31.0618 35.3827 32.1117 35.5513L37.1896 36.3665V46.6982C37.1896 46.9155 37.0493 47.1079 36.8425 47.1743L30.5267 49.2021L24.2109 47.1743C24.004 47.1079 23.8637 46.9155 23.8637 46.6982V36.3665Z" fill="white"/>
<path d="M33.2318 42.4663L34.5825 45.0646L33.1887 49.2732L30.4619 50.714L27.7352 49.2732L26.3414 45.0646L27.6921 42.4663L30.4619 42.4664L33.2318 42.4663Z" fill="#FF6666" stroke="#454545" stroke-width="0.4"/>
<path d="M27.8615 38.2833L30.4436 37.5167C30.4804 37.5058 30.5196 37.5057 30.5564 37.5164L33.1919 38.2833" stroke="#464646" stroke-width="0.4" stroke-linecap="square"/>
<path d="M27.8615 40.0214L30.4285 39.0277C30.4745 39.0099 30.5255 39.0097 30.5717 39.0272L33.1919 40.0214" stroke="#464646" stroke-width="0.4" stroke-linecap="square"/>
<path d="M19.808 38.2259V45.7258L18 44.5L15.6953 34.562C15.5407 33.8953 15.4626 33.2131 15.4626 32.5288V30.9514H15.6364L16.1556 33.5472C16.2716 34.127 16.5146 34.6739 16.8673 35.1485L17.5 36L19.808 38.2259Z" fill="#F5F5F5"/>
<path d="M17.7222 40.5113H19.4604V42.2494H18.2481L17.7222 40.5113Z" fill="#454545"/>
<path d="M17.2008 36.1659L18.0699 37.0349L19.4604 38.2568V40.1636H17.7223L17.2008 36.1659Z" fill="#454545"/>
<path d="M18.2481 42.597H19.4604V44.3352H18.5913L18.2481 42.597Z" fill="#454545"/>
<path d="M41.3346 38.2259V45.7258L43 44.5L45.4216 34.6137C45.5932 33.9129 45.68 33.194 45.68 32.4725V30.9514H45.5062L45.0102 33.4312C44.8794 34.0852 44.5872 34.6961 44.1601 35.2083L43.5 36L41.3346 38.2259Z" fill="#F5F5F5"/>
<path d="M43.4204 40.5113H41.6823V42.2494H42.8945L43.4204 40.5113Z" fill="#454545"/>
<path d="M43.9419 36.1659L43.0728 37.0349L41.6823 38.2568V40.1636H43.4204L43.9419 36.1659Z" fill="#454545"/>
<path d="M42.8945 42.597H41.6822V44.3352H42.5513L42.8945 42.597Z" fill="#454545"/>
<circle cx="21.0516" cy="28.0516" r="2.05164" fill="#454545"/>
<circle cx="21" cy="28" r="0.9" fill="#FAFF00" stroke="#646464" stroke-width="0.2"/>
<circle cx="39.8927" cy="27.8927" r="1.89266" fill="#454545"/>
<circle cx="39.8927" cy="27.8927" r="0.846329" fill="#FAFF00" stroke="#646464" stroke-width="0.2"/>
<path d="M30.7561 34.8226L30.7561 34.8219L30.7479 34.8228L23.5259 35.5925L19.85 32.6654V32.4569L29.1103 33.6815C30.2006 33.8257 31.3055 33.8199 32.3942 33.6644L40.8424 32.4575L40.8424 32.6672L37.9776 35.2456L30.7561 34.8226Z" fill="#FF6666" stroke="#C56D6D" stroke-width="0.1"/>
<path d="M20.2264 32.5L27.7264 33.5L23.528 35.1276L20.2264 32.5Z" fill="#454545"/>
<path d="M40.9915 32.3L32.8703 33.4L37.5131 35.0846L40.9915 32.3Z" fill="#454545"/>
<path d="M23.5196 34.8936L20.2183 32.4728L28.0018 33.4225L23.5196 34.8936Z" fill="#FAFF00" stroke="#454545" stroke-width="0.1"/>
<path d="M37.4813 34.8789L40.8044 32.3782L33.091 33.5174L37.4813 34.8789Z" fill="#FAFF00" stroke="#454545" stroke-width="0.1"/>
<line x1="30.8265" y1="34.1" x2="30.8265" y2="34.6" stroke="#893A3A" stroke-width="0.2" stroke-linecap="round"/>
<path d="M27.1881 22.2L30.4645 22.2L33.7875 22.2L33.7408 24.1579L33.7398 24.2021L33.7575 24.2427L35.4286 28.0706L30.4645 31.3801L25.5003 28.0706L27.1714 24.2427L27.1881 24.2044V24.1626V22.2Z" fill="#FF6666" stroke="#454545" stroke-width="0.4"/>
<path d="M25.7379 24.0621L24.592 26.9268L6.83223 13.6855L25.7379 22.3437L25.7379 24.0621Z" fill="white" stroke="url(#paint0_linear)" stroke-width="0.4"/>
<path d="M35.2621 24.0621L36.408 26.9268L54.1678 13.6855L35.2621 22.3437L35.2621 24.0621Z" fill="white" stroke="url(#paint1_linear)" stroke-width="0.4"/>
<path d="M34.8 16.6792L33.9375 20.8H27.0625L26.2 16.6792V12.5833L30.6121 12.2008L34.8 12.5824V16.6792Z" fill="white" stroke="#454545" stroke-width="0.4"/>
<path d="M27.6436 16.3491L27.6436 13.5868L30.4687 14.1938L30.5125 14.2032L30.5552 14.1939L33.4281 13.563L33.428 16.33L33.0643 19.5424L28.1739 19.5637L27.6436 16.3491Z" fill="#F06868" stroke="#454545" stroke-width="0.4" stroke-linecap="round"/>
<line x1="20.7531" y1="37.6753" x2="22.6077" y2="36.7196" stroke="#454545" stroke-width="0.2" stroke-linecap="round" stroke-dasharray="2.2 0"/>
<line x1="27.0862" y1="27.7779" x2="28.7631" y2="26.9138" stroke="#454545" stroke-width="0.4" stroke-linecap="round"/>
<line x1="0.2" y1="-0.2" x2="2.0864" y2="-0.2" transform="matrix(-0.888931 -0.458041 -0.458041 0.888931 34.0325 28.0473)" stroke="#454545" stroke-width="0.4" stroke-linecap="round"/>
<line x1="0.1" y1="-0.1" x2="2.1864" y2="-0.1" transform="matrix(-0.888931 -0.458041 -0.458041 0.888931 40.34 37.81)" stroke="#454545" stroke-width="0.2" stroke-linecap="round" stroke-dasharray="2.2 0"/>
<path d="M48.0723 42V41.2891H48.3159C48.3963 41.2891 48.4575 41.3052 48.4995 41.3374C48.5415 41.3696 48.5625 41.4176 48.5625 41.4814C48.5625 41.514 48.5537 41.5433 48.5361 41.5693C48.5186 41.5954 48.4928 41.6156 48.459 41.6299C48.4974 41.6403 48.527 41.66 48.5479 41.689C48.569 41.7176 48.5796 41.7521 48.5796 41.7925C48.5796 41.8592 48.5581 41.9105 48.5151 41.9463C48.4725 41.9821 48.4113 42 48.3315 42H48.0723ZM48.1958 41.6792V41.9014H48.333C48.3717 41.9014 48.402 41.8918 48.4238 41.8726C48.4456 41.8534 48.4565 41.8267 48.4565 41.7925C48.4565 41.7186 48.4188 41.6808 48.3433 41.6792H48.1958ZM48.1958 41.5884H48.3169C48.3553 41.5884 48.3853 41.5798 48.4067 41.5625C48.4285 41.5449 48.4395 41.5202 48.4395 41.4883C48.4395 41.4531 48.4294 41.4277 48.4092 41.4121C48.3893 41.3965 48.3582 41.3887 48.3159 41.3887H48.1958V41.5884ZM48.8765 41.8301L48.9839 41.4717H49.1104L48.9004 42.0801C48.8682 42.1689 48.8135 42.2134 48.7363 42.2134C48.7191 42.2134 48.7 42.2104 48.6792 42.2046V42.1128L48.7017 42.1143C48.7316 42.1143 48.7541 42.1087 48.769 42.0977C48.7843 42.0869 48.7964 42.0687 48.8052 42.043L48.8223 41.9976L48.6367 41.4717H48.7646L48.8765 41.8301ZM49.2505 41.875C49.2726 41.875 49.2897 41.8813 49.3018 41.894C49.3138 41.9064 49.3198 41.922 49.3198 41.9409C49.3198 41.9595 49.3138 41.9749 49.3018 41.9873C49.2897 41.9993 49.2726 42.0054 49.2505 42.0054C49.2293 42.0054 49.2126 41.9993 49.2002 41.9873C49.1878 41.9753 49.1816 41.9598 49.1816 41.9409C49.1816 41.922 49.1877 41.9064 49.1997 41.894C49.2118 41.8813 49.2287 41.875 49.2505 41.875ZM49.2505 41.4604C49.2726 41.4604 49.2897 41.4668 49.3018 41.4795C49.3138 41.4919 49.3198 41.5075 49.3198 41.5264C49.3198 41.5449 49.3138 41.5604 49.3018 41.5728C49.2897 41.5848 49.2726 41.5908 49.2505 41.5908C49.2293 41.5908 49.2126 41.5848 49.2002 41.5728C49.1878 41.5607 49.1816 41.5452 49.1816 41.5264C49.1816 41.5075 49.1877 41.4919 49.1997 41.4795C49.2118 41.4668 49.2287 41.4604 49.2505 41.4604ZM49.9092 41.6929L49.8286 41.7783V42H49.7051V41.2891H49.8286V41.6226L49.897 41.5381L50.105 41.2891H50.2544L49.9902 41.604L50.2695 42H50.123L49.9092 41.6929ZM50.5444 42.0098C50.4692 42.0098 50.4082 41.9862 50.3613 41.939C50.3148 41.8914 50.2915 41.8283 50.2915 41.7495V41.7349C50.2915 41.6821 50.3016 41.6351 50.3218 41.5938C50.3423 41.5521 50.3709 41.5197 50.4077 41.4966C50.4445 41.4735 50.4855 41.4619 50.5308 41.4619C50.6027 41.4619 50.6582 41.4849 50.6973 41.5308C50.7367 41.5767 50.7563 41.6416 50.7563 41.7256V41.7734H50.4111C50.4147 41.8171 50.4292 41.8516 50.4546 41.877C50.4803 41.9023 50.5125 41.915 50.5513 41.915C50.6056 41.915 50.6499 41.8931 50.6841 41.8491L50.748 41.9102C50.7269 41.9417 50.6986 41.9663 50.6631 41.9839C50.6279 42.0011 50.5884 42.0098 50.5444 42.0098ZM50.5303 41.5571C50.4977 41.5571 50.4714 41.5685 50.4512 41.5913C50.4313 41.6141 50.4186 41.6458 50.4131 41.6865H50.6392V41.6777C50.6366 41.638 50.626 41.6081 50.6074 41.5879C50.5889 41.5674 50.5632 41.5571 50.5303 41.5571ZM51.0283 41.8496L51.1401 41.4717H51.2627L51.0796 42H50.9766L50.792 41.4717H50.915L51.0283 41.8496ZM51.4634 42H51.3447V41.4717H51.4634V42ZM51.3374 41.3345C51.3374 41.3162 51.3431 41.3011 51.3545 41.2891C51.3662 41.277 51.3828 41.271 51.4043 41.271C51.4258 41.271 51.4424 41.277 51.4541 41.2891C51.4658 41.3011 51.4717 41.3162 51.4717 41.3345C51.4717 41.3524 51.4658 41.3674 51.4541 41.3794C51.4424 41.3911 51.4258 41.397 51.4043 41.397C51.3828 41.397 51.3662 41.3911 51.3545 41.3794C51.3431 41.3674 51.3374 41.3524 51.3374 41.3345ZM51.7031 41.4717L51.7065 41.5327C51.7456 41.4855 51.7969 41.4619 51.8604 41.4619C51.9704 41.4619 52.0264 41.5249 52.0283 41.6509V42H51.9097V41.6577C51.9097 41.6242 51.9023 41.5994 51.8877 41.5835C51.8734 41.5672 51.8498 41.5591 51.8169 41.5591C51.769 41.5591 51.7334 41.5807 51.71 41.624V42H51.5913V41.4717H51.7031ZM52.8945 41.3887H52.6729V42H52.5503V41.3887H52.3306V41.2891H52.8945V41.3887ZM52.853 41.731C52.853 41.6792 52.8633 41.6326 52.8838 41.5913C52.9043 41.5496 52.9331 41.5177 52.9702 41.4956C53.0073 41.4731 53.05 41.4619 53.0981 41.4619C53.1694 41.4619 53.2272 41.4849 53.2715 41.5308C53.3161 41.5767 53.3402 41.6375 53.3438 41.7134L53.3442 41.7412C53.3442 41.7933 53.3341 41.8398 53.314 41.8809C53.2941 41.9219 53.2655 41.9536 53.228 41.9761C53.1909 41.9985 53.1479 42.0098 53.0991 42.0098C53.0246 42.0098 52.9648 41.985 52.9199 41.9355C52.8753 41.8857 52.853 41.8195 52.853 41.7368V41.731ZM52.9717 41.7412C52.9717 41.7956 52.9829 41.8382 53.0054 41.8691C53.0278 41.8997 53.0591 41.915 53.0991 41.915C53.1392 41.915 53.1702 41.8994 53.1924 41.8682C53.2148 41.8369 53.2261 41.7912 53.2261 41.731C53.2261 41.6776 53.2145 41.6353 53.1914 41.604C53.1686 41.5728 53.1375 41.5571 53.0981 41.5571C53.0594 41.5571 53.0286 41.5726 53.0059 41.6035C52.9831 41.6341 52.9717 41.68 52.9717 41.7412ZM53.9087 41.8364L53.9927 41.4717H54.1084L53.9644 42H53.8667L53.7534 41.6372L53.6421 42H53.5444L53.3999 41.4717H53.5156L53.6011 41.8325L53.7095 41.4717H53.7988L53.9087 41.8364ZM54.2979 41.4717L54.3013 41.5327C54.3403 41.4855 54.3916 41.4619 54.4551 41.4619C54.5651 41.4619 54.6211 41.5249 54.623 41.6509V42H54.5044V41.6577C54.5044 41.6242 54.4971 41.5994 54.4824 41.5835C54.4681 41.5672 54.4445 41.5591 54.4116 41.5591C54.3638 41.5591 54.3281 41.5807 54.3047 41.624V42H54.186V41.4717H54.2979ZM54.9771 42.0098C54.9019 42.0098 54.8408 41.9862 54.7939 41.939C54.7474 41.8914 54.7241 41.8283 54.7241 41.7495V41.7349C54.7241 41.6821 54.7342 41.6351 54.7544 41.5938C54.7749 41.5521 54.8035 41.5197 54.8403 41.4966C54.8771 41.4735 54.9181 41.4619 54.9634 41.4619C55.0353 41.4619 55.0908 41.4849 55.1299 41.5308C55.1693 41.5767 55.189 41.6416 55.189 41.7256V41.7734H54.8438C54.8473 41.8171 54.8618 41.8516 54.8872 41.877C54.9129 41.9023 54.9451 41.915 54.9839 41.915C55.0382 41.915 55.0825 41.8931 55.1167 41.8491L55.1807 41.9102C55.1595 41.9417 55.1312 41.9663 55.0957 41.9839C55.0605 42.0011 55.021 42.0098 54.9771 42.0098ZM54.9629 41.5571C54.9303 41.5571 54.904 41.5685 54.8838 41.5913C54.8639 41.6141 54.8512 41.6458 54.8457 41.6865H55.0718V41.6777C55.0692 41.638 55.0586 41.6081 55.04 41.5879C55.0215 41.5674 54.9958 41.5571 54.9629 41.5571ZM55.5581 41.5801C55.5425 41.5775 55.5264 41.5762 55.5098 41.5762C55.4554 41.5762 55.4188 41.597 55.3999 41.6387V42H55.2812V41.4717H55.3945L55.3975 41.5308C55.4261 41.4849 55.4658 41.4619 55.5166 41.4619C55.5335 41.4619 55.5475 41.4642 55.5586 41.4688L55.5581 41.5801Z" fill="#888888"/>
<path d="M4.1958 36.7358V37H4.07227V36.2891H4.34424C4.42367 36.2891 4.48665 36.3097 4.5332 36.3511C4.58008 36.3924 4.60352 36.4471 4.60352 36.5151C4.60352 36.5848 4.58057 36.639 4.53467 36.6777C4.4891 36.7165 4.42513 36.7358 4.34277 36.7358H4.1958ZM4.1958 36.6367H4.34424C4.38818 36.6367 4.42171 36.6265 4.44482 36.606C4.46794 36.5851 4.47949 36.5552 4.47949 36.5161C4.47949 36.4777 4.46777 36.4471 4.44434 36.4243C4.4209 36.4012 4.38867 36.3893 4.34766 36.3887H4.1958V36.6367ZM4.97705 36.5801C4.96143 36.5775 4.94531 36.5762 4.92871 36.5762C4.87435 36.5762 4.83773 36.597 4.81885 36.6387V37H4.7002V36.4717H4.81348L4.81641 36.5308C4.84505 36.4849 4.88477 36.4619 4.93555 36.4619C4.95247 36.4619 4.96647 36.4642 4.97754 36.4688L4.97705 36.5801ZM5.01221 36.731C5.01221 36.6792 5.02246 36.6326 5.04297 36.5913C5.06348 36.5496 5.09229 36.5177 5.12939 36.4956C5.1665 36.4731 5.20915 36.4619 5.25732 36.4619C5.32861 36.4619 5.38639 36.4849 5.43066 36.5308C5.47526 36.5767 5.49935 36.6375 5.50293 36.7134L5.50342 36.7412C5.50342 36.7933 5.49333 36.8398 5.47314 36.8809C5.45329 36.9219 5.42464 36.9536 5.38721 36.9761C5.3501 36.9985 5.30713 37.0098 5.2583 37.0098C5.18376 37.0098 5.12402 36.985 5.0791 36.9355C5.03451 36.8857 5.01221 36.8195 5.01221 36.7368V36.731ZM5.13086 36.7412C5.13086 36.7956 5.14209 36.8382 5.16455 36.8691C5.18701 36.8997 5.21826 36.915 5.2583 36.915C5.29834 36.915 5.32943 36.8994 5.35156 36.8682C5.37402 36.8369 5.38525 36.7912 5.38525 36.731C5.38525 36.6776 5.3737 36.6353 5.35059 36.604C5.3278 36.5728 5.29671 36.5571 5.25732 36.5571C5.21859 36.5571 5.18783 36.5726 5.16504 36.6035C5.14225 36.6341 5.13086 36.68 5.13086 36.7412ZM5.75244 36.3433V36.4717H5.8457V36.5596H5.75244V36.8545C5.75244 36.8747 5.75635 36.8893 5.76416 36.8984C5.7723 36.9072 5.78662 36.9116 5.80713 36.9116C5.8208 36.9116 5.83464 36.91 5.84863 36.9067V36.9985C5.82161 37.006 5.79557 37.0098 5.77051 37.0098C5.67936 37.0098 5.63379 36.9595 5.63379 36.8589V36.5596H5.54688V36.4717H5.63379V36.3433H5.75244ZM5.8999 36.731C5.8999 36.6792 5.91016 36.6326 5.93066 36.5913C5.95117 36.5496 5.97998 36.5177 6.01709 36.4956C6.0542 36.4731 6.09684 36.4619 6.14502 36.4619C6.21631 36.4619 6.27409 36.4849 6.31836 36.5308C6.36296 36.5767 6.38704 36.6375 6.39062 36.7134L6.39111 36.7412C6.39111 36.7933 6.38102 36.8398 6.36084 36.8809C6.34098 36.9219 6.31234 36.9536 6.2749 36.9761C6.23779 36.9985 6.19482 37.0098 6.146 37.0098C6.07145 37.0098 6.01172 36.985 5.9668 36.9355C5.9222 36.8857 5.8999 36.8195 5.8999 36.7368V36.731ZM6.01855 36.7412C6.01855 36.7956 6.02979 36.8382 6.05225 36.8691C6.07471 36.8997 6.10596 36.915 6.146 36.915C6.18604 36.915 6.21712 36.8994 6.23926 36.8682C6.26172 36.8369 6.27295 36.7912 6.27295 36.731C6.27295 36.6776 6.26139 36.6353 6.23828 36.604C6.21549 36.5728 6.18441 36.5571 6.14502 36.5571C6.10628 36.5571 6.07552 36.5726 6.05273 36.6035C6.02995 36.6341 6.01855 36.68 6.01855 36.7412ZM6.64014 36.3433V36.4717H6.7334V36.5596H6.64014V36.8545C6.64014 36.8747 6.64404 36.8893 6.65186 36.8984C6.65999 36.9072 6.67432 36.9116 6.69482 36.9116C6.7085 36.9116 6.72233 36.91 6.73633 36.9067V36.9985C6.70931 37.006 6.68327 37.0098 6.6582 37.0098C6.56706 37.0098 6.52148 36.9595 6.52148 36.8589V36.5596H6.43457V36.4717H6.52148V36.3433H6.64014ZM7.00928 36.8301L7.1167 36.4717H7.24316L7.0332 37.0801C7.00098 37.1689 6.94629 37.2134 6.86914 37.2134C6.85189 37.2134 6.83285 37.2104 6.81201 37.2046V37.1128L6.83447 37.1143C6.86442 37.1143 6.88688 37.1087 6.90186 37.0977C6.91715 37.0869 6.9292 37.0687 6.93799 37.043L6.95508 36.9976L6.76953 36.4717H6.89746L7.00928 36.8301ZM7.77441 36.7412C7.77441 36.8229 7.75586 36.8882 7.71875 36.937C7.68164 36.9855 7.63184 37.0098 7.56934 37.0098C7.51139 37.0098 7.46501 36.9907 7.43018 36.9526V37.2031H7.31152V36.4717H7.4209L7.42578 36.5254C7.46061 36.4831 7.50798 36.4619 7.56787 36.4619C7.63232 36.4619 7.68278 36.486 7.71924 36.5342C7.75602 36.582 7.77441 36.6486 7.77441 36.7339V36.7412ZM7.65625 36.731C7.65625 36.6782 7.64567 36.6364 7.62451 36.6055C7.60368 36.5745 7.57373 36.5591 7.53467 36.5591C7.48617 36.5591 7.45133 36.5791 7.43018 36.6191V36.8535C7.45166 36.8945 7.48682 36.915 7.53564 36.915C7.5734 36.915 7.60286 36.8999 7.62402 36.8696C7.64551 36.839 7.65625 36.7928 7.65625 36.731ZM8.10791 37.0098C8.03271 37.0098 7.97168 36.9862 7.9248 36.939C7.87826 36.8914 7.85498 36.8283 7.85498 36.7495V36.7349C7.85498 36.6821 7.86507 36.6351 7.88525 36.5938C7.90576 36.5521 7.93441 36.5197 7.97119 36.4966C8.00798 36.4735 8.04899 36.4619 8.09424 36.4619C8.16618 36.4619 8.22168 36.4849 8.26074 36.5308C8.30013 36.5767 8.31982 36.6416 8.31982 36.7256V36.7734H7.97461C7.97819 36.8171 7.99268 36.8516 8.01807 36.877C8.04378 36.9023 8.07601 36.915 8.11475 36.915C8.16911 36.915 8.21338 36.8931 8.24756 36.8491L8.31152 36.9102C8.29036 36.9417 8.26204 36.9663 8.22656 36.9839C8.19141 37.0011 8.15186 37.0098 8.10791 37.0098ZM8.09375 36.5571C8.0612 36.5571 8.03483 36.5685 8.01465 36.5913C7.99479 36.6141 7.9821 36.6458 7.97656 36.6865H8.20264V36.6777C8.20003 36.638 8.18945 36.6081 8.1709 36.5879C8.15234 36.5674 8.12663 36.5571 8.09375 36.5571ZM8.93408 36.7261H8.79639V37H8.67285V36.2891H8.92285C9.00488 36.2891 9.0682 36.3075 9.11279 36.3442C9.15739 36.381 9.17969 36.4342 9.17969 36.5039C9.17969 36.5514 9.16813 36.5913 9.14502 36.6235C9.12223 36.6554 9.09033 36.68 9.04932 36.6973L9.20898 36.9937V37H9.07666L8.93408 36.7261ZM8.79639 36.627H8.92334C8.96501 36.627 8.99756 36.6165 9.021 36.5957C9.04443 36.5745 9.05615 36.5457 9.05615 36.5093C9.05615 36.4712 9.04525 36.4417 9.02344 36.4209C9.00195 36.4001 8.96973 36.3893 8.92676 36.3887H8.79639V36.627ZM9.5415 36.5459L9.69092 36.2891H9.8335L9.61865 36.6416L9.83838 37H9.69434L9.5415 36.7393L9.38818 37H9.24463L9.46484 36.6416L9.24951 36.2891H9.39209L9.5415 36.5459ZM10.0723 36.7456H9.81592V36.6499H10.0723V36.7456ZM10.6357 36.355L10.3516 37H10.2271L10.5107 36.3843H10.1431V36.2891H10.6357V36.355ZM11.1787 36.4766C11.1787 36.5114 11.1698 36.5425 11.1519 36.5698C11.134 36.5968 11.1095 36.6182 11.0786 36.6338C11.1157 36.651 11.1442 36.6746 11.1641 36.7046C11.1842 36.7345 11.1943 36.7684 11.1943 36.8062C11.1943 36.8687 11.1732 36.9183 11.1309 36.9551C11.0885 36.9915 11.0322 37.0098 10.9619 37.0098C10.8913 37.0098 10.8346 36.9914 10.792 36.9546C10.7497 36.9178 10.7285 36.8683 10.7285 36.8062C10.7285 36.7681 10.7386 36.7339 10.7588 36.7036C10.779 36.6733 10.8073 36.6501 10.8438 36.6338C10.8132 36.6182 10.7889 36.5968 10.771 36.5698C10.7534 36.5425 10.7446 36.5114 10.7446 36.4766C10.7446 36.416 10.7642 36.368 10.8032 36.3325C10.8423 36.297 10.895 36.2793 10.9614 36.2793C11.0282 36.2793 11.0811 36.297 11.1201 36.3325C11.1592 36.368 11.1787 36.416 11.1787 36.4766ZM11.0757 36.8003C11.0757 36.7651 11.0651 36.7368 11.0439 36.7153C11.0231 36.6935 10.9954 36.6826 10.9609 36.6826C10.9264 36.6826 10.8988 36.6934 10.8779 36.7148C10.8574 36.7363 10.8472 36.7648 10.8472 36.8003C10.8472 36.8351 10.8573 36.863 10.8774 36.8838C10.8979 36.9046 10.9261 36.915 10.9619 36.915C10.9977 36.915 11.0256 36.9049 11.0454 36.8848C11.0656 36.8646 11.0757 36.8364 11.0757 36.8003ZM11.0605 36.481C11.0605 36.45 11.0516 36.4246 11.0337 36.4048C11.0158 36.3846 10.9917 36.3745 10.9614 36.3745C10.9312 36.3745 10.9072 36.3841 10.8896 36.4033C10.8721 36.4222 10.8633 36.4481 10.8633 36.481C10.8633 36.5135 10.8721 36.5394 10.8896 36.5586C10.9076 36.5778 10.9316 36.5874 10.9619 36.5874C10.9922 36.5874 11.0161 36.5778 11.0337 36.5586C11.0516 36.5394 11.0605 36.5135 11.0605 36.481ZM11.5371 36.7456H11.2808V36.6499H11.5371V36.7456ZM12.1055 37H11.6274V36.9185L11.8643 36.6602C11.8984 36.6221 11.9227 36.5903 11.937 36.5649C11.9517 36.5392 11.959 36.5135 11.959 36.4878C11.959 36.4539 11.9494 36.4266 11.9302 36.4058C11.9113 36.3849 11.8857 36.3745 11.8535 36.3745C11.8151 36.3745 11.7853 36.3862 11.7642 36.4097C11.743 36.4331 11.7324 36.4652 11.7324 36.5059H11.6138C11.6138 36.4626 11.6235 36.4237 11.6431 36.3892C11.6629 36.3543 11.6911 36.3273 11.7275 36.3081C11.7643 36.2889 11.8066 36.2793 11.8545 36.2793C11.9235 36.2793 11.9779 36.2967 12.0176 36.3315C12.0576 36.366 12.0776 36.4139 12.0776 36.4751C12.0776 36.5106 12.0675 36.5479 12.0474 36.5869C12.0275 36.6257 11.9948 36.6698 11.9492 36.7192L11.7754 36.9053H12.1055V37Z" fill="white"/>
<path d="M4.47021 38.8345H4.19482L4.13721 39H4.00879L4.27734 38.2891H4.38818L4.65723 39H4.52832L4.47021 38.8345ZM4.22949 38.7349H4.43555L4.33252 38.4399L4.22949 38.7349ZM4.81494 38.4717L4.81836 38.5269C4.85547 38.4836 4.90625 38.4619 4.9707 38.4619C5.04134 38.4619 5.08968 38.4889 5.11572 38.543C5.15413 38.4889 5.20817 38.4619 5.27783 38.4619C5.3361 38.4619 5.37939 38.478 5.40771 38.5103C5.43636 38.5425 5.45101 38.59 5.45166 38.6528V39H5.33301V38.6562C5.33301 38.6227 5.32568 38.5981 5.31104 38.5825C5.29639 38.5669 5.27214 38.5591 5.23828 38.5591C5.21126 38.5591 5.18913 38.5664 5.17188 38.5811C5.15495 38.5954 5.14307 38.6143 5.13623 38.6377L5.13672 39H5.01807V38.6523C5.01644 38.5902 4.9847 38.5591 4.92285 38.5591C4.87533 38.5591 4.84163 38.5785 4.82178 38.6172V39H4.70312V38.4717H4.81494ZM5.89355 38.9482C5.85872 38.9893 5.80924 39.0098 5.74512 39.0098C5.68783 39.0098 5.64437 38.993 5.61475 38.9595C5.58545 38.9259 5.5708 38.8774 5.5708 38.814V38.4717H5.68945V38.8125C5.68945 38.8796 5.71729 38.9131 5.77295 38.9131C5.83057 38.9131 5.86947 38.8924 5.88965 38.8511V38.4717H6.0083V39H5.89648L5.89355 38.9482ZM6.40576 38.5801C6.39014 38.5775 6.37402 38.5762 6.35742 38.5762C6.30306 38.5762 6.26644 38.597 6.24756 38.6387V39H6.12891V38.4717H6.24219L6.24512 38.5308C6.27376 38.4849 6.31348 38.4619 6.36426 38.4619C6.38118 38.4619 6.39518 38.4642 6.40625 38.4688L6.40576 38.5801ZM6.44092 38.731C6.44092 38.6792 6.45117 38.6326 6.47168 38.5913C6.49219 38.5496 6.521 38.5177 6.55811 38.4956C6.59521 38.4731 6.63786 38.4619 6.68604 38.4619C6.75732 38.4619 6.8151 38.4849 6.85938 38.5308C6.90397 38.5767 6.92806 38.6375 6.93164 38.7134L6.93213 38.7412C6.93213 38.7933 6.92204 38.8398 6.90186 38.8809C6.882 38.9219 6.85335 38.9536 6.81592 38.9761C6.77881 38.9985 6.73584 39.0098 6.68701 39.0098C6.61247 39.0098 6.55273 38.985 6.50781 38.9355C6.46322 38.8857 6.44092 38.8195 6.44092 38.7368V38.731ZM6.55957 38.7412C6.55957 38.7956 6.5708 38.8382 6.59326 38.8691C6.61572 38.8997 6.64697 38.915 6.68701 38.915C6.72705 38.915 6.75814 38.8994 6.78027 38.8682C6.80273 38.8369 6.81396 38.7912 6.81396 38.731C6.81396 38.6776 6.80241 38.6353 6.7793 38.604C6.75651 38.5728 6.72542 38.5571 6.68604 38.5571C6.6473 38.5571 6.61654 38.5726 6.59375 38.6035C6.57096 38.6341 6.55957 38.68 6.55957 38.7412ZM7.5542 38.7261H7.4165V39H7.29297V38.2891H7.54297C7.625 38.2891 7.68831 38.3075 7.73291 38.3442C7.77751 38.381 7.7998 38.4342 7.7998 38.5039C7.7998 38.5514 7.78825 38.5913 7.76514 38.6235C7.74235 38.6554 7.71045 38.68 7.66943 38.6973L7.8291 38.9937V39H7.69678L7.5542 38.7261ZM7.4165 38.627H7.54346C7.58512 38.627 7.61768 38.6165 7.64111 38.5957C7.66455 38.5745 7.67627 38.5457 7.67627 38.5093C7.67627 38.4712 7.66536 38.4417 7.64355 38.4209C7.62207 38.4001 7.58984 38.3893 7.54688 38.3887H7.4165V38.627ZM8.22119 39C8.21598 38.9899 8.21143 38.9735 8.20752 38.9507C8.16976 38.9901 8.12354 39.0098 8.06885 39.0098C8.01579 39.0098 7.97249 38.9946 7.93896 38.9644C7.90544 38.9341 7.88867 38.8966 7.88867 38.8521C7.88867 38.7957 7.90951 38.7526 7.95117 38.7227C7.99316 38.6924 8.05306 38.6772 8.13086 38.6772H8.20361V38.6426C8.20361 38.6152 8.19596 38.5934 8.18066 38.5771C8.16536 38.5605 8.14209 38.5522 8.11084 38.5522C8.08382 38.5522 8.06169 38.5591 8.04443 38.5728C8.02718 38.5861 8.01855 38.6032 8.01855 38.624H7.8999C7.8999 38.5951 7.90951 38.568 7.92871 38.543C7.94792 38.5176 7.97396 38.4977 8.00684 38.4834C8.04004 38.4691 8.07699 38.4619 8.11768 38.4619C8.17952 38.4619 8.22884 38.4775 8.26562 38.5088C8.30241 38.5397 8.32129 38.5833 8.32227 38.6396V38.8779C8.32227 38.9255 8.32894 38.9634 8.34229 38.9917V39H8.22119ZM8.09082 38.9146C8.11426 38.9146 8.13623 38.9089 8.15674 38.8975C8.17757 38.8861 8.1932 38.8708 8.20361 38.8516V38.752H8.13965C8.0957 38.752 8.06266 38.7596 8.04053 38.7749C8.01839 38.7902 8.00732 38.8118 8.00732 38.8398C8.00732 38.8626 8.01481 38.8809 8.02979 38.8945C8.04508 38.9079 8.06543 38.9146 8.09082 38.9146ZM8.62354 38.8301L8.73096 38.4717H8.85742L8.64746 39.0801C8.61523 39.1689 8.56055 39.2134 8.4834 39.2134C8.46615 39.2134 8.4471 39.2104 8.42627 39.2046V39.1128L8.44873 39.1143C8.47868 39.1143 8.50114 39.1087 8.51611 39.0977C8.53141 39.0869 8.54346 39.0687 8.55225 39.043L8.56934 38.9976L8.38379 38.4717H8.51172L8.62354 38.8301Z" fill="white"/>
<defs>
<linearGradient id="paint0_linear" x1="8.11983" y1="9.85898" x2="24.916" y2="27.0127" gradientUnits="userSpaceOnUse">
<stop stop-color="#AAAAAA"/>
<stop offset="0.569391" stop-color="#454545"/>
</linearGradient>
<linearGradient id="paint1_linear" x1="52.8802" y1="9.85898" x2="36.084" y2="27.0127" gradientUnits="userSpaceOnUse">
<stop stop-color="#DDDDDD"/>
<stop offset="0.392305" stop-color="#454545"/>
</linearGradient>
</defs>
</svg>
